G04 #@! TF.GenerationSoftware,KiCad,Pcbnew,5.0.0*
G04 #@! TF.CreationDate,2018-07-31T16:24:44+02:00*
G04 #@! TF.ProjectId,HB-UNI-Sen-WEA,48422D554E492D53656E2D5745412E6B,1.0*
G04 #@! TF.SameCoordinates,Original*
G04 #@! TF.FileFunction,Copper,L1,Top,Signal*
G04 #@! TF.FilePolarity,Positive*
%FSLAX46Y46*%
G04 Gerber Fmt 4.6, Leading zero omitted, Abs format (unit mm)*
G04 Created by KiCad (PCBNEW 5.0.0) date Tue Jul 31 16:24:44 2018*
%MOMM*%
%LPD*%
G01*
G04 APERTURE LIST*
G04 #@! TA.AperFunction,ComponentPad*
%ADD10C,4.400000*%
G04 #@! TD*
G04 #@! TA.AperFunction,ComponentPad*
%ADD11C,0.700000*%
G04 #@! TD*
G04 #@! TA.AperFunction,ComponentPad*
%ADD12C,1.800000*%
G04 #@! TD*
G04 #@! TA.AperFunction,ComponentPad*
%ADD13C,1.600000*%
G04 #@! TD*
G04 #@! TA.AperFunction,ComponentPad*
%ADD14R,1.700000X1.700000*%
G04 #@! TD*
G04 #@! TA.AperFunction,ComponentPad*
%ADD15O,1.700000X1.700000*%
G04 #@! TD*
G04 #@! TA.AperFunction,ComponentPad*
%ADD16O,1.600000X1.600000*%
G04 #@! TD*
G04 #@! TA.AperFunction,ComponentPad*
%ADD17C,2.000000*%
G04 #@! TD*
G04 #@! TA.AperFunction,ComponentPad*
%ADD18C,1.350000*%
G04 #@! TD*
G04 #@! TA.AperFunction,ConnectorPad*
%ADD19R,1.800000X1.350000*%
G04 #@! TD*
G04 #@! TA.AperFunction,Conductor*
%ADD20C,0.100000*%
G04 #@! TD*
G04 #@! TA.AperFunction,ComponentPad*
%ADD21C,1.100000*%
G04 #@! TD*
G04 #@! TA.AperFunction,ComponentPad*
%ADD22R,1.100000X1.800000*%
G04 #@! TD*
G04 #@! TA.AperFunction,ViaPad*
%ADD23C,0.800000*%
G04 #@! TD*
G04 #@! TA.AperFunction,Conductor*
%ADD24C,0.250000*%
G04 #@! TD*
G04 #@! TA.AperFunction,Conductor*
%ADD25C,0.254000*%
G04 #@! TD*
G04 APERTURE END LIST*
D10*
G04 #@! TO.P,REF\002A\002A,1*
G04 #@! TO.N,N/C*
X166370000Y-105410000D03*
D11*
X168020000Y-105410000D03*
X167536726Y-106576726D03*
X166370000Y-107060000D03*
X165203274Y-106576726D03*
X164720000Y-105410000D03*
X165203274Y-104243274D03*
X166370000Y-103760000D03*
X167536726Y-104243274D03*
G04 #@! TD*
D12*
G04 #@! TO.P,U1,28*
G04 #@! TO.N,Net-(U1-Pad28)*
X143510000Y-90170000D03*
G04 #@! TO.P,U1,27*
G04 #@! TO.N,Net-(U1-Pad27)*
X146050000Y-90170000D03*
X152400000Y-92710000D03*
G04 #@! TO.P,U1,28*
G04 #@! TO.N,Net-(U1-Pad28)*
X152400000Y-90170000D03*
G04 #@! TO.P,U1,1*
G04 #@! TO.N,/SS*
X152400000Y-87630000D03*
G04 #@! TO.P,U1,2*
G04 #@! TO.N,/MOSI*
X149860000Y-87630000D03*
G04 #@! TO.P,U1,3*
G04 #@! TO.N,/MISO*
X147320000Y-87630000D03*
G04 #@! TO.P,U1,4*
G04 #@! TO.N,/SCK*
X144780000Y-87630000D03*
G04 #@! TO.P,U1,5*
G04 #@! TO.N,Net-(U1-Pad5)*
X142240000Y-87630000D03*
G04 #@! TO.P,U1,6*
G04 #@! TO.N,Net-(U1-Pad6)*
X139700000Y-87630000D03*
G04 #@! TO.P,U1,7*
G04 #@! TO.N,/A2*
X137160000Y-87630000D03*
G04 #@! TO.P,U1,8*
G04 #@! TO.N,/A3*
X134620000Y-87630000D03*
G04 #@! TO.P,U1,9*
G04 #@! TO.N,/VCC*
X132080000Y-87630000D03*
G04 #@! TO.P,U1,10*
G04 #@! TO.N,/RSET*
X129540000Y-87630000D03*
G04 #@! TO.P,U1,11*
G04 #@! TO.N,GND*
X127000000Y-87630000D03*
G04 #@! TO.P,U1,12*
G04 #@! TO.N,+5V*
X124460000Y-87630000D03*
G04 #@! TO.P,U1,13*
G04 #@! TO.N,N/C*
X124460000Y-102870000D03*
G04 #@! TO.P,U1,14*
X127000000Y-102870000D03*
G04 #@! TO.P,U1,15*
X129540000Y-102870000D03*
G04 #@! TO.P,U1,16*
G04 #@! TO.N,GND*
X132080000Y-102870000D03*
G04 #@! TO.P,U1,17*
G04 #@! TO.N,/D2*
X134620000Y-102870000D03*
G04 #@! TO.P,U1,18*
G04 #@! TO.N,/D3*
X137160000Y-102870000D03*
G04 #@! TO.P,U1,19*
G04 #@! TO.N,/D4*
X139700000Y-102870000D03*
G04 #@! TO.P,U1,20*
G04 #@! TO.N,/D5*
X142240000Y-102870000D03*
G04 #@! TO.P,U1,21*
G04 #@! TO.N,/D6*
X144780000Y-102870000D03*
G04 #@! TO.P,U1,22*
G04 #@! TO.N,/D7*
X147320000Y-102870000D03*
G04 #@! TO.P,U1,23*
G04 #@! TO.N,/D8*
X149860000Y-102870000D03*
G04 #@! TO.P,U1,24*
G04 #@! TO.N,/D9*
X152400000Y-102870000D03*
G04 #@! TO.P,U1,25*
G04 #@! TO.N,/SDA*
X135890000Y-90170000D03*
G04 #@! TO.P,U1,26*
G04 #@! TO.N,/SCL*
X133350000Y-90170000D03*
G04 #@! TD*
D13*
G04 #@! TO.P,C1,1*
G04 #@! TO.N,/B*
X135890000Y-114300000D03*
G04 #@! TO.P,C1,2*
G04 #@! TO.N,/A3*
X138390000Y-114300000D03*
G04 #@! TD*
G04 #@! TO.P,C2,2*
G04 #@! TO.N,/D5*
X128230000Y-73660000D03*
G04 #@! TO.P,C2,1*
G04 #@! TO.N,GND*
X125730000Y-73660000D03*
G04 #@! TD*
G04 #@! TO.P,C3,1*
G04 #@! TO.N,GND*
X125730000Y-76200000D03*
G04 #@! TO.P,C3,2*
G04 #@! TO.N,/D6*
X128230000Y-76200000D03*
G04 #@! TD*
D14*
G04 #@! TO.P,J1,1*
G04 #@! TO.N,GND*
X124460000Y-116840000D03*
D15*
G04 #@! TO.P,J1,2*
G04 #@! TO.N,/B*
X124460000Y-114300000D03*
G04 #@! TO.P,J1,3*
G04 #@! TO.N,/C*
X124460000Y-111760000D03*
G04 #@! TO.P,J1,4*
G04 #@! TO.N,+5V*
X124460000Y-109220000D03*
G04 #@! TD*
G04 #@! TO.P,J2,4*
G04 #@! TO.N,/RSET*
X160020000Y-95250000D03*
G04 #@! TO.P,J2,3*
G04 #@! TO.N,/MISO*
X160020000Y-92710000D03*
G04 #@! TO.P,J2,2*
G04 #@! TO.N,/SCK*
X160020000Y-90170000D03*
D14*
G04 #@! TO.P,J2,1*
G04 #@! TO.N,/MOSI*
X160020000Y-87630000D03*
G04 #@! TD*
G04 #@! TO.P,J3,1*
G04 #@! TO.N,/A2*
X153670000Y-80010000D03*
D15*
G04 #@! TO.P,J3,2*
G04 #@! TO.N,GND*
X151130000Y-80010000D03*
G04 #@! TD*
D14*
G04 #@! TO.P,J4,1*
G04 #@! TO.N,/VCC*
X125730000Y-68580000D03*
D15*
G04 #@! TO.P,J4,2*
G04 #@! TO.N,GND*
X128270000Y-68580000D03*
G04 #@! TO.P,J4,3*
G04 #@! TO.N,/SCL*
X130810000Y-68580000D03*
G04 #@! TO.P,J4,4*
G04 #@! TO.N,/SDA*
X133350000Y-68580000D03*
G04 #@! TD*
D14*
G04 #@! TO.P,J5,1*
G04 #@! TO.N,GND*
X157480000Y-114300000D03*
D15*
G04 #@! TO.P,J5,2*
X160020000Y-114300000D03*
G04 #@! TO.P,J5,3*
X162560000Y-114300000D03*
G04 #@! TO.P,J5,4*
G04 #@! TO.N,/D3*
X165100000Y-114300000D03*
G04 #@! TO.P,J5,5*
G04 #@! TO.N,GND*
X167640000Y-114300000D03*
G04 #@! TO.P,J5,6*
G04 #@! TO.N,/D7*
X170180000Y-114300000D03*
G04 #@! TO.P,J5,7*
G04 #@! TO.N,/MISO*
X172720000Y-114300000D03*
G04 #@! TO.P,J5,8*
G04 #@! TO.N,/MOSI*
X175260000Y-114300000D03*
G04 #@! TO.P,J5,9*
G04 #@! TO.N,/SCK*
X177800000Y-114300000D03*
G04 #@! TO.P,J5,10*
G04 #@! TO.N,GND*
X180340000Y-114300000D03*
G04 #@! TO.P,J5,11*
G04 #@! TO.N,/VCC*
X182880000Y-114300000D03*
G04 #@! TD*
G04 #@! TO.P,J6,2*
G04 #@! TO.N,GND*
X138430000Y-80010000D03*
D14*
G04 #@! TO.P,J6,1*
G04 #@! TO.N,Net-(J6-Pad1)*
X140970000Y-80010000D03*
G04 #@! TD*
G04 #@! TO.P,J7,1*
G04 #@! TO.N,Net-(J7-Pad1)*
X128270000Y-80010000D03*
D15*
G04 #@! TO.P,J7,2*
G04 #@! TO.N,GND*
X125730000Y-80010000D03*
G04 #@! TD*
G04 #@! TO.P,J8,4*
G04 #@! TO.N,/SDA*
X153670000Y-68580000D03*
G04 #@! TO.P,J8,3*
G04 #@! TO.N,/SCL*
X151130000Y-68580000D03*
G04 #@! TO.P,J8,2*
G04 #@! TO.N,GND*
X148590000Y-68580000D03*
D14*
G04 #@! TO.P,J8,1*
G04 #@! TO.N,/VCC*
X146050000Y-68580000D03*
G04 #@! TD*
G04 #@! TO.P,J9,1*
G04 #@! TO.N,/VCC*
X166370000Y-68580000D03*
D15*
G04 #@! TO.P,J9,2*
G04 #@! TO.N,GND*
X168910000Y-68580000D03*
G04 #@! TO.P,J9,3*
G04 #@! TO.N,/SCL*
X171450000Y-68580000D03*
G04 #@! TO.P,J9,4*
G04 #@! TO.N,/SDA*
X173990000Y-68580000D03*
G04 #@! TD*
D13*
G04 #@! TO.P,R1,1*
G04 #@! TO.N,/A3*
X128270000Y-109220000D03*
D16*
G04 #@! TO.P,R1,2*
G04 #@! TO.N,/D4*
X138430000Y-109220000D03*
G04 #@! TD*
G04 #@! TO.P,R2,2*
G04 #@! TO.N,/D9*
X152400000Y-109220000D03*
D13*
G04 #@! TO.P,R2,1*
G04 #@! TO.N,Net-(Q1-Pad2)*
X142240000Y-109220000D03*
G04 #@! TD*
D16*
G04 #@! TO.P,R3,2*
G04 #@! TO.N,/D5*
X134620000Y-74930000D03*
D13*
G04 #@! TO.P,R3,1*
G04 #@! TO.N,Net-(J6-Pad1)*
X144780000Y-74930000D03*
G04 #@! TD*
G04 #@! TO.P,R4,1*
G04 #@! TO.N,Net-(J7-Pad1)*
X157480000Y-74930000D03*
D16*
G04 #@! TO.P,R4,2*
G04 #@! TO.N,/D6*
X147320000Y-74930000D03*
G04 #@! TD*
D17*
G04 #@! TO.P,SW1,2*
G04 #@! TO.N,GND*
X182880000Y-104720000D03*
G04 #@! TO.P,SW1,1*
G04 #@! TO.N,/D8*
X182880000Y-109220000D03*
G04 #@! TO.P,SW1,2*
G04 #@! TO.N,GND*
X176380000Y-104720000D03*
G04 #@! TO.P,SW1,1*
G04 #@! TO.N,/D8*
X176380000Y-109220000D03*
G04 #@! TD*
D18*
G04 #@! TO.P,U2,8*
G04 #@! TO.N,/SS*
X167600000Y-99320000D03*
D19*
X166600000Y-99320000D03*
D18*
G04 #@! TO.P,U2,1*
G04 #@! TO.N,/VCC*
X167600000Y-85320000D03*
G04 #@! TO.P,U2,2*
G04 #@! TO.N,GND*
X167600000Y-87320000D03*
G04 #@! TO.P,U2,3*
G04 #@! TO.N,/MOSI*
X167600000Y-89320000D03*
G04 #@! TO.P,U2,4*
G04 #@! TO.N,/SCK*
X167600000Y-91320000D03*
G04 #@! TO.P,U2,5*
G04 #@! TO.N,/MISO*
X167600000Y-93320000D03*
G04 #@! TO.P,U2,6*
G04 #@! TO.N,Net-(U2-Pad6)*
X167600000Y-95320000D03*
G04 #@! TO.P,U2,7*
G04 #@! TO.N,/D2*
X167600000Y-97320000D03*
D19*
G04 #@! TO.P,U2,1*
G04 #@! TO.N,/VCC*
X166600000Y-85320000D03*
G04 #@! TO.P,U2,2*
G04 #@! TO.N,GND*
X166600000Y-87320000D03*
G04 #@! TO.P,U2,3*
G04 #@! TO.N,/MOSI*
X166600000Y-89320000D03*
G04 #@! TO.P,U2,4*
G04 #@! TO.N,/SCK*
X166600000Y-91320000D03*
G04 #@! TO.P,U2,5*
G04 #@! TO.N,/MISO*
X166600000Y-93320000D03*
G04 #@! TO.P,U2,6*
G04 #@! TO.N,Net-(U2-Pad6)*
X166600000Y-95320000D03*
G04 #@! TO.P,U2,7*
G04 #@! TO.N,/D2*
X166600000Y-97320000D03*
G04 #@! TD*
D20*
G04 #@! TO.N,Net-(Q1-Pad2)*
G04 #@! TO.C,Q1*
G36*
X143811955Y-115071324D02*
X143838650Y-115075284D01*
X143864828Y-115081841D01*
X143890238Y-115090933D01*
X143914634Y-115102472D01*
X143937782Y-115116346D01*
X143959458Y-115132422D01*
X143979454Y-115150546D01*
X143997578Y-115170542D01*
X144013654Y-115192218D01*
X144027528Y-115215366D01*
X144039067Y-115239762D01*
X144048159Y-115265172D01*
X144054716Y-115291350D01*
X144058676Y-115318045D01*
X144060000Y-115345000D01*
X144060000Y-116595000D01*
X144058676Y-116621955D01*
X144054716Y-116648650D01*
X144048159Y-116674828D01*
X144039067Y-116700238D01*
X144027528Y-116724634D01*
X144013654Y-116747782D01*
X143997578Y-116769458D01*
X143979454Y-116789454D01*
X143959458Y-116807578D01*
X143937782Y-116823654D01*
X143914634Y-116837528D01*
X143890238Y-116849067D01*
X143864828Y-116858159D01*
X143838650Y-116864716D01*
X143811955Y-116868676D01*
X143785000Y-116870000D01*
X143235000Y-116870000D01*
X143208045Y-116868676D01*
X143181350Y-116864716D01*
X143155172Y-116858159D01*
X143129762Y-116849067D01*
X143105366Y-116837528D01*
X143082218Y-116823654D01*
X143060542Y-116807578D01*
X143040546Y-116789454D01*
X143022422Y-116769458D01*
X143006346Y-116747782D01*
X142992472Y-116724634D01*
X142980933Y-116700238D01*
X142971841Y-116674828D01*
X142965284Y-116648650D01*
X142961324Y-116621955D01*
X142960000Y-116595000D01*
X142960000Y-115345000D01*
X142961324Y-115318045D01*
X142965284Y-115291350D01*
X142971841Y-115265172D01*
X142980933Y-115239762D01*
X142992472Y-115215366D01*
X143006346Y-115192218D01*
X143022422Y-115170542D01*
X143040546Y-115150546D01*
X143060542Y-115132422D01*
X143082218Y-115116346D01*
X143105366Y-115102472D01*
X143129762Y-115090933D01*
X143155172Y-115081841D01*
X143181350Y-115075284D01*
X143208045Y-115071324D01*
X143235000Y-115070000D01*
X143785000Y-115070000D01*
X143811955Y-115071324D01*
X143811955Y-115071324D01*
G37*
D21*
G04 #@! TD*
G04 #@! TO.P,Q1,2*
G04 #@! TO.N,Net-(Q1-Pad2)*
X143510000Y-115970000D03*
D20*
G04 #@! TO.N,/C*
G04 #@! TO.C,Q1*
G36*
X142541955Y-113001324D02*
X142568650Y-113005284D01*
X142594828Y-113011841D01*
X142620238Y-113020933D01*
X142644634Y-113032472D01*
X142667782Y-113046346D01*
X142689458Y-113062422D01*
X142709454Y-113080546D01*
X142727578Y-113100542D01*
X142743654Y-113122218D01*
X142757528Y-113145366D01*
X142769067Y-113169762D01*
X142778159Y-113195172D01*
X142784716Y-113221350D01*
X142788676Y-113248045D01*
X142790000Y-113275000D01*
X142790000Y-114525000D01*
X142788676Y-114551955D01*
X142784716Y-114578650D01*
X142778159Y-114604828D01*
X142769067Y-114630238D01*
X142757528Y-114654634D01*
X142743654Y-114677782D01*
X142727578Y-114699458D01*
X142709454Y-114719454D01*
X142689458Y-114737578D01*
X142667782Y-114753654D01*
X142644634Y-114767528D01*
X142620238Y-114779067D01*
X142594828Y-114788159D01*
X142568650Y-114794716D01*
X142541955Y-114798676D01*
X142515000Y-114800000D01*
X141965000Y-114800000D01*
X141938045Y-114798676D01*
X141911350Y-114794716D01*
X141885172Y-114788159D01*
X141859762Y-114779067D01*
X141835366Y-114767528D01*
X141812218Y-114753654D01*
X141790542Y-114737578D01*
X141770546Y-114719454D01*
X141752422Y-114699458D01*
X141736346Y-114677782D01*
X141722472Y-114654634D01*
X141710933Y-114630238D01*
X141701841Y-114604828D01*
X141695284Y-114578650D01*
X141691324Y-114551955D01*
X141690000Y-114525000D01*
X141690000Y-113275000D01*
X141691324Y-113248045D01*
X141695284Y-113221350D01*
X141701841Y-113195172D01*
X141710933Y-113169762D01*
X141722472Y-113145366D01*
X141736346Y-113122218D01*
X141752422Y-113100542D01*
X141770546Y-113080546D01*
X141790542Y-113062422D01*
X141812218Y-113046346D01*
X141835366Y-113032472D01*
X141859762Y-113020933D01*
X141885172Y-113011841D01*
X141911350Y-113005284D01*
X141938045Y-113001324D01*
X141965000Y-113000000D01*
X142515000Y-113000000D01*
X142541955Y-113001324D01*
X142541955Y-113001324D01*
G37*
D21*
G04 #@! TD*
G04 #@! TO.P,Q1,3*
G04 #@! TO.N,/C*
X142240000Y-113900000D03*
D22*
G04 #@! TO.P,Q1,1*
G04 #@! TO.N,GND*
X144780000Y-113900000D03*
G04 #@! TD*
D14*
G04 #@! TO.P,J10,1*
G04 #@! TO.N,+5V*
X168910000Y-74930000D03*
D15*
G04 #@! TO.P,J10,2*
G04 #@! TO.N,GND*
X166370000Y-74930000D03*
G04 #@! TD*
D11*
G04 #@! TO.P,REF\002A\002A,1*
G04 #@! TO.N,N/C*
X184046726Y-67413274D03*
X182880000Y-66930000D03*
X181713274Y-67413274D03*
X181230000Y-68580000D03*
X181713274Y-69746726D03*
X182880000Y-70230000D03*
X184046726Y-69746726D03*
X184530000Y-68580000D03*
D10*
X182880000Y-68580000D03*
G04 #@! TD*
D23*
G04 #@! TO.N,/A3*
X153947200Y-97123300D03*
G04 #@! TO.N,/MOSI*
X156013400Y-88687700D03*
G04 #@! TD*
D24*
G04 #@! TO.N,/B*
X124460000Y-114300000D02*
X135890000Y-114300000D01*
G04 #@! TO.N,/A3*
X134620000Y-87630000D02*
X135164500Y-87630000D01*
X135164500Y-87630000D02*
X144657800Y-97123300D01*
X144657800Y-97123300D02*
X153947200Y-97123300D01*
G04 #@! TO.N,/D5*
X134620000Y-74930000D02*
X129500000Y-74930000D01*
X129500000Y-74930000D02*
X128230000Y-73660000D01*
G04 #@! TO.N,GND*
X144780000Y-114300000D02*
X144780000Y-112624700D01*
X144780000Y-112624700D02*
X143501700Y-112624700D01*
X143501700Y-112624700D02*
X135085900Y-104208900D01*
X135085900Y-104208900D02*
X132908800Y-104208900D01*
X132908800Y-104208900D02*
X132080000Y-103380100D01*
X156254700Y-114300000D02*
X144780000Y-114300000D01*
X132080000Y-103380100D02*
X124970100Y-110490000D01*
X124970100Y-110490000D02*
X123993800Y-110490000D01*
X123993800Y-110490000D02*
X123234700Y-111249100D01*
X123234700Y-111249100D02*
X123234700Y-114849000D01*
X123234700Y-114849000D02*
X124000400Y-115614700D01*
X124000400Y-115614700D02*
X124460000Y-115614700D01*
X132080000Y-102870000D02*
X132080000Y-103380100D01*
X180340000Y-114300000D02*
X179114700Y-114300000D01*
X179114700Y-114300000D02*
X179114700Y-114759500D01*
X179114700Y-114759500D02*
X178346600Y-115527600D01*
X178346600Y-115527600D02*
X168867600Y-115527600D01*
X168867600Y-115527600D02*
X167640000Y-114300000D01*
X138430000Y-80010000D02*
X139655300Y-80010000D01*
X151130000Y-80010000D02*
X149904700Y-80010000D01*
X149904700Y-80010000D02*
X148679300Y-78784600D01*
X148679300Y-78784600D02*
X139924500Y-78784600D01*
X139924500Y-78784600D02*
X139655300Y-79053800D01*
X139655300Y-79053800D02*
X139655300Y-80010000D01*
X124460000Y-116840000D02*
X124460000Y-115614700D01*
X138430000Y-80010000D02*
X137204700Y-80010000D01*
X127224500Y-81235400D02*
X126955300Y-80966200D01*
X126955300Y-80966200D02*
X126955300Y-80010000D01*
X127000000Y-87630000D02*
X127224500Y-87405500D01*
X127224500Y-87405500D02*
X127224500Y-81235400D01*
X137204700Y-80010000D02*
X135979300Y-81235400D01*
X135979300Y-81235400D02*
X127224500Y-81235400D01*
X168304200Y-77827800D02*
X170135400Y-75996600D01*
X170135400Y-75996600D02*
X170135400Y-71030700D01*
X170135400Y-71030700D02*
X168910000Y-69805300D01*
X166370000Y-76155300D02*
X168042500Y-77827800D01*
X168042500Y-77827800D02*
X168304200Y-77827800D01*
X167600000Y-87320000D02*
X168650400Y-86269600D01*
X168650400Y-86269600D02*
X168650400Y-78174000D01*
X168650400Y-78174000D02*
X168304200Y-77827800D01*
X168910000Y-68580000D02*
X168910000Y-69805300D01*
X167600000Y-87320000D02*
X166600000Y-87320000D01*
X166370000Y-74930000D02*
X166370000Y-76155300D01*
X157480000Y-114300000D02*
X156254700Y-114300000D01*
X125730000Y-80010000D02*
X126955300Y-80010000D01*
X160020000Y-114300000D02*
X157480000Y-114300000D01*
G04 #@! TO.N,/D6*
X147320000Y-74930000D02*
X146144700Y-74930000D01*
X146144700Y-74930000D02*
X146144700Y-75297300D01*
X146144700Y-75297300D02*
X145242000Y-76200000D01*
X145242000Y-76200000D02*
X128230000Y-76200000D01*
G04 #@! TO.N,/C*
X124460000Y-111760000D02*
X125685300Y-111760000D01*
X125685300Y-111760000D02*
X139700000Y-111760000D01*
X139700000Y-111760000D02*
X142240000Y-114300000D01*
G04 #@! TO.N,+5V*
X168910000Y-74930000D02*
X167684700Y-74930000D01*
X167684700Y-74930000D02*
X167684700Y-74470500D01*
X167684700Y-74470500D02*
X166914800Y-73700600D01*
X166914800Y-73700600D02*
X150547700Y-73700600D01*
X150547700Y-73700600D02*
X146872900Y-77375400D01*
X146872900Y-77375400D02*
X126618200Y-77375400D01*
X126618200Y-77375400D02*
X124460000Y-79533600D01*
X124460000Y-79533600D02*
X124460000Y-87630000D01*
G04 #@! TO.N,/RSET*
X160020000Y-95250000D02*
X158794700Y-95250000D01*
X158794700Y-95250000D02*
X156142600Y-97902100D01*
X156142600Y-97902100D02*
X139241700Y-97902100D01*
X139241700Y-97902100D02*
X129540000Y-88200400D01*
X129540000Y-88200400D02*
X129540000Y-87630000D01*
G04 #@! TO.N,/MISO*
X160020000Y-92710000D02*
X160020000Y-91484700D01*
X147320000Y-87630000D02*
X149160500Y-85789500D01*
X149160500Y-85789500D02*
X154237400Y-85789500D01*
X154237400Y-85789500D02*
X157942500Y-89494600D01*
X157942500Y-89494600D02*
X157942500Y-90094400D01*
X157942500Y-90094400D02*
X159332800Y-91484700D01*
X159332800Y-91484700D02*
X160020000Y-91484700D01*
X160020000Y-92710000D02*
X161245300Y-92710000D01*
X166600000Y-93320000D02*
X161855300Y-93320000D01*
X161855300Y-93320000D02*
X161245300Y-92710000D01*
X167600000Y-93320000D02*
X166600000Y-93320000D01*
G04 #@! TO.N,/SCK*
X158794700Y-90170000D02*
X158794700Y-89639300D01*
X158794700Y-89639300D02*
X154444600Y-85289200D01*
X154444600Y-85289200D02*
X148920900Y-85289200D01*
X148920900Y-85289200D02*
X148420600Y-85789500D01*
X148420600Y-85789500D02*
X146620500Y-85789500D01*
X146620500Y-85789500D02*
X144780000Y-87630000D01*
X160020000Y-90170000D02*
X161245300Y-90170000D01*
X166600000Y-91320000D02*
X162395300Y-91320000D01*
X162395300Y-91320000D02*
X161245300Y-90170000D01*
X167600000Y-91320000D02*
X166600000Y-91320000D01*
X160020000Y-90170000D02*
X158794700Y-90170000D01*
G04 #@! TO.N,/MOSI*
X149860000Y-87630000D02*
X151178500Y-86311500D01*
X151178500Y-86311500D02*
X153637200Y-86311500D01*
X153637200Y-86311500D02*
X156013400Y-88687700D01*
X160020000Y-87630000D02*
X161245300Y-87630000D01*
X166600000Y-89320000D02*
X162935300Y-89320000D01*
X162935300Y-89320000D02*
X161245300Y-87630000D01*
X167600000Y-89320000D02*
X166600000Y-89320000D01*
G04 #@! TO.N,/A2*
X153670000Y-80010000D02*
X152444700Y-80010000D01*
X152444700Y-80010000D02*
X152444700Y-80469500D01*
X152444700Y-80469500D02*
X148083100Y-84831100D01*
X148083100Y-84831100D02*
X139958900Y-84831100D01*
X139958900Y-84831100D02*
X137160000Y-87630000D01*
G04 #@! TO.N,/VCC*
X146050000Y-68580000D02*
X147275300Y-68580000D01*
X166370000Y-68580000D02*
X165144700Y-68580000D01*
X165144700Y-68580000D02*
X163919400Y-67354700D01*
X163919400Y-67354700D02*
X148041000Y-67354700D01*
X148041000Y-67354700D02*
X147275300Y-68120400D01*
X147275300Y-68120400D02*
X147275300Y-68580000D01*
X166600000Y-85320000D02*
X167600000Y-85320000D01*
G04 #@! TO.N,/SCL*
X151130000Y-68580000D02*
X149904700Y-68580000D01*
X130810000Y-68580000D02*
X132035300Y-68580000D01*
X132035300Y-68580000D02*
X132035300Y-68120400D01*
X132035300Y-68120400D02*
X132801000Y-67354700D01*
X132801000Y-67354700D02*
X140456300Y-67354700D01*
X140456300Y-67354700D02*
X142906900Y-69805300D01*
X142906900Y-69805300D02*
X149187200Y-69805300D01*
X149187200Y-69805300D02*
X149904700Y-69087800D01*
X149904700Y-69087800D02*
X149904700Y-68580000D01*
G04 #@! TO.N,/SDA*
X153670000Y-68580000D02*
X154895300Y-68580000D01*
X173990000Y-68580000D02*
X172764700Y-68580000D01*
X172764700Y-68580000D02*
X172764700Y-68120500D01*
X172764700Y-68120500D02*
X171998300Y-67354100D01*
X171998300Y-67354100D02*
X168399600Y-67354100D01*
X168399600Y-67354100D02*
X167595400Y-68158300D01*
X167595400Y-68158300D02*
X167595400Y-69599500D01*
X167595400Y-69599500D02*
X167389500Y-69805400D01*
X167389500Y-69805400D02*
X156120700Y-69805400D01*
X156120700Y-69805400D02*
X154895300Y-68580000D01*
X133350000Y-68580000D02*
X134575300Y-68580000D01*
X153670000Y-68580000D02*
X152444700Y-68580000D01*
X152444700Y-68580000D02*
X152444700Y-69039500D01*
X152444700Y-69039500D02*
X151125400Y-70358800D01*
X151125400Y-70358800D02*
X136354100Y-70358800D01*
X136354100Y-70358800D02*
X134575300Y-68580000D01*
G04 #@! TO.N,/D3*
X165100000Y-114300000D02*
X163874700Y-114300000D01*
X163874700Y-114300000D02*
X163874700Y-113840400D01*
X163874700Y-113840400D02*
X163109000Y-113074700D01*
X163109000Y-113074700D02*
X148101100Y-113074700D01*
X148101100Y-113074700D02*
X137896400Y-102870000D01*
X137896400Y-102870000D02*
X137160000Y-102870000D01*
G04 #@! TO.N,/D7*
X170180000Y-114300000D02*
X168954700Y-114300000D01*
X168954700Y-114300000D02*
X168954700Y-113840500D01*
X168954700Y-113840500D02*
X165901700Y-110787500D01*
X165901700Y-110787500D02*
X156871200Y-110787500D01*
X156871200Y-110787500D02*
X151376300Y-105292600D01*
X151376300Y-105292600D02*
X149742600Y-105292600D01*
X149742600Y-105292600D02*
X147320000Y-102870000D01*
G04 #@! TO.N,Net-(J7-Pad1)*
X128270000Y-80010000D02*
X129495300Y-80010000D01*
X157480000Y-74930000D02*
X154326900Y-78083100D01*
X154326900Y-78083100D02*
X131422200Y-78083100D01*
X131422200Y-78083100D02*
X129495300Y-80010000D01*
G04 #@! TO.N,/D8*
X176380000Y-109220000D02*
X156210000Y-109220000D01*
X156210000Y-109220000D02*
X149860000Y-102870000D01*
X182880000Y-109220000D02*
X176380000Y-109220000D01*
G04 #@! TO.N,Net-(U1-Pad28)*
X152400000Y-90170000D02*
X148056400Y-90170000D01*
X148056400Y-90170000D02*
X146759100Y-88872700D01*
X146759100Y-88872700D02*
X145543700Y-88872700D01*
X145543700Y-88872700D02*
X144246400Y-90170000D01*
X144246400Y-90170000D02*
X143510000Y-90170000D01*
G04 #@! TO.N,Net-(U1-Pad27)*
X152400000Y-92710000D02*
X148590000Y-92710000D01*
X148590000Y-92710000D02*
X146050000Y-90170000D01*
G04 #@! TO.N,/SS*
X166600000Y-99320000D02*
X165324700Y-99320000D01*
X165324700Y-99320000D02*
X165324700Y-98794900D01*
X165324700Y-98794900D02*
X160509900Y-93980100D01*
X160509900Y-93980100D02*
X158750100Y-93980100D01*
X158750100Y-93980100D02*
X152400000Y-87630000D01*
X167600000Y-99320000D02*
X166600000Y-99320000D01*
G04 #@! TO.N,/D2*
X167600000Y-97320000D02*
X168657900Y-98377900D01*
X168657900Y-98377900D02*
X168657900Y-99820400D01*
X168657900Y-99820400D02*
X167283800Y-101194500D01*
X167283800Y-101194500D02*
X136295500Y-101194500D01*
X136295500Y-101194500D02*
X134620000Y-102870000D01*
X166600000Y-97320000D02*
X167600000Y-97320000D01*
G04 #@! TO.N,Net-(U2-Pad6)*
X166600000Y-95320000D02*
X167600000Y-95320000D01*
G04 #@! TD*
D25*
G04 #@! TO.N,GND*
G36*
X185980000Y-87335909D02*
X183697402Y-89618508D01*
X183638120Y-89658119D01*
X183549240Y-89791137D01*
X183481196Y-89892972D01*
X183426091Y-90170000D01*
X183440001Y-90239929D01*
X183440000Y-96450076D01*
X183426091Y-96520000D01*
X183440000Y-96589924D01*
X183440000Y-96589925D01*
X183481195Y-96797027D01*
X183638119Y-97031880D01*
X183697402Y-97071492D01*
X185980000Y-99354091D01*
X185980001Y-117400000D01*
X148589306Y-117400000D01*
X148449514Y-117399854D01*
X148383271Y-117427212D01*
X148312972Y-117441195D01*
X148196200Y-117519220D01*
X144602530Y-119915000D01*
X121385000Y-119915000D01*
X121385000Y-117125750D01*
X122975000Y-117125750D01*
X122975000Y-117816310D01*
X123071673Y-118049699D01*
X123250302Y-118228327D01*
X123483691Y-118325000D01*
X124174250Y-118325000D01*
X124333000Y-118166250D01*
X124333000Y-116967000D01*
X124587000Y-116967000D01*
X124587000Y-118166250D01*
X124745750Y-118325000D01*
X125436309Y-118325000D01*
X125669698Y-118228327D01*
X125848327Y-118049699D01*
X125945000Y-117816310D01*
X125945000Y-117125750D01*
X125786250Y-116967000D01*
X124587000Y-116967000D01*
X124333000Y-116967000D01*
X123133750Y-116967000D01*
X122975000Y-117125750D01*
X121385000Y-117125750D01*
X121385000Y-109220000D01*
X122945908Y-109220000D01*
X123061161Y-109799418D01*
X123389375Y-110290625D01*
X123687761Y-110490000D01*
X123389375Y-110689375D01*
X123061161Y-111180582D01*
X122945908Y-111760000D01*
X123061161Y-112339418D01*
X123389375Y-112830625D01*
X123687761Y-113030000D01*
X123389375Y-113229375D01*
X123061161Y-113720582D01*
X122945908Y-114300000D01*
X123061161Y-114879418D01*
X123389375Y-115370625D01*
X123411033Y-115385096D01*
X123250302Y-115451673D01*
X123071673Y-115630301D01*
X122975000Y-115863690D01*
X122975000Y-116554250D01*
X123133750Y-116713000D01*
X124333000Y-116713000D01*
X124333000Y-116693000D01*
X124587000Y-116693000D01*
X124587000Y-116713000D01*
X125786250Y-116713000D01*
X125945000Y-116554250D01*
X125945000Y-115863690D01*
X125848327Y-115630301D01*
X125669698Y-115451673D01*
X125508967Y-115385096D01*
X125530625Y-115370625D01*
X125738178Y-115060000D01*
X134651570Y-115060000D01*
X134673466Y-115112862D01*
X135077138Y-115516534D01*
X135604561Y-115735000D01*
X136175439Y-115735000D01*
X136702862Y-115516534D01*
X137106534Y-115112862D01*
X137140000Y-115032068D01*
X137173466Y-115112862D01*
X137577138Y-115516534D01*
X138104561Y-115735000D01*
X138675439Y-115735000D01*
X139202862Y-115516534D01*
X139606534Y-115112862D01*
X139825000Y-114585439D01*
X139825000Y-114014561D01*
X139606534Y-113487138D01*
X139202862Y-113083466D01*
X138675439Y-112865000D01*
X138104561Y-112865000D01*
X137577138Y-113083466D01*
X137173466Y-113487138D01*
X137140000Y-113567932D01*
X137106534Y-113487138D01*
X136702862Y-113083466D01*
X136175439Y-112865000D01*
X135604561Y-112865000D01*
X135077138Y-113083466D01*
X134673466Y-113487138D01*
X134651570Y-113540000D01*
X125738178Y-113540000D01*
X125530625Y-113229375D01*
X125232239Y-113030000D01*
X125530625Y-112830625D01*
X125738178Y-112520000D01*
X139385199Y-112520000D01*
X141042560Y-114177362D01*
X141042560Y-114525000D01*
X141112777Y-114878003D01*
X141312736Y-115177264D01*
X141611997Y-115377223D01*
X141965000Y-115447440D01*
X142312560Y-115447440D01*
X142312560Y-116595000D01*
X142382777Y-116948003D01*
X142582736Y-117247264D01*
X142881997Y-117447223D01*
X143235000Y-117517440D01*
X143785000Y-117517440D01*
X144138003Y-117447223D01*
X144437264Y-117247264D01*
X144637223Y-116948003D01*
X144707440Y-116595000D01*
X144707440Y-115345000D01*
X144653000Y-115071313D01*
X144653000Y-114027000D01*
X144907000Y-114027000D01*
X144907000Y-115276250D01*
X145065750Y-115435000D01*
X145456309Y-115435000D01*
X145689698Y-115338327D01*
X145868327Y-115159699D01*
X145965000Y-114926310D01*
X145965000Y-114585750D01*
X155995000Y-114585750D01*
X155995000Y-115276309D01*
X156091673Y-115509698D01*
X156270301Y-115688327D01*
X156503690Y-115785000D01*
X157194250Y-115785000D01*
X157353000Y-115626250D01*
X157353000Y-114427000D01*
X157607000Y-114427000D01*
X157607000Y-115626250D01*
X157765750Y-115785000D01*
X158456310Y-115785000D01*
X158689699Y-115688327D01*
X158868327Y-115509698D01*
X158955136Y-115300122D01*
X159253076Y-115571645D01*
X159663110Y-115741476D01*
X159893000Y-115620155D01*
X159893000Y-114427000D01*
X160147000Y-114427000D01*
X160147000Y-115620155D01*
X160376890Y-115741476D01*
X160786924Y-115571645D01*
X161215183Y-115181358D01*
X161290000Y-115022046D01*
X161364817Y-115181358D01*
X161793076Y-115571645D01*
X162203110Y-115741476D01*
X162433000Y-115620155D01*
X162433000Y-114427000D01*
X160147000Y-114427000D01*
X159893000Y-114427000D01*
X157607000Y-114427000D01*
X157353000Y-114427000D01*
X156153750Y-114427000D01*
X155995000Y-114585750D01*
X145965000Y-114585750D01*
X145965000Y-114185750D01*
X145806250Y-114027000D01*
X144907000Y-114027000D01*
X144653000Y-114027000D01*
X143753750Y-114027000D01*
X143595000Y-114185750D01*
X143595000Y-114422560D01*
X143437440Y-114422560D01*
X143437440Y-113275000D01*
X143367223Y-112921997D01*
X143334946Y-112873690D01*
X143595000Y-112873690D01*
X143595000Y-113614250D01*
X143753750Y-113773000D01*
X144653000Y-113773000D01*
X144653000Y-112523750D01*
X144907000Y-112523750D01*
X144907000Y-113773000D01*
X145806250Y-113773000D01*
X145965000Y-113614250D01*
X145965000Y-112873690D01*
X145868327Y-112640301D01*
X145689698Y-112461673D01*
X145456309Y-112365000D01*
X145065750Y-112365000D01*
X144907000Y-112523750D01*
X144653000Y-112523750D01*
X144494250Y-112365000D01*
X144103691Y-112365000D01*
X143870302Y-112461673D01*
X143691673Y-112640301D01*
X143595000Y-112873690D01*
X143334946Y-112873690D01*
X143167264Y-112622736D01*
X142868003Y-112422777D01*
X142515000Y-112352560D01*
X141965000Y-112352560D01*
X141611997Y-112422777D01*
X141507441Y-112492639D01*
X140290331Y-111275530D01*
X140247929Y-111212071D01*
X139996537Y-111044096D01*
X139774852Y-111000000D01*
X139774847Y-111000000D01*
X139700000Y-110985112D01*
X139625153Y-111000000D01*
X125738178Y-111000000D01*
X125530625Y-110689375D01*
X125232239Y-110490000D01*
X125530625Y-110290625D01*
X125858839Y-109799418D01*
X125974092Y-109220000D01*
X125917315Y-108934561D01*
X126835000Y-108934561D01*
X126835000Y-109505439D01*
X127053466Y-110032862D01*
X127457138Y-110436534D01*
X127984561Y-110655000D01*
X128555439Y-110655000D01*
X129082862Y-110436534D01*
X129486534Y-110032862D01*
X129705000Y-109505439D01*
X129705000Y-109220000D01*
X136966887Y-109220000D01*
X137078260Y-109779909D01*
X137395423Y-110254577D01*
X137870091Y-110571740D01*
X138288667Y-110655000D01*
X138571333Y-110655000D01*
X138989909Y-110571740D01*
X139464577Y-110254577D01*
X139781740Y-109779909D01*
X139893113Y-109220000D01*
X139781740Y-108660091D01*
X139464577Y-108185423D01*
X138989909Y-107868260D01*
X138571333Y-107785000D01*
X138288667Y-107785000D01*
X137870091Y-107868260D01*
X137395423Y-108185423D01*
X137078260Y-108660091D01*
X136966887Y-109220000D01*
X129705000Y-109220000D01*
X129705000Y-108934561D01*
X129486534Y-108407138D01*
X129082862Y-108003466D01*
X128555439Y-107785000D01*
X127984561Y-107785000D01*
X127457138Y-108003466D01*
X127053466Y-108407138D01*
X126835000Y-108934561D01*
X125917315Y-108934561D01*
X125858839Y-108640582D01*
X125530625Y-108149375D01*
X125039418Y-107821161D01*
X124606256Y-107735000D01*
X124313744Y-107735000D01*
X123880582Y-107821161D01*
X123389375Y-108149375D01*
X123061161Y-108640582D01*
X122945908Y-109220000D01*
X121385000Y-109220000D01*
X121385000Y-106902540D01*
X123359689Y-103940506D01*
X123590493Y-104171310D01*
X124154670Y-104405000D01*
X124765330Y-104405000D01*
X125329507Y-104171310D01*
X125730000Y-103770817D01*
X126130493Y-104171310D01*
X126694670Y-104405000D01*
X127305330Y-104405000D01*
X127869507Y-104171310D01*
X128270000Y-103770817D01*
X128670493Y-104171310D01*
X129234670Y-104405000D01*
X129845330Y-104405000D01*
X130409507Y-104171310D01*
X130630658Y-103950159D01*
X131179446Y-103950159D01*
X131265852Y-104206643D01*
X131839336Y-104416458D01*
X132449460Y-104390839D01*
X132894148Y-104206643D01*
X132980554Y-103950159D01*
X132080000Y-103049605D01*
X131179446Y-103950159D01*
X130630658Y-103950159D01*
X130841310Y-103739507D01*
X130849438Y-103719885D01*
X130999841Y-103770554D01*
X131900395Y-102870000D01*
X130999841Y-101969446D01*
X130849438Y-102020115D01*
X130841310Y-102000493D01*
X130630658Y-101789841D01*
X131179446Y-101789841D01*
X132080000Y-102690395D01*
X132980554Y-101789841D01*
X132894148Y-101533357D01*
X132320664Y-101323542D01*
X131710540Y-101349161D01*
X131265852Y-101533357D01*
X131179446Y-101789841D01*
X130630658Y-101789841D01*
X130409507Y-101568690D01*
X129845330Y-101335000D01*
X129234670Y-101335000D01*
X128670493Y-101568690D01*
X128270000Y-101969183D01*
X127869507Y-101568690D01*
X127305330Y-101335000D01*
X126694670Y-101335000D01*
X126130493Y-101568690D01*
X125730000Y-101969183D01*
X125329507Y-101568690D01*
X124765330Y-101335000D01*
X124154670Y-101335000D01*
X123925000Y-101430133D01*
X123925000Y-89069867D01*
X124154670Y-89165000D01*
X124765330Y-89165000D01*
X125329507Y-88931310D01*
X125550658Y-88710159D01*
X126099446Y-88710159D01*
X126185852Y-88966643D01*
X126759336Y-89176458D01*
X127369460Y-89150839D01*
X127814148Y-88966643D01*
X127900554Y-88710159D01*
X127000000Y-87809605D01*
X126099446Y-88710159D01*
X125550658Y-88710159D01*
X125761310Y-88499507D01*
X125769438Y-88479885D01*
X125919841Y-88530554D01*
X126820395Y-87630000D01*
X125919841Y-86729446D01*
X125769438Y-86780115D01*
X125761310Y-86760493D01*
X125550658Y-86549841D01*
X126099446Y-86549841D01*
X127000000Y-87450395D01*
X127900554Y-86549841D01*
X127814148Y-86293357D01*
X127240664Y-86083542D01*
X126630540Y-86109161D01*
X126185852Y-86293357D01*
X126099446Y-86549841D01*
X125550658Y-86549841D01*
X125329507Y-86328690D01*
X125220000Y-86283331D01*
X125220000Y-81388060D01*
X125373110Y-81451476D01*
X125603000Y-81330155D01*
X125603000Y-80137000D01*
X125583000Y-80137000D01*
X125583000Y-79883000D01*
X125603000Y-79883000D01*
X125603000Y-79863000D01*
X125857000Y-79863000D01*
X125857000Y-79883000D01*
X125877000Y-79883000D01*
X125877000Y-80137000D01*
X125857000Y-80137000D01*
X125857000Y-81330155D01*
X126086890Y-81451476D01*
X126496924Y-81281645D01*
X126801261Y-81004292D01*
X126821843Y-81107765D01*
X126962191Y-81317809D01*
X127172235Y-81458157D01*
X127420000Y-81507440D01*
X129120000Y-81507440D01*
X129367765Y-81458157D01*
X129577809Y-81317809D01*
X129718157Y-81107765D01*
X129767440Y-80860000D01*
X129767440Y-80730757D01*
X129791837Y-80725904D01*
X130043229Y-80557929D01*
X130085631Y-80494470D01*
X130213209Y-80366892D01*
X136988514Y-80366892D01*
X137234817Y-80891358D01*
X137663076Y-81281645D01*
X138073110Y-81451476D01*
X138303000Y-81330155D01*
X138303000Y-80137000D01*
X137109181Y-80137000D01*
X136988514Y-80366892D01*
X130213209Y-80366892D01*
X131737002Y-78843100D01*
X137548140Y-78843100D01*
X137234817Y-79128642D01*
X136988514Y-79653108D01*
X137109181Y-79883000D01*
X138303000Y-79883000D01*
X138303000Y-79863000D01*
X138557000Y-79863000D01*
X138557000Y-79883000D01*
X138577000Y-79883000D01*
X138577000Y-80137000D01*
X138557000Y-80137000D01*
X138557000Y-81330155D01*
X138786890Y-81451476D01*
X139196924Y-81281645D01*
X139501261Y-81004292D01*
X139521843Y-81107765D01*
X139662191Y-81317809D01*
X139872235Y-81458157D01*
X140120000Y-81507440D01*
X141820000Y-81507440D01*
X142067765Y-81458157D01*
X142277809Y-81317809D01*
X142418157Y-81107765D01*
X142467440Y-80860000D01*
X142467440Y-79160000D01*
X142418157Y-78912235D01*
X142371962Y-78843100D01*
X150248140Y-78843100D01*
X149934817Y-79128642D01*
X149688514Y-79653108D01*
X149809181Y-79883000D01*
X151003000Y-79883000D01*
X151003000Y-79863000D01*
X151257000Y-79863000D01*
X151257000Y-79883000D01*
X151277000Y-79883000D01*
X151277000Y-80137000D01*
X151257000Y-80137000D01*
X151257000Y-80157000D01*
X151003000Y-80157000D01*
X151003000Y-80137000D01*
X149809181Y-80137000D01*
X149688514Y-80366892D01*
X149934817Y-80891358D01*
X150363076Y-81281645D01*
X150500736Y-81338662D01*
X147768299Y-84071100D01*
X140033746Y-84071100D01*
X139958899Y-84056212D01*
X139884052Y-84071100D01*
X139884048Y-84071100D01*
X139662363Y-84115196D01*
X139662361Y-84115197D01*
X139662362Y-84115197D01*
X139474426Y-84240771D01*
X139474424Y-84240773D01*
X139410971Y-84283171D01*
X139368573Y-84346624D01*
X137574838Y-86140360D01*
X137465330Y-86095000D01*
X136854670Y-86095000D01*
X136290493Y-86328690D01*
X135890000Y-86729183D01*
X135489507Y-86328690D01*
X134925330Y-86095000D01*
X134314670Y-86095000D01*
X133750493Y-86328690D01*
X133350000Y-86729183D01*
X132949507Y-86328690D01*
X132385330Y-86095000D01*
X131774670Y-86095000D01*
X131210493Y-86328690D01*
X130810000Y-86729183D01*
X130409507Y-86328690D01*
X129845330Y-86095000D01*
X129234670Y-86095000D01*
X128670493Y-86328690D01*
X128238690Y-86760493D01*
X128230562Y-86780115D01*
X128080159Y-86729446D01*
X127179605Y-87630000D01*
X128080159Y-88530554D01*
X128230562Y-88479885D01*
X128238690Y-88499507D01*
X128670493Y-88931310D01*
X129234670Y-89165000D01*
X129429799Y-89165000D01*
X138651371Y-98386573D01*
X138693771Y-98450029D01*
X138757227Y-98492429D01*
X138945162Y-98618004D01*
X138993305Y-98627580D01*
X139166848Y-98662100D01*
X139166852Y-98662100D01*
X139241700Y-98676988D01*
X139316548Y-98662100D01*
X156067753Y-98662100D01*
X156142600Y-98676988D01*
X156217447Y-98662100D01*
X156217452Y-98662100D01*
X156439137Y-98618004D01*
X156690529Y-98450029D01*
X156732931Y-98386570D01*
X158889094Y-96230408D01*
X158949375Y-96320625D01*
X159440582Y-96648839D01*
X159873744Y-96735000D01*
X160166256Y-96735000D01*
X160599418Y-96648839D01*
X161090625Y-96320625D01*
X161364997Y-95909998D01*
X164564700Y-99109703D01*
X164564700Y-99245148D01*
X164549811Y-99320000D01*
X164608796Y-99616537D01*
X164683811Y-99728804D01*
X164776771Y-99867929D01*
X165028163Y-100035904D01*
X165062036Y-100042642D01*
X165101843Y-100242765D01*
X165229957Y-100434500D01*
X136370348Y-100434500D01*
X136295500Y-100419612D01*
X136220652Y-100434500D01*
X136220648Y-100434500D01*
X136047105Y-100469020D01*
X135998962Y-100478596D01*
X135827511Y-100593157D01*
X135747571Y-100646571D01*
X135705171Y-100710027D01*
X135034838Y-101380360D01*
X134925330Y-101335000D01*
X134314670Y-101335000D01*
X133750493Y-101568690D01*
X133318690Y-102000493D01*
X133310562Y-102020115D01*
X133160159Y-101969446D01*
X132259605Y-102870000D01*
X133160159Y-103770554D01*
X133310562Y-103719885D01*
X133318690Y-103739507D01*
X133750493Y-104171310D01*
X134314670Y-104405000D01*
X134925330Y-104405000D01*
X135489507Y-104171310D01*
X135890000Y-103770817D01*
X136290493Y-104171310D01*
X136854670Y-104405000D01*
X137465330Y-104405000D01*
X138029507Y-104171310D01*
X138076208Y-104124609D01*
X141800438Y-107848840D01*
X141427138Y-108003466D01*
X141023466Y-108407138D01*
X140805000Y-108934561D01*
X140805000Y-109505439D01*
X141023466Y-110032862D01*
X141427138Y-110436534D01*
X141954561Y-110655000D01*
X142525439Y-110655000D01*
X143052862Y-110436534D01*
X143456534Y-110032862D01*
X143611160Y-109659562D01*
X147510770Y-113559172D01*
X147553171Y-113622629D01*
X147804563Y-113790604D01*
X148026248Y-113834700D01*
X148026252Y-113834700D01*
X148101099Y-113849588D01*
X148175946Y-113834700D01*
X155995000Y-113834700D01*
X155995000Y-114014250D01*
X156153750Y-114173000D01*
X157353000Y-114173000D01*
X157353000Y-114153000D01*
X157607000Y-114153000D01*
X157607000Y-114173000D01*
X159893000Y-114173000D01*
X159893000Y-114153000D01*
X160147000Y-114153000D01*
X160147000Y-114173000D01*
X162433000Y-114173000D01*
X162433000Y-114153000D01*
X162687000Y-114153000D01*
X162687000Y-114173000D01*
X162707000Y-114173000D01*
X162707000Y-114427000D01*
X162687000Y-114427000D01*
X162687000Y-115620155D01*
X162916890Y-115741476D01*
X163326924Y-115571645D01*
X163755183Y-115181358D01*
X163811123Y-115062243D01*
X163825190Y-115065041D01*
X164029375Y-115370625D01*
X164520582Y-115698839D01*
X164953744Y-115785000D01*
X165246256Y-115785000D01*
X165679418Y-115698839D01*
X166170625Y-115370625D01*
X166383843Y-115051522D01*
X166444817Y-115181358D01*
X166873076Y-115571645D01*
X167283110Y-115741476D01*
X167513000Y-115620155D01*
X167513000Y-114427000D01*
X167493000Y-114427000D01*
X167493000Y-114173000D01*
X167513000Y-114173000D01*
X167513000Y-114153000D01*
X167767000Y-114153000D01*
X167767000Y-114173000D01*
X167787000Y-114173000D01*
X167787000Y-114427000D01*
X167767000Y-114427000D01*
X167767000Y-115620155D01*
X167996890Y-115741476D01*
X168406924Y-115571645D01*
X168835183Y-115181358D01*
X168891123Y-115062243D01*
X168905190Y-115065041D01*
X169109375Y-115370625D01*
X169600582Y-115698839D01*
X170033744Y-115785000D01*
X170326256Y-115785000D01*
X170759418Y-115698839D01*
X171250625Y-115370625D01*
X171450000Y-115072239D01*
X171649375Y-115370625D01*
X172140582Y-115698839D01*
X172573744Y-115785000D01*
X172866256Y-115785000D01*
X173299418Y-115698839D01*
X173790625Y-115370625D01*
X173990000Y-115072239D01*
X174189375Y-115370625D01*
X174680582Y-115698839D01*
X175113744Y-115785000D01*
X175406256Y-115785000D01*
X175839418Y-115698839D01*
X176330625Y-115370625D01*
X176530000Y-115072239D01*
X176729375Y-115370625D01*
X177220582Y-115698839D01*
X177653744Y-115785000D01*
X177946256Y-115785000D01*
X178379418Y-115698839D01*
X178870625Y-115370625D01*
X179083843Y-115051522D01*
X179144817Y-115181358D01*
X179573076Y-115571645D01*
X179983110Y-115741476D01*
X180213000Y-115620155D01*
X180213000Y-114427000D01*
X180193000Y-114427000D01*
X180193000Y-114173000D01*
X180213000Y-114173000D01*
X180213000Y-112979845D01*
X180467000Y-112979845D01*
X180467000Y-114173000D01*
X180487000Y-114173000D01*
X180487000Y-114427000D01*
X180467000Y-114427000D01*
X180467000Y-115620155D01*
X180696890Y-115741476D01*
X181106924Y-115571645D01*
X181535183Y-115181358D01*
X181596157Y-115051522D01*
X181809375Y-115370625D01*
X182300582Y-115698839D01*
X182733744Y-115785000D01*
X183026256Y-115785000D01*
X183459418Y-115698839D01*
X183950625Y-115370625D01*
X184278839Y-114879418D01*
X184394092Y-114300000D01*
X184278839Y-113720582D01*
X183950625Y-113229375D01*
X183459418Y-112901161D01*
X183026256Y-112815000D01*
X182733744Y-112815000D01*
X182300582Y-112901161D01*
X181809375Y-113229375D01*
X181596157Y-113548478D01*
X181535183Y-113418642D01*
X181106924Y-113028355D01*
X180696890Y-112858524D01*
X180467000Y-112979845D01*
X180213000Y-112979845D01*
X179983110Y-112858524D01*
X179573076Y-113028355D01*
X179144817Y-113418642D01*
X179083843Y-113548478D01*
X178870625Y-113229375D01*
X178379418Y-112901161D01*
X177946256Y-112815000D01*
X177653744Y-112815000D01*
X177220582Y-112901161D01*
X176729375Y-113229375D01*
X176530000Y-113527761D01*
X176330625Y-113229375D01*
X175839418Y-112901161D01*
X175406256Y-112815000D01*
X175113744Y-112815000D01*
X174680582Y-112901161D01*
X174189375Y-113229375D01*
X173990000Y-113527761D01*
X173790625Y-113229375D01*
X173299418Y-112901161D01*
X172866256Y-112815000D01*
X172573744Y-112815000D01*
X172140582Y-112901161D01*
X171649375Y-113229375D01*
X171450000Y-113527761D01*
X171250625Y-113229375D01*
X170759418Y-112901161D01*
X170326256Y-112815000D01*
X170033744Y-112815000D01*
X169600582Y-112901161D01*
X169294608Y-113105606D01*
X166492031Y-110303030D01*
X166449629Y-110239571D01*
X166198237Y-110071596D01*
X165976552Y-110027500D01*
X165976547Y-110027500D01*
X165901700Y-110012612D01*
X165826853Y-110027500D01*
X157186002Y-110027500D01*
X157138502Y-109980000D01*
X174925091Y-109980000D01*
X174993914Y-110146153D01*
X175453847Y-110606086D01*
X176054778Y-110855000D01*
X176705222Y-110855000D01*
X177306153Y-110606086D01*
X177766086Y-110146153D01*
X177834909Y-109980000D01*
X181425091Y-109980000D01*
X181493914Y-110146153D01*
X181953847Y-110606086D01*
X182554778Y-110855000D01*
X183205222Y-110855000D01*
X183806153Y-110606086D01*
X184266086Y-110146153D01*
X184515000Y-109545222D01*
X184515000Y-108894778D01*
X184266086Y-108293847D01*
X183806153Y-107833914D01*
X183205222Y-107585000D01*
X182554778Y-107585000D01*
X181953847Y-107833914D01*
X181493914Y-108293847D01*
X181425091Y-108460000D01*
X177834909Y-108460000D01*
X177766086Y-108293847D01*
X177306153Y-107833914D01*
X176705222Y-107585000D01*
X176054778Y-107585000D01*
X175453847Y-107833914D01*
X174993914Y-108293847D01*
X174925091Y-108460000D01*
X156524802Y-108460000D01*
X152910885Y-104846083D01*
X163535000Y-104846083D01*
X163535000Y-105973917D01*
X163966603Y-107015899D01*
X164764101Y-107813397D01*
X165806083Y-108245000D01*
X166933917Y-108245000D01*
X167975899Y-107813397D01*
X168773397Y-107015899D01*
X169205000Y-105973917D01*
X169205000Y-105872532D01*
X175407073Y-105872532D01*
X175505736Y-106139387D01*
X176115461Y-106365908D01*
X176765460Y-106341856D01*
X177254264Y-106139387D01*
X177352927Y-105872532D01*
X181907073Y-105872532D01*
X182005736Y-106139387D01*
X182615461Y-106365908D01*
X183265460Y-106341856D01*
X183754264Y-106139387D01*
X183852927Y-105872532D01*
X182880000Y-104899605D01*
X181907073Y-105872532D01*
X177352927Y-105872532D01*
X176380000Y-104899605D01*
X175407073Y-105872532D01*
X169205000Y-105872532D01*
X169205000Y-104846083D01*
X169043200Y-104455461D01*
X174734092Y-104455461D01*
X174758144Y-105105460D01*
X174960613Y-105594264D01*
X175227468Y-105692927D01*
X176200395Y-104720000D01*
X176559605Y-104720000D01*
X177532532Y-105692927D01*
X177799387Y-105594264D01*
X178025908Y-104984539D01*
X178006331Y-104455461D01*
X181234092Y-104455461D01*
X181258144Y-105105460D01*
X181460613Y-105594264D01*
X181727468Y-105692927D01*
X182700395Y-104720000D01*
X183059605Y-104720000D01*
X184032532Y-105692927D01*
X184299387Y-105594264D01*
X184525908Y-104984539D01*
X184501856Y-104334540D01*
X184299387Y-103845736D01*
X184032532Y-103747073D01*
X183059605Y-104720000D01*
X182700395Y-104720000D01*
X181727468Y-103747073D01*
X181460613Y-103845736D01*
X181234092Y-104455461D01*
X178006331Y-104455461D01*
X178001856Y-104334540D01*
X177799387Y-103845736D01*
X177532532Y-103747073D01*
X176559605Y-104720000D01*
X176200395Y-104720000D01*
X175227468Y-103747073D01*
X174960613Y-103845736D01*
X174734092Y-104455461D01*
X169043200Y-104455461D01*
X168773397Y-103804101D01*
X168536764Y-103567468D01*
X175407073Y-103567468D01*
X176380000Y-104540395D01*
X177352927Y-103567468D01*
X181907073Y-103567468D01*
X182880000Y-104540395D01*
X183852927Y-103567468D01*
X183754264Y-103300613D01*
X183144539Y-103074092D01*
X182494540Y-103098144D01*
X182005736Y-103300613D01*
X181907073Y-103567468D01*
X177352927Y-103567468D01*
X177254264Y-103300613D01*
X176644539Y-103074092D01*
X175994540Y-103098144D01*
X175505736Y-103300613D01*
X175407073Y-103567468D01*
X168536764Y-103567468D01*
X167975899Y-103006603D01*
X166933917Y-102575000D01*
X165806083Y-102575000D01*
X164764101Y-103006603D01*
X163966603Y-103804101D01*
X163535000Y-104846083D01*
X152910885Y-104846083D01*
X152469801Y-104405000D01*
X152705330Y-104405000D01*
X153269507Y-104171310D01*
X153701310Y-103739507D01*
X153935000Y-103175330D01*
X153935000Y-102564670D01*
X153701310Y-102000493D01*
X153655317Y-101954500D01*
X167208953Y-101954500D01*
X167283800Y-101969388D01*
X167358647Y-101954500D01*
X167358652Y-101954500D01*
X167580337Y-101910404D01*
X167831729Y-101742429D01*
X167874131Y-101678970D01*
X169142373Y-100410729D01*
X169205829Y-100368329D01*
X169373804Y-100116937D01*
X169417900Y-99895252D01*
X169417900Y-99895247D01*
X169432788Y-99820400D01*
X169417900Y-99745553D01*
X169417900Y-98452748D01*
X169432788Y-98377900D01*
X169417900Y-98303052D01*
X169417900Y-98303048D01*
X169373804Y-98081363D01*
X169205829Y-97829971D01*
X169142373Y-97787571D01*
X168910000Y-97555198D01*
X168910000Y-97059425D01*
X168710564Y-96577945D01*
X168452619Y-96320000D01*
X168710564Y-96062055D01*
X168910000Y-95580575D01*
X168910000Y-95059425D01*
X168710564Y-94577945D01*
X168452619Y-94320000D01*
X168710564Y-94062055D01*
X168910000Y-93580575D01*
X168910000Y-93059425D01*
X168710564Y-92577945D01*
X168452619Y-92320000D01*
X168710564Y-92062055D01*
X168910000Y-91580575D01*
X168910000Y-91059425D01*
X168710564Y-90577945D01*
X168452619Y-90320000D01*
X168710564Y-90062055D01*
X168910000Y-89580575D01*
X168910000Y-89059425D01*
X168710564Y-88577945D01*
X168342055Y-88209436D01*
X168287045Y-88186650D01*
X168135000Y-88034605D01*
X168135000Y-87675395D01*
X168517147Y-88057542D01*
X168750328Y-87998781D01*
X168922522Y-87506900D01*
X168893375Y-86986566D01*
X168750328Y-86641219D01*
X168517147Y-86582458D01*
X168135000Y-86964605D01*
X168135000Y-86605395D01*
X168287045Y-86453350D01*
X168342055Y-86430564D01*
X168710564Y-86062055D01*
X168910000Y-85580575D01*
X168910000Y-85059425D01*
X168710564Y-84577945D01*
X168342055Y-84209436D01*
X167860575Y-84010000D01*
X167562541Y-84010000D01*
X167500000Y-83997560D01*
X165700000Y-83997560D01*
X165452235Y-84046843D01*
X165242191Y-84187191D01*
X165101843Y-84397235D01*
X165052560Y-84645000D01*
X165052560Y-85995000D01*
X165101843Y-86242765D01*
X165149654Y-86314318D01*
X165065000Y-86518690D01*
X165065000Y-87034250D01*
X165223750Y-87193000D01*
X166280833Y-87193000D01*
X166295061Y-87447000D01*
X165223750Y-87447000D01*
X165065000Y-87605750D01*
X165065000Y-88121310D01*
X165149654Y-88325682D01*
X165101843Y-88397235D01*
X165069467Y-88560000D01*
X163250102Y-88560000D01*
X161835631Y-87145530D01*
X161793229Y-87082071D01*
X161541837Y-86914096D01*
X161517440Y-86909243D01*
X161517440Y-86780000D01*
X161468157Y-86532235D01*
X161327809Y-86322191D01*
X161117765Y-86181843D01*
X160870000Y-86132560D01*
X159170000Y-86132560D01*
X158922235Y-86181843D01*
X158712191Y-86322191D01*
X158571843Y-86532235D01*
X158522560Y-86780000D01*
X158522560Y-88292357D01*
X155034931Y-84804730D01*
X154992529Y-84741271D01*
X154741137Y-84573296D01*
X154519452Y-84529200D01*
X154519447Y-84529200D01*
X154444600Y-84514312D01*
X154369753Y-84529200D01*
X149459801Y-84529200D01*
X152547424Y-81441578D01*
X152572235Y-81458157D01*
X152820000Y-81507440D01*
X154520000Y-81507440D01*
X154767765Y-81458157D01*
X154977809Y-81317809D01*
X155118157Y-81107765D01*
X155167440Y-80860000D01*
X155167440Y-79160000D01*
X155118157Y-78912235D01*
X154977809Y-78702191D01*
X154873069Y-78632205D01*
X154874829Y-78631029D01*
X154917231Y-78567570D01*
X157141698Y-76343103D01*
X157194561Y-76365000D01*
X157765439Y-76365000D01*
X158292862Y-76146534D01*
X158696534Y-75742862D01*
X158885403Y-75286892D01*
X164928514Y-75286892D01*
X165174817Y-75811358D01*
X165603076Y-76201645D01*
X166013110Y-76371476D01*
X166243000Y-76250155D01*
X166243000Y-75057000D01*
X165049181Y-75057000D01*
X164928514Y-75286892D01*
X158885403Y-75286892D01*
X158915000Y-75215439D01*
X158915000Y-74644561D01*
X158838801Y-74460600D01*
X164981351Y-74460600D01*
X164928514Y-74573108D01*
X165049181Y-74803000D01*
X166243000Y-74803000D01*
X166243000Y-74783000D01*
X166497000Y-74783000D01*
X166497000Y-74803000D01*
X166517000Y-74803000D01*
X166517000Y-75057000D01*
X166497000Y-75057000D01*
X166497000Y-76250155D01*
X166726890Y-76371476D01*
X167136924Y-76201645D01*
X167441261Y-75924292D01*
X167461843Y-76027765D01*
X167602191Y-76237809D01*
X167812235Y-76378157D01*
X168060000Y-76427440D01*
X169760000Y-76427440D01*
X170007765Y-76378157D01*
X170217809Y-76237809D01*
X170358157Y-76027765D01*
X170407440Y-75780000D01*
X170407440Y-74080000D01*
X170358157Y-73832235D01*
X170217809Y-73622191D01*
X170007765Y-73481843D01*
X169760000Y-73432560D01*
X168060000Y-73432560D01*
X167812235Y-73481843D01*
X167787423Y-73498422D01*
X167505131Y-73216130D01*
X167462729Y-73152671D01*
X167211337Y-72984696D01*
X166989652Y-72940600D01*
X166989647Y-72940600D01*
X166914800Y-72925712D01*
X166839953Y-72940600D01*
X150622547Y-72940600D01*
X150547700Y-72925712D01*
X150472853Y-72940600D01*
X150472848Y-72940600D01*
X150251163Y-72984696D01*
X149999771Y-73152671D01*
X149957371Y-73216127D01*
X148693585Y-74479913D01*
X148671740Y-74370091D01*
X148354577Y-73895423D01*
X147879909Y-73578260D01*
X147461333Y-73495000D01*
X147178667Y-73495000D01*
X146760091Y-73578260D01*
X146285423Y-73895423D01*
X146106878Y-74162634D01*
X146069848Y-74170000D01*
X146022344Y-74179449D01*
X145996534Y-74117138D01*
X145592862Y-73713466D01*
X145065439Y-73495000D01*
X144494561Y-73495000D01*
X143967138Y-73713466D01*
X143563466Y-74117138D01*
X143345000Y-74644561D01*
X143345000Y-75215439D01*
X143438016Y-75440000D01*
X135981668Y-75440000D01*
X136083113Y-74930000D01*
X135971740Y-74370091D01*
X135654577Y-73895423D01*
X135179909Y-73578260D01*
X134761333Y-73495000D01*
X134478667Y-73495000D01*
X134060091Y-73578260D01*
X133585423Y-73895423D01*
X133401957Y-74170000D01*
X129814802Y-74170000D01*
X129643103Y-73998302D01*
X129665000Y-73945439D01*
X129665000Y-73374561D01*
X129446534Y-72847138D01*
X129042862Y-72443466D01*
X128515439Y-72225000D01*
X127944561Y-72225000D01*
X127417138Y-72443466D01*
X127013466Y-72847138D01*
X126986475Y-72912299D01*
X126983864Y-72905995D01*
X126737745Y-72831861D01*
X125909605Y-73660000D01*
X126737745Y-74488139D01*
X126983864Y-74414005D01*
X126986290Y-74407254D01*
X127013466Y-74472862D01*
X127417138Y-74876534D01*
X127546216Y-74930000D01*
X127417138Y-74983466D01*
X127013466Y-75387138D01*
X126986475Y-75452299D01*
X126983864Y-75445995D01*
X126737745Y-75371861D01*
X125909605Y-76200000D01*
X125923748Y-76214142D01*
X125744142Y-76393748D01*
X125730000Y-76379605D01*
X124901861Y-77207745D01*
X124975995Y-77453864D01*
X125335657Y-77583141D01*
X123975530Y-78943269D01*
X123912071Y-78985671D01*
X123744096Y-79237064D01*
X123700000Y-79458749D01*
X123700000Y-79458753D01*
X123685112Y-79533600D01*
X123700000Y-79608447D01*
X123700001Y-86283330D01*
X123590493Y-86328690D01*
X123359689Y-86559494D01*
X121385000Y-83597460D01*
X121385000Y-75983223D01*
X124283035Y-75983223D01*
X124310222Y-76553454D01*
X124476136Y-76954005D01*
X124722255Y-77028139D01*
X125550395Y-76200000D01*
X124722255Y-75371861D01*
X124476136Y-75445995D01*
X124283035Y-75983223D01*
X121385000Y-75983223D01*
X121385000Y-74667745D01*
X124901861Y-74667745D01*
X124975995Y-74913864D01*
X125017709Y-74928858D01*
X124975995Y-74946136D01*
X124901861Y-75192255D01*
X125730000Y-76020395D01*
X126558139Y-75192255D01*
X126484005Y-74946136D01*
X126442291Y-74931142D01*
X126484005Y-74913864D01*
X126558139Y-74667745D01*
X125730000Y-73839605D01*
X124901861Y-74667745D01*
X121385000Y-74667745D01*
X121385000Y-73443223D01*
X124283035Y-73443223D01*
X124310222Y-74013454D01*
X124476136Y-74414005D01*
X124722255Y-74488139D01*
X125550395Y-73660000D01*
X124722255Y-72831861D01*
X124476136Y-72905995D01*
X124283035Y-73443223D01*
X121385000Y-73443223D01*
X121385000Y-72652255D01*
X124901861Y-72652255D01*
X125730000Y-73480395D01*
X126558139Y-72652255D01*
X126484005Y-72406136D01*
X125946777Y-72213035D01*
X125376546Y-72240222D01*
X124975995Y-72406136D01*
X124901861Y-72652255D01*
X121385000Y-72652255D01*
X121385000Y-67730000D01*
X124232560Y-67730000D01*
X124232560Y-69430000D01*
X124281843Y-69677765D01*
X124422191Y-69887809D01*
X124632235Y-70028157D01*
X124880000Y-70077440D01*
X126580000Y-70077440D01*
X126827765Y-70028157D01*
X127037809Y-69887809D01*
X127178157Y-69677765D01*
X127198739Y-69574292D01*
X127503076Y-69851645D01*
X127913110Y-70021476D01*
X128143000Y-69900155D01*
X128143000Y-68707000D01*
X128123000Y-68707000D01*
X128123000Y-68453000D01*
X128143000Y-68453000D01*
X128143000Y-67259845D01*
X128397000Y-67259845D01*
X128397000Y-68453000D01*
X128417000Y-68453000D01*
X128417000Y-68707000D01*
X128397000Y-68707000D01*
X128397000Y-69900155D01*
X128626890Y-70021476D01*
X129036924Y-69851645D01*
X129465183Y-69461358D01*
X129526157Y-69331522D01*
X129739375Y-69650625D01*
X130230582Y-69978839D01*
X130663744Y-70065000D01*
X130956256Y-70065000D01*
X131389418Y-69978839D01*
X131880625Y-69650625D01*
X132080000Y-69352239D01*
X132279375Y-69650625D01*
X132770582Y-69978839D01*
X133203744Y-70065000D01*
X133496256Y-70065000D01*
X133929418Y-69978839D01*
X134420625Y-69650625D01*
X134480906Y-69560408D01*
X135763771Y-70843273D01*
X135806171Y-70906729D01*
X136057563Y-71074704D01*
X136279248Y-71118800D01*
X136279252Y-71118800D01*
X136354099Y-71133688D01*
X136428946Y-71118800D01*
X151050553Y-71118800D01*
X151125400Y-71133688D01*
X151200247Y-71118800D01*
X151200252Y-71118800D01*
X151421937Y-71074704D01*
X151673329Y-70906729D01*
X151715731Y-70843270D01*
X152784608Y-69774394D01*
X153090582Y-69978839D01*
X153523744Y-70065000D01*
X153816256Y-70065000D01*
X154249418Y-69978839D01*
X154740625Y-69650625D01*
X154800906Y-69560408D01*
X155530373Y-70289876D01*
X155572771Y-70353329D01*
X155636224Y-70395727D01*
X155636226Y-70395729D01*
X155681424Y-70425929D01*
X155824163Y-70521304D01*
X156045848Y-70565400D01*
X156045852Y-70565400D01*
X156120699Y-70580288D01*
X156195546Y-70565400D01*
X167314653Y-70565400D01*
X167389500Y-70580288D01*
X167464347Y-70565400D01*
X167464352Y-70565400D01*
X167686037Y-70521304D01*
X167937429Y-70353329D01*
X167979831Y-70289870D01*
X168079870Y-70189831D01*
X168143329Y-70147429D01*
X168298071Y-69915842D01*
X168553110Y-70021476D01*
X168783000Y-69900155D01*
X168783000Y-68707000D01*
X168763000Y-68707000D01*
X168763000Y-68453000D01*
X168783000Y-68453000D01*
X168783000Y-68433000D01*
X169037000Y-68433000D01*
X169037000Y-68453000D01*
X169057000Y-68453000D01*
X169057000Y-68707000D01*
X169037000Y-68707000D01*
X169037000Y-69900155D01*
X169266890Y-70021476D01*
X169676924Y-69851645D01*
X170105183Y-69461358D01*
X170166157Y-69331522D01*
X170379375Y-69650625D01*
X170870582Y-69978839D01*
X171303744Y-70065000D01*
X171596256Y-70065000D01*
X172029418Y-69978839D01*
X172520625Y-69650625D01*
X172720000Y-69352239D01*
X172919375Y-69650625D01*
X173410582Y-69978839D01*
X173843744Y-70065000D01*
X174136256Y-70065000D01*
X174569418Y-69978839D01*
X175060625Y-69650625D01*
X175388839Y-69159418D01*
X175504092Y-68580000D01*
X175391923Y-68016083D01*
X180045000Y-68016083D01*
X180045000Y-69143917D01*
X180476603Y-70185899D01*
X181274101Y-70983397D01*
X182316083Y-71415000D01*
X183443917Y-71415000D01*
X184485899Y-70983397D01*
X185283397Y-70185899D01*
X185715000Y-69143917D01*
X185715000Y-68016083D01*
X185283397Y-66974101D01*
X184485899Y-66176603D01*
X183443917Y-65745000D01*
X182316083Y-65745000D01*
X181274101Y-66176603D01*
X180476603Y-66974101D01*
X180045000Y-68016083D01*
X175391923Y-68016083D01*
X175388839Y-68000582D01*
X175060625Y-67509375D01*
X174569418Y-67181161D01*
X174136256Y-67095000D01*
X173843744Y-67095000D01*
X173410582Y-67181161D01*
X173104608Y-67385606D01*
X172588631Y-66869630D01*
X172546229Y-66806171D01*
X172294837Y-66638196D01*
X172073152Y-66594100D01*
X172073147Y-66594100D01*
X171998300Y-66579212D01*
X171923453Y-66594100D01*
X168474448Y-66594100D01*
X168399600Y-66579212D01*
X168324752Y-66594100D01*
X168324748Y-66594100D01*
X168103063Y-66638196D01*
X167851671Y-66806171D01*
X167809271Y-66869627D01*
X167515296Y-67163602D01*
X167467765Y-67131843D01*
X167220000Y-67082560D01*
X165520000Y-67082560D01*
X165272235Y-67131843D01*
X165062191Y-67272191D01*
X165001909Y-67362408D01*
X164509731Y-66870230D01*
X164467329Y-66806771D01*
X164215937Y-66638796D01*
X163994252Y-66594700D01*
X163994247Y-66594700D01*
X163919400Y-66579812D01*
X163844553Y-66594700D01*
X148115846Y-66594700D01*
X148040999Y-66579812D01*
X147966152Y-66594700D01*
X147966148Y-66594700D01*
X147744463Y-66638796D01*
X147744461Y-66638797D01*
X147744462Y-66638797D01*
X147556526Y-66764371D01*
X147556524Y-66764373D01*
X147493071Y-66806771D01*
X147450673Y-66870225D01*
X147172516Y-67148381D01*
X147147765Y-67131843D01*
X146900000Y-67082560D01*
X145200000Y-67082560D01*
X144952235Y-67131843D01*
X144742191Y-67272191D01*
X144601843Y-67482235D01*
X144552560Y-67730000D01*
X144552560Y-69045300D01*
X143221702Y-69045300D01*
X141046631Y-66870230D01*
X141004229Y-66806771D01*
X140752837Y-66638796D01*
X140531152Y-66594700D01*
X140531147Y-66594700D01*
X140456300Y-66579812D01*
X140381453Y-66594700D01*
X132875846Y-66594700D01*
X132800999Y-66579812D01*
X132726152Y-66594700D01*
X132726148Y-66594700D01*
X132504463Y-66638796D01*
X132504461Y-66638797D01*
X132504462Y-66638797D01*
X132316526Y-66764371D01*
X132316524Y-66764373D01*
X132253071Y-66806771D01*
X132210673Y-66870225D01*
X131695332Y-67385566D01*
X131389418Y-67181161D01*
X130956256Y-67095000D01*
X130663744Y-67095000D01*
X130230582Y-67181161D01*
X129739375Y-67509375D01*
X129526157Y-67828478D01*
X129465183Y-67698642D01*
X129036924Y-67308355D01*
X128626890Y-67138524D01*
X128397000Y-67259845D01*
X128143000Y-67259845D01*
X127913110Y-67138524D01*
X127503076Y-67308355D01*
X127198739Y-67585708D01*
X127178157Y-67482235D01*
X127037809Y-67272191D01*
X126827765Y-67131843D01*
X126580000Y-67082560D01*
X124880000Y-67082560D01*
X124632235Y-67131843D01*
X124422191Y-67272191D01*
X124281843Y-67482235D01*
X124232560Y-67730000D01*
X121385000Y-67730000D01*
X121385000Y-65505000D01*
X185980001Y-65505000D01*
X185980000Y-87335909D01*
X185980000Y-87335909D01*
G37*
X185980000Y-87335909D02*
X183697402Y-89618508D01*
X183638120Y-89658119D01*
X183549240Y-89791137D01*
X183481196Y-89892972D01*
X183426091Y-90170000D01*
X183440001Y-90239929D01*
X183440000Y-96450076D01*
X183426091Y-96520000D01*
X183440000Y-96589924D01*
X183440000Y-96589925D01*
X183481195Y-96797027D01*
X183638119Y-97031880D01*
X183697402Y-97071492D01*
X185980000Y-99354091D01*
X185980001Y-117400000D01*
X148589306Y-117400000D01*
X148449514Y-117399854D01*
X148383271Y-117427212D01*
X148312972Y-117441195D01*
X148196200Y-117519220D01*
X144602530Y-119915000D01*
X121385000Y-119915000D01*
X121385000Y-117125750D01*
X122975000Y-117125750D01*
X122975000Y-117816310D01*
X123071673Y-118049699D01*
X123250302Y-118228327D01*
X123483691Y-118325000D01*
X124174250Y-118325000D01*
X124333000Y-118166250D01*
X124333000Y-116967000D01*
X124587000Y-116967000D01*
X124587000Y-118166250D01*
X124745750Y-118325000D01*
X125436309Y-118325000D01*
X125669698Y-118228327D01*
X125848327Y-118049699D01*
X125945000Y-117816310D01*
X125945000Y-117125750D01*
X125786250Y-116967000D01*
X124587000Y-116967000D01*
X124333000Y-116967000D01*
X123133750Y-116967000D01*
X122975000Y-117125750D01*
X121385000Y-117125750D01*
X121385000Y-109220000D01*
X122945908Y-109220000D01*
X123061161Y-109799418D01*
X123389375Y-110290625D01*
X123687761Y-110490000D01*
X123389375Y-110689375D01*
X123061161Y-111180582D01*
X122945908Y-111760000D01*
X123061161Y-112339418D01*
X123389375Y-112830625D01*
X123687761Y-113030000D01*
X123389375Y-113229375D01*
X123061161Y-113720582D01*
X122945908Y-114300000D01*
X123061161Y-114879418D01*
X123389375Y-115370625D01*
X123411033Y-115385096D01*
X123250302Y-115451673D01*
X123071673Y-115630301D01*
X122975000Y-115863690D01*
X122975000Y-116554250D01*
X123133750Y-116713000D01*
X124333000Y-116713000D01*
X124333000Y-116693000D01*
X124587000Y-116693000D01*
X124587000Y-116713000D01*
X125786250Y-116713000D01*
X125945000Y-116554250D01*
X125945000Y-115863690D01*
X125848327Y-115630301D01*
X125669698Y-115451673D01*
X125508967Y-115385096D01*
X125530625Y-115370625D01*
X125738178Y-115060000D01*
X134651570Y-115060000D01*
X134673466Y-115112862D01*
X135077138Y-115516534D01*
X135604561Y-115735000D01*
X136175439Y-115735000D01*
X136702862Y-115516534D01*
X137106534Y-115112862D01*
X137140000Y-115032068D01*
X137173466Y-115112862D01*
X137577138Y-115516534D01*
X138104561Y-115735000D01*
X138675439Y-115735000D01*
X139202862Y-115516534D01*
X139606534Y-115112862D01*
X139825000Y-114585439D01*
X139825000Y-114014561D01*
X139606534Y-113487138D01*
X139202862Y-113083466D01*
X138675439Y-112865000D01*
X138104561Y-112865000D01*
X137577138Y-113083466D01*
X137173466Y-113487138D01*
X137140000Y-113567932D01*
X137106534Y-113487138D01*
X136702862Y-113083466D01*
X136175439Y-112865000D01*
X135604561Y-112865000D01*
X135077138Y-113083466D01*
X134673466Y-113487138D01*
X134651570Y-113540000D01*
X125738178Y-113540000D01*
X125530625Y-113229375D01*
X125232239Y-113030000D01*
X125530625Y-112830625D01*
X125738178Y-112520000D01*
X139385199Y-112520000D01*
X141042560Y-114177362D01*
X141042560Y-114525000D01*
X141112777Y-114878003D01*
X141312736Y-115177264D01*
X141611997Y-115377223D01*
X141965000Y-115447440D01*
X142312560Y-115447440D01*
X142312560Y-116595000D01*
X142382777Y-116948003D01*
X142582736Y-117247264D01*
X142881997Y-117447223D01*
X143235000Y-117517440D01*
X143785000Y-117517440D01*
X144138003Y-117447223D01*
X144437264Y-117247264D01*
X144637223Y-116948003D01*
X144707440Y-116595000D01*
X144707440Y-115345000D01*
X144653000Y-115071313D01*
X144653000Y-114027000D01*
X144907000Y-114027000D01*
X144907000Y-115276250D01*
X145065750Y-115435000D01*
X145456309Y-115435000D01*
X145689698Y-115338327D01*
X145868327Y-115159699D01*
X145965000Y-114926310D01*
X145965000Y-114585750D01*
X155995000Y-114585750D01*
X155995000Y-115276309D01*
X156091673Y-115509698D01*
X156270301Y-115688327D01*
X156503690Y-115785000D01*
X157194250Y-115785000D01*
X157353000Y-115626250D01*
X157353000Y-114427000D01*
X157607000Y-114427000D01*
X157607000Y-115626250D01*
X157765750Y-115785000D01*
X158456310Y-115785000D01*
X158689699Y-115688327D01*
X158868327Y-115509698D01*
X158955136Y-115300122D01*
X159253076Y-115571645D01*
X159663110Y-115741476D01*
X159893000Y-115620155D01*
X159893000Y-114427000D01*
X160147000Y-114427000D01*
X160147000Y-115620155D01*
X160376890Y-115741476D01*
X160786924Y-115571645D01*
X161215183Y-115181358D01*
X161290000Y-115022046D01*
X161364817Y-115181358D01*
X161793076Y-115571645D01*
X162203110Y-115741476D01*
X162433000Y-115620155D01*
X162433000Y-114427000D01*
X160147000Y-114427000D01*
X159893000Y-114427000D01*
X157607000Y-114427000D01*
X157353000Y-114427000D01*
X156153750Y-114427000D01*
X155995000Y-114585750D01*
X145965000Y-114585750D01*
X145965000Y-114185750D01*
X145806250Y-114027000D01*
X144907000Y-114027000D01*
X144653000Y-114027000D01*
X143753750Y-114027000D01*
X143595000Y-114185750D01*
X143595000Y-114422560D01*
X143437440Y-114422560D01*
X143437440Y-113275000D01*
X143367223Y-112921997D01*
X143334946Y-112873690D01*
X143595000Y-112873690D01*
X143595000Y-113614250D01*
X143753750Y-113773000D01*
X144653000Y-113773000D01*
X144653000Y-112523750D01*
X144907000Y-112523750D01*
X144907000Y-113773000D01*
X145806250Y-113773000D01*
X145965000Y-113614250D01*
X145965000Y-112873690D01*
X145868327Y-112640301D01*
X145689698Y-112461673D01*
X145456309Y-112365000D01*
X145065750Y-112365000D01*
X144907000Y-112523750D01*
X144653000Y-112523750D01*
X144494250Y-112365000D01*
X144103691Y-112365000D01*
X143870302Y-112461673D01*
X143691673Y-112640301D01*
X143595000Y-112873690D01*
X143334946Y-112873690D01*
X143167264Y-112622736D01*
X142868003Y-112422777D01*
X142515000Y-112352560D01*
X141965000Y-112352560D01*
X141611997Y-112422777D01*
X141507441Y-112492639D01*
X140290331Y-111275530D01*
X140247929Y-111212071D01*
X139996537Y-111044096D01*
X139774852Y-111000000D01*
X139774847Y-111000000D01*
X139700000Y-110985112D01*
X139625153Y-111000000D01*
X125738178Y-111000000D01*
X125530625Y-110689375D01*
X125232239Y-110490000D01*
X125530625Y-110290625D01*
X125858839Y-109799418D01*
X125974092Y-109220000D01*
X125917315Y-108934561D01*
X126835000Y-108934561D01*
X126835000Y-109505439D01*
X127053466Y-110032862D01*
X127457138Y-110436534D01*
X127984561Y-110655000D01*
X128555439Y-110655000D01*
X129082862Y-110436534D01*
X129486534Y-110032862D01*
X129705000Y-109505439D01*
X129705000Y-109220000D01*
X136966887Y-109220000D01*
X137078260Y-109779909D01*
X137395423Y-110254577D01*
X137870091Y-110571740D01*
X138288667Y-110655000D01*
X138571333Y-110655000D01*
X138989909Y-110571740D01*
X139464577Y-110254577D01*
X139781740Y-109779909D01*
X139893113Y-109220000D01*
X139781740Y-108660091D01*
X139464577Y-108185423D01*
X138989909Y-107868260D01*
X138571333Y-107785000D01*
X138288667Y-107785000D01*
X137870091Y-107868260D01*
X137395423Y-108185423D01*
X137078260Y-108660091D01*
X136966887Y-109220000D01*
X129705000Y-109220000D01*
X129705000Y-108934561D01*
X129486534Y-108407138D01*
X129082862Y-108003466D01*
X128555439Y-107785000D01*
X127984561Y-107785000D01*
X127457138Y-108003466D01*
X127053466Y-108407138D01*
X126835000Y-108934561D01*
X125917315Y-108934561D01*
X125858839Y-108640582D01*
X125530625Y-108149375D01*
X125039418Y-107821161D01*
X124606256Y-107735000D01*
X124313744Y-107735000D01*
X123880582Y-107821161D01*
X123389375Y-108149375D01*
X123061161Y-108640582D01*
X122945908Y-109220000D01*
X121385000Y-109220000D01*
X121385000Y-106902540D01*
X123359689Y-103940506D01*
X123590493Y-104171310D01*
X124154670Y-104405000D01*
X124765330Y-104405000D01*
X125329507Y-104171310D01*
X125730000Y-103770817D01*
X126130493Y-104171310D01*
X126694670Y-104405000D01*
X127305330Y-104405000D01*
X127869507Y-104171310D01*
X128270000Y-103770817D01*
X128670493Y-104171310D01*
X129234670Y-104405000D01*
X129845330Y-104405000D01*
X130409507Y-104171310D01*
X130630658Y-103950159D01*
X131179446Y-103950159D01*
X131265852Y-104206643D01*
X131839336Y-104416458D01*
X132449460Y-104390839D01*
X132894148Y-104206643D01*
X132980554Y-103950159D01*
X132080000Y-103049605D01*
X131179446Y-103950159D01*
X130630658Y-103950159D01*
X130841310Y-103739507D01*
X130849438Y-103719885D01*
X130999841Y-103770554D01*
X131900395Y-102870000D01*
X130999841Y-101969446D01*
X130849438Y-102020115D01*
X130841310Y-102000493D01*
X130630658Y-101789841D01*
X131179446Y-101789841D01*
X132080000Y-102690395D01*
X132980554Y-101789841D01*
X132894148Y-101533357D01*
X132320664Y-101323542D01*
X131710540Y-101349161D01*
X131265852Y-101533357D01*
X131179446Y-101789841D01*
X130630658Y-101789841D01*
X130409507Y-101568690D01*
X129845330Y-101335000D01*
X129234670Y-101335000D01*
X128670493Y-101568690D01*
X128270000Y-101969183D01*
X127869507Y-101568690D01*
X127305330Y-101335000D01*
X126694670Y-101335000D01*
X126130493Y-101568690D01*
X125730000Y-101969183D01*
X125329507Y-101568690D01*
X124765330Y-101335000D01*
X124154670Y-101335000D01*
X123925000Y-101430133D01*
X123925000Y-89069867D01*
X124154670Y-89165000D01*
X124765330Y-89165000D01*
X125329507Y-88931310D01*
X125550658Y-88710159D01*
X126099446Y-88710159D01*
X126185852Y-88966643D01*
X126759336Y-89176458D01*
X127369460Y-89150839D01*
X127814148Y-88966643D01*
X127900554Y-88710159D01*
X127000000Y-87809605D01*
X126099446Y-88710159D01*
X125550658Y-88710159D01*
X125761310Y-88499507D01*
X125769438Y-88479885D01*
X125919841Y-88530554D01*
X126820395Y-87630000D01*
X125919841Y-86729446D01*
X125769438Y-86780115D01*
X125761310Y-86760493D01*
X125550658Y-86549841D01*
X126099446Y-86549841D01*
X127000000Y-87450395D01*
X127900554Y-86549841D01*
X127814148Y-86293357D01*
X127240664Y-86083542D01*
X126630540Y-86109161D01*
X126185852Y-86293357D01*
X126099446Y-86549841D01*
X125550658Y-86549841D01*
X125329507Y-86328690D01*
X125220000Y-86283331D01*
X125220000Y-81388060D01*
X125373110Y-81451476D01*
X125603000Y-81330155D01*
X125603000Y-80137000D01*
X125583000Y-80137000D01*
X125583000Y-79883000D01*
X125603000Y-79883000D01*
X125603000Y-79863000D01*
X125857000Y-79863000D01*
X125857000Y-79883000D01*
X125877000Y-79883000D01*
X125877000Y-80137000D01*
X125857000Y-80137000D01*
X125857000Y-81330155D01*
X126086890Y-81451476D01*
X126496924Y-81281645D01*
X126801261Y-81004292D01*
X126821843Y-81107765D01*
X126962191Y-81317809D01*
X127172235Y-81458157D01*
X127420000Y-81507440D01*
X129120000Y-81507440D01*
X129367765Y-81458157D01*
X129577809Y-81317809D01*
X129718157Y-81107765D01*
X129767440Y-80860000D01*
X129767440Y-80730757D01*
X129791837Y-80725904D01*
X130043229Y-80557929D01*
X130085631Y-80494470D01*
X130213209Y-80366892D01*
X136988514Y-80366892D01*
X137234817Y-80891358D01*
X137663076Y-81281645D01*
X138073110Y-81451476D01*
X138303000Y-81330155D01*
X138303000Y-80137000D01*
X137109181Y-80137000D01*
X136988514Y-80366892D01*
X130213209Y-80366892D01*
X131737002Y-78843100D01*
X137548140Y-78843100D01*
X137234817Y-79128642D01*
X136988514Y-79653108D01*
X137109181Y-79883000D01*
X138303000Y-79883000D01*
X138303000Y-79863000D01*
X138557000Y-79863000D01*
X138557000Y-79883000D01*
X138577000Y-79883000D01*
X138577000Y-80137000D01*
X138557000Y-80137000D01*
X138557000Y-81330155D01*
X138786890Y-81451476D01*
X139196924Y-81281645D01*
X139501261Y-81004292D01*
X139521843Y-81107765D01*
X139662191Y-81317809D01*
X139872235Y-81458157D01*
X140120000Y-81507440D01*
X141820000Y-81507440D01*
X142067765Y-81458157D01*
X142277809Y-81317809D01*
X142418157Y-81107765D01*
X142467440Y-80860000D01*
X142467440Y-79160000D01*
X142418157Y-78912235D01*
X142371962Y-78843100D01*
X150248140Y-78843100D01*
X149934817Y-79128642D01*
X149688514Y-79653108D01*
X149809181Y-79883000D01*
X151003000Y-79883000D01*
X151003000Y-79863000D01*
X151257000Y-79863000D01*
X151257000Y-79883000D01*
X151277000Y-79883000D01*
X151277000Y-80137000D01*
X151257000Y-80137000D01*
X151257000Y-80157000D01*
X151003000Y-80157000D01*
X151003000Y-80137000D01*
X149809181Y-80137000D01*
X149688514Y-80366892D01*
X149934817Y-80891358D01*
X150363076Y-81281645D01*
X150500736Y-81338662D01*
X147768299Y-84071100D01*
X140033746Y-84071100D01*
X139958899Y-84056212D01*
X139884052Y-84071100D01*
X139884048Y-84071100D01*
X139662363Y-84115196D01*
X139662361Y-84115197D01*
X139662362Y-84115197D01*
X139474426Y-84240771D01*
X139474424Y-84240773D01*
X139410971Y-84283171D01*
X139368573Y-84346624D01*
X137574838Y-86140360D01*
X137465330Y-86095000D01*
X136854670Y-86095000D01*
X136290493Y-86328690D01*
X135890000Y-86729183D01*
X135489507Y-86328690D01*
X134925330Y-86095000D01*
X134314670Y-86095000D01*
X133750493Y-86328690D01*
X133350000Y-86729183D01*
X132949507Y-86328690D01*
X132385330Y-86095000D01*
X131774670Y-86095000D01*
X131210493Y-86328690D01*
X130810000Y-86729183D01*
X130409507Y-86328690D01*
X129845330Y-86095000D01*
X129234670Y-86095000D01*
X128670493Y-86328690D01*
X128238690Y-86760493D01*
X128230562Y-86780115D01*
X128080159Y-86729446D01*
X127179605Y-87630000D01*
X128080159Y-88530554D01*
X128230562Y-88479885D01*
X128238690Y-88499507D01*
X128670493Y-88931310D01*
X129234670Y-89165000D01*
X129429799Y-89165000D01*
X138651371Y-98386573D01*
X138693771Y-98450029D01*
X138757227Y-98492429D01*
X138945162Y-98618004D01*
X138993305Y-98627580D01*
X139166848Y-98662100D01*
X139166852Y-98662100D01*
X139241700Y-98676988D01*
X139316548Y-98662100D01*
X156067753Y-98662100D01*
X156142600Y-98676988D01*
X156217447Y-98662100D01*
X156217452Y-98662100D01*
X156439137Y-98618004D01*
X156690529Y-98450029D01*
X156732931Y-98386570D01*
X158889094Y-96230408D01*
X158949375Y-96320625D01*
X159440582Y-96648839D01*
X159873744Y-96735000D01*
X160166256Y-96735000D01*
X160599418Y-96648839D01*
X161090625Y-96320625D01*
X161364997Y-95909998D01*
X164564700Y-99109703D01*
X164564700Y-99245148D01*
X164549811Y-99320000D01*
X164608796Y-99616537D01*
X164683811Y-99728804D01*
X164776771Y-99867929D01*
X165028163Y-100035904D01*
X165062036Y-100042642D01*
X165101843Y-100242765D01*
X165229957Y-100434500D01*
X136370348Y-100434500D01*
X136295500Y-100419612D01*
X136220652Y-100434500D01*
X136220648Y-100434500D01*
X136047105Y-100469020D01*
X135998962Y-100478596D01*
X135827511Y-100593157D01*
X135747571Y-100646571D01*
X135705171Y-100710027D01*
X135034838Y-101380360D01*
X134925330Y-101335000D01*
X134314670Y-101335000D01*
X133750493Y-101568690D01*
X133318690Y-102000493D01*
X133310562Y-102020115D01*
X133160159Y-101969446D01*
X132259605Y-102870000D01*
X133160159Y-103770554D01*
X133310562Y-103719885D01*
X133318690Y-103739507D01*
X133750493Y-104171310D01*
X134314670Y-104405000D01*
X134925330Y-104405000D01*
X135489507Y-104171310D01*
X135890000Y-103770817D01*
X136290493Y-104171310D01*
X136854670Y-104405000D01*
X137465330Y-104405000D01*
X138029507Y-104171310D01*
X138076208Y-104124609D01*
X141800438Y-107848840D01*
X141427138Y-108003466D01*
X141023466Y-108407138D01*
X140805000Y-108934561D01*
X140805000Y-109505439D01*
X141023466Y-110032862D01*
X141427138Y-110436534D01*
X141954561Y-110655000D01*
X142525439Y-110655000D01*
X143052862Y-110436534D01*
X143456534Y-110032862D01*
X143611160Y-109659562D01*
X147510770Y-113559172D01*
X147553171Y-113622629D01*
X147804563Y-113790604D01*
X148026248Y-113834700D01*
X148026252Y-113834700D01*
X148101099Y-113849588D01*
X148175946Y-113834700D01*
X155995000Y-113834700D01*
X155995000Y-114014250D01*
X156153750Y-114173000D01*
X157353000Y-114173000D01*
X157353000Y-114153000D01*
X157607000Y-114153000D01*
X157607000Y-114173000D01*
X159893000Y-114173000D01*
X159893000Y-114153000D01*
X160147000Y-114153000D01*
X160147000Y-114173000D01*
X162433000Y-114173000D01*
X162433000Y-114153000D01*
X162687000Y-114153000D01*
X162687000Y-114173000D01*
X162707000Y-114173000D01*
X162707000Y-114427000D01*
X162687000Y-114427000D01*
X162687000Y-115620155D01*
X162916890Y-115741476D01*
X163326924Y-115571645D01*
X163755183Y-115181358D01*
X163811123Y-115062243D01*
X163825190Y-115065041D01*
X164029375Y-115370625D01*
X164520582Y-115698839D01*
X164953744Y-115785000D01*
X165246256Y-115785000D01*
X165679418Y-115698839D01*
X166170625Y-115370625D01*
X166383843Y-115051522D01*
X166444817Y-115181358D01*
X166873076Y-115571645D01*
X167283110Y-115741476D01*
X167513000Y-115620155D01*
X167513000Y-114427000D01*
X167493000Y-114427000D01*
X167493000Y-114173000D01*
X167513000Y-114173000D01*
X167513000Y-114153000D01*
X167767000Y-114153000D01*
X167767000Y-114173000D01*
X167787000Y-114173000D01*
X167787000Y-114427000D01*
X167767000Y-114427000D01*
X167767000Y-115620155D01*
X167996890Y-115741476D01*
X168406924Y-115571645D01*
X168835183Y-115181358D01*
X168891123Y-115062243D01*
X168905190Y-115065041D01*
X169109375Y-115370625D01*
X169600582Y-115698839D01*
X170033744Y-115785000D01*
X170326256Y-115785000D01*
X170759418Y-115698839D01*
X171250625Y-115370625D01*
X171450000Y-115072239D01*
X171649375Y-115370625D01*
X172140582Y-115698839D01*
X172573744Y-115785000D01*
X172866256Y-115785000D01*
X173299418Y-115698839D01*
X173790625Y-115370625D01*
X173990000Y-115072239D01*
X174189375Y-115370625D01*
X174680582Y-115698839D01*
X175113744Y-115785000D01*
X175406256Y-115785000D01*
X175839418Y-115698839D01*
X176330625Y-115370625D01*
X176530000Y-115072239D01*
X176729375Y-115370625D01*
X177220582Y-115698839D01*
X177653744Y-115785000D01*
X177946256Y-115785000D01*
X178379418Y-115698839D01*
X178870625Y-115370625D01*
X179083843Y-115051522D01*
X179144817Y-115181358D01*
X179573076Y-115571645D01*
X179983110Y-115741476D01*
X180213000Y-115620155D01*
X180213000Y-114427000D01*
X180193000Y-114427000D01*
X180193000Y-114173000D01*
X180213000Y-114173000D01*
X180213000Y-112979845D01*
X180467000Y-112979845D01*
X180467000Y-114173000D01*
X180487000Y-114173000D01*
X180487000Y-114427000D01*
X180467000Y-114427000D01*
X180467000Y-115620155D01*
X180696890Y-115741476D01*
X181106924Y-115571645D01*
X181535183Y-115181358D01*
X181596157Y-115051522D01*
X181809375Y-115370625D01*
X182300582Y-115698839D01*
X182733744Y-115785000D01*
X183026256Y-115785000D01*
X183459418Y-115698839D01*
X183950625Y-115370625D01*
X184278839Y-114879418D01*
X184394092Y-114300000D01*
X184278839Y-113720582D01*
X183950625Y-113229375D01*
X183459418Y-112901161D01*
X183026256Y-112815000D01*
X182733744Y-112815000D01*
X182300582Y-112901161D01*
X181809375Y-113229375D01*
X181596157Y-113548478D01*
X181535183Y-113418642D01*
X181106924Y-113028355D01*
X180696890Y-112858524D01*
X180467000Y-112979845D01*
X180213000Y-112979845D01*
X179983110Y-112858524D01*
X179573076Y-113028355D01*
X179144817Y-113418642D01*
X179083843Y-113548478D01*
X178870625Y-113229375D01*
X178379418Y-112901161D01*
X177946256Y-112815000D01*
X177653744Y-112815000D01*
X177220582Y-112901161D01*
X176729375Y-113229375D01*
X176530000Y-113527761D01*
X176330625Y-113229375D01*
X175839418Y-112901161D01*
X175406256Y-112815000D01*
X175113744Y-112815000D01*
X174680582Y-112901161D01*
X174189375Y-113229375D01*
X173990000Y-113527761D01*
X173790625Y-113229375D01*
X173299418Y-112901161D01*
X172866256Y-112815000D01*
X172573744Y-112815000D01*
X172140582Y-112901161D01*
X171649375Y-113229375D01*
X171450000Y-113527761D01*
X171250625Y-113229375D01*
X170759418Y-112901161D01*
X170326256Y-112815000D01*
X170033744Y-112815000D01*
X169600582Y-112901161D01*
X169294608Y-113105606D01*
X166492031Y-110303030D01*
X166449629Y-110239571D01*
X166198237Y-110071596D01*
X165976552Y-110027500D01*
X165976547Y-110027500D01*
X165901700Y-110012612D01*
X165826853Y-110027500D01*
X157186002Y-110027500D01*
X157138502Y-109980000D01*
X174925091Y-109980000D01*
X174993914Y-110146153D01*
X175453847Y-110606086D01*
X176054778Y-110855000D01*
X176705222Y-110855000D01*
X177306153Y-110606086D01*
X177766086Y-110146153D01*
X177834909Y-109980000D01*
X181425091Y-109980000D01*
X181493914Y-110146153D01*
X181953847Y-110606086D01*
X182554778Y-110855000D01*
X183205222Y-110855000D01*
X183806153Y-110606086D01*
X184266086Y-110146153D01*
X184515000Y-109545222D01*
X184515000Y-108894778D01*
X184266086Y-108293847D01*
X183806153Y-107833914D01*
X183205222Y-107585000D01*
X182554778Y-107585000D01*
X181953847Y-107833914D01*
X181493914Y-108293847D01*
X181425091Y-108460000D01*
X177834909Y-108460000D01*
X177766086Y-108293847D01*
X177306153Y-107833914D01*
X176705222Y-107585000D01*
X176054778Y-107585000D01*
X175453847Y-107833914D01*
X174993914Y-108293847D01*
X174925091Y-108460000D01*
X156524802Y-108460000D01*
X152910885Y-104846083D01*
X163535000Y-104846083D01*
X163535000Y-105973917D01*
X163966603Y-107015899D01*
X164764101Y-107813397D01*
X165806083Y-108245000D01*
X166933917Y-108245000D01*
X167975899Y-107813397D01*
X168773397Y-107015899D01*
X169205000Y-105973917D01*
X169205000Y-105872532D01*
X175407073Y-105872532D01*
X175505736Y-106139387D01*
X176115461Y-106365908D01*
X176765460Y-106341856D01*
X177254264Y-106139387D01*
X177352927Y-105872532D01*
X181907073Y-105872532D01*
X182005736Y-106139387D01*
X182615461Y-106365908D01*
X183265460Y-106341856D01*
X183754264Y-106139387D01*
X183852927Y-105872532D01*
X182880000Y-104899605D01*
X181907073Y-105872532D01*
X177352927Y-105872532D01*
X176380000Y-104899605D01*
X175407073Y-105872532D01*
X169205000Y-105872532D01*
X169205000Y-104846083D01*
X169043200Y-104455461D01*
X174734092Y-104455461D01*
X174758144Y-105105460D01*
X174960613Y-105594264D01*
X175227468Y-105692927D01*
X176200395Y-104720000D01*
X176559605Y-104720000D01*
X177532532Y-105692927D01*
X177799387Y-105594264D01*
X178025908Y-104984539D01*
X178006331Y-104455461D01*
X181234092Y-104455461D01*
X181258144Y-105105460D01*
X181460613Y-105594264D01*
X181727468Y-105692927D01*
X182700395Y-104720000D01*
X183059605Y-104720000D01*
X184032532Y-105692927D01*
X184299387Y-105594264D01*
X184525908Y-104984539D01*
X184501856Y-104334540D01*
X184299387Y-103845736D01*
X184032532Y-103747073D01*
X183059605Y-104720000D01*
X182700395Y-104720000D01*
X181727468Y-103747073D01*
X181460613Y-103845736D01*
X181234092Y-104455461D01*
X178006331Y-104455461D01*
X178001856Y-104334540D01*
X177799387Y-103845736D01*
X177532532Y-103747073D01*
X176559605Y-104720000D01*
X176200395Y-104720000D01*
X175227468Y-103747073D01*
X174960613Y-103845736D01*
X174734092Y-104455461D01*
X169043200Y-104455461D01*
X168773397Y-103804101D01*
X168536764Y-103567468D01*
X175407073Y-103567468D01*
X176380000Y-104540395D01*
X177352927Y-103567468D01*
X181907073Y-103567468D01*
X182880000Y-104540395D01*
X183852927Y-103567468D01*
X183754264Y-103300613D01*
X183144539Y-103074092D01*
X182494540Y-103098144D01*
X182005736Y-103300613D01*
X181907073Y-103567468D01*
X177352927Y-103567468D01*
X177254264Y-103300613D01*
X176644539Y-103074092D01*
X175994540Y-103098144D01*
X175505736Y-103300613D01*
X175407073Y-103567468D01*
X168536764Y-103567468D01*
X167975899Y-103006603D01*
X166933917Y-102575000D01*
X165806083Y-102575000D01*
X164764101Y-103006603D01*
X163966603Y-103804101D01*
X163535000Y-104846083D01*
X152910885Y-104846083D01*
X152469801Y-104405000D01*
X152705330Y-104405000D01*
X153269507Y-104171310D01*
X153701310Y-103739507D01*
X153935000Y-103175330D01*
X153935000Y-102564670D01*
X153701310Y-102000493D01*
X153655317Y-101954500D01*
X167208953Y-101954500D01*
X167283800Y-101969388D01*
X167358647Y-101954500D01*
X167358652Y-101954500D01*
X167580337Y-101910404D01*
X167831729Y-101742429D01*
X167874131Y-101678970D01*
X169142373Y-100410729D01*
X169205829Y-100368329D01*
X169373804Y-100116937D01*
X169417900Y-99895252D01*
X169417900Y-99895247D01*
X169432788Y-99820400D01*
X169417900Y-99745553D01*
X169417900Y-98452748D01*
X169432788Y-98377900D01*
X169417900Y-98303052D01*
X169417900Y-98303048D01*
X169373804Y-98081363D01*
X169205829Y-97829971D01*
X169142373Y-97787571D01*
X168910000Y-97555198D01*
X168910000Y-97059425D01*
X168710564Y-96577945D01*
X168452619Y-96320000D01*
X168710564Y-96062055D01*
X168910000Y-95580575D01*
X168910000Y-95059425D01*
X168710564Y-94577945D01*
X168452619Y-94320000D01*
X168710564Y-94062055D01*
X168910000Y-93580575D01*
X168910000Y-93059425D01*
X168710564Y-92577945D01*
X168452619Y-92320000D01*
X168710564Y-92062055D01*
X168910000Y-91580575D01*
X168910000Y-91059425D01*
X168710564Y-90577945D01*
X168452619Y-90320000D01*
X168710564Y-90062055D01*
X168910000Y-89580575D01*
X168910000Y-89059425D01*
X168710564Y-88577945D01*
X168342055Y-88209436D01*
X168287045Y-88186650D01*
X168135000Y-88034605D01*
X168135000Y-87675395D01*
X168517147Y-88057542D01*
X168750328Y-87998781D01*
X168922522Y-87506900D01*
X168893375Y-86986566D01*
X168750328Y-86641219D01*
X168517147Y-86582458D01*
X168135000Y-86964605D01*
X168135000Y-86605395D01*
X168287045Y-86453350D01*
X168342055Y-86430564D01*
X168710564Y-86062055D01*
X168910000Y-85580575D01*
X168910000Y-85059425D01*
X168710564Y-84577945D01*
X168342055Y-84209436D01*
X167860575Y-84010000D01*
X167562541Y-84010000D01*
X167500000Y-83997560D01*
X165700000Y-83997560D01*
X165452235Y-84046843D01*
X165242191Y-84187191D01*
X165101843Y-84397235D01*
X165052560Y-84645000D01*
X165052560Y-85995000D01*
X165101843Y-86242765D01*
X165149654Y-86314318D01*
X165065000Y-86518690D01*
X165065000Y-87034250D01*
X165223750Y-87193000D01*
X166280833Y-87193000D01*
X166295061Y-87447000D01*
X165223750Y-87447000D01*
X165065000Y-87605750D01*
X165065000Y-88121310D01*
X165149654Y-88325682D01*
X165101843Y-88397235D01*
X165069467Y-88560000D01*
X163250102Y-88560000D01*
X161835631Y-87145530D01*
X161793229Y-87082071D01*
X161541837Y-86914096D01*
X161517440Y-86909243D01*
X161517440Y-86780000D01*
X161468157Y-86532235D01*
X161327809Y-86322191D01*
X161117765Y-86181843D01*
X160870000Y-86132560D01*
X159170000Y-86132560D01*
X158922235Y-86181843D01*
X158712191Y-86322191D01*
X158571843Y-86532235D01*
X158522560Y-86780000D01*
X158522560Y-88292357D01*
X155034931Y-84804730D01*
X154992529Y-84741271D01*
X154741137Y-84573296D01*
X154519452Y-84529200D01*
X154519447Y-84529200D01*
X154444600Y-84514312D01*
X154369753Y-84529200D01*
X149459801Y-84529200D01*
X152547424Y-81441578D01*
X152572235Y-81458157D01*
X152820000Y-81507440D01*
X154520000Y-81507440D01*
X154767765Y-81458157D01*
X154977809Y-81317809D01*
X155118157Y-81107765D01*
X155167440Y-80860000D01*
X155167440Y-79160000D01*
X155118157Y-78912235D01*
X154977809Y-78702191D01*
X154873069Y-78632205D01*
X154874829Y-78631029D01*
X154917231Y-78567570D01*
X157141698Y-76343103D01*
X157194561Y-76365000D01*
X157765439Y-76365000D01*
X158292862Y-76146534D01*
X158696534Y-75742862D01*
X158885403Y-75286892D01*
X164928514Y-75286892D01*
X165174817Y-75811358D01*
X165603076Y-76201645D01*
X166013110Y-76371476D01*
X166243000Y-76250155D01*
X166243000Y-75057000D01*
X165049181Y-75057000D01*
X164928514Y-75286892D01*
X158885403Y-75286892D01*
X158915000Y-75215439D01*
X158915000Y-74644561D01*
X158838801Y-74460600D01*
X164981351Y-74460600D01*
X164928514Y-74573108D01*
X165049181Y-74803000D01*
X166243000Y-74803000D01*
X166243000Y-74783000D01*
X166497000Y-74783000D01*
X166497000Y-74803000D01*
X166517000Y-74803000D01*
X166517000Y-75057000D01*
X166497000Y-75057000D01*
X166497000Y-76250155D01*
X166726890Y-76371476D01*
X167136924Y-76201645D01*
X167441261Y-75924292D01*
X167461843Y-76027765D01*
X167602191Y-76237809D01*
X167812235Y-76378157D01*
X168060000Y-76427440D01*
X169760000Y-76427440D01*
X170007765Y-76378157D01*
X170217809Y-76237809D01*
X170358157Y-76027765D01*
X170407440Y-75780000D01*
X170407440Y-74080000D01*
X170358157Y-73832235D01*
X170217809Y-73622191D01*
X170007765Y-73481843D01*
X169760000Y-73432560D01*
X168060000Y-73432560D01*
X167812235Y-73481843D01*
X167787423Y-73498422D01*
X167505131Y-73216130D01*
X167462729Y-73152671D01*
X167211337Y-72984696D01*
X166989652Y-72940600D01*
X166989647Y-72940600D01*
X166914800Y-72925712D01*
X166839953Y-72940600D01*
X150622547Y-72940600D01*
X150547700Y-72925712D01*
X150472853Y-72940600D01*
X150472848Y-72940600D01*
X150251163Y-72984696D01*
X149999771Y-73152671D01*
X149957371Y-73216127D01*
X148693585Y-74479913D01*
X148671740Y-74370091D01*
X148354577Y-73895423D01*
X147879909Y-73578260D01*
X147461333Y-73495000D01*
X147178667Y-73495000D01*
X146760091Y-73578260D01*
X146285423Y-73895423D01*
X146106878Y-74162634D01*
X146069848Y-74170000D01*
X146022344Y-74179449D01*
X145996534Y-74117138D01*
X145592862Y-73713466D01*
X145065439Y-73495000D01*
X144494561Y-73495000D01*
X143967138Y-73713466D01*
X143563466Y-74117138D01*
X143345000Y-74644561D01*
X143345000Y-75215439D01*
X143438016Y-75440000D01*
X135981668Y-75440000D01*
X136083113Y-74930000D01*
X135971740Y-74370091D01*
X135654577Y-73895423D01*
X135179909Y-73578260D01*
X134761333Y-73495000D01*
X134478667Y-73495000D01*
X134060091Y-73578260D01*
X133585423Y-73895423D01*
X133401957Y-74170000D01*
X129814802Y-74170000D01*
X129643103Y-73998302D01*
X129665000Y-73945439D01*
X129665000Y-73374561D01*
X129446534Y-72847138D01*
X129042862Y-72443466D01*
X128515439Y-72225000D01*
X127944561Y-72225000D01*
X127417138Y-72443466D01*
X127013466Y-72847138D01*
X126986475Y-72912299D01*
X126983864Y-72905995D01*
X126737745Y-72831861D01*
X125909605Y-73660000D01*
X126737745Y-74488139D01*
X126983864Y-74414005D01*
X126986290Y-74407254D01*
X127013466Y-74472862D01*
X127417138Y-74876534D01*
X127546216Y-74930000D01*
X127417138Y-74983466D01*
X127013466Y-75387138D01*
X126986475Y-75452299D01*
X126983864Y-75445995D01*
X126737745Y-75371861D01*
X125909605Y-76200000D01*
X125923748Y-76214142D01*
X125744142Y-76393748D01*
X125730000Y-76379605D01*
X124901861Y-77207745D01*
X124975995Y-77453864D01*
X125335657Y-77583141D01*
X123975530Y-78943269D01*
X123912071Y-78985671D01*
X123744096Y-79237064D01*
X123700000Y-79458749D01*
X123700000Y-79458753D01*
X123685112Y-79533600D01*
X123700000Y-79608447D01*
X123700001Y-86283330D01*
X123590493Y-86328690D01*
X123359689Y-86559494D01*
X121385000Y-83597460D01*
X121385000Y-75983223D01*
X124283035Y-75983223D01*
X124310222Y-76553454D01*
X124476136Y-76954005D01*
X124722255Y-77028139D01*
X125550395Y-76200000D01*
X124722255Y-75371861D01*
X124476136Y-75445995D01*
X124283035Y-75983223D01*
X121385000Y-75983223D01*
X121385000Y-74667745D01*
X124901861Y-74667745D01*
X124975995Y-74913864D01*
X125017709Y-74928858D01*
X124975995Y-74946136D01*
X124901861Y-75192255D01*
X125730000Y-76020395D01*
X126558139Y-75192255D01*
X126484005Y-74946136D01*
X126442291Y-74931142D01*
X126484005Y-74913864D01*
X126558139Y-74667745D01*
X125730000Y-73839605D01*
X124901861Y-74667745D01*
X121385000Y-74667745D01*
X121385000Y-73443223D01*
X124283035Y-73443223D01*
X124310222Y-74013454D01*
X124476136Y-74414005D01*
X124722255Y-74488139D01*
X125550395Y-73660000D01*
X124722255Y-72831861D01*
X124476136Y-72905995D01*
X124283035Y-73443223D01*
X121385000Y-73443223D01*
X121385000Y-72652255D01*
X124901861Y-72652255D01*
X125730000Y-73480395D01*
X126558139Y-72652255D01*
X126484005Y-72406136D01*
X125946777Y-72213035D01*
X125376546Y-72240222D01*
X124975995Y-72406136D01*
X124901861Y-72652255D01*
X121385000Y-72652255D01*
X121385000Y-67730000D01*
X124232560Y-67730000D01*
X124232560Y-69430000D01*
X124281843Y-69677765D01*
X124422191Y-69887809D01*
X124632235Y-70028157D01*
X124880000Y-70077440D01*
X126580000Y-70077440D01*
X126827765Y-70028157D01*
X127037809Y-69887809D01*
X127178157Y-69677765D01*
X127198739Y-69574292D01*
X127503076Y-69851645D01*
X127913110Y-70021476D01*
X128143000Y-69900155D01*
X128143000Y-68707000D01*
X128123000Y-68707000D01*
X128123000Y-68453000D01*
X128143000Y-68453000D01*
X128143000Y-67259845D01*
X128397000Y-67259845D01*
X128397000Y-68453000D01*
X128417000Y-68453000D01*
X128417000Y-68707000D01*
X128397000Y-68707000D01*
X128397000Y-69900155D01*
X128626890Y-70021476D01*
X129036924Y-69851645D01*
X129465183Y-69461358D01*
X129526157Y-69331522D01*
X129739375Y-69650625D01*
X130230582Y-69978839D01*
X130663744Y-70065000D01*
X130956256Y-70065000D01*
X131389418Y-69978839D01*
X131880625Y-69650625D01*
X132080000Y-69352239D01*
X132279375Y-69650625D01*
X132770582Y-69978839D01*
X133203744Y-70065000D01*
X133496256Y-70065000D01*
X133929418Y-69978839D01*
X134420625Y-69650625D01*
X134480906Y-69560408D01*
X135763771Y-70843273D01*
X135806171Y-70906729D01*
X136057563Y-71074704D01*
X136279248Y-71118800D01*
X136279252Y-71118800D01*
X136354099Y-71133688D01*
X136428946Y-71118800D01*
X151050553Y-71118800D01*
X151125400Y-71133688D01*
X151200247Y-71118800D01*
X151200252Y-71118800D01*
X151421937Y-71074704D01*
X151673329Y-70906729D01*
X151715731Y-70843270D01*
X152784608Y-69774394D01*
X153090582Y-69978839D01*
X153523744Y-70065000D01*
X153816256Y-70065000D01*
X154249418Y-69978839D01*
X154740625Y-69650625D01*
X154800906Y-69560408D01*
X155530373Y-70289876D01*
X155572771Y-70353329D01*
X155636224Y-70395727D01*
X155636226Y-70395729D01*
X155681424Y-70425929D01*
X155824163Y-70521304D01*
X156045848Y-70565400D01*
X156045852Y-70565400D01*
X156120699Y-70580288D01*
X156195546Y-70565400D01*
X167314653Y-70565400D01*
X167389500Y-70580288D01*
X167464347Y-70565400D01*
X167464352Y-70565400D01*
X167686037Y-70521304D01*
X167937429Y-70353329D01*
X167979831Y-70289870D01*
X168079870Y-70189831D01*
X168143329Y-70147429D01*
X168298071Y-69915842D01*
X168553110Y-70021476D01*
X168783000Y-69900155D01*
X168783000Y-68707000D01*
X168763000Y-68707000D01*
X168763000Y-68453000D01*
X168783000Y-68453000D01*
X168783000Y-68433000D01*
X169037000Y-68433000D01*
X169037000Y-68453000D01*
X169057000Y-68453000D01*
X169057000Y-68707000D01*
X169037000Y-68707000D01*
X169037000Y-69900155D01*
X169266890Y-70021476D01*
X169676924Y-69851645D01*
X170105183Y-69461358D01*
X170166157Y-69331522D01*
X170379375Y-69650625D01*
X170870582Y-69978839D01*
X171303744Y-70065000D01*
X171596256Y-70065000D01*
X172029418Y-69978839D01*
X172520625Y-69650625D01*
X172720000Y-69352239D01*
X172919375Y-69650625D01*
X173410582Y-69978839D01*
X173843744Y-70065000D01*
X174136256Y-70065000D01*
X174569418Y-69978839D01*
X175060625Y-69650625D01*
X175388839Y-69159418D01*
X175504092Y-68580000D01*
X175391923Y-68016083D01*
X180045000Y-68016083D01*
X180045000Y-69143917D01*
X180476603Y-70185899D01*
X181274101Y-70983397D01*
X182316083Y-71415000D01*
X183443917Y-71415000D01*
X184485899Y-70983397D01*
X185283397Y-70185899D01*
X185715000Y-69143917D01*
X185715000Y-68016083D01*
X185283397Y-66974101D01*
X184485899Y-66176603D01*
X183443917Y-65745000D01*
X182316083Y-65745000D01*
X181274101Y-66176603D01*
X180476603Y-66974101D01*
X180045000Y-68016083D01*
X175391923Y-68016083D01*
X175388839Y-68000582D01*
X175060625Y-67509375D01*
X174569418Y-67181161D01*
X174136256Y-67095000D01*
X173843744Y-67095000D01*
X173410582Y-67181161D01*
X173104608Y-67385606D01*
X172588631Y-66869630D01*
X172546229Y-66806171D01*
X172294837Y-66638196D01*
X172073152Y-66594100D01*
X172073147Y-66594100D01*
X171998300Y-66579212D01*
X171923453Y-66594100D01*
X168474448Y-66594100D01*
X168399600Y-66579212D01*
X168324752Y-66594100D01*
X168324748Y-66594100D01*
X168103063Y-66638196D01*
X167851671Y-66806171D01*
X167809271Y-66869627D01*
X167515296Y-67163602D01*
X167467765Y-67131843D01*
X167220000Y-67082560D01*
X165520000Y-67082560D01*
X165272235Y-67131843D01*
X165062191Y-67272191D01*
X165001909Y-67362408D01*
X164509731Y-66870230D01*
X164467329Y-66806771D01*
X164215937Y-66638796D01*
X163994252Y-66594700D01*
X163994247Y-66594700D01*
X163919400Y-66579812D01*
X163844553Y-66594700D01*
X148115846Y-66594700D01*
X148040999Y-66579812D01*
X147966152Y-66594700D01*
X147966148Y-66594700D01*
X147744463Y-66638796D01*
X147744461Y-66638797D01*
X147744462Y-66638797D01*
X147556526Y-66764371D01*
X147556524Y-66764373D01*
X147493071Y-66806771D01*
X147450673Y-66870225D01*
X147172516Y-67148381D01*
X147147765Y-67131843D01*
X146900000Y-67082560D01*
X145200000Y-67082560D01*
X144952235Y-67131843D01*
X144742191Y-67272191D01*
X144601843Y-67482235D01*
X144552560Y-67730000D01*
X144552560Y-69045300D01*
X143221702Y-69045300D01*
X141046631Y-66870230D01*
X141004229Y-66806771D01*
X140752837Y-66638796D01*
X140531152Y-66594700D01*
X140531147Y-66594700D01*
X140456300Y-66579812D01*
X140381453Y-66594700D01*
X132875846Y-66594700D01*
X132800999Y-66579812D01*
X132726152Y-66594700D01*
X132726148Y-66594700D01*
X132504463Y-66638796D01*
X132504461Y-66638797D01*
X132504462Y-66638797D01*
X132316526Y-66764371D01*
X132316524Y-66764373D01*
X132253071Y-66806771D01*
X132210673Y-66870225D01*
X131695332Y-67385566D01*
X131389418Y-67181161D01*
X130956256Y-67095000D01*
X130663744Y-67095000D01*
X130230582Y-67181161D01*
X129739375Y-67509375D01*
X129526157Y-67828478D01*
X129465183Y-67698642D01*
X129036924Y-67308355D01*
X128626890Y-67138524D01*
X128397000Y-67259845D01*
X128143000Y-67259845D01*
X127913110Y-67138524D01*
X127503076Y-67308355D01*
X127198739Y-67585708D01*
X127178157Y-67482235D01*
X127037809Y-67272191D01*
X126827765Y-67131843D01*
X126580000Y-67082560D01*
X124880000Y-67082560D01*
X124632235Y-67131843D01*
X124422191Y-67272191D01*
X124281843Y-67482235D01*
X124232560Y-67730000D01*
X121385000Y-67730000D01*
X121385000Y-65505000D01*
X185980001Y-65505000D01*
X185980000Y-87335909D01*
G36*
X148717000Y-68453000D02*
X148737000Y-68453000D01*
X148737000Y-68707000D01*
X148717000Y-68707000D01*
X148717000Y-68727000D01*
X148463000Y-68727000D01*
X148463000Y-68707000D01*
X148443000Y-68707000D01*
X148443000Y-68453000D01*
X148463000Y-68453000D01*
X148463000Y-68433000D01*
X148717000Y-68433000D01*
X148717000Y-68453000D01*
X148717000Y-68453000D01*
G37*
X148717000Y-68453000D02*
X148737000Y-68453000D01*
X148737000Y-68707000D01*
X148717000Y-68707000D01*
X148717000Y-68727000D01*
X148463000Y-68727000D01*
X148463000Y-68707000D01*
X148443000Y-68707000D01*
X148443000Y-68453000D01*
X148463000Y-68453000D01*
X148463000Y-68433000D01*
X148717000Y-68433000D01*
X148717000Y-68453000D01*
G36*
X139521843Y-78912235D02*
X139501261Y-79015708D01*
X139311860Y-78843100D01*
X139568038Y-78843100D01*
X139521843Y-78912235D01*
X139521843Y-78912235D01*
G37*
X139521843Y-78912235D02*
X139501261Y-79015708D01*
X139311860Y-78843100D01*
X139568038Y-78843100D01*
X139521843Y-78912235D01*
G04 #@! TD*
M02*
