%TF.GenerationSoftware,KiCad,Pcbnew,5.0.0*%
%TF.CreationDate,2018-08-07T10:12:14+02:00*%
%TF.ProjectId,HB-UNI-Sen-WEA,48422D554E492D53656E2D5745412E6B,1.0*%
%TF.SameCoordinates,Original*%
%TF.FileFunction,Copper,L2,Bot,Signal*%
%TF.FilePolarity,Positive*%
%FSLAX46Y46*%
G04 Gerber Fmt 4.6, Leading zero omitted, Abs format (unit mm)*
G04 Created by KiCad (PCBNEW 5.0.0) date Tue Aug  7 10:12:14 2018*
%MOMM*%
%LPD*%
G01*
G04 APERTURE LIST*
%TA.AperFunction,ComponentPad*%
%ADD10C,0.700000*%
%TD*%
%TA.AperFunction,ComponentPad*%
%ADD11C,4.400000*%
%TD*%
%TA.AperFunction,ComponentPad*%
%ADD12C,1.800000*%
%TD*%
%TA.AperFunction,ComponentPad*%
%ADD13C,1.600000*%
%TD*%
%TA.AperFunction,ComponentPad*%
%ADD14R,1.700000X1.700000*%
%TD*%
%TA.AperFunction,ComponentPad*%
%ADD15O,1.700000X1.700000*%
%TD*%
%TA.AperFunction,ComponentPad*%
%ADD16O,1.600000X1.600000*%
%TD*%
%TA.AperFunction,ComponentPad*%
%ADD17C,2.000000*%
%TD*%
%TA.AperFunction,ComponentPad*%
%ADD18C,1.350000*%
%TD*%
%TA.AperFunction,Conductor*%
%ADD19C,0.100000*%
%TD*%
%TA.AperFunction,ComponentPad*%
%ADD20C,1.100000*%
%TD*%
%TA.AperFunction,ComponentPad*%
%ADD21R,1.100000X1.800000*%
%TD*%
%TA.AperFunction,ViaPad*%
%ADD22C,0.800000*%
%TD*%
%TA.AperFunction,Conductor*%
%ADD23C,0.250000*%
%TD*%
%TA.AperFunction,Conductor*%
%ADD24C,0.254000*%
%TD*%
G04 APERTURE END LIST*
D10*
%TO.P,MH1,1*%
%TO.N,N/C*%
X184046726Y-67413274D03*
X182880000Y-66930000D03*
X181713274Y-67413274D03*
X181230000Y-68580000D03*
X181713274Y-69746726D03*
X182880000Y-70230000D03*
X184046726Y-69746726D03*
X184530000Y-68580000D03*
D11*
X182880000Y-68580000D03*
%TD*%
%TO.P,MH2,1*%
%TO.N,N/C*%
X166370000Y-105410000D03*
D10*
X168020000Y-105410000D03*
X167536726Y-106576726D03*
X166370000Y-107060000D03*
X165203274Y-106576726D03*
X164720000Y-105410000D03*
X165203274Y-104243274D03*
X166370000Y-103760000D03*
X167536726Y-104243274D03*
%TD*%
D12*
%TO.P,U1,28*%
%TO.N,Net-(U1-Pad28)*%
X143510000Y-90170000D03*
%TO.P,U1,27*%
%TO.N,Net-(U1-Pad27)*%
X146050000Y-90170000D03*
X152400000Y-92710000D03*
%TO.P,U1,28*%
%TO.N,Net-(U1-Pad28)*%
X152400000Y-90170000D03*
%TO.P,U1,1*%
%TO.N,/SS*%
X152400000Y-87630000D03*
%TO.P,U1,2*%
%TO.N,/MOSI*%
X149860000Y-87630000D03*
%TO.P,U1,3*%
%TO.N,/MISO*%
X147320000Y-87630000D03*
%TO.P,U1,4*%
%TO.N,/SCK*%
X144780000Y-87630000D03*
%TO.P,U1,5*%
%TO.N,Net-(U1-Pad5)*%
X142240000Y-87630000D03*
%TO.P,U1,6*%
%TO.N,Net-(U1-Pad6)*%
X139700000Y-87630000D03*
%TO.P,U1,7*%
%TO.N,/A2*%
X137160000Y-87630000D03*
%TO.P,U1,8*%
%TO.N,/A3*%
X134620000Y-87630000D03*
%TO.P,U1,9*%
%TO.N,/VCC*%
X132080000Y-87630000D03*
%TO.P,U1,10*%
%TO.N,/RSET*%
X129540000Y-87630000D03*
%TO.P,U1,11*%
%TO.N,GND*%
X127000000Y-87630000D03*
%TO.P,U1,12*%
%TO.N,+5V*%
X124460000Y-87630000D03*
%TO.P,U1,13*%
%TO.N,N/C*%
X124460000Y-102870000D03*
%TO.P,U1,14*%
X127000000Y-102870000D03*
%TO.P,U1,15*%
X129540000Y-102870000D03*
%TO.P,U1,16*%
%TO.N,GND*%
X132080000Y-102870000D03*
%TO.P,U1,17*%
%TO.N,/D2*%
X134620000Y-102870000D03*
%TO.P,U1,18*%
%TO.N,/D3*%
X137160000Y-102870000D03*
%TO.P,U1,19*%
%TO.N,/D4*%
X139700000Y-102870000D03*
%TO.P,U1,20*%
%TO.N,/D5*%
X142240000Y-102870000D03*
%TO.P,U1,21*%
%TO.N,/D6*%
X144780000Y-102870000D03*
%TO.P,U1,22*%
%TO.N,/D7*%
X147320000Y-102870000D03*
%TO.P,U1,23*%
%TO.N,/D8*%
X149860000Y-102870000D03*
%TO.P,U1,24*%
%TO.N,/D9*%
X152400000Y-102870000D03*
%TO.P,U1,25*%
%TO.N,/SDA*%
X135890000Y-90170000D03*
%TO.P,U1,26*%
%TO.N,/SCL*%
X133350000Y-90170000D03*
%TD*%
D13*
%TO.P,C1,1*%
%TO.N,/B*%
X135890000Y-114300000D03*
%TO.P,C1,2*%
%TO.N,/A3*%
X138390000Y-114300000D03*
%TD*%
%TO.P,C2,2*%
%TO.N,/D5*%
X128230000Y-73660000D03*
%TO.P,C2,1*%
%TO.N,GND*%
X125730000Y-73660000D03*
%TD*%
%TO.P,C3,1*%
%TO.N,GND*%
X125730000Y-76200000D03*
%TO.P,C3,2*%
%TO.N,/D6*%
X128230000Y-76200000D03*
%TD*%
D14*
%TO.P,J1,1*%
%TO.N,GND*%
X124460000Y-116840000D03*
D15*
%TO.P,J1,2*%
%TO.N,/B*%
X124460000Y-114300000D03*
%TO.P,J1,3*%
%TO.N,/C*%
X124460000Y-111760000D03*
%TO.P,J1,4*%
%TO.N,+5V*%
X124460000Y-109220000D03*
%TD*%
%TO.P,J2,4*%
%TO.N,/RSET*%
X160020000Y-95250000D03*
%TO.P,J2,3*%
%TO.N,/MISO*%
X160020000Y-92710000D03*
%TO.P,J2,2*%
%TO.N,/SCK*%
X160020000Y-90170000D03*
D14*
%TO.P,J2,1*%
%TO.N,/MOSI*%
X160020000Y-87630000D03*
%TD*%
%TO.P,J3,1*%
%TO.N,/A2*%
X153670000Y-80010000D03*
D15*
%TO.P,J3,2*%
%TO.N,GND*%
X151130000Y-80010000D03*
%TD*%
D14*
%TO.P,J4,1*%
%TO.N,/VCC*%
X125730000Y-68580000D03*
D15*
%TO.P,J4,2*%
%TO.N,GND*%
X128270000Y-68580000D03*
%TO.P,J4,3*%
%TO.N,/SCL*%
X130810000Y-68580000D03*
%TO.P,J4,4*%
%TO.N,/SDA*%
X133350000Y-68580000D03*
%TD*%
D14*
%TO.P,J5,1*%
%TO.N,GND*%
X157480000Y-114300000D03*
D15*
%TO.P,J5,2*%
X160020000Y-114300000D03*
%TO.P,J5,3*%
X162560000Y-114300000D03*
%TO.P,J5,4*%
%TO.N,/D3*%
X165100000Y-114300000D03*
%TO.P,J5,5*%
%TO.N,GND*%
X167640000Y-114300000D03*
%TO.P,J5,6*%
%TO.N,/D7*%
X170180000Y-114300000D03*
%TO.P,J5,7*%
%TO.N,/MISO*%
X172720000Y-114300000D03*
%TO.P,J5,8*%
%TO.N,/MOSI*%
X175260000Y-114300000D03*
%TO.P,J5,9*%
%TO.N,/SCK*%
X177800000Y-114300000D03*
%TO.P,J5,10*%
%TO.N,GND*%
X180340000Y-114300000D03*
%TO.P,J5,11*%
%TO.N,/VCC*%
X182880000Y-114300000D03*
%TD*%
%TO.P,J6,2*%
%TO.N,GND*%
X138430000Y-80010000D03*
D14*
%TO.P,J6,1*%
%TO.N,Net-(J6-Pad1)*%
X140970000Y-80010000D03*
%TD*%
%TO.P,J7,1*%
%TO.N,Net-(J7-Pad1)*%
X128270000Y-80010000D03*
D15*
%TO.P,J7,2*%
%TO.N,GND*%
X125730000Y-80010000D03*
%TD*%
%TO.P,J8,4*%
%TO.N,/SDA*%
X153670000Y-68580000D03*
%TO.P,J8,3*%
%TO.N,/SCL*%
X151130000Y-68580000D03*
%TO.P,J8,2*%
%TO.N,GND*%
X148590000Y-68580000D03*
D14*
%TO.P,J8,1*%
%TO.N,/VCC*%
X146050000Y-68580000D03*
%TD*%
%TO.P,J9,1*%
%TO.N,/VCC*%
X166370000Y-68580000D03*
D15*
%TO.P,J9,2*%
%TO.N,GND*%
X168910000Y-68580000D03*
%TO.P,J9,3*%
%TO.N,/SCL*%
X171450000Y-68580000D03*
%TO.P,J9,4*%
%TO.N,/SDA*%
X173990000Y-68580000D03*
%TD*%
D13*
%TO.P,R1,1*%
%TO.N,/A3*%
X128270000Y-109220000D03*
D16*
%TO.P,R1,2*%
%TO.N,/D4*%
X138430000Y-109220000D03*
%TD*%
%TO.P,R2,2*%
%TO.N,/D9*%
X152400000Y-109220000D03*
D13*
%TO.P,R2,1*%
%TO.N,Net-(Q1-Pad2)*%
X142240000Y-109220000D03*
%TD*%
D16*
%TO.P,R3,2*%
%TO.N,/D5*%
X134620000Y-74930000D03*
D13*
%TO.P,R3,1*%
%TO.N,Net-(J6-Pad1)*%
X144780000Y-74930000D03*
%TD*%
%TO.P,R4,1*%
%TO.N,Net-(J7-Pad1)*%
X157480000Y-74930000D03*
D16*
%TO.P,R4,2*%
%TO.N,/D6*%
X147320000Y-74930000D03*
%TD*%
D17*
%TO.P,SW1,2*%
%TO.N,GND*%
X182880000Y-104720000D03*
%TO.P,SW1,1*%
%TO.N,/D8*%
X182880000Y-109220000D03*
%TO.P,SW1,2*%
%TO.N,GND*%
X176380000Y-104720000D03*
%TO.P,SW1,1*%
%TO.N,/D8*%
X176380000Y-109220000D03*
%TD*%
D18*
%TO.P,U2,8*%
%TO.N,/SS*%
X167600000Y-99320000D03*
%TO.P,U2,1*%
%TO.N,/VCC*%
X167600000Y-85320000D03*
%TO.P,U2,2*%
%TO.N,GND*%
X167600000Y-87320000D03*
%TO.P,U2,3*%
%TO.N,/MOSI*%
X167600000Y-89320000D03*
%TO.P,U2,4*%
%TO.N,/SCK*%
X167600000Y-91320000D03*
%TO.P,U2,5*%
%TO.N,/MISO*%
X167600000Y-93320000D03*
%TO.P,U2,6*%
%TO.N,Net-(U2-Pad6)*%
X167600000Y-95320000D03*
%TO.P,U2,7*%
%TO.N,/D2*%
X167600000Y-97320000D03*
%TD*%
D19*
%TO.N,Net-(Q1-Pad2)*%
%TO.C,Q1*%
G36*
X143811955Y-115071324D02*
X143838650Y-115075284D01*
X143864828Y-115081841D01*
X143890238Y-115090933D01*
X143914634Y-115102472D01*
X143937782Y-115116346D01*
X143959458Y-115132422D01*
X143979454Y-115150546D01*
X143997578Y-115170542D01*
X144013654Y-115192218D01*
X144027528Y-115215366D01*
X144039067Y-115239762D01*
X144048159Y-115265172D01*
X144054716Y-115291350D01*
X144058676Y-115318045D01*
X144060000Y-115345000D01*
X144060000Y-116595000D01*
X144058676Y-116621955D01*
X144054716Y-116648650D01*
X144048159Y-116674828D01*
X144039067Y-116700238D01*
X144027528Y-116724634D01*
X144013654Y-116747782D01*
X143997578Y-116769458D01*
X143979454Y-116789454D01*
X143959458Y-116807578D01*
X143937782Y-116823654D01*
X143914634Y-116837528D01*
X143890238Y-116849067D01*
X143864828Y-116858159D01*
X143838650Y-116864716D01*
X143811955Y-116868676D01*
X143785000Y-116870000D01*
X143235000Y-116870000D01*
X143208045Y-116868676D01*
X143181350Y-116864716D01*
X143155172Y-116858159D01*
X143129762Y-116849067D01*
X143105366Y-116837528D01*
X143082218Y-116823654D01*
X143060542Y-116807578D01*
X143040546Y-116789454D01*
X143022422Y-116769458D01*
X143006346Y-116747782D01*
X142992472Y-116724634D01*
X142980933Y-116700238D01*
X142971841Y-116674828D01*
X142965284Y-116648650D01*
X142961324Y-116621955D01*
X142960000Y-116595000D01*
X142960000Y-115345000D01*
X142961324Y-115318045D01*
X142965284Y-115291350D01*
X142971841Y-115265172D01*
X142980933Y-115239762D01*
X142992472Y-115215366D01*
X143006346Y-115192218D01*
X143022422Y-115170542D01*
X143040546Y-115150546D01*
X143060542Y-115132422D01*
X143082218Y-115116346D01*
X143105366Y-115102472D01*
X143129762Y-115090933D01*
X143155172Y-115081841D01*
X143181350Y-115075284D01*
X143208045Y-115071324D01*
X143235000Y-115070000D01*
X143785000Y-115070000D01*
X143811955Y-115071324D01*
X143811955Y-115071324D01*
G37*
D20*
%TD*%
%TO.P,Q1,2*%
%TO.N,Net-(Q1-Pad2)*%
X143510000Y-115970000D03*
D19*
%TO.N,/C*%
%TO.C,Q1*%
G36*
X142541955Y-113001324D02*
X142568650Y-113005284D01*
X142594828Y-113011841D01*
X142620238Y-113020933D01*
X142644634Y-113032472D01*
X142667782Y-113046346D01*
X142689458Y-113062422D01*
X142709454Y-113080546D01*
X142727578Y-113100542D01*
X142743654Y-113122218D01*
X142757528Y-113145366D01*
X142769067Y-113169762D01*
X142778159Y-113195172D01*
X142784716Y-113221350D01*
X142788676Y-113248045D01*
X142790000Y-113275000D01*
X142790000Y-114525000D01*
X142788676Y-114551955D01*
X142784716Y-114578650D01*
X142778159Y-114604828D01*
X142769067Y-114630238D01*
X142757528Y-114654634D01*
X142743654Y-114677782D01*
X142727578Y-114699458D01*
X142709454Y-114719454D01*
X142689458Y-114737578D01*
X142667782Y-114753654D01*
X142644634Y-114767528D01*
X142620238Y-114779067D01*
X142594828Y-114788159D01*
X142568650Y-114794716D01*
X142541955Y-114798676D01*
X142515000Y-114800000D01*
X141965000Y-114800000D01*
X141938045Y-114798676D01*
X141911350Y-114794716D01*
X141885172Y-114788159D01*
X141859762Y-114779067D01*
X141835366Y-114767528D01*
X141812218Y-114753654D01*
X141790542Y-114737578D01*
X141770546Y-114719454D01*
X141752422Y-114699458D01*
X141736346Y-114677782D01*
X141722472Y-114654634D01*
X141710933Y-114630238D01*
X141701841Y-114604828D01*
X141695284Y-114578650D01*
X141691324Y-114551955D01*
X141690000Y-114525000D01*
X141690000Y-113275000D01*
X141691324Y-113248045D01*
X141695284Y-113221350D01*
X141701841Y-113195172D01*
X141710933Y-113169762D01*
X141722472Y-113145366D01*
X141736346Y-113122218D01*
X141752422Y-113100542D01*
X141770546Y-113080546D01*
X141790542Y-113062422D01*
X141812218Y-113046346D01*
X141835366Y-113032472D01*
X141859762Y-113020933D01*
X141885172Y-113011841D01*
X141911350Y-113005284D01*
X141938045Y-113001324D01*
X141965000Y-113000000D01*
X142515000Y-113000000D01*
X142541955Y-113001324D01*
X142541955Y-113001324D01*
G37*
D20*
%TD*%
%TO.P,Q1,3*%
%TO.N,/C*%
X142240000Y-113900000D03*
D21*
%TO.P,Q1,1*%
%TO.N,GND*%
X144780000Y-113900000D03*
%TD*%
D14*
%TO.P,J10,1*%
%TO.N,+5V*%
X168910000Y-74930000D03*
D15*
%TO.P,J10,2*%
%TO.N,GND*%
X166370000Y-74930000D03*
%TD*%
D22*
%TO.N,/D5*%
X151636000Y-73754700D03*
%TO.N,/D6*%
X155463700Y-76250100D03*
%TO.N,/MOSI*%
X153017100Y-84911900D03*
%TD*%
D23*
%TO.N,/A3*%
X128270000Y-109220000D02*
X133310000Y-109220000D01*
X133310000Y-109220000D02*
X138390000Y-114300000D01*
%TO.N,/D5*%
X142240000Y-102870000D02*
X149621900Y-95488100D01*
X149621900Y-95488100D02*
X152876400Y-95488100D01*
X152876400Y-95488100D02*
X155909200Y-92455300D01*
X155909200Y-92455300D02*
X155909200Y-78027900D01*
X155909200Y-78027900D02*
X151636000Y-73754700D01*
%TO.N,GND*%
X148590000Y-80010000D02*
X151130000Y-80010000D01*
X139655300Y-80010000D02*
X139655300Y-80929000D01*
X139655300Y-80929000D02*
X139961700Y-81235400D01*
X139961700Y-81235400D02*
X142197500Y-81235400D01*
X142197500Y-81235400D02*
X143422900Y-80010000D01*
X143422900Y-80010000D02*
X148590000Y-80010000D01*
X148590000Y-80010000D02*
X148590000Y-69805300D01*
X148590000Y-68580000D02*
X148590000Y-69805300D01*
X138430000Y-80010000D02*
X139655300Y-80010000D01*
X125730000Y-80010000D02*
X125730000Y-81235300D01*
X127000000Y-87630000D02*
X127000000Y-82505300D01*
X127000000Y-82505300D02*
X125730000Y-81235300D01*
X125730000Y-76200000D02*
X125730000Y-80010000D01*
X124460000Y-115614700D02*
X124919600Y-115614700D01*
X124919600Y-115614700D02*
X125685300Y-114849000D01*
X125685300Y-114849000D02*
X125685300Y-109264700D01*
X125685300Y-109264700D02*
X132080000Y-102870000D01*
X124460000Y-116840000D02*
X124460000Y-115614700D01*
X125730000Y-73660000D02*
X125730000Y-76200000D01*
X128270000Y-69805300D02*
X125730000Y-72345300D01*
X125730000Y-72345300D02*
X125730000Y-73660000D01*
X128270000Y-68580000D02*
X128270000Y-69805300D01*
X167600000Y-87320000D02*
X166370000Y-86090000D01*
X166370000Y-86090000D02*
X166370000Y-74930000D01*
%TO.N,/D6*%
X144780000Y-102870000D02*
X151484600Y-96165400D01*
X151484600Y-96165400D02*
X152906700Y-96165400D01*
X152906700Y-96165400D02*
X156409500Y-92662600D01*
X156409500Y-92662600D02*
X156409500Y-77195900D01*
X156409500Y-77195900D02*
X155463700Y-76250100D01*
%TO.N,/MISO*%
X172720000Y-114300000D02*
X173945300Y-114300000D01*
X167600000Y-93320000D02*
X177799900Y-103519900D01*
X177799900Y-103519900D02*
X177799900Y-109801700D01*
X177799900Y-109801700D02*
X173945300Y-113656300D01*
X173945300Y-113656300D02*
X173945300Y-114300000D01*
%TO.N,/SCK*%
X177800000Y-114300000D02*
X177800000Y-113074700D01*
X177800000Y-113074700D02*
X178300300Y-112574400D01*
X178300300Y-112574400D02*
X178300300Y-102020300D01*
X178300300Y-102020300D02*
X167600000Y-91320000D01*
%TO.N,/MOSI*%
X153017100Y-84911900D02*
X150299000Y-87630000D01*
X150299000Y-87630000D02*
X149860000Y-87630000D01*
X167600000Y-89320000D02*
X179063600Y-100783600D01*
X179063600Y-100783600D02*
X179063600Y-114791100D01*
X179063600Y-114791100D02*
X178323200Y-115531500D01*
X178323200Y-115531500D02*
X177257300Y-115531500D01*
X177257300Y-115531500D02*
X176485300Y-114759500D01*
X176485300Y-114759500D02*
X176485300Y-114300000D01*
X175260000Y-114300000D02*
X176485300Y-114300000D01*
%TO.N,/A2*%
X153670000Y-80010000D02*
X152444700Y-80010000D01*
X152444700Y-80010000D02*
X152444700Y-80469600D01*
X152444700Y-80469600D02*
X151679000Y-81235300D01*
X151679000Y-81235300D02*
X143554700Y-81235300D01*
X143554700Y-81235300D02*
X137160000Y-87630000D01*
%TO.N,/VCC*%
X132080000Y-87630000D02*
X133285300Y-86424700D01*
X133285300Y-86424700D02*
X133285300Y-82570000D01*
X133285300Y-82570000D02*
X136915300Y-78940000D01*
X167600000Y-85320000D02*
X180995500Y-98715500D01*
X180995500Y-98715500D02*
X180995500Y-111190200D01*
X180995500Y-111190200D02*
X182880000Y-113074700D01*
X166370000Y-69805300D02*
X167600000Y-71035300D01*
X167600000Y-71035300D02*
X167600000Y-85320000D01*
X182880000Y-114300000D02*
X182880000Y-113074700D01*
X136915300Y-78940000D02*
X146050000Y-69805300D01*
X136915300Y-78940000D02*
X132080000Y-74104800D01*
X132080000Y-74104800D02*
X132080000Y-68094900D01*
X132080000Y-68094900D02*
X131339800Y-67354700D01*
X131339800Y-67354700D02*
X127721000Y-67354700D01*
X127721000Y-67354700D02*
X126955300Y-68120400D01*
X126955300Y-68120400D02*
X126955300Y-68580000D01*
X125730000Y-68580000D02*
X126955300Y-68580000D01*
X146050000Y-68580000D02*
X146050000Y-69805300D01*
X166370000Y-68580000D02*
X166370000Y-69805300D01*
%TO.N,/SCL*%
X133350000Y-90170000D02*
X137707800Y-94527800D01*
X137707800Y-94527800D02*
X153129100Y-94527800D01*
X153129100Y-94527800D02*
X155395600Y-92261300D01*
X155395600Y-92261300D02*
X155395600Y-78762200D01*
X155395600Y-78762200D02*
X150851200Y-74217800D01*
X150851200Y-74217800D02*
X150851200Y-70084100D01*
X150851200Y-70084100D02*
X151130000Y-69805300D01*
X151130000Y-68580000D02*
X151130000Y-69805300D01*
%TO.N,/SDA*%
X135890000Y-90170000D02*
X139747500Y-94027500D01*
X139747500Y-94027500D02*
X152921800Y-94027500D01*
X152921800Y-94027500D02*
X154895300Y-92054000D01*
X154895300Y-92054000D02*
X154895300Y-78969500D01*
X154895300Y-78969500D02*
X149860000Y-73934200D01*
X149860000Y-73934200D02*
X149860000Y-67339700D01*
X152444700Y-68580000D02*
X152444700Y-68120500D01*
X152444700Y-68120500D02*
X151663900Y-67339700D01*
X151663900Y-67339700D02*
X149860000Y-67339700D01*
X149860000Y-67339700D02*
X135815600Y-67339700D01*
X135815600Y-67339700D02*
X134575300Y-68580000D01*
X133350000Y-68580000D02*
X134575300Y-68580000D01*
X153670000Y-68580000D02*
X152444700Y-68580000D01*
X153670000Y-68580000D02*
X154895300Y-68580000D01*
X173990000Y-68580000D02*
X172764700Y-68580000D01*
X154895300Y-68580000D02*
X156123300Y-67352000D01*
X156123300Y-67352000D02*
X172044500Y-67352000D01*
X172044500Y-67352000D02*
X172764700Y-68072200D01*
X172764700Y-68072200D02*
X172764700Y-68580000D01*
%TO.N,/D3*%
X163874700Y-114300000D02*
X163874700Y-113840400D01*
X163874700Y-113840400D02*
X163109000Y-113074700D01*
X163109000Y-113074700D02*
X148539900Y-113074700D01*
X148539900Y-113074700D02*
X143509800Y-108044600D01*
X143509800Y-108044600D02*
X141724000Y-108044600D01*
X141724000Y-108044600D02*
X139334100Y-110434500D01*
X139334100Y-110434500D02*
X137942000Y-110434500D01*
X137942000Y-110434500D02*
X137160100Y-109652600D01*
X137160100Y-109652600D02*
X137160100Y-102870000D01*
X137160100Y-102870000D02*
X137160000Y-102870000D01*
X165100000Y-114300000D02*
X163874700Y-114300000D01*
%TO.N,/D7*%
X170180000Y-114300000D02*
X168954700Y-114300000D01*
X168954700Y-114300000D02*
X168954700Y-113840500D01*
X168954700Y-113840500D02*
X166328100Y-111213900D01*
X166328100Y-111213900D02*
X152725800Y-111213900D01*
X152725800Y-111213900D02*
X147320000Y-105808100D01*
X147320000Y-105808100D02*
X147320000Y-102870000D01*
%TO.N,Net-(J6-Pad1)*%
X144780000Y-74930000D02*
X140970000Y-78740000D01*
X140970000Y-78740000D02*
X140970000Y-80010000D01*
%TO.N,/D4*%
X138430000Y-109220000D02*
X138430000Y-108044700D01*
X138430000Y-108044700D02*
X139700000Y-106774700D01*
X139700000Y-106774700D02*
X139700000Y-102870000D01*
%TO.N,/D9*%
X152400000Y-109220000D02*
X152400000Y-102870000D01*
%TO.N,/D8*%
X176380000Y-109220000D02*
X168738700Y-101578700D01*
X168738700Y-101578700D02*
X151151300Y-101578700D01*
X151151300Y-101578700D02*
X149860000Y-102870000D01*
%TO.N,Net-(Q1-Pad2)*%
X143510000Y-115570000D02*
X143510000Y-110490000D01*
X143510000Y-110490000D02*
X142240000Y-109220000D01*
%TD*%
D24*
%TO.N,GND*%
G36*
X185980000Y-87335909D02*
X183697402Y-89618508D01*
X183638120Y-89658119D01*
X183598510Y-89717400D01*
X183481196Y-89892972D01*
X183426091Y-90170000D01*
X183440001Y-90239929D01*
X183440000Y-96450076D01*
X183426091Y-96520000D01*
X183440000Y-96589924D01*
X183440000Y-96589925D01*
X183481195Y-96797027D01*
X183638119Y-97031880D01*
X183697402Y-97071492D01*
X185980000Y-99354091D01*
X185980001Y-117400000D01*
X148589306Y-117400000D01*
X148449514Y-117399854D01*
X148383271Y-117427212D01*
X148312972Y-117441195D01*
X148196200Y-117519220D01*
X144602530Y-119915000D01*
X121385000Y-119915000D01*
X121385000Y-117125750D01*
X122975000Y-117125750D01*
X122975000Y-117816310D01*
X123071673Y-118049699D01*
X123250302Y-118228327D01*
X123483691Y-118325000D01*
X124174250Y-118325000D01*
X124333000Y-118166250D01*
X124333000Y-116967000D01*
X124587000Y-116967000D01*
X124587000Y-118166250D01*
X124745750Y-118325000D01*
X125436309Y-118325000D01*
X125669698Y-118228327D01*
X125848327Y-118049699D01*
X125945000Y-117816310D01*
X125945000Y-117125750D01*
X125786250Y-116967000D01*
X124587000Y-116967000D01*
X124333000Y-116967000D01*
X123133750Y-116967000D01*
X122975000Y-117125750D01*
X121385000Y-117125750D01*
X121385000Y-109220000D01*
X122945908Y-109220000D01*
X123061161Y-109799418D01*
X123389375Y-110290625D01*
X123687761Y-110490000D01*
X123389375Y-110689375D01*
X123061161Y-111180582D01*
X122945908Y-111760000D01*
X123061161Y-112339418D01*
X123389375Y-112830625D01*
X123687761Y-113030000D01*
X123389375Y-113229375D01*
X123061161Y-113720582D01*
X122945908Y-114300000D01*
X123061161Y-114879418D01*
X123389375Y-115370625D01*
X123411033Y-115385096D01*
X123250302Y-115451673D01*
X123071673Y-115630301D01*
X122975000Y-115863690D01*
X122975000Y-116554250D01*
X123133750Y-116713000D01*
X124333000Y-116713000D01*
X124333000Y-116693000D01*
X124587000Y-116693000D01*
X124587000Y-116713000D01*
X125786250Y-116713000D01*
X125945000Y-116554250D01*
X125945000Y-115863690D01*
X125848327Y-115630301D01*
X125669698Y-115451673D01*
X125508967Y-115385096D01*
X125530625Y-115370625D01*
X125858839Y-114879418D01*
X125974092Y-114300000D01*
X125858839Y-113720582D01*
X125530625Y-113229375D01*
X125232239Y-113030000D01*
X125530625Y-112830625D01*
X125858839Y-112339418D01*
X125974092Y-111760000D01*
X125858839Y-111180582D01*
X125530625Y-110689375D01*
X125232239Y-110490000D01*
X125530625Y-110290625D01*
X125858839Y-109799418D01*
X125974092Y-109220000D01*
X125917315Y-108934561D01*
X126835000Y-108934561D01*
X126835000Y-109505439D01*
X127053466Y-110032862D01*
X127457138Y-110436534D01*
X127984561Y-110655000D01*
X128555439Y-110655000D01*
X129082862Y-110436534D01*
X129486534Y-110032862D01*
X129508430Y-109980000D01*
X132995199Y-109980000D01*
X135880198Y-112865000D01*
X135604561Y-112865000D01*
X135077138Y-113083466D01*
X134673466Y-113487138D01*
X134455000Y-114014561D01*
X134455000Y-114585439D01*
X134673466Y-115112862D01*
X135077138Y-115516534D01*
X135604561Y-115735000D01*
X136175439Y-115735000D01*
X136702862Y-115516534D01*
X137106534Y-115112862D01*
X137140000Y-115032068D01*
X137173466Y-115112862D01*
X137577138Y-115516534D01*
X138104561Y-115735000D01*
X138675439Y-115735000D01*
X139202862Y-115516534D01*
X139606534Y-115112862D01*
X139825000Y-114585439D01*
X139825000Y-114014561D01*
X139606534Y-113487138D01*
X139202862Y-113083466D01*
X138675439Y-112865000D01*
X138104561Y-112865000D01*
X138051698Y-112886896D01*
X133900331Y-108735530D01*
X133857929Y-108672071D01*
X133606537Y-108504096D01*
X133384852Y-108460000D01*
X133384847Y-108460000D01*
X133310000Y-108445112D01*
X133235153Y-108460000D01*
X129508430Y-108460000D01*
X129486534Y-108407138D01*
X129082862Y-108003466D01*
X128555439Y-107785000D01*
X127984561Y-107785000D01*
X127457138Y-108003466D01*
X127053466Y-108407138D01*
X126835000Y-108934561D01*
X125917315Y-108934561D01*
X125858839Y-108640582D01*
X125530625Y-108149375D01*
X125039418Y-107821161D01*
X124606256Y-107735000D01*
X124313744Y-107735000D01*
X123880582Y-107821161D01*
X123389375Y-108149375D01*
X123061161Y-108640582D01*
X122945908Y-109220000D01*
X121385000Y-109220000D01*
X121385000Y-106902540D01*
X123359689Y-103940506D01*
X123590493Y-104171310D01*
X124154670Y-104405000D01*
X124765330Y-104405000D01*
X125329507Y-104171310D01*
X125730000Y-103770817D01*
X126130493Y-104171310D01*
X126694670Y-104405000D01*
X127305330Y-104405000D01*
X127869507Y-104171310D01*
X128270000Y-103770817D01*
X128670493Y-104171310D01*
X129234670Y-104405000D01*
X129845330Y-104405000D01*
X130409507Y-104171310D01*
X130630658Y-103950159D01*
X131179446Y-103950159D01*
X131265852Y-104206643D01*
X131839336Y-104416458D01*
X132449460Y-104390839D01*
X132894148Y-104206643D01*
X132980554Y-103950159D01*
X132080000Y-103049605D01*
X131179446Y-103950159D01*
X130630658Y-103950159D01*
X130841310Y-103739507D01*
X130849438Y-103719885D01*
X130999841Y-103770554D01*
X131900395Y-102870000D01*
X130999841Y-101969446D01*
X130849438Y-102020115D01*
X130841310Y-102000493D01*
X130630658Y-101789841D01*
X131179446Y-101789841D01*
X132080000Y-102690395D01*
X132980554Y-101789841D01*
X132894148Y-101533357D01*
X132320664Y-101323542D01*
X131710540Y-101349161D01*
X131265852Y-101533357D01*
X131179446Y-101789841D01*
X130630658Y-101789841D01*
X130409507Y-101568690D01*
X129845330Y-101335000D01*
X129234670Y-101335000D01*
X128670493Y-101568690D01*
X128270000Y-101969183D01*
X127869507Y-101568690D01*
X127305330Y-101335000D01*
X126694670Y-101335000D01*
X126130493Y-101568690D01*
X125730000Y-101969183D01*
X125329507Y-101568690D01*
X124765330Y-101335000D01*
X124154670Y-101335000D01*
X123925000Y-101430133D01*
X123925000Y-89069867D01*
X124154670Y-89165000D01*
X124765330Y-89165000D01*
X125329507Y-88931310D01*
X125550658Y-88710159D01*
X126099446Y-88710159D01*
X126185852Y-88966643D01*
X126759336Y-89176458D01*
X127369460Y-89150839D01*
X127814148Y-88966643D01*
X127900554Y-88710159D01*
X127000000Y-87809605D01*
X126099446Y-88710159D01*
X125550658Y-88710159D01*
X125761310Y-88499507D01*
X125769438Y-88479885D01*
X125919841Y-88530554D01*
X126820395Y-87630000D01*
X125919841Y-86729446D01*
X125769438Y-86780115D01*
X125761310Y-86760493D01*
X125550658Y-86549841D01*
X126099446Y-86549841D01*
X127000000Y-87450395D01*
X127900554Y-86549841D01*
X127814148Y-86293357D01*
X127240664Y-86083542D01*
X126630540Y-86109161D01*
X126185852Y-86293357D01*
X126099446Y-86549841D01*
X125550658Y-86549841D01*
X125329507Y-86328690D01*
X124765330Y-86095000D01*
X124154670Y-86095000D01*
X123590493Y-86328690D01*
X123359689Y-86559494D01*
X121385000Y-83597460D01*
X121385000Y-80366892D01*
X124288514Y-80366892D01*
X124534817Y-80891358D01*
X124963076Y-81281645D01*
X125373110Y-81451476D01*
X125603000Y-81330155D01*
X125603000Y-80137000D01*
X124409181Y-80137000D01*
X124288514Y-80366892D01*
X121385000Y-80366892D01*
X121385000Y-79653108D01*
X124288514Y-79653108D01*
X124409181Y-79883000D01*
X125603000Y-79883000D01*
X125603000Y-78689845D01*
X125857000Y-78689845D01*
X125857000Y-79883000D01*
X125877000Y-79883000D01*
X125877000Y-80137000D01*
X125857000Y-80137000D01*
X125857000Y-81330155D01*
X126086890Y-81451476D01*
X126496924Y-81281645D01*
X126801261Y-81004292D01*
X126821843Y-81107765D01*
X126962191Y-81317809D01*
X127172235Y-81458157D01*
X127420000Y-81507440D01*
X129120000Y-81507440D01*
X129367765Y-81458157D01*
X129577809Y-81317809D01*
X129718157Y-81107765D01*
X129767440Y-80860000D01*
X129767440Y-79160000D01*
X129718157Y-78912235D01*
X129577809Y-78702191D01*
X129367765Y-78561843D01*
X129120000Y-78512560D01*
X127420000Y-78512560D01*
X127172235Y-78561843D01*
X126962191Y-78702191D01*
X126821843Y-78912235D01*
X126801261Y-79015708D01*
X126496924Y-78738355D01*
X126086890Y-78568524D01*
X125857000Y-78689845D01*
X125603000Y-78689845D01*
X125373110Y-78568524D01*
X124963076Y-78738355D01*
X124534817Y-79128642D01*
X124288514Y-79653108D01*
X121385000Y-79653108D01*
X121385000Y-77207745D01*
X124901861Y-77207745D01*
X124975995Y-77453864D01*
X125513223Y-77646965D01*
X126083454Y-77619778D01*
X126484005Y-77453864D01*
X126558139Y-77207745D01*
X125730000Y-76379605D01*
X124901861Y-77207745D01*
X121385000Y-77207745D01*
X121385000Y-75983223D01*
X124283035Y-75983223D01*
X124310222Y-76553454D01*
X124476136Y-76954005D01*
X124722255Y-77028139D01*
X125550395Y-76200000D01*
X124722255Y-75371861D01*
X124476136Y-75445995D01*
X124283035Y-75983223D01*
X121385000Y-75983223D01*
X121385000Y-74667745D01*
X124901861Y-74667745D01*
X124975995Y-74913864D01*
X125017709Y-74928858D01*
X124975995Y-74946136D01*
X124901861Y-75192255D01*
X125730000Y-76020395D01*
X126558139Y-75192255D01*
X126484005Y-74946136D01*
X126442291Y-74931142D01*
X126484005Y-74913864D01*
X126558139Y-74667745D01*
X125730000Y-73839605D01*
X124901861Y-74667745D01*
X121385000Y-74667745D01*
X121385000Y-73443223D01*
X124283035Y-73443223D01*
X124310222Y-74013454D01*
X124476136Y-74414005D01*
X124722255Y-74488139D01*
X125550395Y-73660000D01*
X125909605Y-73660000D01*
X126737745Y-74488139D01*
X126983864Y-74414005D01*
X126986290Y-74407254D01*
X127013466Y-74472862D01*
X127417138Y-74876534D01*
X127546216Y-74930000D01*
X127417138Y-74983466D01*
X127013466Y-75387138D01*
X126986475Y-75452299D01*
X126983864Y-75445995D01*
X126737745Y-75371861D01*
X125909605Y-76200000D01*
X126737745Y-77028139D01*
X126983864Y-76954005D01*
X126986290Y-76947254D01*
X127013466Y-77012862D01*
X127417138Y-77416534D01*
X127944561Y-77635000D01*
X128515439Y-77635000D01*
X129042862Y-77416534D01*
X129446534Y-77012862D01*
X129665000Y-76485439D01*
X129665000Y-75914561D01*
X129446534Y-75387138D01*
X129042862Y-74983466D01*
X128913784Y-74930000D01*
X129042862Y-74876534D01*
X129446534Y-74472862D01*
X129665000Y-73945439D01*
X129665000Y-73374561D01*
X129446534Y-72847138D01*
X129042862Y-72443466D01*
X128515439Y-72225000D01*
X127944561Y-72225000D01*
X127417138Y-72443466D01*
X127013466Y-72847138D01*
X126986475Y-72912299D01*
X126983864Y-72905995D01*
X126737745Y-72831861D01*
X125909605Y-73660000D01*
X125550395Y-73660000D01*
X124722255Y-72831861D01*
X124476136Y-72905995D01*
X124283035Y-73443223D01*
X121385000Y-73443223D01*
X121385000Y-72652255D01*
X124901861Y-72652255D01*
X125730000Y-73480395D01*
X126558139Y-72652255D01*
X126484005Y-72406136D01*
X125946777Y-72213035D01*
X125376546Y-72240222D01*
X124975995Y-72406136D01*
X124901861Y-72652255D01*
X121385000Y-72652255D01*
X121385000Y-67730000D01*
X124232560Y-67730000D01*
X124232560Y-69430000D01*
X124281843Y-69677765D01*
X124422191Y-69887809D01*
X124632235Y-70028157D01*
X124880000Y-70077440D01*
X126580000Y-70077440D01*
X126827765Y-70028157D01*
X127037809Y-69887809D01*
X127178157Y-69677765D01*
X127198739Y-69574292D01*
X127503076Y-69851645D01*
X127913110Y-70021476D01*
X128143000Y-69900155D01*
X128143000Y-68707000D01*
X128123000Y-68707000D01*
X128123000Y-68453000D01*
X128143000Y-68453000D01*
X128143000Y-68433000D01*
X128397000Y-68433000D01*
X128397000Y-68453000D01*
X128417000Y-68453000D01*
X128417000Y-68707000D01*
X128397000Y-68707000D01*
X128397000Y-69900155D01*
X128626890Y-70021476D01*
X129036924Y-69851645D01*
X129465183Y-69461358D01*
X129526157Y-69331522D01*
X129739375Y-69650625D01*
X130230582Y-69978839D01*
X130663744Y-70065000D01*
X130956256Y-70065000D01*
X131320001Y-69992647D01*
X131320000Y-74029957D01*
X131305112Y-74104808D01*
X131320000Y-74179651D01*
X131364096Y-74401336D01*
X131364099Y-74401341D01*
X131364100Y-74401344D01*
X131411888Y-74472862D01*
X131532071Y-74652729D01*
X131595534Y-74695133D01*
X135840493Y-78940006D01*
X132800828Y-81979671D01*
X132737372Y-82022071D01*
X132694972Y-82085527D01*
X132694971Y-82085528D01*
X132569397Y-82273463D01*
X132510412Y-82570000D01*
X132525301Y-82644852D01*
X132525300Y-86109898D01*
X132494838Y-86140360D01*
X132385330Y-86095000D01*
X131774670Y-86095000D01*
X131210493Y-86328690D01*
X130810000Y-86729183D01*
X130409507Y-86328690D01*
X129845330Y-86095000D01*
X129234670Y-86095000D01*
X128670493Y-86328690D01*
X128238690Y-86760493D01*
X128230562Y-86780115D01*
X128080159Y-86729446D01*
X127179605Y-87630000D01*
X128080159Y-88530554D01*
X128230562Y-88479885D01*
X128238690Y-88499507D01*
X128670493Y-88931310D01*
X129234670Y-89165000D01*
X129845330Y-89165000D01*
X130409507Y-88931310D01*
X130810000Y-88530817D01*
X131210493Y-88931310D01*
X131774670Y-89165000D01*
X132184183Y-89165000D01*
X132048690Y-89300493D01*
X131815000Y-89864670D01*
X131815000Y-90475330D01*
X132048690Y-91039507D01*
X132480493Y-91471310D01*
X133044670Y-91705000D01*
X133655330Y-91705000D01*
X133764839Y-91659640D01*
X137117471Y-95012273D01*
X137159871Y-95075729D01*
X137411263Y-95243704D01*
X137632948Y-95287800D01*
X137632953Y-95287800D01*
X137707800Y-95302688D01*
X137782647Y-95287800D01*
X148747398Y-95287800D01*
X142654839Y-101380360D01*
X142545330Y-101335000D01*
X141934670Y-101335000D01*
X141370493Y-101568690D01*
X140970000Y-101969183D01*
X140569507Y-101568690D01*
X140005330Y-101335000D01*
X139394670Y-101335000D01*
X138830493Y-101568690D01*
X138430000Y-101969183D01*
X138029507Y-101568690D01*
X137465330Y-101335000D01*
X136854670Y-101335000D01*
X136290493Y-101568690D01*
X135890000Y-101969183D01*
X135489507Y-101568690D01*
X134925330Y-101335000D01*
X134314670Y-101335000D01*
X133750493Y-101568690D01*
X133318690Y-102000493D01*
X133310562Y-102020115D01*
X133160159Y-101969446D01*
X132259605Y-102870000D01*
X133160159Y-103770554D01*
X133310562Y-103719885D01*
X133318690Y-103739507D01*
X133750493Y-104171310D01*
X134314670Y-104405000D01*
X134925330Y-104405000D01*
X135489507Y-104171310D01*
X135890000Y-103770817D01*
X136290493Y-104171310D01*
X136400101Y-104216711D01*
X136400100Y-109577753D01*
X136385212Y-109652600D01*
X136400100Y-109727447D01*
X136400100Y-109727451D01*
X136444196Y-109949136D01*
X136612171Y-110200529D01*
X136675630Y-110242931D01*
X137351671Y-110918973D01*
X137394071Y-110982429D01*
X137645463Y-111150404D01*
X137867148Y-111194500D01*
X137867152Y-111194500D01*
X137942000Y-111209388D01*
X138016848Y-111194500D01*
X139259253Y-111194500D01*
X139334100Y-111209388D01*
X139408947Y-111194500D01*
X139408952Y-111194500D01*
X139630637Y-111150404D01*
X139882029Y-110982429D01*
X139924431Y-110918970D01*
X140961101Y-109882300D01*
X141023466Y-110032862D01*
X141427138Y-110436534D01*
X141954561Y-110655000D01*
X142525439Y-110655000D01*
X142578302Y-110633103D01*
X142750001Y-110804803D01*
X142750001Y-112399305D01*
X142515000Y-112352560D01*
X141965000Y-112352560D01*
X141611997Y-112422777D01*
X141312736Y-112622736D01*
X141112777Y-112921997D01*
X141042560Y-113275000D01*
X141042560Y-114525000D01*
X141112777Y-114878003D01*
X141312736Y-115177264D01*
X141611997Y-115377223D01*
X141965000Y-115447440D01*
X142312560Y-115447440D01*
X142312560Y-116595000D01*
X142382777Y-116948003D01*
X142582736Y-117247264D01*
X142881997Y-117447223D01*
X143235000Y-117517440D01*
X143785000Y-117517440D01*
X144138003Y-117447223D01*
X144437264Y-117247264D01*
X144637223Y-116948003D01*
X144707440Y-116595000D01*
X144707440Y-115345000D01*
X144653000Y-115071313D01*
X144653000Y-114027000D01*
X144907000Y-114027000D01*
X144907000Y-115276250D01*
X145065750Y-115435000D01*
X145456309Y-115435000D01*
X145689698Y-115338327D01*
X145868327Y-115159699D01*
X145965000Y-114926310D01*
X145965000Y-114585750D01*
X155995000Y-114585750D01*
X155995000Y-115276309D01*
X156091673Y-115509698D01*
X156270301Y-115688327D01*
X156503690Y-115785000D01*
X157194250Y-115785000D01*
X157353000Y-115626250D01*
X157353000Y-114427000D01*
X157607000Y-114427000D01*
X157607000Y-115626250D01*
X157765750Y-115785000D01*
X158456310Y-115785000D01*
X158689699Y-115688327D01*
X158868327Y-115509698D01*
X158955136Y-115300122D01*
X159253076Y-115571645D01*
X159663110Y-115741476D01*
X159893000Y-115620155D01*
X159893000Y-114427000D01*
X160147000Y-114427000D01*
X160147000Y-115620155D01*
X160376890Y-115741476D01*
X160786924Y-115571645D01*
X161215183Y-115181358D01*
X161290000Y-115022046D01*
X161364817Y-115181358D01*
X161793076Y-115571645D01*
X162203110Y-115741476D01*
X162433000Y-115620155D01*
X162433000Y-114427000D01*
X160147000Y-114427000D01*
X159893000Y-114427000D01*
X157607000Y-114427000D01*
X157353000Y-114427000D01*
X156153750Y-114427000D01*
X155995000Y-114585750D01*
X145965000Y-114585750D01*
X145965000Y-114185750D01*
X145806250Y-114027000D01*
X144907000Y-114027000D01*
X144653000Y-114027000D01*
X144633000Y-114027000D01*
X144633000Y-113773000D01*
X144653000Y-113773000D01*
X144653000Y-112523750D01*
X144907000Y-112523750D01*
X144907000Y-113773000D01*
X145806250Y-113773000D01*
X145965000Y-113614250D01*
X145965000Y-112873690D01*
X145868327Y-112640301D01*
X145689698Y-112461673D01*
X145456309Y-112365000D01*
X145065750Y-112365000D01*
X144907000Y-112523750D01*
X144653000Y-112523750D01*
X144494250Y-112365000D01*
X144270000Y-112365000D01*
X144270000Y-110564846D01*
X144284888Y-110489999D01*
X144270000Y-110415152D01*
X144270000Y-110415148D01*
X144225904Y-110193463D01*
X144057929Y-109942071D01*
X143994473Y-109899671D01*
X143653103Y-109558302D01*
X143675000Y-109505439D01*
X143675000Y-109284601D01*
X147949570Y-113559172D01*
X147991971Y-113622629D01*
X148243363Y-113790604D01*
X148465048Y-113834700D01*
X148465052Y-113834700D01*
X148539900Y-113849588D01*
X148614748Y-113834700D01*
X155995000Y-113834700D01*
X155995000Y-114014250D01*
X156153750Y-114173000D01*
X157353000Y-114173000D01*
X157353000Y-114153000D01*
X157607000Y-114153000D01*
X157607000Y-114173000D01*
X159893000Y-114173000D01*
X159893000Y-114153000D01*
X160147000Y-114153000D01*
X160147000Y-114173000D01*
X162433000Y-114173000D01*
X162433000Y-114153000D01*
X162687000Y-114153000D01*
X162687000Y-114173000D01*
X162707000Y-114173000D01*
X162707000Y-114427000D01*
X162687000Y-114427000D01*
X162687000Y-115620155D01*
X162916890Y-115741476D01*
X163326924Y-115571645D01*
X163755183Y-115181358D01*
X163811123Y-115062243D01*
X163825190Y-115065041D01*
X164029375Y-115370625D01*
X164520582Y-115698839D01*
X164953744Y-115785000D01*
X165246256Y-115785000D01*
X165679418Y-115698839D01*
X166170625Y-115370625D01*
X166383843Y-115051522D01*
X166444817Y-115181358D01*
X166873076Y-115571645D01*
X167283110Y-115741476D01*
X167513000Y-115620155D01*
X167513000Y-114427000D01*
X167493000Y-114427000D01*
X167493000Y-114173000D01*
X167513000Y-114173000D01*
X167513000Y-114153000D01*
X167767000Y-114153000D01*
X167767000Y-114173000D01*
X167787000Y-114173000D01*
X167787000Y-114427000D01*
X167767000Y-114427000D01*
X167767000Y-115620155D01*
X167996890Y-115741476D01*
X168406924Y-115571645D01*
X168835183Y-115181358D01*
X168891123Y-115062243D01*
X168905190Y-115065041D01*
X169109375Y-115370625D01*
X169600582Y-115698839D01*
X170033744Y-115785000D01*
X170326256Y-115785000D01*
X170759418Y-115698839D01*
X171250625Y-115370625D01*
X171450000Y-115072239D01*
X171649375Y-115370625D01*
X172140582Y-115698839D01*
X172573744Y-115785000D01*
X172866256Y-115785000D01*
X173299418Y-115698839D01*
X173790625Y-115370625D01*
X173990000Y-115072239D01*
X174189375Y-115370625D01*
X174680582Y-115698839D01*
X175113744Y-115785000D01*
X175406256Y-115785000D01*
X175839418Y-115698839D01*
X176145392Y-115494394D01*
X176666971Y-116015973D01*
X176709371Y-116079429D01*
X176960763Y-116247404D01*
X177182448Y-116291500D01*
X177182453Y-116291500D01*
X177257300Y-116306388D01*
X177332147Y-116291500D01*
X178248353Y-116291500D01*
X178323200Y-116306388D01*
X178398047Y-116291500D01*
X178398052Y-116291500D01*
X178619737Y-116247404D01*
X178871129Y-116079429D01*
X178913531Y-116015970D01*
X179460474Y-115469027D01*
X179573076Y-115571645D01*
X179983110Y-115741476D01*
X180213000Y-115620155D01*
X180213000Y-114427000D01*
X180193000Y-114427000D01*
X180193000Y-114173000D01*
X180213000Y-114173000D01*
X180213000Y-112979845D01*
X179983110Y-112858524D01*
X179823600Y-112924591D01*
X179823600Y-100858448D01*
X179838488Y-100783600D01*
X179823600Y-100708752D01*
X179823600Y-100708748D01*
X179779504Y-100487063D01*
X179611529Y-100235671D01*
X179548073Y-100193271D01*
X168910000Y-89555199D01*
X168910000Y-89059425D01*
X168710564Y-88577945D01*
X168342055Y-88209436D01*
X168287045Y-88186650D01*
X167600000Y-87499605D01*
X166912955Y-88186650D01*
X166857945Y-88209436D01*
X166489436Y-88577945D01*
X166290000Y-89059425D01*
X166290000Y-89580575D01*
X166489436Y-90062055D01*
X166747381Y-90320000D01*
X166489436Y-90577945D01*
X166290000Y-91059425D01*
X166290000Y-91580575D01*
X166489436Y-92062055D01*
X166747381Y-92320000D01*
X166489436Y-92577945D01*
X166290000Y-93059425D01*
X166290000Y-93580575D01*
X166489436Y-94062055D01*
X166747381Y-94320000D01*
X166489436Y-94577945D01*
X166290000Y-95059425D01*
X166290000Y-95580575D01*
X166489436Y-96062055D01*
X166747381Y-96320000D01*
X166489436Y-96577945D01*
X166290000Y-97059425D01*
X166290000Y-97580575D01*
X166489436Y-98062055D01*
X166747381Y-98320000D01*
X166489436Y-98577945D01*
X166290000Y-99059425D01*
X166290000Y-99580575D01*
X166489436Y-100062055D01*
X166857945Y-100430564D01*
X167339425Y-100630000D01*
X167860575Y-100630000D01*
X168342055Y-100430564D01*
X168710564Y-100062055D01*
X168910000Y-99580575D01*
X168910000Y-99059425D01*
X168710564Y-98577945D01*
X168452619Y-98320000D01*
X168710564Y-98062055D01*
X168910000Y-97580575D01*
X168910000Y-97059425D01*
X168710564Y-96577945D01*
X168452619Y-96320000D01*
X168710564Y-96062055D01*
X168873615Y-95668416D01*
X176292323Y-103087125D01*
X175994540Y-103098144D01*
X175505736Y-103300613D01*
X175407073Y-103567468D01*
X176380000Y-104540395D01*
X176394143Y-104526253D01*
X176573748Y-104705858D01*
X176559605Y-104720000D01*
X176573748Y-104734143D01*
X176394143Y-104913748D01*
X176380000Y-104899605D01*
X175407073Y-105872532D01*
X175505736Y-106139387D01*
X176115461Y-106365908D01*
X176765460Y-106341856D01*
X177039900Y-106228179D01*
X177039901Y-107723629D01*
X176705222Y-107585000D01*
X176054778Y-107585000D01*
X175888625Y-107653823D01*
X172690263Y-104455461D01*
X174734092Y-104455461D01*
X174758144Y-105105460D01*
X174960613Y-105594264D01*
X175227468Y-105692927D01*
X176200395Y-104720000D01*
X175227468Y-103747073D01*
X174960613Y-103845736D01*
X174734092Y-104455461D01*
X172690263Y-104455461D01*
X169329031Y-101094230D01*
X169286629Y-101030771D01*
X169035237Y-100862796D01*
X168813552Y-100818700D01*
X168813547Y-100818700D01*
X168738700Y-100803812D01*
X168663853Y-100818700D01*
X151226147Y-100818700D01*
X151151300Y-100803812D01*
X151076453Y-100818700D01*
X151076448Y-100818700D01*
X150854763Y-100862796D01*
X150603371Y-101030771D01*
X150560971Y-101094227D01*
X150274838Y-101380360D01*
X150165330Y-101335000D01*
X149554670Y-101335000D01*
X148990493Y-101568690D01*
X148590000Y-101969183D01*
X148189507Y-101568690D01*
X147625330Y-101335000D01*
X147389801Y-101335000D01*
X151799402Y-96925400D01*
X152831853Y-96925400D01*
X152906700Y-96940288D01*
X152981547Y-96925400D01*
X152981552Y-96925400D01*
X153203237Y-96881304D01*
X153454629Y-96713329D01*
X153497031Y-96649870D01*
X156893973Y-93252929D01*
X156957429Y-93210529D01*
X157125404Y-92959137D01*
X157169500Y-92737452D01*
X157169500Y-92737448D01*
X157184388Y-92662601D01*
X157169500Y-92587754D01*
X157169500Y-90170000D01*
X158505908Y-90170000D01*
X158621161Y-90749418D01*
X158949375Y-91240625D01*
X159247761Y-91440000D01*
X158949375Y-91639375D01*
X158621161Y-92130582D01*
X158505908Y-92710000D01*
X158621161Y-93289418D01*
X158949375Y-93780625D01*
X159247761Y-93980000D01*
X158949375Y-94179375D01*
X158621161Y-94670582D01*
X158505908Y-95250000D01*
X158621161Y-95829418D01*
X158949375Y-96320625D01*
X159440582Y-96648839D01*
X159873744Y-96735000D01*
X160166256Y-96735000D01*
X160599418Y-96648839D01*
X161090625Y-96320625D01*
X161418839Y-95829418D01*
X161534092Y-95250000D01*
X161418839Y-94670582D01*
X161090625Y-94179375D01*
X160792239Y-93980000D01*
X161090625Y-93780625D01*
X161418839Y-93289418D01*
X161534092Y-92710000D01*
X161418839Y-92130582D01*
X161090625Y-91639375D01*
X160792239Y-91440000D01*
X161090625Y-91240625D01*
X161418839Y-90749418D01*
X161534092Y-90170000D01*
X161418839Y-89590582D01*
X161090625Y-89099375D01*
X161072381Y-89087184D01*
X161117765Y-89078157D01*
X161327809Y-88937809D01*
X161468157Y-88727765D01*
X161517440Y-88480000D01*
X161517440Y-87133100D01*
X166277478Y-87133100D01*
X166306625Y-87653434D01*
X166449672Y-87998781D01*
X166682853Y-88057542D01*
X167420395Y-87320000D01*
X166682853Y-86582458D01*
X166449672Y-86641219D01*
X166277478Y-87133100D01*
X161517440Y-87133100D01*
X161517440Y-86780000D01*
X161468157Y-86532235D01*
X161327809Y-86322191D01*
X161117765Y-86181843D01*
X160870000Y-86132560D01*
X159170000Y-86132560D01*
X158922235Y-86181843D01*
X158712191Y-86322191D01*
X158571843Y-86532235D01*
X158522560Y-86780000D01*
X158522560Y-88480000D01*
X158571843Y-88727765D01*
X158712191Y-88937809D01*
X158922235Y-89078157D01*
X158967619Y-89087184D01*
X158949375Y-89099375D01*
X158621161Y-89590582D01*
X158505908Y-90170000D01*
X157169500Y-90170000D01*
X157169500Y-77270746D01*
X157184388Y-77195899D01*
X157169500Y-77121052D01*
X157169500Y-77121048D01*
X157125404Y-76899363D01*
X156957429Y-76647971D01*
X156893973Y-76605571D01*
X156498700Y-76210298D01*
X156498700Y-76044226D01*
X156451939Y-75931335D01*
X156667138Y-76146534D01*
X157194561Y-76365000D01*
X157765439Y-76365000D01*
X158292862Y-76146534D01*
X158696534Y-75742862D01*
X158885403Y-75286892D01*
X164928514Y-75286892D01*
X165174817Y-75811358D01*
X165603076Y-76201645D01*
X166013110Y-76371476D01*
X166243000Y-76250155D01*
X166243000Y-75057000D01*
X165049181Y-75057000D01*
X164928514Y-75286892D01*
X158885403Y-75286892D01*
X158915000Y-75215439D01*
X158915000Y-74644561D01*
X158885404Y-74573108D01*
X164928514Y-74573108D01*
X165049181Y-74803000D01*
X166243000Y-74803000D01*
X166243000Y-73609845D01*
X166013110Y-73488524D01*
X165603076Y-73658355D01*
X165174817Y-74048642D01*
X164928514Y-74573108D01*
X158885404Y-74573108D01*
X158696534Y-74117138D01*
X158292862Y-73713466D01*
X157765439Y-73495000D01*
X157194561Y-73495000D01*
X156667138Y-73713466D01*
X156263466Y-74117138D01*
X156045000Y-74644561D01*
X156045000Y-75215439D01*
X156152657Y-75475346D01*
X156049980Y-75372669D01*
X155669574Y-75215100D01*
X155257826Y-75215100D01*
X154877420Y-75372669D01*
X154603096Y-75646993D01*
X152671000Y-73714899D01*
X152671000Y-73548826D01*
X152513431Y-73168420D01*
X152222280Y-72877269D01*
X151841874Y-72719700D01*
X151611200Y-72719700D01*
X151611200Y-70398901D01*
X151614470Y-70395631D01*
X151677929Y-70353229D01*
X151845904Y-70101837D01*
X151890000Y-69880152D01*
X151890000Y-69880148D01*
X151895040Y-69854810D01*
X152200625Y-69650625D01*
X152400000Y-69352239D01*
X152599375Y-69650625D01*
X153090582Y-69978839D01*
X153523744Y-70065000D01*
X153816256Y-70065000D01*
X154249418Y-69978839D01*
X154740625Y-69650625D01*
X154944811Y-69345040D01*
X154970147Y-69340000D01*
X154970152Y-69340000D01*
X155191837Y-69295904D01*
X155443229Y-69127929D01*
X155485631Y-69064470D01*
X156438102Y-68112000D01*
X164872560Y-68112000D01*
X164872560Y-69430000D01*
X164921843Y-69677765D01*
X165062191Y-69887809D01*
X165272235Y-70028157D01*
X165520000Y-70077440D01*
X165649244Y-70077440D01*
X165654097Y-70101837D01*
X165710266Y-70185899D01*
X165822072Y-70353229D01*
X165885528Y-70395629D01*
X166840000Y-71350102D01*
X166840000Y-73535373D01*
X166726890Y-73488524D01*
X166497000Y-73609845D01*
X166497000Y-74803000D01*
X166517000Y-74803000D01*
X166517000Y-75057000D01*
X166497000Y-75057000D01*
X166497000Y-76250155D01*
X166726890Y-76371476D01*
X166840000Y-76324627D01*
X166840001Y-84227380D01*
X166489436Y-84577945D01*
X166290000Y-85059425D01*
X166290000Y-85580575D01*
X166489436Y-86062055D01*
X166857945Y-86430564D01*
X166912955Y-86453350D01*
X167600000Y-87140395D01*
X167614143Y-87126253D01*
X167793748Y-87305858D01*
X167779605Y-87320000D01*
X168517147Y-88057542D01*
X168750328Y-87998781D01*
X168867959Y-87662761D01*
X180235500Y-99030302D01*
X180235501Y-111115348D01*
X180220612Y-111190200D01*
X180235501Y-111265052D01*
X180279597Y-111486737D01*
X180447572Y-111738129D01*
X180511028Y-111780529D01*
X181899592Y-113169094D01*
X181809375Y-113229375D01*
X181596157Y-113548478D01*
X181535183Y-113418642D01*
X181106924Y-113028355D01*
X180696890Y-112858524D01*
X180467000Y-112979845D01*
X180467000Y-114173000D01*
X180487000Y-114173000D01*
X180487000Y-114427000D01*
X180467000Y-114427000D01*
X180467000Y-115620155D01*
X180696890Y-115741476D01*
X181106924Y-115571645D01*
X181535183Y-115181358D01*
X181596157Y-115051522D01*
X181809375Y-115370625D01*
X182300582Y-115698839D01*
X182733744Y-115785000D01*
X183026256Y-115785000D01*
X183459418Y-115698839D01*
X183950625Y-115370625D01*
X184278839Y-114879418D01*
X184394092Y-114300000D01*
X184278839Y-113720582D01*
X183950625Y-113229375D01*
X183645040Y-113025190D01*
X183640000Y-112999852D01*
X183640000Y-112999848D01*
X183595904Y-112778163D01*
X183554102Y-112715602D01*
X183470329Y-112590226D01*
X183470327Y-112590224D01*
X183427929Y-112526771D01*
X183364476Y-112484373D01*
X181755500Y-110875399D01*
X181755500Y-110407739D01*
X181953847Y-110606086D01*
X182554778Y-110855000D01*
X183205222Y-110855000D01*
X183806153Y-110606086D01*
X184266086Y-110146153D01*
X184515000Y-109545222D01*
X184515000Y-108894778D01*
X184266086Y-108293847D01*
X183806153Y-107833914D01*
X183205222Y-107585000D01*
X182554778Y-107585000D01*
X181953847Y-107833914D01*
X181755500Y-108032261D01*
X181755500Y-105949520D01*
X181792794Y-105986814D01*
X181907074Y-105872534D01*
X182005736Y-106139387D01*
X182615461Y-106365908D01*
X183265460Y-106341856D01*
X183754264Y-106139387D01*
X183852927Y-105872532D01*
X182880000Y-104899605D01*
X182865858Y-104913748D01*
X182686253Y-104734143D01*
X182700395Y-104720000D01*
X183059605Y-104720000D01*
X184032532Y-105692927D01*
X184299387Y-105594264D01*
X184525908Y-104984539D01*
X184501856Y-104334540D01*
X184299387Y-103845736D01*
X184032532Y-103747073D01*
X183059605Y-104720000D01*
X182700395Y-104720000D01*
X182686253Y-104705858D01*
X182865858Y-104526253D01*
X182880000Y-104540395D01*
X183852927Y-103567468D01*
X183754264Y-103300613D01*
X183144539Y-103074092D01*
X182494540Y-103098144D01*
X182005736Y-103300613D01*
X181907074Y-103567466D01*
X181792794Y-103453186D01*
X181755500Y-103490480D01*
X181755500Y-98790348D01*
X181770388Y-98715500D01*
X181755500Y-98640652D01*
X181755500Y-98640648D01*
X181711404Y-98418963D01*
X181711404Y-98418962D01*
X181585829Y-98231027D01*
X181543429Y-98167571D01*
X181479973Y-98125171D01*
X168910000Y-85555199D01*
X168910000Y-85059425D01*
X168710564Y-84577945D01*
X168360000Y-84227381D01*
X168360000Y-76427440D01*
X169760000Y-76427440D01*
X170007765Y-76378157D01*
X170217809Y-76237809D01*
X170358157Y-76027765D01*
X170407440Y-75780000D01*
X170407440Y-74080000D01*
X170358157Y-73832235D01*
X170217809Y-73622191D01*
X170007765Y-73481843D01*
X169760000Y-73432560D01*
X168360000Y-73432560D01*
X168360000Y-71110148D01*
X168374888Y-71035300D01*
X168360000Y-70960452D01*
X168360000Y-70960448D01*
X168315904Y-70738763D01*
X168315904Y-70738762D01*
X168190329Y-70550827D01*
X168147929Y-70487371D01*
X168084473Y-70444971D01*
X167587592Y-69948091D01*
X167677809Y-69887809D01*
X167818157Y-69677765D01*
X167838739Y-69574292D01*
X168143076Y-69851645D01*
X168553110Y-70021476D01*
X168783000Y-69900155D01*
X168783000Y-68707000D01*
X168763000Y-68707000D01*
X168763000Y-68453000D01*
X168783000Y-68453000D01*
X168783000Y-68433000D01*
X169037000Y-68433000D01*
X169037000Y-68453000D01*
X169057000Y-68453000D01*
X169057000Y-68707000D01*
X169037000Y-68707000D01*
X169037000Y-69900155D01*
X169266890Y-70021476D01*
X169676924Y-69851645D01*
X170105183Y-69461358D01*
X170166157Y-69331522D01*
X170379375Y-69650625D01*
X170870582Y-69978839D01*
X171303744Y-70065000D01*
X171596256Y-70065000D01*
X172029418Y-69978839D01*
X172520625Y-69650625D01*
X172720000Y-69352239D01*
X172919375Y-69650625D01*
X173410582Y-69978839D01*
X173843744Y-70065000D01*
X174136256Y-70065000D01*
X174569418Y-69978839D01*
X175060625Y-69650625D01*
X175388839Y-69159418D01*
X175504092Y-68580000D01*
X175391923Y-68016083D01*
X180045000Y-68016083D01*
X180045000Y-69143917D01*
X180476603Y-70185899D01*
X181274101Y-70983397D01*
X182316083Y-71415000D01*
X183443917Y-71415000D01*
X184485899Y-70983397D01*
X185283397Y-70185899D01*
X185715000Y-69143917D01*
X185715000Y-68016083D01*
X185283397Y-66974101D01*
X184485899Y-66176603D01*
X183443917Y-65745000D01*
X182316083Y-65745000D01*
X181274101Y-66176603D01*
X180476603Y-66974101D01*
X180045000Y-68016083D01*
X175391923Y-68016083D01*
X175388839Y-68000582D01*
X175060625Y-67509375D01*
X174569418Y-67181161D01*
X174136256Y-67095000D01*
X173843744Y-67095000D01*
X173410582Y-67181161D01*
X173133562Y-67366260D01*
X172634831Y-66867530D01*
X172592429Y-66804071D01*
X172341037Y-66636096D01*
X172119352Y-66592000D01*
X172119347Y-66592000D01*
X172044500Y-66577112D01*
X171969653Y-66592000D01*
X156198146Y-66592000D01*
X156123299Y-66577112D01*
X156048452Y-66592000D01*
X156048448Y-66592000D01*
X155826763Y-66636096D01*
X155575371Y-66804071D01*
X155532971Y-66867527D01*
X154800906Y-67599592D01*
X154740625Y-67509375D01*
X154249418Y-67181161D01*
X153816256Y-67095000D01*
X153523744Y-67095000D01*
X153090582Y-67181161D01*
X152784608Y-67385606D01*
X152254231Y-66855230D01*
X152211829Y-66791771D01*
X151960437Y-66623796D01*
X151738752Y-66579700D01*
X151738747Y-66579700D01*
X151663900Y-66564812D01*
X151589053Y-66579700D01*
X149934852Y-66579700D01*
X149860000Y-66564811D01*
X149785148Y-66579700D01*
X135890446Y-66579700D01*
X135815599Y-66564812D01*
X135740752Y-66579700D01*
X135740748Y-66579700D01*
X135519063Y-66623796D01*
X135267671Y-66791771D01*
X135225271Y-66855227D01*
X134480906Y-67599592D01*
X134420625Y-67509375D01*
X133929418Y-67181161D01*
X133496256Y-67095000D01*
X133203744Y-67095000D01*
X132770582Y-67181161D01*
X132453158Y-67393257D01*
X131930131Y-66870230D01*
X131887729Y-66806771D01*
X131636337Y-66638796D01*
X131414652Y-66594700D01*
X131414647Y-66594700D01*
X131339800Y-66579812D01*
X131264953Y-66594700D01*
X127795846Y-66594700D01*
X127720999Y-66579812D01*
X127646152Y-66594700D01*
X127646148Y-66594700D01*
X127424463Y-66638796D01*
X127424461Y-66638797D01*
X127424462Y-66638797D01*
X127236526Y-66764371D01*
X127236524Y-66764373D01*
X127173071Y-66806771D01*
X127130673Y-66870225D01*
X126852516Y-67148381D01*
X126827765Y-67131843D01*
X126580000Y-67082560D01*
X124880000Y-67082560D01*
X124632235Y-67131843D01*
X124422191Y-67272191D01*
X124281843Y-67482235D01*
X124232560Y-67730000D01*
X121385000Y-67730000D01*
X121385000Y-65505000D01*
X185980001Y-65505000D01*
X185980000Y-87335909D01*
X185980000Y-87335909D01*
G37*
X185980000Y-87335909D02*
X183697402Y-89618508D01*
X183638120Y-89658119D01*
X183598510Y-89717400D01*
X183481196Y-89892972D01*
X183426091Y-90170000D01*
X183440001Y-90239929D01*
X183440000Y-96450076D01*
X183426091Y-96520000D01*
X183440000Y-96589924D01*
X183440000Y-96589925D01*
X183481195Y-96797027D01*
X183638119Y-97031880D01*
X183697402Y-97071492D01*
X185980000Y-99354091D01*
X185980001Y-117400000D01*
X148589306Y-117400000D01*
X148449514Y-117399854D01*
X148383271Y-117427212D01*
X148312972Y-117441195D01*
X148196200Y-117519220D01*
X144602530Y-119915000D01*
X121385000Y-119915000D01*
X121385000Y-117125750D01*
X122975000Y-117125750D01*
X122975000Y-117816310D01*
X123071673Y-118049699D01*
X123250302Y-118228327D01*
X123483691Y-118325000D01*
X124174250Y-118325000D01*
X124333000Y-118166250D01*
X124333000Y-116967000D01*
X124587000Y-116967000D01*
X124587000Y-118166250D01*
X124745750Y-118325000D01*
X125436309Y-118325000D01*
X125669698Y-118228327D01*
X125848327Y-118049699D01*
X125945000Y-117816310D01*
X125945000Y-117125750D01*
X125786250Y-116967000D01*
X124587000Y-116967000D01*
X124333000Y-116967000D01*
X123133750Y-116967000D01*
X122975000Y-117125750D01*
X121385000Y-117125750D01*
X121385000Y-109220000D01*
X122945908Y-109220000D01*
X123061161Y-109799418D01*
X123389375Y-110290625D01*
X123687761Y-110490000D01*
X123389375Y-110689375D01*
X123061161Y-111180582D01*
X122945908Y-111760000D01*
X123061161Y-112339418D01*
X123389375Y-112830625D01*
X123687761Y-113030000D01*
X123389375Y-113229375D01*
X123061161Y-113720582D01*
X122945908Y-114300000D01*
X123061161Y-114879418D01*
X123389375Y-115370625D01*
X123411033Y-115385096D01*
X123250302Y-115451673D01*
X123071673Y-115630301D01*
X122975000Y-115863690D01*
X122975000Y-116554250D01*
X123133750Y-116713000D01*
X124333000Y-116713000D01*
X124333000Y-116693000D01*
X124587000Y-116693000D01*
X124587000Y-116713000D01*
X125786250Y-116713000D01*
X125945000Y-116554250D01*
X125945000Y-115863690D01*
X125848327Y-115630301D01*
X125669698Y-115451673D01*
X125508967Y-115385096D01*
X125530625Y-115370625D01*
X125858839Y-114879418D01*
X125974092Y-114300000D01*
X125858839Y-113720582D01*
X125530625Y-113229375D01*
X125232239Y-113030000D01*
X125530625Y-112830625D01*
X125858839Y-112339418D01*
X125974092Y-111760000D01*
X125858839Y-111180582D01*
X125530625Y-110689375D01*
X125232239Y-110490000D01*
X125530625Y-110290625D01*
X125858839Y-109799418D01*
X125974092Y-109220000D01*
X125917315Y-108934561D01*
X126835000Y-108934561D01*
X126835000Y-109505439D01*
X127053466Y-110032862D01*
X127457138Y-110436534D01*
X127984561Y-110655000D01*
X128555439Y-110655000D01*
X129082862Y-110436534D01*
X129486534Y-110032862D01*
X129508430Y-109980000D01*
X132995199Y-109980000D01*
X135880198Y-112865000D01*
X135604561Y-112865000D01*
X135077138Y-113083466D01*
X134673466Y-113487138D01*
X134455000Y-114014561D01*
X134455000Y-114585439D01*
X134673466Y-115112862D01*
X135077138Y-115516534D01*
X135604561Y-115735000D01*
X136175439Y-115735000D01*
X136702862Y-115516534D01*
X137106534Y-115112862D01*
X137140000Y-115032068D01*
X137173466Y-115112862D01*
X137577138Y-115516534D01*
X138104561Y-115735000D01*
X138675439Y-115735000D01*
X139202862Y-115516534D01*
X139606534Y-115112862D01*
X139825000Y-114585439D01*
X139825000Y-114014561D01*
X139606534Y-113487138D01*
X139202862Y-113083466D01*
X138675439Y-112865000D01*
X138104561Y-112865000D01*
X138051698Y-112886896D01*
X133900331Y-108735530D01*
X133857929Y-108672071D01*
X133606537Y-108504096D01*
X133384852Y-108460000D01*
X133384847Y-108460000D01*
X133310000Y-108445112D01*
X133235153Y-108460000D01*
X129508430Y-108460000D01*
X129486534Y-108407138D01*
X129082862Y-108003466D01*
X128555439Y-107785000D01*
X127984561Y-107785000D01*
X127457138Y-108003466D01*
X127053466Y-108407138D01*
X126835000Y-108934561D01*
X125917315Y-108934561D01*
X125858839Y-108640582D01*
X125530625Y-108149375D01*
X125039418Y-107821161D01*
X124606256Y-107735000D01*
X124313744Y-107735000D01*
X123880582Y-107821161D01*
X123389375Y-108149375D01*
X123061161Y-108640582D01*
X122945908Y-109220000D01*
X121385000Y-109220000D01*
X121385000Y-106902540D01*
X123359689Y-103940506D01*
X123590493Y-104171310D01*
X124154670Y-104405000D01*
X124765330Y-104405000D01*
X125329507Y-104171310D01*
X125730000Y-103770817D01*
X126130493Y-104171310D01*
X126694670Y-104405000D01*
X127305330Y-104405000D01*
X127869507Y-104171310D01*
X128270000Y-103770817D01*
X128670493Y-104171310D01*
X129234670Y-104405000D01*
X129845330Y-104405000D01*
X130409507Y-104171310D01*
X130630658Y-103950159D01*
X131179446Y-103950159D01*
X131265852Y-104206643D01*
X131839336Y-104416458D01*
X132449460Y-104390839D01*
X132894148Y-104206643D01*
X132980554Y-103950159D01*
X132080000Y-103049605D01*
X131179446Y-103950159D01*
X130630658Y-103950159D01*
X130841310Y-103739507D01*
X130849438Y-103719885D01*
X130999841Y-103770554D01*
X131900395Y-102870000D01*
X130999841Y-101969446D01*
X130849438Y-102020115D01*
X130841310Y-102000493D01*
X130630658Y-101789841D01*
X131179446Y-101789841D01*
X132080000Y-102690395D01*
X132980554Y-101789841D01*
X132894148Y-101533357D01*
X132320664Y-101323542D01*
X131710540Y-101349161D01*
X131265852Y-101533357D01*
X131179446Y-101789841D01*
X130630658Y-101789841D01*
X130409507Y-101568690D01*
X129845330Y-101335000D01*
X129234670Y-101335000D01*
X128670493Y-101568690D01*
X128270000Y-101969183D01*
X127869507Y-101568690D01*
X127305330Y-101335000D01*
X126694670Y-101335000D01*
X126130493Y-101568690D01*
X125730000Y-101969183D01*
X125329507Y-101568690D01*
X124765330Y-101335000D01*
X124154670Y-101335000D01*
X123925000Y-101430133D01*
X123925000Y-89069867D01*
X124154670Y-89165000D01*
X124765330Y-89165000D01*
X125329507Y-88931310D01*
X125550658Y-88710159D01*
X126099446Y-88710159D01*
X126185852Y-88966643D01*
X126759336Y-89176458D01*
X127369460Y-89150839D01*
X127814148Y-88966643D01*
X127900554Y-88710159D01*
X127000000Y-87809605D01*
X126099446Y-88710159D01*
X125550658Y-88710159D01*
X125761310Y-88499507D01*
X125769438Y-88479885D01*
X125919841Y-88530554D01*
X126820395Y-87630000D01*
X125919841Y-86729446D01*
X125769438Y-86780115D01*
X125761310Y-86760493D01*
X125550658Y-86549841D01*
X126099446Y-86549841D01*
X127000000Y-87450395D01*
X127900554Y-86549841D01*
X127814148Y-86293357D01*
X127240664Y-86083542D01*
X126630540Y-86109161D01*
X126185852Y-86293357D01*
X126099446Y-86549841D01*
X125550658Y-86549841D01*
X125329507Y-86328690D01*
X124765330Y-86095000D01*
X124154670Y-86095000D01*
X123590493Y-86328690D01*
X123359689Y-86559494D01*
X121385000Y-83597460D01*
X121385000Y-80366892D01*
X124288514Y-80366892D01*
X124534817Y-80891358D01*
X124963076Y-81281645D01*
X125373110Y-81451476D01*
X125603000Y-81330155D01*
X125603000Y-80137000D01*
X124409181Y-80137000D01*
X124288514Y-80366892D01*
X121385000Y-80366892D01*
X121385000Y-79653108D01*
X124288514Y-79653108D01*
X124409181Y-79883000D01*
X125603000Y-79883000D01*
X125603000Y-78689845D01*
X125857000Y-78689845D01*
X125857000Y-79883000D01*
X125877000Y-79883000D01*
X125877000Y-80137000D01*
X125857000Y-80137000D01*
X125857000Y-81330155D01*
X126086890Y-81451476D01*
X126496924Y-81281645D01*
X126801261Y-81004292D01*
X126821843Y-81107765D01*
X126962191Y-81317809D01*
X127172235Y-81458157D01*
X127420000Y-81507440D01*
X129120000Y-81507440D01*
X129367765Y-81458157D01*
X129577809Y-81317809D01*
X129718157Y-81107765D01*
X129767440Y-80860000D01*
X129767440Y-79160000D01*
X129718157Y-78912235D01*
X129577809Y-78702191D01*
X129367765Y-78561843D01*
X129120000Y-78512560D01*
X127420000Y-78512560D01*
X127172235Y-78561843D01*
X126962191Y-78702191D01*
X126821843Y-78912235D01*
X126801261Y-79015708D01*
X126496924Y-78738355D01*
X126086890Y-78568524D01*
X125857000Y-78689845D01*
X125603000Y-78689845D01*
X125373110Y-78568524D01*
X124963076Y-78738355D01*
X124534817Y-79128642D01*
X124288514Y-79653108D01*
X121385000Y-79653108D01*
X121385000Y-77207745D01*
X124901861Y-77207745D01*
X124975995Y-77453864D01*
X125513223Y-77646965D01*
X126083454Y-77619778D01*
X126484005Y-77453864D01*
X126558139Y-77207745D01*
X125730000Y-76379605D01*
X124901861Y-77207745D01*
X121385000Y-77207745D01*
X121385000Y-75983223D01*
X124283035Y-75983223D01*
X124310222Y-76553454D01*
X124476136Y-76954005D01*
X124722255Y-77028139D01*
X125550395Y-76200000D01*
X124722255Y-75371861D01*
X124476136Y-75445995D01*
X124283035Y-75983223D01*
X121385000Y-75983223D01*
X121385000Y-74667745D01*
X124901861Y-74667745D01*
X124975995Y-74913864D01*
X125017709Y-74928858D01*
X124975995Y-74946136D01*
X124901861Y-75192255D01*
X125730000Y-76020395D01*
X126558139Y-75192255D01*
X126484005Y-74946136D01*
X126442291Y-74931142D01*
X126484005Y-74913864D01*
X126558139Y-74667745D01*
X125730000Y-73839605D01*
X124901861Y-74667745D01*
X121385000Y-74667745D01*
X121385000Y-73443223D01*
X124283035Y-73443223D01*
X124310222Y-74013454D01*
X124476136Y-74414005D01*
X124722255Y-74488139D01*
X125550395Y-73660000D01*
X125909605Y-73660000D01*
X126737745Y-74488139D01*
X126983864Y-74414005D01*
X126986290Y-74407254D01*
X127013466Y-74472862D01*
X127417138Y-74876534D01*
X127546216Y-74930000D01*
X127417138Y-74983466D01*
X127013466Y-75387138D01*
X126986475Y-75452299D01*
X126983864Y-75445995D01*
X126737745Y-75371861D01*
X125909605Y-76200000D01*
X126737745Y-77028139D01*
X126983864Y-76954005D01*
X126986290Y-76947254D01*
X127013466Y-77012862D01*
X127417138Y-77416534D01*
X127944561Y-77635000D01*
X128515439Y-77635000D01*
X129042862Y-77416534D01*
X129446534Y-77012862D01*
X129665000Y-76485439D01*
X129665000Y-75914561D01*
X129446534Y-75387138D01*
X129042862Y-74983466D01*
X128913784Y-74930000D01*
X129042862Y-74876534D01*
X129446534Y-74472862D01*
X129665000Y-73945439D01*
X129665000Y-73374561D01*
X129446534Y-72847138D01*
X129042862Y-72443466D01*
X128515439Y-72225000D01*
X127944561Y-72225000D01*
X127417138Y-72443466D01*
X127013466Y-72847138D01*
X126986475Y-72912299D01*
X126983864Y-72905995D01*
X126737745Y-72831861D01*
X125909605Y-73660000D01*
X125550395Y-73660000D01*
X124722255Y-72831861D01*
X124476136Y-72905995D01*
X124283035Y-73443223D01*
X121385000Y-73443223D01*
X121385000Y-72652255D01*
X124901861Y-72652255D01*
X125730000Y-73480395D01*
X126558139Y-72652255D01*
X126484005Y-72406136D01*
X125946777Y-72213035D01*
X125376546Y-72240222D01*
X124975995Y-72406136D01*
X124901861Y-72652255D01*
X121385000Y-72652255D01*
X121385000Y-67730000D01*
X124232560Y-67730000D01*
X124232560Y-69430000D01*
X124281843Y-69677765D01*
X124422191Y-69887809D01*
X124632235Y-70028157D01*
X124880000Y-70077440D01*
X126580000Y-70077440D01*
X126827765Y-70028157D01*
X127037809Y-69887809D01*
X127178157Y-69677765D01*
X127198739Y-69574292D01*
X127503076Y-69851645D01*
X127913110Y-70021476D01*
X128143000Y-69900155D01*
X128143000Y-68707000D01*
X128123000Y-68707000D01*
X128123000Y-68453000D01*
X128143000Y-68453000D01*
X128143000Y-68433000D01*
X128397000Y-68433000D01*
X128397000Y-68453000D01*
X128417000Y-68453000D01*
X128417000Y-68707000D01*
X128397000Y-68707000D01*
X128397000Y-69900155D01*
X128626890Y-70021476D01*
X129036924Y-69851645D01*
X129465183Y-69461358D01*
X129526157Y-69331522D01*
X129739375Y-69650625D01*
X130230582Y-69978839D01*
X130663744Y-70065000D01*
X130956256Y-70065000D01*
X131320001Y-69992647D01*
X131320000Y-74029957D01*
X131305112Y-74104808D01*
X131320000Y-74179651D01*
X131364096Y-74401336D01*
X131364099Y-74401341D01*
X131364100Y-74401344D01*
X131411888Y-74472862D01*
X131532071Y-74652729D01*
X131595534Y-74695133D01*
X135840493Y-78940006D01*
X132800828Y-81979671D01*
X132737372Y-82022071D01*
X132694972Y-82085527D01*
X132694971Y-82085528D01*
X132569397Y-82273463D01*
X132510412Y-82570000D01*
X132525301Y-82644852D01*
X132525300Y-86109898D01*
X132494838Y-86140360D01*
X132385330Y-86095000D01*
X131774670Y-86095000D01*
X131210493Y-86328690D01*
X130810000Y-86729183D01*
X130409507Y-86328690D01*
X129845330Y-86095000D01*
X129234670Y-86095000D01*
X128670493Y-86328690D01*
X128238690Y-86760493D01*
X128230562Y-86780115D01*
X128080159Y-86729446D01*
X127179605Y-87630000D01*
X128080159Y-88530554D01*
X128230562Y-88479885D01*
X128238690Y-88499507D01*
X128670493Y-88931310D01*
X129234670Y-89165000D01*
X129845330Y-89165000D01*
X130409507Y-88931310D01*
X130810000Y-88530817D01*
X131210493Y-88931310D01*
X131774670Y-89165000D01*
X132184183Y-89165000D01*
X132048690Y-89300493D01*
X131815000Y-89864670D01*
X131815000Y-90475330D01*
X132048690Y-91039507D01*
X132480493Y-91471310D01*
X133044670Y-91705000D01*
X133655330Y-91705000D01*
X133764839Y-91659640D01*
X137117471Y-95012273D01*
X137159871Y-95075729D01*
X137411263Y-95243704D01*
X137632948Y-95287800D01*
X137632953Y-95287800D01*
X137707800Y-95302688D01*
X137782647Y-95287800D01*
X148747398Y-95287800D01*
X142654839Y-101380360D01*
X142545330Y-101335000D01*
X141934670Y-101335000D01*
X141370493Y-101568690D01*
X140970000Y-101969183D01*
X140569507Y-101568690D01*
X140005330Y-101335000D01*
X139394670Y-101335000D01*
X138830493Y-101568690D01*
X138430000Y-101969183D01*
X138029507Y-101568690D01*
X137465330Y-101335000D01*
X136854670Y-101335000D01*
X136290493Y-101568690D01*
X135890000Y-101969183D01*
X135489507Y-101568690D01*
X134925330Y-101335000D01*
X134314670Y-101335000D01*
X133750493Y-101568690D01*
X133318690Y-102000493D01*
X133310562Y-102020115D01*
X133160159Y-101969446D01*
X132259605Y-102870000D01*
X133160159Y-103770554D01*
X133310562Y-103719885D01*
X133318690Y-103739507D01*
X133750493Y-104171310D01*
X134314670Y-104405000D01*
X134925330Y-104405000D01*
X135489507Y-104171310D01*
X135890000Y-103770817D01*
X136290493Y-104171310D01*
X136400101Y-104216711D01*
X136400100Y-109577753D01*
X136385212Y-109652600D01*
X136400100Y-109727447D01*
X136400100Y-109727451D01*
X136444196Y-109949136D01*
X136612171Y-110200529D01*
X136675630Y-110242931D01*
X137351671Y-110918973D01*
X137394071Y-110982429D01*
X137645463Y-111150404D01*
X137867148Y-111194500D01*
X137867152Y-111194500D01*
X137942000Y-111209388D01*
X138016848Y-111194500D01*
X139259253Y-111194500D01*
X139334100Y-111209388D01*
X139408947Y-111194500D01*
X139408952Y-111194500D01*
X139630637Y-111150404D01*
X139882029Y-110982429D01*
X139924431Y-110918970D01*
X140961101Y-109882300D01*
X141023466Y-110032862D01*
X141427138Y-110436534D01*
X141954561Y-110655000D01*
X142525439Y-110655000D01*
X142578302Y-110633103D01*
X142750001Y-110804803D01*
X142750001Y-112399305D01*
X142515000Y-112352560D01*
X141965000Y-112352560D01*
X141611997Y-112422777D01*
X141312736Y-112622736D01*
X141112777Y-112921997D01*
X141042560Y-113275000D01*
X141042560Y-114525000D01*
X141112777Y-114878003D01*
X141312736Y-115177264D01*
X141611997Y-115377223D01*
X141965000Y-115447440D01*
X142312560Y-115447440D01*
X142312560Y-116595000D01*
X142382777Y-116948003D01*
X142582736Y-117247264D01*
X142881997Y-117447223D01*
X143235000Y-117517440D01*
X143785000Y-117517440D01*
X144138003Y-117447223D01*
X144437264Y-117247264D01*
X144637223Y-116948003D01*
X144707440Y-116595000D01*
X144707440Y-115345000D01*
X144653000Y-115071313D01*
X144653000Y-114027000D01*
X144907000Y-114027000D01*
X144907000Y-115276250D01*
X145065750Y-115435000D01*
X145456309Y-115435000D01*
X145689698Y-115338327D01*
X145868327Y-115159699D01*
X145965000Y-114926310D01*
X145965000Y-114585750D01*
X155995000Y-114585750D01*
X155995000Y-115276309D01*
X156091673Y-115509698D01*
X156270301Y-115688327D01*
X156503690Y-115785000D01*
X157194250Y-115785000D01*
X157353000Y-115626250D01*
X157353000Y-114427000D01*
X157607000Y-114427000D01*
X157607000Y-115626250D01*
X157765750Y-115785000D01*
X158456310Y-115785000D01*
X158689699Y-115688327D01*
X158868327Y-115509698D01*
X158955136Y-115300122D01*
X159253076Y-115571645D01*
X159663110Y-115741476D01*
X159893000Y-115620155D01*
X159893000Y-114427000D01*
X160147000Y-114427000D01*
X160147000Y-115620155D01*
X160376890Y-115741476D01*
X160786924Y-115571645D01*
X161215183Y-115181358D01*
X161290000Y-115022046D01*
X161364817Y-115181358D01*
X161793076Y-115571645D01*
X162203110Y-115741476D01*
X162433000Y-115620155D01*
X162433000Y-114427000D01*
X160147000Y-114427000D01*
X159893000Y-114427000D01*
X157607000Y-114427000D01*
X157353000Y-114427000D01*
X156153750Y-114427000D01*
X155995000Y-114585750D01*
X145965000Y-114585750D01*
X145965000Y-114185750D01*
X145806250Y-114027000D01*
X144907000Y-114027000D01*
X144653000Y-114027000D01*
X144633000Y-114027000D01*
X144633000Y-113773000D01*
X144653000Y-113773000D01*
X144653000Y-112523750D01*
X144907000Y-112523750D01*
X144907000Y-113773000D01*
X145806250Y-113773000D01*
X145965000Y-113614250D01*
X145965000Y-112873690D01*
X145868327Y-112640301D01*
X145689698Y-112461673D01*
X145456309Y-112365000D01*
X145065750Y-112365000D01*
X144907000Y-112523750D01*
X144653000Y-112523750D01*
X144494250Y-112365000D01*
X144270000Y-112365000D01*
X144270000Y-110564846D01*
X144284888Y-110489999D01*
X144270000Y-110415152D01*
X144270000Y-110415148D01*
X144225904Y-110193463D01*
X144057929Y-109942071D01*
X143994473Y-109899671D01*
X143653103Y-109558302D01*
X143675000Y-109505439D01*
X143675000Y-109284601D01*
X147949570Y-113559172D01*
X147991971Y-113622629D01*
X148243363Y-113790604D01*
X148465048Y-113834700D01*
X148465052Y-113834700D01*
X148539900Y-113849588D01*
X148614748Y-113834700D01*
X155995000Y-113834700D01*
X155995000Y-114014250D01*
X156153750Y-114173000D01*
X157353000Y-114173000D01*
X157353000Y-114153000D01*
X157607000Y-114153000D01*
X157607000Y-114173000D01*
X159893000Y-114173000D01*
X159893000Y-114153000D01*
X160147000Y-114153000D01*
X160147000Y-114173000D01*
X162433000Y-114173000D01*
X162433000Y-114153000D01*
X162687000Y-114153000D01*
X162687000Y-114173000D01*
X162707000Y-114173000D01*
X162707000Y-114427000D01*
X162687000Y-114427000D01*
X162687000Y-115620155D01*
X162916890Y-115741476D01*
X163326924Y-115571645D01*
X163755183Y-115181358D01*
X163811123Y-115062243D01*
X163825190Y-115065041D01*
X164029375Y-115370625D01*
X164520582Y-115698839D01*
X164953744Y-115785000D01*
X165246256Y-115785000D01*
X165679418Y-115698839D01*
X166170625Y-115370625D01*
X166383843Y-115051522D01*
X166444817Y-115181358D01*
X166873076Y-115571645D01*
X167283110Y-115741476D01*
X167513000Y-115620155D01*
X167513000Y-114427000D01*
X167493000Y-114427000D01*
X167493000Y-114173000D01*
X167513000Y-114173000D01*
X167513000Y-114153000D01*
X167767000Y-114153000D01*
X167767000Y-114173000D01*
X167787000Y-114173000D01*
X167787000Y-114427000D01*
X167767000Y-114427000D01*
X167767000Y-115620155D01*
X167996890Y-115741476D01*
X168406924Y-115571645D01*
X168835183Y-115181358D01*
X168891123Y-115062243D01*
X168905190Y-115065041D01*
X169109375Y-115370625D01*
X169600582Y-115698839D01*
X170033744Y-115785000D01*
X170326256Y-115785000D01*
X170759418Y-115698839D01*
X171250625Y-115370625D01*
X171450000Y-115072239D01*
X171649375Y-115370625D01*
X172140582Y-115698839D01*
X172573744Y-115785000D01*
X172866256Y-115785000D01*
X173299418Y-115698839D01*
X173790625Y-115370625D01*
X173990000Y-115072239D01*
X174189375Y-115370625D01*
X174680582Y-115698839D01*
X175113744Y-115785000D01*
X175406256Y-115785000D01*
X175839418Y-115698839D01*
X176145392Y-115494394D01*
X176666971Y-116015973D01*
X176709371Y-116079429D01*
X176960763Y-116247404D01*
X177182448Y-116291500D01*
X177182453Y-116291500D01*
X177257300Y-116306388D01*
X177332147Y-116291500D01*
X178248353Y-116291500D01*
X178323200Y-116306388D01*
X178398047Y-116291500D01*
X178398052Y-116291500D01*
X178619737Y-116247404D01*
X178871129Y-116079429D01*
X178913531Y-116015970D01*
X179460474Y-115469027D01*
X179573076Y-115571645D01*
X179983110Y-115741476D01*
X180213000Y-115620155D01*
X180213000Y-114427000D01*
X180193000Y-114427000D01*
X180193000Y-114173000D01*
X180213000Y-114173000D01*
X180213000Y-112979845D01*
X179983110Y-112858524D01*
X179823600Y-112924591D01*
X179823600Y-100858448D01*
X179838488Y-100783600D01*
X179823600Y-100708752D01*
X179823600Y-100708748D01*
X179779504Y-100487063D01*
X179611529Y-100235671D01*
X179548073Y-100193271D01*
X168910000Y-89555199D01*
X168910000Y-89059425D01*
X168710564Y-88577945D01*
X168342055Y-88209436D01*
X168287045Y-88186650D01*
X167600000Y-87499605D01*
X166912955Y-88186650D01*
X166857945Y-88209436D01*
X166489436Y-88577945D01*
X166290000Y-89059425D01*
X166290000Y-89580575D01*
X166489436Y-90062055D01*
X166747381Y-90320000D01*
X166489436Y-90577945D01*
X166290000Y-91059425D01*
X166290000Y-91580575D01*
X166489436Y-92062055D01*
X166747381Y-92320000D01*
X166489436Y-92577945D01*
X166290000Y-93059425D01*
X166290000Y-93580575D01*
X166489436Y-94062055D01*
X166747381Y-94320000D01*
X166489436Y-94577945D01*
X166290000Y-95059425D01*
X166290000Y-95580575D01*
X166489436Y-96062055D01*
X166747381Y-96320000D01*
X166489436Y-96577945D01*
X166290000Y-97059425D01*
X166290000Y-97580575D01*
X166489436Y-98062055D01*
X166747381Y-98320000D01*
X166489436Y-98577945D01*
X166290000Y-99059425D01*
X166290000Y-99580575D01*
X166489436Y-100062055D01*
X166857945Y-100430564D01*
X167339425Y-100630000D01*
X167860575Y-100630000D01*
X168342055Y-100430564D01*
X168710564Y-100062055D01*
X168910000Y-99580575D01*
X168910000Y-99059425D01*
X168710564Y-98577945D01*
X168452619Y-98320000D01*
X168710564Y-98062055D01*
X168910000Y-97580575D01*
X168910000Y-97059425D01*
X168710564Y-96577945D01*
X168452619Y-96320000D01*
X168710564Y-96062055D01*
X168873615Y-95668416D01*
X176292323Y-103087125D01*
X175994540Y-103098144D01*
X175505736Y-103300613D01*
X175407073Y-103567468D01*
X176380000Y-104540395D01*
X176394143Y-104526253D01*
X176573748Y-104705858D01*
X176559605Y-104720000D01*
X176573748Y-104734143D01*
X176394143Y-104913748D01*
X176380000Y-104899605D01*
X175407073Y-105872532D01*
X175505736Y-106139387D01*
X176115461Y-106365908D01*
X176765460Y-106341856D01*
X177039900Y-106228179D01*
X177039901Y-107723629D01*
X176705222Y-107585000D01*
X176054778Y-107585000D01*
X175888625Y-107653823D01*
X172690263Y-104455461D01*
X174734092Y-104455461D01*
X174758144Y-105105460D01*
X174960613Y-105594264D01*
X175227468Y-105692927D01*
X176200395Y-104720000D01*
X175227468Y-103747073D01*
X174960613Y-103845736D01*
X174734092Y-104455461D01*
X172690263Y-104455461D01*
X169329031Y-101094230D01*
X169286629Y-101030771D01*
X169035237Y-100862796D01*
X168813552Y-100818700D01*
X168813547Y-100818700D01*
X168738700Y-100803812D01*
X168663853Y-100818700D01*
X151226147Y-100818700D01*
X151151300Y-100803812D01*
X151076453Y-100818700D01*
X151076448Y-100818700D01*
X150854763Y-100862796D01*
X150603371Y-101030771D01*
X150560971Y-101094227D01*
X150274838Y-101380360D01*
X150165330Y-101335000D01*
X149554670Y-101335000D01*
X148990493Y-101568690D01*
X148590000Y-101969183D01*
X148189507Y-101568690D01*
X147625330Y-101335000D01*
X147389801Y-101335000D01*
X151799402Y-96925400D01*
X152831853Y-96925400D01*
X152906700Y-96940288D01*
X152981547Y-96925400D01*
X152981552Y-96925400D01*
X153203237Y-96881304D01*
X153454629Y-96713329D01*
X153497031Y-96649870D01*
X156893973Y-93252929D01*
X156957429Y-93210529D01*
X157125404Y-92959137D01*
X157169500Y-92737452D01*
X157169500Y-92737448D01*
X157184388Y-92662601D01*
X157169500Y-92587754D01*
X157169500Y-90170000D01*
X158505908Y-90170000D01*
X158621161Y-90749418D01*
X158949375Y-91240625D01*
X159247761Y-91440000D01*
X158949375Y-91639375D01*
X158621161Y-92130582D01*
X158505908Y-92710000D01*
X158621161Y-93289418D01*
X158949375Y-93780625D01*
X159247761Y-93980000D01*
X158949375Y-94179375D01*
X158621161Y-94670582D01*
X158505908Y-95250000D01*
X158621161Y-95829418D01*
X158949375Y-96320625D01*
X159440582Y-96648839D01*
X159873744Y-96735000D01*
X160166256Y-96735000D01*
X160599418Y-96648839D01*
X161090625Y-96320625D01*
X161418839Y-95829418D01*
X161534092Y-95250000D01*
X161418839Y-94670582D01*
X161090625Y-94179375D01*
X160792239Y-93980000D01*
X161090625Y-93780625D01*
X161418839Y-93289418D01*
X161534092Y-92710000D01*
X161418839Y-92130582D01*
X161090625Y-91639375D01*
X160792239Y-91440000D01*
X161090625Y-91240625D01*
X161418839Y-90749418D01*
X161534092Y-90170000D01*
X161418839Y-89590582D01*
X161090625Y-89099375D01*
X161072381Y-89087184D01*
X161117765Y-89078157D01*
X161327809Y-88937809D01*
X161468157Y-88727765D01*
X161517440Y-88480000D01*
X161517440Y-87133100D01*
X166277478Y-87133100D01*
X166306625Y-87653434D01*
X166449672Y-87998781D01*
X166682853Y-88057542D01*
X167420395Y-87320000D01*
X166682853Y-86582458D01*
X166449672Y-86641219D01*
X166277478Y-87133100D01*
X161517440Y-87133100D01*
X161517440Y-86780000D01*
X161468157Y-86532235D01*
X161327809Y-86322191D01*
X161117765Y-86181843D01*
X160870000Y-86132560D01*
X159170000Y-86132560D01*
X158922235Y-86181843D01*
X158712191Y-86322191D01*
X158571843Y-86532235D01*
X158522560Y-86780000D01*
X158522560Y-88480000D01*
X158571843Y-88727765D01*
X158712191Y-88937809D01*
X158922235Y-89078157D01*
X158967619Y-89087184D01*
X158949375Y-89099375D01*
X158621161Y-89590582D01*
X158505908Y-90170000D01*
X157169500Y-90170000D01*
X157169500Y-77270746D01*
X157184388Y-77195899D01*
X157169500Y-77121052D01*
X157169500Y-77121048D01*
X157125404Y-76899363D01*
X156957429Y-76647971D01*
X156893973Y-76605571D01*
X156498700Y-76210298D01*
X156498700Y-76044226D01*
X156451939Y-75931335D01*
X156667138Y-76146534D01*
X157194561Y-76365000D01*
X157765439Y-76365000D01*
X158292862Y-76146534D01*
X158696534Y-75742862D01*
X158885403Y-75286892D01*
X164928514Y-75286892D01*
X165174817Y-75811358D01*
X165603076Y-76201645D01*
X166013110Y-76371476D01*
X166243000Y-76250155D01*
X166243000Y-75057000D01*
X165049181Y-75057000D01*
X164928514Y-75286892D01*
X158885403Y-75286892D01*
X158915000Y-75215439D01*
X158915000Y-74644561D01*
X158885404Y-74573108D01*
X164928514Y-74573108D01*
X165049181Y-74803000D01*
X166243000Y-74803000D01*
X166243000Y-73609845D01*
X166013110Y-73488524D01*
X165603076Y-73658355D01*
X165174817Y-74048642D01*
X164928514Y-74573108D01*
X158885404Y-74573108D01*
X158696534Y-74117138D01*
X158292862Y-73713466D01*
X157765439Y-73495000D01*
X157194561Y-73495000D01*
X156667138Y-73713466D01*
X156263466Y-74117138D01*
X156045000Y-74644561D01*
X156045000Y-75215439D01*
X156152657Y-75475346D01*
X156049980Y-75372669D01*
X155669574Y-75215100D01*
X155257826Y-75215100D01*
X154877420Y-75372669D01*
X154603096Y-75646993D01*
X152671000Y-73714899D01*
X152671000Y-73548826D01*
X152513431Y-73168420D01*
X152222280Y-72877269D01*
X151841874Y-72719700D01*
X151611200Y-72719700D01*
X151611200Y-70398901D01*
X151614470Y-70395631D01*
X151677929Y-70353229D01*
X151845904Y-70101837D01*
X151890000Y-69880152D01*
X151890000Y-69880148D01*
X151895040Y-69854810D01*
X152200625Y-69650625D01*
X152400000Y-69352239D01*
X152599375Y-69650625D01*
X153090582Y-69978839D01*
X153523744Y-70065000D01*
X153816256Y-70065000D01*
X154249418Y-69978839D01*
X154740625Y-69650625D01*
X154944811Y-69345040D01*
X154970147Y-69340000D01*
X154970152Y-69340000D01*
X155191837Y-69295904D01*
X155443229Y-69127929D01*
X155485631Y-69064470D01*
X156438102Y-68112000D01*
X164872560Y-68112000D01*
X164872560Y-69430000D01*
X164921843Y-69677765D01*
X165062191Y-69887809D01*
X165272235Y-70028157D01*
X165520000Y-70077440D01*
X165649244Y-70077440D01*
X165654097Y-70101837D01*
X165710266Y-70185899D01*
X165822072Y-70353229D01*
X165885528Y-70395629D01*
X166840000Y-71350102D01*
X166840000Y-73535373D01*
X166726890Y-73488524D01*
X166497000Y-73609845D01*
X166497000Y-74803000D01*
X166517000Y-74803000D01*
X166517000Y-75057000D01*
X166497000Y-75057000D01*
X166497000Y-76250155D01*
X166726890Y-76371476D01*
X166840000Y-76324627D01*
X166840001Y-84227380D01*
X166489436Y-84577945D01*
X166290000Y-85059425D01*
X166290000Y-85580575D01*
X166489436Y-86062055D01*
X166857945Y-86430564D01*
X166912955Y-86453350D01*
X167600000Y-87140395D01*
X167614143Y-87126253D01*
X167793748Y-87305858D01*
X167779605Y-87320000D01*
X168517147Y-88057542D01*
X168750328Y-87998781D01*
X168867959Y-87662761D01*
X180235500Y-99030302D01*
X180235501Y-111115348D01*
X180220612Y-111190200D01*
X180235501Y-111265052D01*
X180279597Y-111486737D01*
X180447572Y-111738129D01*
X180511028Y-111780529D01*
X181899592Y-113169094D01*
X181809375Y-113229375D01*
X181596157Y-113548478D01*
X181535183Y-113418642D01*
X181106924Y-113028355D01*
X180696890Y-112858524D01*
X180467000Y-112979845D01*
X180467000Y-114173000D01*
X180487000Y-114173000D01*
X180487000Y-114427000D01*
X180467000Y-114427000D01*
X180467000Y-115620155D01*
X180696890Y-115741476D01*
X181106924Y-115571645D01*
X181535183Y-115181358D01*
X181596157Y-115051522D01*
X181809375Y-115370625D01*
X182300582Y-115698839D01*
X182733744Y-115785000D01*
X183026256Y-115785000D01*
X183459418Y-115698839D01*
X183950625Y-115370625D01*
X184278839Y-114879418D01*
X184394092Y-114300000D01*
X184278839Y-113720582D01*
X183950625Y-113229375D01*
X183645040Y-113025190D01*
X183640000Y-112999852D01*
X183640000Y-112999848D01*
X183595904Y-112778163D01*
X183554102Y-112715602D01*
X183470329Y-112590226D01*
X183470327Y-112590224D01*
X183427929Y-112526771D01*
X183364476Y-112484373D01*
X181755500Y-110875399D01*
X181755500Y-110407739D01*
X181953847Y-110606086D01*
X182554778Y-110855000D01*
X183205222Y-110855000D01*
X183806153Y-110606086D01*
X184266086Y-110146153D01*
X184515000Y-109545222D01*
X184515000Y-108894778D01*
X184266086Y-108293847D01*
X183806153Y-107833914D01*
X183205222Y-107585000D01*
X182554778Y-107585000D01*
X181953847Y-107833914D01*
X181755500Y-108032261D01*
X181755500Y-105949520D01*
X181792794Y-105986814D01*
X181907074Y-105872534D01*
X182005736Y-106139387D01*
X182615461Y-106365908D01*
X183265460Y-106341856D01*
X183754264Y-106139387D01*
X183852927Y-105872532D01*
X182880000Y-104899605D01*
X182865858Y-104913748D01*
X182686253Y-104734143D01*
X182700395Y-104720000D01*
X183059605Y-104720000D01*
X184032532Y-105692927D01*
X184299387Y-105594264D01*
X184525908Y-104984539D01*
X184501856Y-104334540D01*
X184299387Y-103845736D01*
X184032532Y-103747073D01*
X183059605Y-104720000D01*
X182700395Y-104720000D01*
X182686253Y-104705858D01*
X182865858Y-104526253D01*
X182880000Y-104540395D01*
X183852927Y-103567468D01*
X183754264Y-103300613D01*
X183144539Y-103074092D01*
X182494540Y-103098144D01*
X182005736Y-103300613D01*
X181907074Y-103567466D01*
X181792794Y-103453186D01*
X181755500Y-103490480D01*
X181755500Y-98790348D01*
X181770388Y-98715500D01*
X181755500Y-98640652D01*
X181755500Y-98640648D01*
X181711404Y-98418963D01*
X181711404Y-98418962D01*
X181585829Y-98231027D01*
X181543429Y-98167571D01*
X181479973Y-98125171D01*
X168910000Y-85555199D01*
X168910000Y-85059425D01*
X168710564Y-84577945D01*
X168360000Y-84227381D01*
X168360000Y-76427440D01*
X169760000Y-76427440D01*
X170007765Y-76378157D01*
X170217809Y-76237809D01*
X170358157Y-76027765D01*
X170407440Y-75780000D01*
X170407440Y-74080000D01*
X170358157Y-73832235D01*
X170217809Y-73622191D01*
X170007765Y-73481843D01*
X169760000Y-73432560D01*
X168360000Y-73432560D01*
X168360000Y-71110148D01*
X168374888Y-71035300D01*
X168360000Y-70960452D01*
X168360000Y-70960448D01*
X168315904Y-70738763D01*
X168315904Y-70738762D01*
X168190329Y-70550827D01*
X168147929Y-70487371D01*
X168084473Y-70444971D01*
X167587592Y-69948091D01*
X167677809Y-69887809D01*
X167818157Y-69677765D01*
X167838739Y-69574292D01*
X168143076Y-69851645D01*
X168553110Y-70021476D01*
X168783000Y-69900155D01*
X168783000Y-68707000D01*
X168763000Y-68707000D01*
X168763000Y-68453000D01*
X168783000Y-68453000D01*
X168783000Y-68433000D01*
X169037000Y-68433000D01*
X169037000Y-68453000D01*
X169057000Y-68453000D01*
X169057000Y-68707000D01*
X169037000Y-68707000D01*
X169037000Y-69900155D01*
X169266890Y-70021476D01*
X169676924Y-69851645D01*
X170105183Y-69461358D01*
X170166157Y-69331522D01*
X170379375Y-69650625D01*
X170870582Y-69978839D01*
X171303744Y-70065000D01*
X171596256Y-70065000D01*
X172029418Y-69978839D01*
X172520625Y-69650625D01*
X172720000Y-69352239D01*
X172919375Y-69650625D01*
X173410582Y-69978839D01*
X173843744Y-70065000D01*
X174136256Y-70065000D01*
X174569418Y-69978839D01*
X175060625Y-69650625D01*
X175388839Y-69159418D01*
X175504092Y-68580000D01*
X175391923Y-68016083D01*
X180045000Y-68016083D01*
X180045000Y-69143917D01*
X180476603Y-70185899D01*
X181274101Y-70983397D01*
X182316083Y-71415000D01*
X183443917Y-71415000D01*
X184485899Y-70983397D01*
X185283397Y-70185899D01*
X185715000Y-69143917D01*
X185715000Y-68016083D01*
X185283397Y-66974101D01*
X184485899Y-66176603D01*
X183443917Y-65745000D01*
X182316083Y-65745000D01*
X181274101Y-66176603D01*
X180476603Y-66974101D01*
X180045000Y-68016083D01*
X175391923Y-68016083D01*
X175388839Y-68000582D01*
X175060625Y-67509375D01*
X174569418Y-67181161D01*
X174136256Y-67095000D01*
X173843744Y-67095000D01*
X173410582Y-67181161D01*
X173133562Y-67366260D01*
X172634831Y-66867530D01*
X172592429Y-66804071D01*
X172341037Y-66636096D01*
X172119352Y-66592000D01*
X172119347Y-66592000D01*
X172044500Y-66577112D01*
X171969653Y-66592000D01*
X156198146Y-66592000D01*
X156123299Y-66577112D01*
X156048452Y-66592000D01*
X156048448Y-66592000D01*
X155826763Y-66636096D01*
X155575371Y-66804071D01*
X155532971Y-66867527D01*
X154800906Y-67599592D01*
X154740625Y-67509375D01*
X154249418Y-67181161D01*
X153816256Y-67095000D01*
X153523744Y-67095000D01*
X153090582Y-67181161D01*
X152784608Y-67385606D01*
X152254231Y-66855230D01*
X152211829Y-66791771D01*
X151960437Y-66623796D01*
X151738752Y-66579700D01*
X151738747Y-66579700D01*
X151663900Y-66564812D01*
X151589053Y-66579700D01*
X149934852Y-66579700D01*
X149860000Y-66564811D01*
X149785148Y-66579700D01*
X135890446Y-66579700D01*
X135815599Y-66564812D01*
X135740752Y-66579700D01*
X135740748Y-66579700D01*
X135519063Y-66623796D01*
X135267671Y-66791771D01*
X135225271Y-66855227D01*
X134480906Y-67599592D01*
X134420625Y-67509375D01*
X133929418Y-67181161D01*
X133496256Y-67095000D01*
X133203744Y-67095000D01*
X132770582Y-67181161D01*
X132453158Y-67393257D01*
X131930131Y-66870230D01*
X131887729Y-66806771D01*
X131636337Y-66638796D01*
X131414652Y-66594700D01*
X131414647Y-66594700D01*
X131339800Y-66579812D01*
X131264953Y-66594700D01*
X127795846Y-66594700D01*
X127720999Y-66579812D01*
X127646152Y-66594700D01*
X127646148Y-66594700D01*
X127424463Y-66638796D01*
X127424461Y-66638797D01*
X127424462Y-66638797D01*
X127236526Y-66764371D01*
X127236524Y-66764373D01*
X127173071Y-66806771D01*
X127130673Y-66870225D01*
X126852516Y-67148381D01*
X126827765Y-67131843D01*
X126580000Y-67082560D01*
X124880000Y-67082560D01*
X124632235Y-67131843D01*
X124422191Y-67272191D01*
X124281843Y-67482235D01*
X124232560Y-67730000D01*
X121385000Y-67730000D01*
X121385000Y-65505000D01*
X185980001Y-65505000D01*
X185980000Y-87335909D01*
G36*
X148717000Y-68453000D02*
X148737000Y-68453000D01*
X148737000Y-68707000D01*
X148717000Y-68707000D01*
X148717000Y-69900155D01*
X148946890Y-70021476D01*
X149100001Y-69958059D01*
X149100000Y-73859353D01*
X149085112Y-73934200D01*
X149100000Y-74009047D01*
X149100000Y-74009051D01*
X149144096Y-74230736D01*
X149312071Y-74482129D01*
X149375530Y-74524531D01*
X153363558Y-78512560D01*
X152820000Y-78512560D01*
X152572235Y-78561843D01*
X152362191Y-78702191D01*
X152221843Y-78912235D01*
X152201261Y-79015708D01*
X151896924Y-78738355D01*
X151486890Y-78568524D01*
X151257000Y-78689845D01*
X151257000Y-79883000D01*
X151277000Y-79883000D01*
X151277000Y-80137000D01*
X151257000Y-80137000D01*
X151257000Y-80157000D01*
X151003000Y-80157000D01*
X151003000Y-80137000D01*
X149809181Y-80137000D01*
X149688514Y-80366892D01*
X149739425Y-80475300D01*
X143629546Y-80475300D01*
X143554699Y-80460412D01*
X143479852Y-80475300D01*
X143479848Y-80475300D01*
X143258163Y-80519396D01*
X143258161Y-80519397D01*
X143258162Y-80519397D01*
X143070226Y-80644971D01*
X143070224Y-80644973D01*
X143006771Y-80687371D01*
X142964373Y-80750824D01*
X137574839Y-86140360D01*
X137465330Y-86095000D01*
X136854670Y-86095000D01*
X136290493Y-86328690D01*
X135890000Y-86729183D01*
X135489507Y-86328690D01*
X134925330Y-86095000D01*
X134314670Y-86095000D01*
X134045300Y-86206577D01*
X134045300Y-82884801D01*
X136563209Y-80366892D01*
X136988514Y-80366892D01*
X137234817Y-80891358D01*
X137663076Y-81281645D01*
X138073110Y-81451476D01*
X138303000Y-81330155D01*
X138303000Y-80137000D01*
X137109181Y-80137000D01*
X136988514Y-80366892D01*
X136563209Y-80366892D01*
X137087813Y-79842289D01*
X137109181Y-79883000D01*
X138303000Y-79883000D01*
X138303000Y-78689845D01*
X138557000Y-78689845D01*
X138557000Y-79883000D01*
X138577000Y-79883000D01*
X138577000Y-80137000D01*
X138557000Y-80137000D01*
X138557000Y-81330155D01*
X138786890Y-81451476D01*
X139196924Y-81281645D01*
X139501261Y-81004292D01*
X139521843Y-81107765D01*
X139662191Y-81317809D01*
X139872235Y-81458157D01*
X140120000Y-81507440D01*
X141820000Y-81507440D01*
X142067765Y-81458157D01*
X142277809Y-81317809D01*
X142418157Y-81107765D01*
X142467440Y-80860000D01*
X142467440Y-79653108D01*
X149688514Y-79653108D01*
X149809181Y-79883000D01*
X151003000Y-79883000D01*
X151003000Y-78689845D01*
X150773110Y-78568524D01*
X150363076Y-78738355D01*
X149934817Y-79128642D01*
X149688514Y-79653108D01*
X142467440Y-79653108D01*
X142467440Y-79160000D01*
X142418157Y-78912235D01*
X142277809Y-78702191D01*
X142160796Y-78624005D01*
X144441698Y-76343104D01*
X144494561Y-76365000D01*
X145065439Y-76365000D01*
X145592862Y-76146534D01*
X145996534Y-75742862D01*
X146050394Y-75612832D01*
X146285423Y-75964577D01*
X146760091Y-76281740D01*
X147178667Y-76365000D01*
X147461333Y-76365000D01*
X147879909Y-76281740D01*
X148354577Y-75964577D01*
X148671740Y-75489909D01*
X148783113Y-74930000D01*
X148671740Y-74370091D01*
X148354577Y-73895423D01*
X147879909Y-73578260D01*
X147461333Y-73495000D01*
X147178667Y-73495000D01*
X146760091Y-73578260D01*
X146285423Y-73895423D01*
X146050394Y-74247168D01*
X145996534Y-74117138D01*
X145592862Y-73713466D01*
X145065439Y-73495000D01*
X144494561Y-73495000D01*
X143967138Y-73713466D01*
X143563466Y-74117138D01*
X143345000Y-74644561D01*
X143345000Y-75215439D01*
X143366896Y-75268302D01*
X140485530Y-78149669D01*
X140422071Y-78192071D01*
X140254096Y-78443464D01*
X140240352Y-78512560D01*
X140120000Y-78512560D01*
X139872235Y-78561843D01*
X139662191Y-78702191D01*
X139521843Y-78912235D01*
X139501261Y-79015708D01*
X139196924Y-78738355D01*
X138786890Y-78568524D01*
X138557000Y-78689845D01*
X138303000Y-78689845D01*
X138261930Y-78668171D01*
X146534473Y-70395629D01*
X146597929Y-70353229D01*
X146765904Y-70101837D01*
X146770757Y-70077440D01*
X146900000Y-70077440D01*
X147147765Y-70028157D01*
X147357809Y-69887809D01*
X147498157Y-69677765D01*
X147518739Y-69574292D01*
X147823076Y-69851645D01*
X148233110Y-70021476D01*
X148463000Y-69900155D01*
X148463000Y-68707000D01*
X148443000Y-68707000D01*
X148443000Y-68453000D01*
X148463000Y-68453000D01*
X148463000Y-68433000D01*
X148717000Y-68433000D01*
X148717000Y-68453000D01*
X148717000Y-68453000D01*
G37*
X148717000Y-68453000D02*
X148737000Y-68453000D01*
X148737000Y-68707000D01*
X148717000Y-68707000D01*
X148717000Y-69900155D01*
X148946890Y-70021476D01*
X149100001Y-69958059D01*
X149100000Y-73859353D01*
X149085112Y-73934200D01*
X149100000Y-74009047D01*
X149100000Y-74009051D01*
X149144096Y-74230736D01*
X149312071Y-74482129D01*
X149375530Y-74524531D01*
X153363558Y-78512560D01*
X152820000Y-78512560D01*
X152572235Y-78561843D01*
X152362191Y-78702191D01*
X152221843Y-78912235D01*
X152201261Y-79015708D01*
X151896924Y-78738355D01*
X151486890Y-78568524D01*
X151257000Y-78689845D01*
X151257000Y-79883000D01*
X151277000Y-79883000D01*
X151277000Y-80137000D01*
X151257000Y-80137000D01*
X151257000Y-80157000D01*
X151003000Y-80157000D01*
X151003000Y-80137000D01*
X149809181Y-80137000D01*
X149688514Y-80366892D01*
X149739425Y-80475300D01*
X143629546Y-80475300D01*
X143554699Y-80460412D01*
X143479852Y-80475300D01*
X143479848Y-80475300D01*
X143258163Y-80519396D01*
X143258161Y-80519397D01*
X143258162Y-80519397D01*
X143070226Y-80644971D01*
X143070224Y-80644973D01*
X143006771Y-80687371D01*
X142964373Y-80750824D01*
X137574839Y-86140360D01*
X137465330Y-86095000D01*
X136854670Y-86095000D01*
X136290493Y-86328690D01*
X135890000Y-86729183D01*
X135489507Y-86328690D01*
X134925330Y-86095000D01*
X134314670Y-86095000D01*
X134045300Y-86206577D01*
X134045300Y-82884801D01*
X136563209Y-80366892D01*
X136988514Y-80366892D01*
X137234817Y-80891358D01*
X137663076Y-81281645D01*
X138073110Y-81451476D01*
X138303000Y-81330155D01*
X138303000Y-80137000D01*
X137109181Y-80137000D01*
X136988514Y-80366892D01*
X136563209Y-80366892D01*
X137087813Y-79842289D01*
X137109181Y-79883000D01*
X138303000Y-79883000D01*
X138303000Y-78689845D01*
X138557000Y-78689845D01*
X138557000Y-79883000D01*
X138577000Y-79883000D01*
X138577000Y-80137000D01*
X138557000Y-80137000D01*
X138557000Y-81330155D01*
X138786890Y-81451476D01*
X139196924Y-81281645D01*
X139501261Y-81004292D01*
X139521843Y-81107765D01*
X139662191Y-81317809D01*
X139872235Y-81458157D01*
X140120000Y-81507440D01*
X141820000Y-81507440D01*
X142067765Y-81458157D01*
X142277809Y-81317809D01*
X142418157Y-81107765D01*
X142467440Y-80860000D01*
X142467440Y-79653108D01*
X149688514Y-79653108D01*
X149809181Y-79883000D01*
X151003000Y-79883000D01*
X151003000Y-78689845D01*
X150773110Y-78568524D01*
X150363076Y-78738355D01*
X149934817Y-79128642D01*
X149688514Y-79653108D01*
X142467440Y-79653108D01*
X142467440Y-79160000D01*
X142418157Y-78912235D01*
X142277809Y-78702191D01*
X142160796Y-78624005D01*
X144441698Y-76343104D01*
X144494561Y-76365000D01*
X145065439Y-76365000D01*
X145592862Y-76146534D01*
X145996534Y-75742862D01*
X146050394Y-75612832D01*
X146285423Y-75964577D01*
X146760091Y-76281740D01*
X147178667Y-76365000D01*
X147461333Y-76365000D01*
X147879909Y-76281740D01*
X148354577Y-75964577D01*
X148671740Y-75489909D01*
X148783113Y-74930000D01*
X148671740Y-74370091D01*
X148354577Y-73895423D01*
X147879909Y-73578260D01*
X147461333Y-73495000D01*
X147178667Y-73495000D01*
X146760091Y-73578260D01*
X146285423Y-73895423D01*
X146050394Y-74247168D01*
X145996534Y-74117138D01*
X145592862Y-73713466D01*
X145065439Y-73495000D01*
X144494561Y-73495000D01*
X143967138Y-73713466D01*
X143563466Y-74117138D01*
X143345000Y-74644561D01*
X143345000Y-75215439D01*
X143366896Y-75268302D01*
X140485530Y-78149669D01*
X140422071Y-78192071D01*
X140254096Y-78443464D01*
X140240352Y-78512560D01*
X140120000Y-78512560D01*
X139872235Y-78561843D01*
X139662191Y-78702191D01*
X139521843Y-78912235D01*
X139501261Y-79015708D01*
X139196924Y-78738355D01*
X138786890Y-78568524D01*
X138557000Y-78689845D01*
X138303000Y-78689845D01*
X138261930Y-78668171D01*
X146534473Y-70395629D01*
X146597929Y-70353229D01*
X146765904Y-70101837D01*
X146770757Y-70077440D01*
X146900000Y-70077440D01*
X147147765Y-70028157D01*
X147357809Y-69887809D01*
X147498157Y-69677765D01*
X147518739Y-69574292D01*
X147823076Y-69851645D01*
X148233110Y-70021476D01*
X148463000Y-69900155D01*
X148463000Y-68707000D01*
X148443000Y-68707000D01*
X148443000Y-68453000D01*
X148463000Y-68453000D01*
X148463000Y-68433000D01*
X148717000Y-68433000D01*
X148717000Y-68453000D01*
%TD*%
M02*
