%FSLAX45Y45*%
G04 Gerber Fmt 4.5, Leading zero omitted, Abs format (unit mm)*
G04 Created by KiCad (PCBNEW 5.0.0) date Wed Aug  8 13:22:00 2018*
%MOMM*%
%LPD*%
G01*
G04 APERTURE LIST*
%ADD10C,0.150000*%
%ADD11C,0.200000*%
%ADD12C,0.300000*%
G04 APERTURE END LIST*
D10*
X12319000Y-8890000D02*
X12065000Y-8636000D01*
X12319000Y-10160000D02*
X12319000Y-8890000D01*
X12065000Y-10414000D02*
X12319000Y-10160000D01*
X12065000Y-10414000D02*
X12065000Y-12065000D01*
X12065000Y-8636000D02*
X12065000Y-6477000D01*
X18415000Y-9017000D02*
X18415000Y-9652000D01*
X18669000Y-8890000D02*
X18669000Y-6477000D01*
X18415000Y-9017000D02*
X18669000Y-8890000D01*
X18669000Y-9779000D02*
X18669000Y-11811000D01*
X18415000Y-9652000D02*
X18669000Y-9779000D01*
X14859000Y-11811000D02*
X14478000Y-12065000D01*
X18669000Y-11811000D02*
X14859000Y-11811000D01*
D11*
X12065000Y-6477000D02*
X18669000Y-6477000D01*
X12065000Y-12065000D02*
X14478000Y-12065000D01*
D11*
X18178000Y-6748000D02*
X18398000Y-6968000D01*
X18398000Y-6748000D02*
X18178000Y-6968000D01*
X12971000Y-11574000D02*
X13191000Y-11794000D01*
X13191000Y-11574000D02*
X12971000Y-11794000D01*
D12*
X12341428Y-12540714D02*
X12341428Y-12240714D01*
X12412857Y-12240714D01*
X12455714Y-12255000D01*
X12484286Y-12283571D01*
X12498571Y-12312143D01*
X12512857Y-12369286D01*
X12512857Y-12412143D01*
X12498571Y-12469286D01*
X12484286Y-12497857D01*
X12455714Y-12526429D01*
X12412857Y-12540714D01*
X12341428Y-12540714D01*
X12641428Y-12540714D02*
X12641428Y-12340714D01*
X12641428Y-12397857D02*
X12655714Y-12369286D01*
X12670000Y-12355000D01*
X12698571Y-12340714D01*
X12727143Y-12340714D01*
X12827143Y-12540714D02*
X12827143Y-12340714D01*
X12827143Y-12240714D02*
X12812857Y-12255000D01*
X12827143Y-12269286D01*
X12841428Y-12255000D01*
X12827143Y-12240714D01*
X12827143Y-12269286D01*
X13012857Y-12540714D02*
X12984286Y-12526429D01*
X12970000Y-12497857D01*
X12970000Y-12240714D01*
X13170000Y-12540714D02*
X13141428Y-12526429D01*
X13127143Y-12497857D01*
X13127143Y-12240714D01*
X13512857Y-12540714D02*
X13512857Y-12240714D01*
X13612857Y-12455000D01*
X13712857Y-12240714D01*
X13712857Y-12540714D01*
X13984286Y-12540714D02*
X13984286Y-12383571D01*
X13970000Y-12355000D01*
X13941428Y-12340714D01*
X13884286Y-12340714D01*
X13855714Y-12355000D01*
X13984286Y-12526429D02*
X13955714Y-12540714D01*
X13884286Y-12540714D01*
X13855714Y-12526429D01*
X13841428Y-12497857D01*
X13841428Y-12469286D01*
X13855714Y-12440714D01*
X13884286Y-12426429D01*
X13955714Y-12426429D01*
X13984286Y-12412143D01*
X14127143Y-12340714D02*
X14127143Y-12640714D01*
X14127143Y-12355000D02*
X14155714Y-12340714D01*
X14212857Y-12340714D01*
X14241428Y-12355000D01*
X14255714Y-12369286D01*
X14270000Y-12397857D01*
X14270000Y-12483571D01*
X14255714Y-12512143D01*
X14241428Y-12526429D01*
X14212857Y-12540714D01*
X14155714Y-12540714D01*
X14127143Y-12526429D01*
X14398571Y-12512143D02*
X14412857Y-12526429D01*
X14398571Y-12540714D01*
X14384286Y-12526429D01*
X14398571Y-12512143D01*
X14398571Y-12540714D01*
X14398571Y-12355000D02*
X14412857Y-12369286D01*
X14398571Y-12383571D01*
X14384286Y-12369286D01*
X14398571Y-12355000D01*
X14398571Y-12383571D01*
X11835000Y-12925000D02*
X12055000Y-13145000D01*
X12055000Y-12925000D02*
X11835000Y-13145000D01*
X12327143Y-12899286D02*
X12341428Y-12885000D01*
X12370000Y-12870714D01*
X12441428Y-12870714D01*
X12470000Y-12885000D01*
X12484286Y-12899286D01*
X12498571Y-12927857D01*
X12498571Y-12956429D01*
X12484286Y-12999286D01*
X12312857Y-13170714D01*
X12498571Y-13170714D01*
X12627143Y-13142143D02*
X12641428Y-13156429D01*
X12627143Y-13170714D01*
X12612857Y-13156429D01*
X12627143Y-13142143D01*
X12627143Y-13170714D01*
X12755714Y-12899286D02*
X12770000Y-12885000D01*
X12798571Y-12870714D01*
X12870000Y-12870714D01*
X12898571Y-12885000D01*
X12912857Y-12899286D01*
X12927143Y-12927857D01*
X12927143Y-12956429D01*
X12912857Y-12999286D01*
X12741428Y-13170714D01*
X12927143Y-13170714D01*
X13112857Y-12870714D02*
X13141428Y-12870714D01*
X13170000Y-12885000D01*
X13184286Y-12899286D01*
X13198571Y-12927857D01*
X13212857Y-12985000D01*
X13212857Y-13056429D01*
X13198571Y-13113571D01*
X13184286Y-13142143D01*
X13170000Y-13156429D01*
X13141428Y-13170714D01*
X13112857Y-13170714D01*
X13084286Y-13156429D01*
X13070000Y-13142143D01*
X13055714Y-13113571D01*
X13041428Y-13056429D01*
X13041428Y-12985000D01*
X13055714Y-12927857D01*
X13070000Y-12899286D01*
X13084286Y-12885000D01*
X13112857Y-12870714D01*
X13341428Y-13170714D02*
X13341428Y-12970714D01*
X13341428Y-12999286D02*
X13355714Y-12985000D01*
X13384286Y-12970714D01*
X13427143Y-12970714D01*
X13455714Y-12985000D01*
X13470000Y-13013571D01*
X13470000Y-13170714D01*
X13470000Y-13013571D02*
X13484286Y-12985000D01*
X13512857Y-12970714D01*
X13555714Y-12970714D01*
X13584286Y-12985000D01*
X13598571Y-13013571D01*
X13598571Y-13170714D01*
X13741428Y-13170714D02*
X13741428Y-12970714D01*
X13741428Y-12999286D02*
X13755714Y-12985000D01*
X13784286Y-12970714D01*
X13827143Y-12970714D01*
X13855714Y-12985000D01*
X13870000Y-13013571D01*
X13870000Y-13170714D01*
X13870000Y-13013571D02*
X13884286Y-12985000D01*
X13912857Y-12970714D01*
X13955714Y-12970714D01*
X13984286Y-12985000D01*
X13998571Y-13013571D01*
X13998571Y-13170714D01*
X14584286Y-12856429D02*
X14327143Y-13242143D01*
X14970000Y-12870714D02*
X14998571Y-12870714D01*
X15027143Y-12885000D01*
X15041428Y-12899286D01*
X15055714Y-12927857D01*
X15070000Y-12985000D01*
X15070000Y-13056429D01*
X15055714Y-13113571D01*
X15041428Y-13142143D01*
X15027143Y-13156429D01*
X14998571Y-13170714D01*
X14970000Y-13170714D01*
X14941428Y-13156429D01*
X14927143Y-13142143D01*
X14912857Y-13113571D01*
X14898571Y-13056429D01*
X14898571Y-12985000D01*
X14912857Y-12927857D01*
X14927143Y-12899286D01*
X14941428Y-12885000D01*
X14970000Y-12870714D01*
X15198571Y-13142143D02*
X15212857Y-13156429D01*
X15198571Y-13170714D01*
X15184286Y-13156429D01*
X15198571Y-13142143D01*
X15198571Y-13170714D01*
X15398571Y-12870714D02*
X15427143Y-12870714D01*
X15455714Y-12885000D01*
X15470000Y-12899286D01*
X15484286Y-12927857D01*
X15498571Y-12985000D01*
X15498571Y-13056429D01*
X15484286Y-13113571D01*
X15470000Y-13142143D01*
X15455714Y-13156429D01*
X15427143Y-13170714D01*
X15398571Y-13170714D01*
X15370000Y-13156429D01*
X15355714Y-13142143D01*
X15341428Y-13113571D01*
X15327143Y-13056429D01*
X15327143Y-12985000D01*
X15341428Y-12927857D01*
X15355714Y-12899286D01*
X15370000Y-12885000D01*
X15398571Y-12870714D01*
X15670000Y-12999286D02*
X15641428Y-12985000D01*
X15627143Y-12970714D01*
X15612857Y-12942143D01*
X15612857Y-12927857D01*
X15627143Y-12899286D01*
X15641428Y-12885000D01*
X15670000Y-12870714D01*
X15727143Y-12870714D01*
X15755714Y-12885000D01*
X15770000Y-12899286D01*
X15784286Y-12927857D01*
X15784286Y-12942143D01*
X15770000Y-12970714D01*
X15755714Y-12985000D01*
X15727143Y-12999286D01*
X15670000Y-12999286D01*
X15641428Y-13013571D01*
X15627143Y-13027857D01*
X15612857Y-13056429D01*
X15612857Y-13113571D01*
X15627143Y-13142143D01*
X15641428Y-13156429D01*
X15670000Y-13170714D01*
X15727143Y-13170714D01*
X15755714Y-13156429D01*
X15770000Y-13142143D01*
X15784286Y-13113571D01*
X15784286Y-13056429D01*
X15770000Y-13027857D01*
X15755714Y-13013571D01*
X15727143Y-12999286D01*
X15884286Y-12870714D02*
X16084286Y-12870714D01*
X15955714Y-13170714D01*
X16184286Y-12870714D02*
X16184286Y-12927857D01*
X16298571Y-12870714D02*
X16298571Y-12927857D01*
X16741428Y-13285000D02*
X16727143Y-13270714D01*
X16698571Y-13227857D01*
X16684286Y-13199286D01*
X16670000Y-13156429D01*
X16655714Y-13085000D01*
X16655714Y-13027857D01*
X16670000Y-12956429D01*
X16684286Y-12913571D01*
X16698571Y-12885000D01*
X16727143Y-12842143D01*
X16741428Y-12827857D01*
X16841428Y-12899286D02*
X16855714Y-12885000D01*
X16884286Y-12870714D01*
X16955714Y-12870714D01*
X16984286Y-12885000D01*
X16998571Y-12899286D01*
X17012857Y-12927857D01*
X17012857Y-12956429D01*
X16998571Y-12999286D01*
X16827143Y-13170714D01*
X17012857Y-13170714D01*
X17370000Y-13170714D02*
X17370000Y-12870714D01*
X17498571Y-13170714D02*
X17498571Y-13013571D01*
X17484286Y-12985000D01*
X17455714Y-12970714D01*
X17412857Y-12970714D01*
X17384286Y-12985000D01*
X17370000Y-12999286D01*
X17684286Y-13170714D02*
X17655714Y-13156429D01*
X17641428Y-13142143D01*
X17627143Y-13113571D01*
X17627143Y-13027857D01*
X17641428Y-12999286D01*
X17655714Y-12985000D01*
X17684286Y-12970714D01*
X17727143Y-12970714D01*
X17755714Y-12985000D01*
X17770000Y-12999286D01*
X17784286Y-13027857D01*
X17784286Y-13113571D01*
X17770000Y-13142143D01*
X17755714Y-13156429D01*
X17727143Y-13170714D01*
X17684286Y-13170714D01*
X17955714Y-13170714D02*
X17927143Y-13156429D01*
X17912857Y-13127857D01*
X17912857Y-12870714D01*
X18184286Y-13156429D02*
X18155714Y-13170714D01*
X18098571Y-13170714D01*
X18070000Y-13156429D01*
X18055714Y-13127857D01*
X18055714Y-13013571D01*
X18070000Y-12985000D01*
X18098571Y-12970714D01*
X18155714Y-12970714D01*
X18184286Y-12985000D01*
X18198571Y-13013571D01*
X18198571Y-13042143D01*
X18055714Y-13070714D01*
X18312857Y-13156429D02*
X18341428Y-13170714D01*
X18398571Y-13170714D01*
X18427143Y-13156429D01*
X18441428Y-13127857D01*
X18441428Y-13113571D01*
X18427143Y-13085000D01*
X18398571Y-13070714D01*
X18355714Y-13070714D01*
X18327143Y-13056429D01*
X18312857Y-13027857D01*
X18312857Y-13013571D01*
X18327143Y-12985000D01*
X18355714Y-12970714D01*
X18398571Y-12970714D01*
X18427143Y-12985000D01*
X18541428Y-13285000D02*
X18555714Y-13270714D01*
X18584286Y-13227857D01*
X18598571Y-13199286D01*
X18612857Y-13156429D01*
X18627143Y-13085000D01*
X18627143Y-13027857D01*
X18612857Y-12956429D01*
X18598571Y-12913571D01*
X18584286Y-12885000D01*
X18555714Y-12842143D01*
X18541428Y-12827857D01*
X19084286Y-13285000D02*
X19070000Y-13270714D01*
X19041428Y-13227857D01*
X19027143Y-13199286D01*
X19012857Y-13156429D01*
X18998571Y-13085000D01*
X18998571Y-13027857D01*
X19012857Y-12956429D01*
X19027143Y-12913571D01*
X19041428Y-12885000D01*
X19070000Y-12842143D01*
X19084286Y-12827857D01*
X19198571Y-12970714D02*
X19198571Y-13170714D01*
X19198571Y-12999286D02*
X19212857Y-12985000D01*
X19241428Y-12970714D01*
X19284286Y-12970714D01*
X19312857Y-12985000D01*
X19327143Y-13013571D01*
X19327143Y-13170714D01*
X19512857Y-13170714D02*
X19484286Y-13156429D01*
X19470000Y-13142143D01*
X19455714Y-13113571D01*
X19455714Y-13027857D01*
X19470000Y-12999286D01*
X19484286Y-12985000D01*
X19512857Y-12970714D01*
X19555714Y-12970714D01*
X19584286Y-12985000D01*
X19598571Y-12999286D01*
X19612857Y-13027857D01*
X19612857Y-13113571D01*
X19598571Y-13142143D01*
X19584286Y-13156429D01*
X19555714Y-13170714D01*
X19512857Y-13170714D01*
X19698571Y-12970714D02*
X19812857Y-12970714D01*
X19741428Y-12870714D02*
X19741428Y-13127857D01*
X19755714Y-13156429D01*
X19784286Y-13170714D01*
X19812857Y-13170714D01*
X20141428Y-12970714D02*
X20141428Y-13270714D01*
X20141428Y-12985000D02*
X20170000Y-12970714D01*
X20227143Y-12970714D01*
X20255714Y-12985000D01*
X20270000Y-12999286D01*
X20284286Y-13027857D01*
X20284286Y-13113571D01*
X20270000Y-13142143D01*
X20255714Y-13156429D01*
X20227143Y-13170714D01*
X20170000Y-13170714D01*
X20141428Y-13156429D01*
X20455714Y-13170714D02*
X20427143Y-13156429D01*
X20412857Y-13127857D01*
X20412857Y-12870714D01*
X20698571Y-13170714D02*
X20698571Y-13013571D01*
X20684286Y-12985000D01*
X20655714Y-12970714D01*
X20598571Y-12970714D01*
X20570000Y-12985000D01*
X20698571Y-13156429D02*
X20670000Y-13170714D01*
X20598571Y-13170714D01*
X20570000Y-13156429D01*
X20555714Y-13127857D01*
X20555714Y-13099286D01*
X20570000Y-13070714D01*
X20598571Y-13056429D01*
X20670000Y-13056429D01*
X20698571Y-13042143D01*
X20798571Y-12970714D02*
X20912857Y-12970714D01*
X20841428Y-12870714D02*
X20841428Y-13127857D01*
X20855714Y-13156429D01*
X20884286Y-13170714D01*
X20912857Y-13170714D01*
X21127143Y-13156429D02*
X21098571Y-13170714D01*
X21041428Y-13170714D01*
X21012857Y-13156429D01*
X20998571Y-13127857D01*
X20998571Y-13013571D01*
X21012857Y-12985000D01*
X21041428Y-12970714D01*
X21098571Y-12970714D01*
X21127143Y-12985000D01*
X21141428Y-13013571D01*
X21141428Y-13042143D01*
X20998571Y-13070714D01*
X21398571Y-13170714D02*
X21398571Y-12870714D01*
X21398571Y-13156429D02*
X21370000Y-13170714D01*
X21312857Y-13170714D01*
X21284286Y-13156429D01*
X21270000Y-13142143D01*
X21255714Y-13113571D01*
X21255714Y-13027857D01*
X21270000Y-12999286D01*
X21284286Y-12985000D01*
X21312857Y-12970714D01*
X21370000Y-12970714D01*
X21398571Y-12985000D01*
X21512857Y-13285000D02*
X21527143Y-13270714D01*
X21555714Y-13227857D01*
X21570000Y-13199286D01*
X21584286Y-13156429D01*
X21598571Y-13085000D01*
X21598571Y-13027857D01*
X21584286Y-12956429D01*
X21570000Y-12913571D01*
X21555714Y-12885000D01*
X21527143Y-12842143D01*
X21512857Y-12827857D01*
M02*
