%TF.GenerationSoftware,KiCad,Pcbnew,5.0.0*%
%TF.CreationDate,2018-08-07T10:12:14+02:00*%
%TF.ProjectId,HB-UNI-Sen-WEA,48422D554E492D53656E2D5745412E6B,1.0*%
%TF.SameCoordinates,Original*%
%TF.FileFunction,Legend,Bot*%
%TF.FilePolarity,Positive*%
%FSLAX46Y46*%
G04 Gerber Fmt 4.6, Leading zero omitted, Abs format (unit mm)*
G04 Created by KiCad (PCBNEW 5.0.0) date Tue Aug  7 10:12:14 2018*
%MOMM*%
%LPD*%
G01*
G04 APERTURE LIST*
%ADD10C,0.200000*%
%ADD11C,0.300000*%
%ADD12C,0.150000*%
G04 APERTURE END LIST*
D10*
X150476190Y-101163333D02*
X150523809Y-101115714D01*
X150619047Y-100972857D01*
X150666666Y-100877619D01*
X150714285Y-100734761D01*
X150761904Y-100496666D01*
X150761904Y-100306190D01*
X150714285Y-100068095D01*
X150666666Y-99925238D01*
X150619047Y-99830000D01*
X150523809Y-99687142D01*
X150476190Y-99639523D01*
X149666666Y-100734761D02*
X149761904Y-100782380D01*
X149952380Y-100782380D01*
X150047619Y-100734761D01*
X150095238Y-100687142D01*
X150142857Y-100591904D01*
X150142857Y-100306190D01*
X150095238Y-100210952D01*
X150047619Y-100163333D01*
X149952380Y-100115714D01*
X149761904Y-100115714D01*
X149666666Y-100163333D01*
X149333333Y-101163333D02*
X149285714Y-101115714D01*
X149190476Y-100972857D01*
X149142857Y-100877619D01*
X149095238Y-100734761D01*
X149047619Y-100496666D01*
X149047619Y-100306190D01*
X149095238Y-100068095D01*
X149142857Y-99925238D01*
X149190476Y-99830000D01*
X149285714Y-99687142D01*
X149333333Y-99639523D01*
X147857142Y-100496666D02*
X147380952Y-100496666D01*
X147952380Y-100782380D02*
X147619047Y-99782380D01*
X147285714Y-100782380D01*
X146809523Y-100782380D02*
X146904761Y-100734761D01*
X146952380Y-100639523D01*
X146952380Y-99782380D01*
X146047619Y-100734761D02*
X146142857Y-100782380D01*
X146333333Y-100782380D01*
X146428571Y-100734761D01*
X146476190Y-100639523D01*
X146476190Y-100258571D01*
X146428571Y-100163333D01*
X146333333Y-100115714D01*
X146142857Y-100115714D01*
X146047619Y-100163333D01*
X146000000Y-100258571D01*
X146000000Y-100353809D01*
X146476190Y-100449047D01*
X145666666Y-100782380D02*
X145142857Y-100115714D01*
X145666666Y-100115714D02*
X145142857Y-100782380D01*
X144333333Y-100782380D02*
X144333333Y-100258571D01*
X144380952Y-100163333D01*
X144476190Y-100115714D01*
X144666666Y-100115714D01*
X144761904Y-100163333D01*
X144333333Y-100734761D02*
X144428571Y-100782380D01*
X144666666Y-100782380D01*
X144761904Y-100734761D01*
X144809523Y-100639523D01*
X144809523Y-100544285D01*
X144761904Y-100449047D01*
X144666666Y-100401428D01*
X144428571Y-100401428D01*
X144333333Y-100353809D01*
X143857142Y-100115714D02*
X143857142Y-100782380D01*
X143857142Y-100210952D02*
X143809523Y-100163333D01*
X143714285Y-100115714D01*
X143571428Y-100115714D01*
X143476190Y-100163333D01*
X143428571Y-100258571D01*
X143428571Y-100782380D01*
X142523809Y-100782380D02*
X142523809Y-99782380D01*
X142523809Y-100734761D02*
X142619047Y-100782380D01*
X142809523Y-100782380D01*
X142904761Y-100734761D01*
X142952380Y-100687142D01*
X143000000Y-100591904D01*
X143000000Y-100306190D01*
X142952380Y-100210952D01*
X142904761Y-100163333D01*
X142809523Y-100115714D01*
X142619047Y-100115714D01*
X142523809Y-100163333D01*
X141666666Y-100734761D02*
X141761904Y-100782380D01*
X141952380Y-100782380D01*
X142047619Y-100734761D01*
X142095238Y-100639523D01*
X142095238Y-100258571D01*
X142047619Y-100163333D01*
X141952380Y-100115714D01*
X141761904Y-100115714D01*
X141666666Y-100163333D01*
X141619047Y-100258571D01*
X141619047Y-100353809D01*
X142095238Y-100449047D01*
X141190476Y-100782380D02*
X141190476Y-100115714D01*
X141190476Y-100306190D02*
X141142857Y-100210952D01*
X141095238Y-100163333D01*
X141000000Y-100115714D01*
X140904761Y-100115714D01*
X139809523Y-100782380D02*
X139809523Y-99782380D01*
X139476190Y-100496666D01*
X139142857Y-99782380D01*
X139142857Y-100782380D01*
X138666666Y-100782380D02*
X138666666Y-100115714D01*
X138666666Y-99782380D02*
X138714285Y-99830000D01*
X138666666Y-99877619D01*
X138619047Y-99830000D01*
X138666666Y-99782380D01*
X138666666Y-99877619D01*
X138190476Y-100115714D02*
X138190476Y-100782380D01*
X138190476Y-100210952D02*
X138142857Y-100163333D01*
X138047619Y-100115714D01*
X137904761Y-100115714D01*
X137809523Y-100163333D01*
X137761904Y-100258571D01*
X137761904Y-100782380D01*
X136857142Y-100115714D02*
X136857142Y-100925238D01*
X136904761Y-101020476D01*
X136952380Y-101068095D01*
X137047619Y-101115714D01*
X137190476Y-101115714D01*
X137285714Y-101068095D01*
X136857142Y-100734761D02*
X136952380Y-100782380D01*
X137142857Y-100782380D01*
X137238095Y-100734761D01*
X137285714Y-100687142D01*
X137333333Y-100591904D01*
X137333333Y-100306190D01*
X137285714Y-100210952D01*
X137238095Y-100163333D01*
X137142857Y-100115714D01*
X136952380Y-100115714D01*
X136857142Y-100163333D01*
X136000000Y-100734761D02*
X136095238Y-100782380D01*
X136285714Y-100782380D01*
X136380952Y-100734761D01*
X136428571Y-100639523D01*
X136428571Y-100258571D01*
X136380952Y-100163333D01*
X136285714Y-100115714D01*
X136095238Y-100115714D01*
X136000000Y-100163333D01*
X135952380Y-100258571D01*
X135952380Y-100353809D01*
X136428571Y-100449047D01*
X135571428Y-100734761D02*
X135476190Y-100782380D01*
X135285714Y-100782380D01*
X135190476Y-100734761D01*
X135142857Y-100639523D01*
X135142857Y-100591904D01*
X135190476Y-100496666D01*
X135285714Y-100449047D01*
X135428571Y-100449047D01*
X135523809Y-100401428D01*
X135571428Y-100306190D01*
X135571428Y-100258571D01*
X135523809Y-100163333D01*
X135428571Y-100115714D01*
X135285714Y-100115714D01*
X135190476Y-100163333D01*
X150904761Y-95972380D02*
X150571428Y-96972380D01*
X150238095Y-95972380D01*
X149523809Y-96924761D02*
X149619047Y-96972380D01*
X149809523Y-96972380D01*
X149904761Y-96924761D01*
X149952380Y-96829523D01*
X149952380Y-96448571D01*
X149904761Y-96353333D01*
X149809523Y-96305714D01*
X149619047Y-96305714D01*
X149523809Y-96353333D01*
X149476190Y-96448571D01*
X149476190Y-96543809D01*
X149952380Y-96639047D01*
X149047619Y-96972380D02*
X149047619Y-96305714D01*
X149047619Y-96496190D02*
X149000000Y-96400952D01*
X148952380Y-96353333D01*
X148857142Y-96305714D01*
X148761904Y-96305714D01*
X148476190Y-96924761D02*
X148380952Y-96972380D01*
X148190476Y-96972380D01*
X148095238Y-96924761D01*
X148047619Y-96829523D01*
X148047619Y-96781904D01*
X148095238Y-96686666D01*
X148190476Y-96639047D01*
X148333333Y-96639047D01*
X148428571Y-96591428D01*
X148476190Y-96496190D01*
X148476190Y-96448571D01*
X148428571Y-96353333D01*
X148333333Y-96305714D01*
X148190476Y-96305714D01*
X148095238Y-96353333D01*
X147619047Y-96972380D02*
X147619047Y-96305714D01*
X147619047Y-95972380D02*
X147666666Y-96020000D01*
X147619047Y-96067619D01*
X147571428Y-96020000D01*
X147619047Y-95972380D01*
X147619047Y-96067619D01*
X147000000Y-96972380D02*
X147095238Y-96924761D01*
X147142857Y-96877142D01*
X147190476Y-96781904D01*
X147190476Y-96496190D01*
X147142857Y-96400952D01*
X147095238Y-96353333D01*
X147000000Y-96305714D01*
X146857142Y-96305714D01*
X146761904Y-96353333D01*
X146714285Y-96400952D01*
X146666666Y-96496190D01*
X146666666Y-96781904D01*
X146714285Y-96877142D01*
X146761904Y-96924761D01*
X146857142Y-96972380D01*
X147000000Y-96972380D01*
X146238095Y-96305714D02*
X146238095Y-96972380D01*
X146238095Y-96400952D02*
X146190476Y-96353333D01*
X146095238Y-96305714D01*
X145952380Y-96305714D01*
X145857142Y-96353333D01*
X145809523Y-96448571D01*
X145809523Y-96972380D01*
X144047619Y-96972380D02*
X144619047Y-96972380D01*
X144333333Y-96972380D02*
X144333333Y-95972380D01*
X144428571Y-96115238D01*
X144523809Y-96210476D01*
X144619047Y-96258095D01*
X143619047Y-96877142D02*
X143571428Y-96924761D01*
X143619047Y-96972380D01*
X143666666Y-96924761D01*
X143619047Y-96877142D01*
X143619047Y-96972380D01*
X142952380Y-95972380D02*
X142857142Y-95972380D01*
X142761904Y-96020000D01*
X142714285Y-96067619D01*
X142666666Y-96162857D01*
X142619047Y-96353333D01*
X142619047Y-96591428D01*
X142666666Y-96781904D01*
X142714285Y-96877142D01*
X142761904Y-96924761D01*
X142857142Y-96972380D01*
X142952380Y-96972380D01*
X143047619Y-96924761D01*
X143095238Y-96877142D01*
X143142857Y-96781904D01*
X143190476Y-96591428D01*
X143190476Y-96353333D01*
X143142857Y-96162857D01*
X143095238Y-96067619D01*
X143047619Y-96020000D01*
X142952380Y-95972380D01*
X141428571Y-96591428D02*
X140666666Y-96591428D01*
X139238095Y-95972380D02*
X139142857Y-95972380D01*
X139047619Y-96020000D01*
X139000000Y-96067619D01*
X138952380Y-96162857D01*
X138904761Y-96353333D01*
X138904761Y-96591428D01*
X138952380Y-96781904D01*
X139000000Y-96877142D01*
X139047619Y-96924761D01*
X139142857Y-96972380D01*
X139238095Y-96972380D01*
X139333333Y-96924761D01*
X139380952Y-96877142D01*
X139428571Y-96781904D01*
X139476190Y-96591428D01*
X139476190Y-96353333D01*
X139428571Y-96162857D01*
X139380952Y-96067619D01*
X139333333Y-96020000D01*
X139238095Y-95972380D01*
X138571428Y-95972380D02*
X137904761Y-95972380D01*
X138333333Y-96972380D01*
X136809523Y-95924761D02*
X137666666Y-97210476D01*
X136523809Y-96067619D02*
X136476190Y-96020000D01*
X136380952Y-95972380D01*
X136142857Y-95972380D01*
X136047619Y-96020000D01*
X136000000Y-96067619D01*
X135952380Y-96162857D01*
X135952380Y-96258095D01*
X136000000Y-96400952D01*
X136571428Y-96972380D01*
X135952380Y-96972380D01*
X135333333Y-95972380D02*
X135238095Y-95972380D01*
X135142857Y-96020000D01*
X135095238Y-96067619D01*
X135047619Y-96162857D01*
X135000000Y-96353333D01*
X135000000Y-96591428D01*
X135047619Y-96781904D01*
X135095238Y-96877142D01*
X135142857Y-96924761D01*
X135238095Y-96972380D01*
X135333333Y-96972380D01*
X135428571Y-96924761D01*
X135476190Y-96877142D01*
X135523809Y-96781904D01*
X135571428Y-96591428D01*
X135571428Y-96353333D01*
X135523809Y-96162857D01*
X135476190Y-96067619D01*
X135428571Y-96020000D01*
X135333333Y-95972380D01*
X134047619Y-96972380D02*
X134619047Y-96972380D01*
X134333333Y-96972380D02*
X134333333Y-95972380D01*
X134428571Y-96115238D01*
X134523809Y-96210476D01*
X134619047Y-96258095D01*
X133476190Y-96400952D02*
X133571428Y-96353333D01*
X133619047Y-96305714D01*
X133666666Y-96210476D01*
X133666666Y-96162857D01*
X133619047Y-96067619D01*
X133571428Y-96020000D01*
X133476190Y-95972380D01*
X133285714Y-95972380D01*
X133190476Y-96020000D01*
X133142857Y-96067619D01*
X133095238Y-96162857D01*
X133095238Y-96210476D01*
X133142857Y-96305714D01*
X133190476Y-96353333D01*
X133285714Y-96400952D01*
X133476190Y-96400952D01*
X133571428Y-96448571D01*
X133619047Y-96496190D01*
X133666666Y-96591428D01*
X133666666Y-96781904D01*
X133619047Y-96877142D01*
X133571428Y-96924761D01*
X133476190Y-96972380D01*
X133285714Y-96972380D01*
X133190476Y-96924761D01*
X133142857Y-96877142D01*
X133095238Y-96781904D01*
X133095238Y-96591428D01*
X133142857Y-96496190D01*
X133190476Y-96448571D01*
X133285714Y-96400952D01*
D11*
X150637380Y-94545476D02*
X150637380Y-93295476D01*
X150637380Y-93890714D02*
X149923095Y-93890714D01*
X149923095Y-94545476D02*
X149923095Y-93295476D01*
X148911190Y-93890714D02*
X148732619Y-93950238D01*
X148673095Y-94009761D01*
X148613571Y-94128809D01*
X148613571Y-94307380D01*
X148673095Y-94426428D01*
X148732619Y-94485952D01*
X148851666Y-94545476D01*
X149327857Y-94545476D01*
X149327857Y-93295476D01*
X148911190Y-93295476D01*
X148792142Y-93355000D01*
X148732619Y-93414523D01*
X148673095Y-93533571D01*
X148673095Y-93652619D01*
X148732619Y-93771666D01*
X148792142Y-93831190D01*
X148911190Y-93890714D01*
X149327857Y-93890714D01*
X148077857Y-94069285D02*
X147125476Y-94069285D01*
X146530238Y-93295476D02*
X146530238Y-94307380D01*
X146470714Y-94426428D01*
X146411190Y-94485952D01*
X146292142Y-94545476D01*
X146054047Y-94545476D01*
X145935000Y-94485952D01*
X145875476Y-94426428D01*
X145815952Y-94307380D01*
X145815952Y-93295476D01*
X145220714Y-94545476D02*
X145220714Y-93295476D01*
X144506428Y-94545476D01*
X144506428Y-93295476D01*
X143911190Y-94545476D02*
X143911190Y-93295476D01*
X143315952Y-94069285D02*
X142363571Y-94069285D01*
X141827857Y-94485952D02*
X141649285Y-94545476D01*
X141351666Y-94545476D01*
X141232619Y-94485952D01*
X141173095Y-94426428D01*
X141113571Y-94307380D01*
X141113571Y-94188333D01*
X141173095Y-94069285D01*
X141232619Y-94009761D01*
X141351666Y-93950238D01*
X141589761Y-93890714D01*
X141708809Y-93831190D01*
X141768333Y-93771666D01*
X141827857Y-93652619D01*
X141827857Y-93533571D01*
X141768333Y-93414523D01*
X141708809Y-93355000D01*
X141589761Y-93295476D01*
X141292142Y-93295476D01*
X141113571Y-93355000D01*
X140577857Y-93890714D02*
X140161190Y-93890714D01*
X139982619Y-94545476D02*
X140577857Y-94545476D01*
X140577857Y-93295476D01*
X139982619Y-93295476D01*
X139446904Y-94545476D02*
X139446904Y-93295476D01*
X138732619Y-94545476D01*
X138732619Y-93295476D01*
X138137380Y-94069285D02*
X137185000Y-94069285D01*
X136708809Y-93295476D02*
X136411190Y-94545476D01*
X136173095Y-93652619D01*
X135935000Y-94545476D01*
X135637380Y-93295476D01*
X135161190Y-93890714D02*
X134744523Y-93890714D01*
X134565952Y-94545476D02*
X135161190Y-94545476D01*
X135161190Y-93295476D01*
X134565952Y-93295476D01*
X134089761Y-94188333D02*
X133494523Y-94188333D01*
X134208809Y-94545476D02*
X133792142Y-93295476D01*
X133375476Y-94545476D01*
X132958809Y-94069285D02*
X132006428Y-94069285D01*
X131411190Y-94545476D02*
X131411190Y-93295476D01*
X130935000Y-93295476D01*
X130815952Y-93355000D01*
X130756428Y-93414523D01*
X130696904Y-93533571D01*
X130696904Y-93712142D01*
X130756428Y-93831190D01*
X130815952Y-93890714D01*
X130935000Y-93950238D01*
X131411190Y-93950238D01*
X129446904Y-94426428D02*
X129506428Y-94485952D01*
X129685000Y-94545476D01*
X129804047Y-94545476D01*
X129982619Y-94485952D01*
X130101666Y-94366904D01*
X130161190Y-94247857D01*
X130220714Y-94009761D01*
X130220714Y-93831190D01*
X130161190Y-93593095D01*
X130101666Y-93474047D01*
X129982619Y-93355000D01*
X129804047Y-93295476D01*
X129685000Y-93295476D01*
X129506428Y-93355000D01*
X129446904Y-93414523D01*
X128494523Y-93890714D02*
X128315952Y-93950238D01*
X128256428Y-94009761D01*
X128196904Y-94128809D01*
X128196904Y-94307380D01*
X128256428Y-94426428D01*
X128315952Y-94485952D01*
X128435000Y-94545476D01*
X128911190Y-94545476D01*
X128911190Y-93295476D01*
X128494523Y-93295476D01*
X128375476Y-93355000D01*
X128315952Y-93414523D01*
X128256428Y-93533571D01*
X128256428Y-93652619D01*
X128315952Y-93771666D01*
X128375476Y-93831190D01*
X128494523Y-93890714D01*
X128911190Y-93890714D01*
D12*
%TO.C,U1*%
X122555000Y-88900000D02*
G75*
G03X122555000Y-88900000I-635000J0D01*
G01*
X122555000Y-91440000D02*
G75*
G03X122555000Y-91440000I-635000J0D01*
G01*
X122555000Y-93980000D02*
G75*
G03X122555000Y-93980000I-635000J0D01*
G01*
X122555000Y-96520000D02*
G75*
G03X122555000Y-96520000I-635000J0D01*
G01*
X122555000Y-99060000D02*
G75*
G03X122555000Y-99060000I-635000J0D01*
G01*
X122555000Y-101600000D02*
G75*
G03X122555000Y-101600000I-635000J0D01*
G01*
X124917142Y-89235000D02*
X124974285Y-89206428D01*
X125060000Y-89206428D01*
X125145714Y-89235000D01*
X125202857Y-89292142D01*
X125231428Y-89349285D01*
X125260000Y-89463571D01*
X125260000Y-89549285D01*
X125231428Y-89663571D01*
X125202857Y-89720714D01*
X125145714Y-89777857D01*
X125060000Y-89806428D01*
X125002857Y-89806428D01*
X124917142Y-89777857D01*
X124888571Y-89749285D01*
X124888571Y-89549285D01*
X125002857Y-89549285D01*
X124631428Y-89806428D02*
X124631428Y-89206428D01*
X124288571Y-89806428D01*
X124288571Y-89206428D01*
X124002857Y-89806428D02*
X124002857Y-89206428D01*
X123860000Y-89206428D01*
X123774285Y-89235000D01*
X123717142Y-89292142D01*
X123688571Y-89349285D01*
X123660000Y-89463571D01*
X123660000Y-89549285D01*
X123688571Y-89663571D01*
X123717142Y-89720714D01*
X123774285Y-89777857D01*
X123860000Y-89806428D01*
X124002857Y-89806428D01*
X124917142Y-91140000D02*
X124974285Y-91111428D01*
X125060000Y-91111428D01*
X125145714Y-91140000D01*
X125202857Y-91197142D01*
X125231428Y-91254285D01*
X125260000Y-91368571D01*
X125260000Y-91454285D01*
X125231428Y-91568571D01*
X125202857Y-91625714D01*
X125145714Y-91682857D01*
X125060000Y-91711428D01*
X125002857Y-91711428D01*
X124917142Y-91682857D01*
X124888571Y-91654285D01*
X124888571Y-91454285D01*
X125002857Y-91454285D01*
X124631428Y-91711428D02*
X124631428Y-91111428D01*
X124288571Y-91711428D01*
X124288571Y-91111428D01*
X124002857Y-91711428D02*
X124002857Y-91111428D01*
X123860000Y-91111428D01*
X123774285Y-91140000D01*
X123717142Y-91197142D01*
X123688571Y-91254285D01*
X123660000Y-91368571D01*
X123660000Y-91454285D01*
X123688571Y-91568571D01*
X123717142Y-91625714D01*
X123774285Y-91682857D01*
X123860000Y-91711428D01*
X124002857Y-91711428D01*
X125260000Y-93651428D02*
X125060000Y-94251428D01*
X124860000Y-93651428D01*
X124317142Y-94194285D02*
X124345714Y-94222857D01*
X124431428Y-94251428D01*
X124488571Y-94251428D01*
X124574285Y-94222857D01*
X124631428Y-94165714D01*
X124660000Y-94108571D01*
X124688571Y-93994285D01*
X124688571Y-93908571D01*
X124660000Y-93794285D01*
X124631428Y-93737142D01*
X124574285Y-93680000D01*
X124488571Y-93651428D01*
X124431428Y-93651428D01*
X124345714Y-93680000D01*
X124317142Y-93708571D01*
X123717142Y-94194285D02*
X123745714Y-94222857D01*
X123831428Y-94251428D01*
X123888571Y-94251428D01*
X123974285Y-94222857D01*
X124031428Y-94165714D01*
X124060000Y-94108571D01*
X124088571Y-93994285D01*
X124088571Y-93908571D01*
X124060000Y-93794285D01*
X124031428Y-93737142D01*
X123974285Y-93680000D01*
X123888571Y-93651428D01*
X123831428Y-93651428D01*
X123745714Y-93680000D01*
X123717142Y-93708571D01*
X124702857Y-96791428D02*
X124902857Y-96505714D01*
X125045714Y-96791428D02*
X125045714Y-96191428D01*
X124817142Y-96191428D01*
X124760000Y-96220000D01*
X124731428Y-96248571D01*
X124702857Y-96305714D01*
X124702857Y-96391428D01*
X124731428Y-96448571D01*
X124760000Y-96477142D01*
X124817142Y-96505714D01*
X125045714Y-96505714D01*
X124502857Y-96191428D02*
X124102857Y-96791428D01*
X124102857Y-96191428D02*
X124502857Y-96791428D01*
X123874285Y-96791428D02*
X123874285Y-96191428D01*
X125217142Y-98731428D02*
X124874285Y-98731428D01*
X125045714Y-99331428D02*
X125045714Y-98731428D01*
X124731428Y-98731428D02*
X124331428Y-99331428D01*
X124331428Y-98731428D02*
X124731428Y-99331428D01*
X124102857Y-99331428D02*
X124102857Y-98731428D01*
X123960000Y-98731428D01*
X123874285Y-98760000D01*
X123817142Y-98817142D01*
X123788571Y-98874285D01*
X123760000Y-98988571D01*
X123760000Y-99074285D01*
X123788571Y-99188571D01*
X123817142Y-99245714D01*
X123874285Y-99302857D01*
X123960000Y-99331428D01*
X124102857Y-99331428D01*
X125145714Y-101236428D02*
X125145714Y-100636428D01*
X125002857Y-100636428D01*
X124917142Y-100665000D01*
X124860000Y-100722142D01*
X124831428Y-100779285D01*
X124802857Y-100893571D01*
X124802857Y-100979285D01*
X124831428Y-101093571D01*
X124860000Y-101150714D01*
X124917142Y-101207857D01*
X125002857Y-101236428D01*
X125145714Y-101236428D01*
X124631428Y-100636428D02*
X124288571Y-100636428D01*
X124460000Y-101236428D02*
X124460000Y-100636428D01*
X123745714Y-101236428D02*
X123945714Y-100950714D01*
X124088571Y-101236428D02*
X124088571Y-100636428D01*
X123860000Y-100636428D01*
X123802857Y-100665000D01*
X123774285Y-100693571D01*
X123745714Y-100750714D01*
X123745714Y-100836428D01*
X123774285Y-100893571D01*
X123802857Y-100922142D01*
X123860000Y-100950714D01*
X124088571Y-100950714D01*
%TD*%
M02*
