M48
;DRILL file {KiCad 5.0.0} date Wed Aug  8 13:21:59 2018
;FORMAT={-:-/ absolute / metric / decimal}
FMAT,2
METRIC,TZ
T1C0.400
T2C0.750
T3C0.800
T4C1.000
T5C1.100
%
G90
G05
M71
T1
X146.05Y-71.12
X147.32Y-72.39
X148.59Y-71.12
X149.86Y-72.39
X151.13Y-71.12
X161.191Y-97.772
X162.166Y-93.707
X163.83Y-86.36
T2
X142.24Y-114.3
X143.51Y-115.57
X144.78Y-114.3
T3
X147.32Y-74.93
X157.48Y-74.93
X142.24Y-109.22
X152.4Y-109.22
X134.62Y-74.93
X144.78Y-74.93
X128.27Y-109.22
X138.43Y-109.22
X167.6Y-85.32
X167.6Y-87.32
X167.6Y-89.32
X167.6Y-91.32
X167.6Y-93.32
X167.6Y-95.32
X167.6Y-97.32
X167.6Y-99.32
X135.89Y-114.3
X138.39Y-114.3
X125.73Y-73.66
X128.23Y-73.66
X125.73Y-76.2
X128.23Y-76.2
T4
X125.73Y-68.58
X128.27Y-68.58
X130.81Y-68.58
X133.35Y-68.58
X124.46Y-109.22
X124.46Y-111.76
X124.46Y-114.3
X124.46Y-116.84
X125.73Y-80.01
X128.27Y-80.01
X157.48Y-114.3
X160.02Y-114.3
X162.56Y-114.3
X165.1Y-114.3
X167.64Y-114.3
X170.18Y-114.3
X172.72Y-114.3
X175.26Y-114.3
X177.8Y-114.3
X180.34Y-114.3
X182.88Y-114.3
X166.37Y-68.58
X168.91Y-68.58
X171.45Y-68.58
X173.99Y-68.58
X166.37Y-74.93
X168.91Y-74.93
X151.13Y-80.01
X153.67Y-80.01
X124.46Y-87.63
X124.46Y-102.87
X127.Y-87.63
X127.Y-102.87
X129.54Y-87.63
X129.54Y-102.87
X132.08Y-87.63
X132.08Y-102.87
X133.35Y-90.17
X134.62Y-87.63
X134.62Y-102.87
X135.89Y-90.17
X137.16Y-87.63
X137.16Y-102.87
X139.7Y-87.63
X139.7Y-102.87
X142.24Y-87.63
X142.24Y-102.87
X143.51Y-90.17
X144.78Y-87.63
X144.78Y-102.87
X146.05Y-90.17
X147.32Y-87.63
X147.32Y-102.87
X149.86Y-87.63
X149.86Y-102.87
X152.4Y-87.63
X152.4Y-90.17
X152.4Y-92.71
X152.4Y-102.87
X146.05Y-68.58
X148.59Y-68.58
X151.13Y-68.58
X153.67Y-68.58
X138.43Y-80.01
X140.97Y-80.01
X160.02Y-87.63
X160.02Y-90.17
X160.02Y-92.71
X160.02Y-95.25
T5
X176.38Y-104.72
X176.38Y-109.22
X182.88Y-104.72
X182.88Y-109.22
T0
M30
