%FSLAX45Y45*%
G04 Gerber Fmt 4.5, Leading zero omitted, Abs format (unit mm)*
G04 Created by KiCad (PCBNEW 5.0.0) date Tue Jul 31 14:57:21 2018*
%MOMM*%
%LPD*%
G01*
G04 APERTURE LIST*
%ADD10C,0.150000*%
%ADD11C,0.200000*%
%ADD12C,0.300000*%
G04 APERTURE END LIST*
D10*
X18669000Y-9906000D02*
X18669000Y-11811000D01*
X14859000Y-11811000D02*
X14478000Y-12065000D01*
X18669000Y-11811000D02*
X14859000Y-11811000D01*
D11*
X17780000Y-6477000D02*
X17780000Y-7493000D01*
X12065000Y-6477000D02*
X17780000Y-6477000D01*
X12065000Y-8382000D02*
X12065000Y-6477000D01*
X12065000Y-10668000D02*
X12065000Y-12065000D01*
D10*
X18669000Y-8255000D02*
X17780000Y-7493000D01*
X18669000Y-8763000D02*
X18669000Y-8255000D01*
X18415000Y-9017000D02*
X18669000Y-8763000D01*
X18415000Y-9652000D02*
X18415000Y-9017000D01*
X18669000Y-9906000D02*
X18415000Y-9652000D01*
D11*
X12319000Y-8763000D02*
X12319000Y-10287000D01*
X12065000Y-8382000D02*
X12319000Y-8763000D01*
X12065000Y-12065000D02*
X14478000Y-12065000D01*
X12319000Y-10287000D02*
X12065000Y-10668000D01*
D11*
D12*
X12341428Y-12540714D02*
X12341428Y-12240714D01*
X12412857Y-12240714D01*
X12455714Y-12255000D01*
X12484286Y-12283571D01*
X12498571Y-12312143D01*
X12512857Y-12369286D01*
X12512857Y-12412143D01*
X12498571Y-12469286D01*
X12484286Y-12497857D01*
X12455714Y-12526429D01*
X12412857Y-12540714D01*
X12341428Y-12540714D01*
X12641428Y-12540714D02*
X12641428Y-12340714D01*
X12641428Y-12397857D02*
X12655714Y-12369286D01*
X12670000Y-12355000D01*
X12698571Y-12340714D01*
X12727143Y-12340714D01*
X12827143Y-12540714D02*
X12827143Y-12340714D01*
X12827143Y-12240714D02*
X12812857Y-12255000D01*
X12827143Y-12269286D01*
X12841428Y-12255000D01*
X12827143Y-12240714D01*
X12827143Y-12269286D01*
X13012857Y-12540714D02*
X12984286Y-12526429D01*
X12970000Y-12497857D01*
X12970000Y-12240714D01*
X13170000Y-12540714D02*
X13141428Y-12526429D01*
X13127143Y-12497857D01*
X13127143Y-12240714D01*
X13512857Y-12540714D02*
X13512857Y-12240714D01*
X13612857Y-12455000D01*
X13712857Y-12240714D01*
X13712857Y-12540714D01*
X13984286Y-12540714D02*
X13984286Y-12383571D01*
X13970000Y-12355000D01*
X13941428Y-12340714D01*
X13884286Y-12340714D01*
X13855714Y-12355000D01*
X13984286Y-12526429D02*
X13955714Y-12540714D01*
X13884286Y-12540714D01*
X13855714Y-12526429D01*
X13841428Y-12497857D01*
X13841428Y-12469286D01*
X13855714Y-12440714D01*
X13884286Y-12426429D01*
X13955714Y-12426429D01*
X13984286Y-12412143D01*
X14127143Y-12340714D02*
X14127143Y-12640714D01*
X14127143Y-12355000D02*
X14155714Y-12340714D01*
X14212857Y-12340714D01*
X14241428Y-12355000D01*
X14255714Y-12369286D01*
X14270000Y-12397857D01*
X14270000Y-12483571D01*
X14255714Y-12512143D01*
X14241428Y-12526429D01*
X14212857Y-12540714D01*
X14155714Y-12540714D01*
X14127143Y-12526429D01*
X14398571Y-12512143D02*
X14412857Y-12526429D01*
X14398571Y-12540714D01*
X14384286Y-12526429D01*
X14398571Y-12512143D01*
X14398571Y-12540714D01*
X14398571Y-12355000D02*
X14412857Y-12369286D01*
X14398571Y-12383571D01*
X14384286Y-12369286D01*
X14398571Y-12355000D01*
X14398571Y-12383571D01*
M02*
