%FSLAX45Y45*%
G04 Gerber Fmt 4.5, Leading zero omitted, Abs format (unit mm)*
G04 Created by KiCad (PCBNEW 5.0.0) date Wed Aug  8 13:22:00 2018*
%MOMM*%
%LPD*%
G01*
G04 APERTURE LIST*
%ADD10C,0.150000*%
%ADD11C,0.200000*%
%ADD12C,0.300000*%
G04 APERTURE END LIST*
D10*
X12319000Y-8890000D02*
X12065000Y-8636000D01*
X12319000Y-10160000D02*
X12319000Y-8890000D01*
X12065000Y-10414000D02*
X12319000Y-10160000D01*
X12065000Y-10414000D02*
X12065000Y-12065000D01*
X12065000Y-8636000D02*
X12065000Y-6477000D01*
X18415000Y-9017000D02*
X18415000Y-9652000D01*
X18669000Y-8890000D02*
X18669000Y-6477000D01*
X18415000Y-9017000D02*
X18669000Y-8890000D01*
X18669000Y-9779000D02*
X18669000Y-11811000D01*
X18415000Y-9652000D02*
X18669000Y-9779000D01*
X14859000Y-11811000D02*
X14478000Y-12065000D01*
X18669000Y-11811000D02*
X14859000Y-11811000D01*
D11*
X12065000Y-6477000D02*
X18669000Y-6477000D01*
X12065000Y-12065000D02*
X14478000Y-12065000D01*
D11*
X14585000Y-7092000D02*
X14625000Y-7132000D01*
X14625000Y-7092000D02*
X14585000Y-7132000D01*
X14712000Y-7219000D02*
X14752000Y-7259000D01*
X14752000Y-7219000D02*
X14712000Y-7259000D01*
X14839000Y-7092000D02*
X14879000Y-7132000D01*
X14879000Y-7092000D02*
X14839000Y-7132000D01*
X14966000Y-7219000D02*
X15006000Y-7259000D01*
X15006000Y-7219000D02*
X14966000Y-7259000D01*
X15093000Y-7092000D02*
X15133000Y-7132000D01*
X15133000Y-7092000D02*
X15093000Y-7132000D01*
X16099110Y-9757230D02*
X16139110Y-9797230D01*
X16139110Y-9757230D02*
X16099110Y-9797230D01*
X16196640Y-9350700D02*
X16236640Y-9390700D01*
X16236640Y-9350700D02*
X16196640Y-9390700D01*
X16363000Y-8616000D02*
X16403000Y-8656000D01*
X16403000Y-8616000D02*
X16363000Y-8656000D01*
X14261500Y-11430000D02*
G75*
G03X14261500Y-11430000I-37500J0D01*
G01*
X14388500Y-11557000D02*
G75*
G03X14388500Y-11557000I-37500J0D01*
G01*
X14515500Y-11430000D02*
G75*
G03X14515500Y-11430000I-37500J0D01*
G01*
X14732000Y-7453000D02*
X14732000Y-7533000D01*
X14692000Y-7493000D02*
X14772000Y-7493000D01*
X15748000Y-7453000D02*
X15748000Y-7533000D01*
X15708000Y-7493000D02*
X15788000Y-7493000D01*
X14224000Y-10882000D02*
X14224000Y-10962000D01*
X14184000Y-10922000D02*
X14264000Y-10922000D01*
X15240000Y-10882000D02*
X15240000Y-10962000D01*
X15200000Y-10922000D02*
X15280000Y-10922000D01*
X13462000Y-7453000D02*
X13462000Y-7533000D01*
X13422000Y-7493000D02*
X13502000Y-7493000D01*
X14478000Y-7453000D02*
X14478000Y-7533000D01*
X14438000Y-7493000D02*
X14518000Y-7493000D01*
X12827000Y-10882000D02*
X12827000Y-10962000D01*
X12787000Y-10922000D02*
X12867000Y-10922000D01*
X13843000Y-10882000D02*
X13843000Y-10962000D01*
X13803000Y-10922000D02*
X13883000Y-10922000D01*
X16760000Y-8492000D02*
X16760000Y-8572000D01*
X16720000Y-8532000D02*
X16800000Y-8532000D01*
X16760000Y-8692000D02*
X16760000Y-8772000D01*
X16720000Y-8732000D02*
X16800000Y-8732000D01*
X16760000Y-8892000D02*
X16760000Y-8972000D01*
X16720000Y-8932000D02*
X16800000Y-8932000D01*
X16760000Y-9092000D02*
X16760000Y-9172000D01*
X16720000Y-9132000D02*
X16800000Y-9132000D01*
X16760000Y-9292000D02*
X16760000Y-9372000D01*
X16720000Y-9332000D02*
X16800000Y-9332000D01*
X16760000Y-9492000D02*
X16760000Y-9572000D01*
X16720000Y-9532000D02*
X16800000Y-9532000D01*
X16760000Y-9692000D02*
X16760000Y-9772000D01*
X16720000Y-9732000D02*
X16800000Y-9732000D01*
X16760000Y-9892000D02*
X16760000Y-9972000D01*
X16720000Y-9932000D02*
X16800000Y-9932000D01*
X13589000Y-11390000D02*
X13589000Y-11470000D01*
X13549000Y-11430000D02*
X13629000Y-11430000D01*
X13839000Y-11390000D02*
X13839000Y-11470000D01*
X13799000Y-11430000D02*
X13879000Y-11430000D01*
X12573000Y-7326000D02*
X12573000Y-7406000D01*
X12533000Y-7366000D02*
X12613000Y-7366000D01*
X12823000Y-7326000D02*
X12823000Y-7406000D01*
X12783000Y-7366000D02*
X12863000Y-7366000D01*
X12573000Y-7580000D02*
X12573000Y-7660000D01*
X12533000Y-7620000D02*
X12613000Y-7620000D01*
X12823000Y-7580000D02*
X12823000Y-7660000D01*
X12783000Y-7620000D02*
X12863000Y-7620000D01*
X12608356Y-6893356D02*
X12608356Y-6822644D01*
X12537644Y-6822644D01*
X12537644Y-6893356D01*
X12608356Y-6893356D01*
X12862356Y-6893356D02*
X12862356Y-6822644D01*
X12791644Y-6822644D01*
X12791644Y-6893356D01*
X12862356Y-6893356D01*
X13116356Y-6893356D02*
X13116356Y-6822644D01*
X13045644Y-6822644D01*
X13045644Y-6893356D01*
X13116356Y-6893356D01*
X13370356Y-6893356D02*
X13370356Y-6822644D01*
X13299644Y-6822644D01*
X13299644Y-6893356D01*
X13370356Y-6893356D01*
X12481356Y-10957356D02*
X12481356Y-10886644D01*
X12410644Y-10886644D01*
X12410644Y-10957356D01*
X12481356Y-10957356D01*
X12481356Y-11211356D02*
X12481356Y-11140644D01*
X12410644Y-11140644D01*
X12410644Y-11211356D01*
X12481356Y-11211356D01*
X12481356Y-11465356D02*
X12481356Y-11394644D01*
X12410644Y-11394644D01*
X12410644Y-11465356D01*
X12481356Y-11465356D01*
X12481356Y-11719356D02*
X12481356Y-11648644D01*
X12410644Y-11648644D01*
X12410644Y-11719356D01*
X12481356Y-11719356D01*
X12608356Y-8036356D02*
X12608356Y-7965644D01*
X12537644Y-7965644D01*
X12537644Y-8036356D01*
X12608356Y-8036356D01*
X12862356Y-8036356D02*
X12862356Y-7965644D01*
X12791644Y-7965644D01*
X12791644Y-8036356D01*
X12862356Y-8036356D01*
X15783356Y-11465356D02*
X15783356Y-11394644D01*
X15712644Y-11394644D01*
X15712644Y-11465356D01*
X15783356Y-11465356D01*
X16037356Y-11465356D02*
X16037356Y-11394644D01*
X15966644Y-11394644D01*
X15966644Y-11465356D01*
X16037356Y-11465356D01*
X16291356Y-11465356D02*
X16291356Y-11394644D01*
X16220644Y-11394644D01*
X16220644Y-11465356D01*
X16291356Y-11465356D01*
X16545356Y-11465356D02*
X16545356Y-11394644D01*
X16474644Y-11394644D01*
X16474644Y-11465356D01*
X16545356Y-11465356D01*
X16799356Y-11465356D02*
X16799356Y-11394644D01*
X16728644Y-11394644D01*
X16728644Y-11465356D01*
X16799356Y-11465356D01*
X17053356Y-11465356D02*
X17053356Y-11394644D01*
X16982644Y-11394644D01*
X16982644Y-11465356D01*
X17053356Y-11465356D01*
X17307356Y-11465356D02*
X17307356Y-11394644D01*
X17236644Y-11394644D01*
X17236644Y-11465356D01*
X17307356Y-11465356D01*
X17561356Y-11465356D02*
X17561356Y-11394644D01*
X17490644Y-11394644D01*
X17490644Y-11465356D01*
X17561356Y-11465356D01*
X17815356Y-11465356D02*
X17815356Y-11394644D01*
X17744644Y-11394644D01*
X17744644Y-11465356D01*
X17815356Y-11465356D01*
X18069356Y-11465356D02*
X18069356Y-11394644D01*
X17998644Y-11394644D01*
X17998644Y-11465356D01*
X18069356Y-11465356D01*
X18323356Y-11465356D02*
X18323356Y-11394644D01*
X18252644Y-11394644D01*
X18252644Y-11465356D01*
X18323356Y-11465356D01*
X16672356Y-6893356D02*
X16672356Y-6822644D01*
X16601644Y-6822644D01*
X16601644Y-6893356D01*
X16672356Y-6893356D01*
X16926356Y-6893356D02*
X16926356Y-6822644D01*
X16855644Y-6822644D01*
X16855644Y-6893356D01*
X16926356Y-6893356D01*
X17180356Y-6893356D02*
X17180356Y-6822644D01*
X17109644Y-6822644D01*
X17109644Y-6893356D01*
X17180356Y-6893356D01*
X17434356Y-6893356D02*
X17434356Y-6822644D01*
X17363644Y-6822644D01*
X17363644Y-6893356D01*
X17434356Y-6893356D01*
X16672356Y-7528356D02*
X16672356Y-7457644D01*
X16601644Y-7457644D01*
X16601644Y-7528356D01*
X16672356Y-7528356D01*
X16926356Y-7528356D02*
X16926356Y-7457644D01*
X16855644Y-7457644D01*
X16855644Y-7528356D01*
X16926356Y-7528356D01*
X15148356Y-8036356D02*
X15148356Y-7965644D01*
X15077644Y-7965644D01*
X15077644Y-8036356D01*
X15148356Y-8036356D01*
X15402356Y-8036356D02*
X15402356Y-7965644D01*
X15331644Y-7965644D01*
X15331644Y-8036356D01*
X15402356Y-8036356D01*
X12481356Y-8798356D02*
X12481356Y-8727644D01*
X12410644Y-8727644D01*
X12410644Y-8798356D01*
X12481356Y-8798356D01*
X12481356Y-10322356D02*
X12481356Y-10251644D01*
X12410644Y-10251644D01*
X12410644Y-10322356D01*
X12481356Y-10322356D01*
X12735356Y-8798356D02*
X12735356Y-8727644D01*
X12664644Y-8727644D01*
X12664644Y-8798356D01*
X12735356Y-8798356D01*
X12735356Y-10322356D02*
X12735356Y-10251644D01*
X12664644Y-10251644D01*
X12664644Y-10322356D01*
X12735356Y-10322356D01*
X12989356Y-8798356D02*
X12989356Y-8727644D01*
X12918644Y-8727644D01*
X12918644Y-8798356D01*
X12989356Y-8798356D01*
X12989356Y-10322356D02*
X12989356Y-10251644D01*
X12918644Y-10251644D01*
X12918644Y-10322356D01*
X12989356Y-10322356D01*
X13243356Y-8798356D02*
X13243356Y-8727644D01*
X13172644Y-8727644D01*
X13172644Y-8798356D01*
X13243356Y-8798356D01*
X13243356Y-10322356D02*
X13243356Y-10251644D01*
X13172644Y-10251644D01*
X13172644Y-10322356D01*
X13243356Y-10322356D01*
X13370356Y-9052356D02*
X13370356Y-8981644D01*
X13299644Y-8981644D01*
X13299644Y-9052356D01*
X13370356Y-9052356D01*
X13497356Y-8798356D02*
X13497356Y-8727644D01*
X13426644Y-8727644D01*
X13426644Y-8798356D01*
X13497356Y-8798356D01*
X13497356Y-10322356D02*
X13497356Y-10251644D01*
X13426644Y-10251644D01*
X13426644Y-10322356D01*
X13497356Y-10322356D01*
X13624356Y-9052356D02*
X13624356Y-8981644D01*
X13553644Y-8981644D01*
X13553644Y-9052356D01*
X13624356Y-9052356D01*
X13751356Y-8798356D02*
X13751356Y-8727644D01*
X13680644Y-8727644D01*
X13680644Y-8798356D01*
X13751356Y-8798356D01*
X13751356Y-10322356D02*
X13751356Y-10251644D01*
X13680644Y-10251644D01*
X13680644Y-10322356D01*
X13751356Y-10322356D01*
X14005356Y-8798356D02*
X14005356Y-8727644D01*
X13934644Y-8727644D01*
X13934644Y-8798356D01*
X14005356Y-8798356D01*
X14005356Y-10322356D02*
X14005356Y-10251644D01*
X13934644Y-10251644D01*
X13934644Y-10322356D01*
X14005356Y-10322356D01*
X14259356Y-8798356D02*
X14259356Y-8727644D01*
X14188644Y-8727644D01*
X14188644Y-8798356D01*
X14259356Y-8798356D01*
X14259356Y-10322356D02*
X14259356Y-10251644D01*
X14188644Y-10251644D01*
X14188644Y-10322356D01*
X14259356Y-10322356D01*
X14386356Y-9052356D02*
X14386356Y-8981644D01*
X14315644Y-8981644D01*
X14315644Y-9052356D01*
X14386356Y-9052356D01*
X14513356Y-8798356D02*
X14513356Y-8727644D01*
X14442644Y-8727644D01*
X14442644Y-8798356D01*
X14513356Y-8798356D01*
X14513356Y-10322356D02*
X14513356Y-10251644D01*
X14442644Y-10251644D01*
X14442644Y-10322356D01*
X14513356Y-10322356D01*
X14640356Y-9052356D02*
X14640356Y-8981644D01*
X14569644Y-8981644D01*
X14569644Y-9052356D01*
X14640356Y-9052356D01*
X14767356Y-8798356D02*
X14767356Y-8727644D01*
X14696644Y-8727644D01*
X14696644Y-8798356D01*
X14767356Y-8798356D01*
X14767356Y-10322356D02*
X14767356Y-10251644D01*
X14696644Y-10251644D01*
X14696644Y-10322356D01*
X14767356Y-10322356D01*
X15021356Y-8798356D02*
X15021356Y-8727644D01*
X14950644Y-8727644D01*
X14950644Y-8798356D01*
X15021356Y-8798356D01*
X15021356Y-10322356D02*
X15021356Y-10251644D01*
X14950644Y-10251644D01*
X14950644Y-10322356D01*
X15021356Y-10322356D01*
X15275356Y-8798356D02*
X15275356Y-8727644D01*
X15204644Y-8727644D01*
X15204644Y-8798356D01*
X15275356Y-8798356D01*
X15275356Y-9052356D02*
X15275356Y-8981644D01*
X15204644Y-8981644D01*
X15204644Y-9052356D01*
X15275356Y-9052356D01*
X15275356Y-9306356D02*
X15275356Y-9235644D01*
X15204644Y-9235644D01*
X15204644Y-9306356D01*
X15275356Y-9306356D01*
X15275356Y-10322356D02*
X15275356Y-10251644D01*
X15204644Y-10251644D01*
X15204644Y-10322356D01*
X15275356Y-10322356D01*
X14640356Y-6893356D02*
X14640356Y-6822644D01*
X14569644Y-6822644D01*
X14569644Y-6893356D01*
X14640356Y-6893356D01*
X14894356Y-6893356D02*
X14894356Y-6822644D01*
X14823644Y-6822644D01*
X14823644Y-6893356D01*
X14894356Y-6893356D01*
X15148356Y-6893356D02*
X15148356Y-6822644D01*
X15077644Y-6822644D01*
X15077644Y-6893356D01*
X15148356Y-6893356D01*
X15402356Y-6893356D02*
X15402356Y-6822644D01*
X15331644Y-6822644D01*
X15331644Y-6893356D01*
X15402356Y-6893356D01*
X13878356Y-8036356D02*
X13878356Y-7965644D01*
X13807644Y-7965644D01*
X13807644Y-8036356D01*
X13878356Y-8036356D01*
X14132356Y-8036356D02*
X14132356Y-7965644D01*
X14061644Y-7965644D01*
X14061644Y-8036356D01*
X14132356Y-8036356D01*
X16037356Y-8798356D02*
X16037356Y-8727644D01*
X15966644Y-8727644D01*
X15966644Y-8798356D01*
X16037356Y-8798356D01*
X16037356Y-9052356D02*
X16037356Y-8981644D01*
X15966644Y-8981644D01*
X15966644Y-9052356D01*
X16037356Y-9052356D01*
X16037356Y-9306356D02*
X16037356Y-9235644D01*
X15966644Y-9235644D01*
X15966644Y-9306356D01*
X16037356Y-9306356D01*
X16037356Y-9560356D02*
X16037356Y-9489644D01*
X15966644Y-9489644D01*
X15966644Y-9560356D01*
X16037356Y-9560356D01*
X17638000Y-10527000D02*
X17693000Y-10472000D01*
X17638000Y-10417000D01*
X17583000Y-10472000D01*
X17638000Y-10527000D01*
X17638000Y-10977000D02*
X17693000Y-10922000D01*
X17638000Y-10867000D01*
X17583000Y-10922000D01*
X17638000Y-10977000D01*
X18288000Y-10527000D02*
X18343000Y-10472000D01*
X18288000Y-10417000D01*
X18233000Y-10472000D01*
X18288000Y-10527000D01*
X18288000Y-10977000D02*
X18343000Y-10922000D01*
X18288000Y-10867000D01*
X18233000Y-10922000D01*
X18288000Y-10977000D01*
D12*
X12341428Y-12540714D02*
X12341428Y-12240714D01*
X12412857Y-12240714D01*
X12455714Y-12255000D01*
X12484286Y-12283571D01*
X12498571Y-12312143D01*
X12512857Y-12369286D01*
X12512857Y-12412143D01*
X12498571Y-12469286D01*
X12484286Y-12497857D01*
X12455714Y-12526429D01*
X12412857Y-12540714D01*
X12341428Y-12540714D01*
X12641428Y-12540714D02*
X12641428Y-12340714D01*
X12641428Y-12397857D02*
X12655714Y-12369286D01*
X12670000Y-12355000D01*
X12698571Y-12340714D01*
X12727143Y-12340714D01*
X12827143Y-12540714D02*
X12827143Y-12340714D01*
X12827143Y-12240714D02*
X12812857Y-12255000D01*
X12827143Y-12269286D01*
X12841428Y-12255000D01*
X12827143Y-12240714D01*
X12827143Y-12269286D01*
X13012857Y-12540714D02*
X12984286Y-12526429D01*
X12970000Y-12497857D01*
X12970000Y-12240714D01*
X13170000Y-12540714D02*
X13141428Y-12526429D01*
X13127143Y-12497857D01*
X13127143Y-12240714D01*
X13512857Y-12540714D02*
X13512857Y-12240714D01*
X13612857Y-12455000D01*
X13712857Y-12240714D01*
X13712857Y-12540714D01*
X13984286Y-12540714D02*
X13984286Y-12383571D01*
X13970000Y-12355000D01*
X13941428Y-12340714D01*
X13884286Y-12340714D01*
X13855714Y-12355000D01*
X13984286Y-12526429D02*
X13955714Y-12540714D01*
X13884286Y-12540714D01*
X13855714Y-12526429D01*
X13841428Y-12497857D01*
X13841428Y-12469286D01*
X13855714Y-12440714D01*
X13884286Y-12426429D01*
X13955714Y-12426429D01*
X13984286Y-12412143D01*
X14127143Y-12340714D02*
X14127143Y-12640714D01*
X14127143Y-12355000D02*
X14155714Y-12340714D01*
X14212857Y-12340714D01*
X14241428Y-12355000D01*
X14255714Y-12369286D01*
X14270000Y-12397857D01*
X14270000Y-12483571D01*
X14255714Y-12512143D01*
X14241428Y-12526429D01*
X14212857Y-12540714D01*
X14155714Y-12540714D01*
X14127143Y-12526429D01*
X14398571Y-12512143D02*
X14412857Y-12526429D01*
X14398571Y-12540714D01*
X14384286Y-12526429D01*
X14398571Y-12512143D01*
X14398571Y-12540714D01*
X14398571Y-12355000D02*
X14412857Y-12369286D01*
X14398571Y-12383571D01*
X14384286Y-12369286D01*
X14398571Y-12355000D01*
X14398571Y-12383571D01*
X12015000Y-13015000D02*
X12055000Y-13055000D01*
X12055000Y-13015000D02*
X12015000Y-13055000D01*
X12398571Y-12870714D02*
X12427143Y-12870714D01*
X12455714Y-12885000D01*
X12470000Y-12899286D01*
X12484286Y-12927857D01*
X12498571Y-12985000D01*
X12498571Y-13056429D01*
X12484286Y-13113571D01*
X12470000Y-13142143D01*
X12455714Y-13156429D01*
X12427143Y-13170714D01*
X12398571Y-13170714D01*
X12370000Y-13156429D01*
X12355714Y-13142143D01*
X12341428Y-13113571D01*
X12327143Y-13056429D01*
X12327143Y-12985000D01*
X12341428Y-12927857D01*
X12355714Y-12899286D01*
X12370000Y-12885000D01*
X12398571Y-12870714D01*
X12627143Y-13142143D02*
X12641428Y-13156429D01*
X12627143Y-13170714D01*
X12612857Y-13156429D01*
X12627143Y-13142143D01*
X12627143Y-13170714D01*
X12898571Y-12970714D02*
X12898571Y-13170714D01*
X12827143Y-12856429D02*
X12755714Y-13070714D01*
X12941428Y-13070714D01*
X13112857Y-12870714D02*
X13141428Y-12870714D01*
X13170000Y-12885000D01*
X13184286Y-12899286D01*
X13198571Y-12927857D01*
X13212857Y-12985000D01*
X13212857Y-13056429D01*
X13198571Y-13113571D01*
X13184286Y-13142143D01*
X13170000Y-13156429D01*
X13141428Y-13170714D01*
X13112857Y-13170714D01*
X13084286Y-13156429D01*
X13070000Y-13142143D01*
X13055714Y-13113571D01*
X13041428Y-13056429D01*
X13041428Y-12985000D01*
X13055714Y-12927857D01*
X13070000Y-12899286D01*
X13084286Y-12885000D01*
X13112857Y-12870714D01*
X13341428Y-13170714D02*
X13341428Y-12970714D01*
X13341428Y-12999286D02*
X13355714Y-12985000D01*
X13384286Y-12970714D01*
X13427143Y-12970714D01*
X13455714Y-12985000D01*
X13470000Y-13013571D01*
X13470000Y-13170714D01*
X13470000Y-13013571D02*
X13484286Y-12985000D01*
X13512857Y-12970714D01*
X13555714Y-12970714D01*
X13584286Y-12985000D01*
X13598571Y-13013571D01*
X13598571Y-13170714D01*
X13741428Y-13170714D02*
X13741428Y-12970714D01*
X13741428Y-12999286D02*
X13755714Y-12985000D01*
X13784286Y-12970714D01*
X13827143Y-12970714D01*
X13855714Y-12985000D01*
X13870000Y-13013571D01*
X13870000Y-13170714D01*
X13870000Y-13013571D02*
X13884286Y-12985000D01*
X13912857Y-12970714D01*
X13955714Y-12970714D01*
X13984286Y-12985000D01*
X13998571Y-13013571D01*
X13998571Y-13170714D01*
X14584286Y-12856429D02*
X14327143Y-13242143D01*
X14970000Y-12870714D02*
X14998571Y-12870714D01*
X15027143Y-12885000D01*
X15041428Y-12899286D01*
X15055714Y-12927857D01*
X15070000Y-12985000D01*
X15070000Y-13056429D01*
X15055714Y-13113571D01*
X15041428Y-13142143D01*
X15027143Y-13156429D01*
X14998571Y-13170714D01*
X14970000Y-13170714D01*
X14941428Y-13156429D01*
X14927143Y-13142143D01*
X14912857Y-13113571D01*
X14898571Y-13056429D01*
X14898571Y-12985000D01*
X14912857Y-12927857D01*
X14927143Y-12899286D01*
X14941428Y-12885000D01*
X14970000Y-12870714D01*
X15198571Y-13142143D02*
X15212857Y-13156429D01*
X15198571Y-13170714D01*
X15184286Y-13156429D01*
X15198571Y-13142143D01*
X15198571Y-13170714D01*
X15398571Y-12870714D02*
X15427143Y-12870714D01*
X15455714Y-12885000D01*
X15470000Y-12899286D01*
X15484286Y-12927857D01*
X15498571Y-12985000D01*
X15498571Y-13056429D01*
X15484286Y-13113571D01*
X15470000Y-13142143D01*
X15455714Y-13156429D01*
X15427143Y-13170714D01*
X15398571Y-13170714D01*
X15370000Y-13156429D01*
X15355714Y-13142143D01*
X15341428Y-13113571D01*
X15327143Y-13056429D01*
X15327143Y-12985000D01*
X15341428Y-12927857D01*
X15355714Y-12899286D01*
X15370000Y-12885000D01*
X15398571Y-12870714D01*
X15784286Y-13170714D02*
X15612857Y-13170714D01*
X15698571Y-13170714D02*
X15698571Y-12870714D01*
X15670000Y-12913571D01*
X15641428Y-12942143D01*
X15612857Y-12956429D01*
X16041428Y-12870714D02*
X15984286Y-12870714D01*
X15955714Y-12885000D01*
X15941428Y-12899286D01*
X15912857Y-12942143D01*
X15898571Y-12999286D01*
X15898571Y-13113571D01*
X15912857Y-13142143D01*
X15927143Y-13156429D01*
X15955714Y-13170714D01*
X16012857Y-13170714D01*
X16041428Y-13156429D01*
X16055714Y-13142143D01*
X16070000Y-13113571D01*
X16070000Y-13042143D01*
X16055714Y-13013571D01*
X16041428Y-12999286D01*
X16012857Y-12985000D01*
X15955714Y-12985000D01*
X15927143Y-12999286D01*
X15912857Y-13013571D01*
X15898571Y-13042143D01*
X16184286Y-12870714D02*
X16184286Y-12927857D01*
X16298571Y-12870714D02*
X16298571Y-12927857D01*
X16741428Y-13285000D02*
X16727143Y-13270714D01*
X16698571Y-13227857D01*
X16684286Y-13199286D01*
X16670000Y-13156429D01*
X16655714Y-13085000D01*
X16655714Y-13027857D01*
X16670000Y-12956429D01*
X16684286Y-12913571D01*
X16698571Y-12885000D01*
X16727143Y-12842143D01*
X16741428Y-12827857D01*
X16898571Y-12999286D02*
X16870000Y-12985000D01*
X16855714Y-12970714D01*
X16841428Y-12942143D01*
X16841428Y-12927857D01*
X16855714Y-12899286D01*
X16870000Y-12885000D01*
X16898571Y-12870714D01*
X16955714Y-12870714D01*
X16984286Y-12885000D01*
X16998571Y-12899286D01*
X17012857Y-12927857D01*
X17012857Y-12942143D01*
X16998571Y-12970714D01*
X16984286Y-12985000D01*
X16955714Y-12999286D01*
X16898571Y-12999286D01*
X16870000Y-13013571D01*
X16855714Y-13027857D01*
X16841428Y-13056429D01*
X16841428Y-13113571D01*
X16855714Y-13142143D01*
X16870000Y-13156429D01*
X16898571Y-13170714D01*
X16955714Y-13170714D01*
X16984286Y-13156429D01*
X16998571Y-13142143D01*
X17012857Y-13113571D01*
X17012857Y-13056429D01*
X16998571Y-13027857D01*
X16984286Y-13013571D01*
X16955714Y-12999286D01*
X17370000Y-13170714D02*
X17370000Y-12870714D01*
X17498571Y-13170714D02*
X17498571Y-13013571D01*
X17484286Y-12985000D01*
X17455714Y-12970714D01*
X17412857Y-12970714D01*
X17384286Y-12985000D01*
X17370000Y-12999286D01*
X17684286Y-13170714D02*
X17655714Y-13156429D01*
X17641428Y-13142143D01*
X17627143Y-13113571D01*
X17627143Y-13027857D01*
X17641428Y-12999286D01*
X17655714Y-12985000D01*
X17684286Y-12970714D01*
X17727143Y-12970714D01*
X17755714Y-12985000D01*
X17770000Y-12999286D01*
X17784286Y-13027857D01*
X17784286Y-13113571D01*
X17770000Y-13142143D01*
X17755714Y-13156429D01*
X17727143Y-13170714D01*
X17684286Y-13170714D01*
X17955714Y-13170714D02*
X17927143Y-13156429D01*
X17912857Y-13127857D01*
X17912857Y-12870714D01*
X18184286Y-13156429D02*
X18155714Y-13170714D01*
X18098571Y-13170714D01*
X18070000Y-13156429D01*
X18055714Y-13127857D01*
X18055714Y-13013571D01*
X18070000Y-12985000D01*
X18098571Y-12970714D01*
X18155714Y-12970714D01*
X18184286Y-12985000D01*
X18198571Y-13013571D01*
X18198571Y-13042143D01*
X18055714Y-13070714D01*
X18312857Y-13156429D02*
X18341428Y-13170714D01*
X18398571Y-13170714D01*
X18427143Y-13156429D01*
X18441428Y-13127857D01*
X18441428Y-13113571D01*
X18427143Y-13085000D01*
X18398571Y-13070714D01*
X18355714Y-13070714D01*
X18327143Y-13056429D01*
X18312857Y-13027857D01*
X18312857Y-13013571D01*
X18327143Y-12985000D01*
X18355714Y-12970714D01*
X18398571Y-12970714D01*
X18427143Y-12985000D01*
X18541428Y-13285000D02*
X18555714Y-13270714D01*
X18584286Y-13227857D01*
X18598571Y-13199286D01*
X18612857Y-13156429D01*
X18627143Y-13085000D01*
X18627143Y-13027857D01*
X18612857Y-12956429D01*
X18598571Y-12913571D01*
X18584286Y-12885000D01*
X18555714Y-12842143D01*
X18541428Y-12827857D01*
X12055000Y-13431000D02*
G75*
G03X12055000Y-13431000I-37500J0D01*
G01*
X12398571Y-13266714D02*
X12427143Y-13266714D01*
X12455714Y-13281000D01*
X12470000Y-13295286D01*
X12484286Y-13323857D01*
X12498571Y-13381000D01*
X12498571Y-13452429D01*
X12484286Y-13509571D01*
X12470000Y-13538143D01*
X12455714Y-13552429D01*
X12427143Y-13566714D01*
X12398571Y-13566714D01*
X12370000Y-13552429D01*
X12355714Y-13538143D01*
X12341428Y-13509571D01*
X12327143Y-13452429D01*
X12327143Y-13381000D01*
X12341428Y-13323857D01*
X12355714Y-13295286D01*
X12370000Y-13281000D01*
X12398571Y-13266714D01*
X12627143Y-13538143D02*
X12641428Y-13552429D01*
X12627143Y-13566714D01*
X12612857Y-13552429D01*
X12627143Y-13538143D01*
X12627143Y-13566714D01*
X12741428Y-13266714D02*
X12941428Y-13266714D01*
X12812857Y-13566714D01*
X13198571Y-13266714D02*
X13055714Y-13266714D01*
X13041428Y-13409571D01*
X13055714Y-13395286D01*
X13084286Y-13381000D01*
X13155714Y-13381000D01*
X13184286Y-13395286D01*
X13198571Y-13409571D01*
X13212857Y-13438143D01*
X13212857Y-13509571D01*
X13198571Y-13538143D01*
X13184286Y-13552429D01*
X13155714Y-13566714D01*
X13084286Y-13566714D01*
X13055714Y-13552429D01*
X13041428Y-13538143D01*
X13341428Y-13566714D02*
X13341428Y-13366714D01*
X13341428Y-13395286D02*
X13355714Y-13381000D01*
X13384286Y-13366714D01*
X13427143Y-13366714D01*
X13455714Y-13381000D01*
X13470000Y-13409571D01*
X13470000Y-13566714D01*
X13470000Y-13409571D02*
X13484286Y-13381000D01*
X13512857Y-13366714D01*
X13555714Y-13366714D01*
X13584286Y-13381000D01*
X13598571Y-13409571D01*
X13598571Y-13566714D01*
X13741428Y-13566714D02*
X13741428Y-13366714D01*
X13741428Y-13395286D02*
X13755714Y-13381000D01*
X13784286Y-13366714D01*
X13827143Y-13366714D01*
X13855714Y-13381000D01*
X13870000Y-13409571D01*
X13870000Y-13566714D01*
X13870000Y-13409571D02*
X13884286Y-13381000D01*
X13912857Y-13366714D01*
X13955714Y-13366714D01*
X13984286Y-13381000D01*
X13998571Y-13409571D01*
X13998571Y-13566714D01*
X14584286Y-13252429D02*
X14327143Y-13638143D01*
X14970000Y-13266714D02*
X14998571Y-13266714D01*
X15027143Y-13281000D01*
X15041428Y-13295286D01*
X15055714Y-13323857D01*
X15070000Y-13381000D01*
X15070000Y-13452429D01*
X15055714Y-13509571D01*
X15041428Y-13538143D01*
X15027143Y-13552429D01*
X14998571Y-13566714D01*
X14970000Y-13566714D01*
X14941428Y-13552429D01*
X14927143Y-13538143D01*
X14912857Y-13509571D01*
X14898571Y-13452429D01*
X14898571Y-13381000D01*
X14912857Y-13323857D01*
X14927143Y-13295286D01*
X14941428Y-13281000D01*
X14970000Y-13266714D01*
X15198571Y-13538143D02*
X15212857Y-13552429D01*
X15198571Y-13566714D01*
X15184286Y-13552429D01*
X15198571Y-13538143D01*
X15198571Y-13566714D01*
X15398571Y-13266714D02*
X15427143Y-13266714D01*
X15455714Y-13281000D01*
X15470000Y-13295286D01*
X15484286Y-13323857D01*
X15498571Y-13381000D01*
X15498571Y-13452429D01*
X15484286Y-13509571D01*
X15470000Y-13538143D01*
X15455714Y-13552429D01*
X15427143Y-13566714D01*
X15398571Y-13566714D01*
X15370000Y-13552429D01*
X15355714Y-13538143D01*
X15341428Y-13509571D01*
X15327143Y-13452429D01*
X15327143Y-13381000D01*
X15341428Y-13323857D01*
X15355714Y-13295286D01*
X15370000Y-13281000D01*
X15398571Y-13266714D01*
X15598571Y-13266714D02*
X15784286Y-13266714D01*
X15684286Y-13381000D01*
X15727143Y-13381000D01*
X15755714Y-13395286D01*
X15770000Y-13409571D01*
X15784286Y-13438143D01*
X15784286Y-13509571D01*
X15770000Y-13538143D01*
X15755714Y-13552429D01*
X15727143Y-13566714D01*
X15641428Y-13566714D01*
X15612857Y-13552429D01*
X15598571Y-13538143D01*
X15970000Y-13266714D02*
X15998571Y-13266714D01*
X16027143Y-13281000D01*
X16041428Y-13295286D01*
X16055714Y-13323857D01*
X16070000Y-13381000D01*
X16070000Y-13452429D01*
X16055714Y-13509571D01*
X16041428Y-13538143D01*
X16027143Y-13552429D01*
X15998571Y-13566714D01*
X15970000Y-13566714D01*
X15941428Y-13552429D01*
X15927143Y-13538143D01*
X15912857Y-13509571D01*
X15898571Y-13452429D01*
X15898571Y-13381000D01*
X15912857Y-13323857D01*
X15927143Y-13295286D01*
X15941428Y-13281000D01*
X15970000Y-13266714D01*
X16184286Y-13266714D02*
X16184286Y-13323857D01*
X16298571Y-13266714D02*
X16298571Y-13323857D01*
X16741428Y-13681000D02*
X16727143Y-13666714D01*
X16698571Y-13623857D01*
X16684286Y-13595286D01*
X16670000Y-13552429D01*
X16655714Y-13481000D01*
X16655714Y-13423857D01*
X16670000Y-13352429D01*
X16684286Y-13309571D01*
X16698571Y-13281000D01*
X16727143Y-13238143D01*
X16741428Y-13223857D01*
X16827143Y-13266714D02*
X17012857Y-13266714D01*
X16912857Y-13381000D01*
X16955714Y-13381000D01*
X16984286Y-13395286D01*
X16998571Y-13409571D01*
X17012857Y-13438143D01*
X17012857Y-13509571D01*
X16998571Y-13538143D01*
X16984286Y-13552429D01*
X16955714Y-13566714D01*
X16870000Y-13566714D01*
X16841428Y-13552429D01*
X16827143Y-13538143D01*
X17370000Y-13566714D02*
X17370000Y-13266714D01*
X17498571Y-13566714D02*
X17498571Y-13409571D01*
X17484286Y-13381000D01*
X17455714Y-13366714D01*
X17412857Y-13366714D01*
X17384286Y-13381000D01*
X17370000Y-13395286D01*
X17684286Y-13566714D02*
X17655714Y-13552429D01*
X17641428Y-13538143D01*
X17627143Y-13509571D01*
X17627143Y-13423857D01*
X17641428Y-13395286D01*
X17655714Y-13381000D01*
X17684286Y-13366714D01*
X17727143Y-13366714D01*
X17755714Y-13381000D01*
X17770000Y-13395286D01*
X17784286Y-13423857D01*
X17784286Y-13509571D01*
X17770000Y-13538143D01*
X17755714Y-13552429D01*
X17727143Y-13566714D01*
X17684286Y-13566714D01*
X17955714Y-13566714D02*
X17927143Y-13552429D01*
X17912857Y-13523857D01*
X17912857Y-13266714D01*
X18184286Y-13552429D02*
X18155714Y-13566714D01*
X18098571Y-13566714D01*
X18070000Y-13552429D01*
X18055714Y-13523857D01*
X18055714Y-13409571D01*
X18070000Y-13381000D01*
X18098571Y-13366714D01*
X18155714Y-13366714D01*
X18184286Y-13381000D01*
X18198571Y-13409571D01*
X18198571Y-13438143D01*
X18055714Y-13466714D01*
X18312857Y-13552429D02*
X18341428Y-13566714D01*
X18398571Y-13566714D01*
X18427143Y-13552429D01*
X18441428Y-13523857D01*
X18441428Y-13509571D01*
X18427143Y-13481000D01*
X18398571Y-13466714D01*
X18355714Y-13466714D01*
X18327143Y-13452429D01*
X18312857Y-13423857D01*
X18312857Y-13409571D01*
X18327143Y-13381000D01*
X18355714Y-13366714D01*
X18398571Y-13366714D01*
X18427143Y-13381000D01*
X18541428Y-13681000D02*
X18555714Y-13666714D01*
X18584286Y-13623857D01*
X18598571Y-13595286D01*
X18612857Y-13552429D01*
X18627143Y-13481000D01*
X18627143Y-13423857D01*
X18612857Y-13352429D01*
X18598571Y-13309571D01*
X18584286Y-13281000D01*
X18555714Y-13238143D01*
X18541428Y-13223857D01*
X12015000Y-13787000D02*
X12015000Y-13867000D01*
X11975000Y-13827000D02*
X12055000Y-13827000D01*
X12398571Y-13662714D02*
X12427143Y-13662714D01*
X12455714Y-13677000D01*
X12470000Y-13691286D01*
X12484286Y-13719857D01*
X12498571Y-13777000D01*
X12498571Y-13848429D01*
X12484286Y-13905571D01*
X12470000Y-13934143D01*
X12455714Y-13948429D01*
X12427143Y-13962714D01*
X12398571Y-13962714D01*
X12370000Y-13948429D01*
X12355714Y-13934143D01*
X12341428Y-13905571D01*
X12327143Y-13848429D01*
X12327143Y-13777000D01*
X12341428Y-13719857D01*
X12355714Y-13691286D01*
X12370000Y-13677000D01*
X12398571Y-13662714D01*
X12627143Y-13934143D02*
X12641428Y-13948429D01*
X12627143Y-13962714D01*
X12612857Y-13948429D01*
X12627143Y-13934143D01*
X12627143Y-13962714D01*
X12812857Y-13791286D02*
X12784286Y-13777000D01*
X12770000Y-13762714D01*
X12755714Y-13734143D01*
X12755714Y-13719857D01*
X12770000Y-13691286D01*
X12784286Y-13677000D01*
X12812857Y-13662714D01*
X12870000Y-13662714D01*
X12898571Y-13677000D01*
X12912857Y-13691286D01*
X12927143Y-13719857D01*
X12927143Y-13734143D01*
X12912857Y-13762714D01*
X12898571Y-13777000D01*
X12870000Y-13791286D01*
X12812857Y-13791286D01*
X12784286Y-13805571D01*
X12770000Y-13819857D01*
X12755714Y-13848429D01*
X12755714Y-13905571D01*
X12770000Y-13934143D01*
X12784286Y-13948429D01*
X12812857Y-13962714D01*
X12870000Y-13962714D01*
X12898571Y-13948429D01*
X12912857Y-13934143D01*
X12927143Y-13905571D01*
X12927143Y-13848429D01*
X12912857Y-13819857D01*
X12898571Y-13805571D01*
X12870000Y-13791286D01*
X13112857Y-13662714D02*
X13141428Y-13662714D01*
X13170000Y-13677000D01*
X13184286Y-13691286D01*
X13198571Y-13719857D01*
X13212857Y-13777000D01*
X13212857Y-13848429D01*
X13198571Y-13905571D01*
X13184286Y-13934143D01*
X13170000Y-13948429D01*
X13141428Y-13962714D01*
X13112857Y-13962714D01*
X13084286Y-13948429D01*
X13070000Y-13934143D01*
X13055714Y-13905571D01*
X13041428Y-13848429D01*
X13041428Y-13777000D01*
X13055714Y-13719857D01*
X13070000Y-13691286D01*
X13084286Y-13677000D01*
X13112857Y-13662714D01*
X13341428Y-13962714D02*
X13341428Y-13762714D01*
X13341428Y-13791286D02*
X13355714Y-13777000D01*
X13384286Y-13762714D01*
X13427143Y-13762714D01*
X13455714Y-13777000D01*
X13470000Y-13805571D01*
X13470000Y-13962714D01*
X13470000Y-13805571D02*
X13484286Y-13777000D01*
X13512857Y-13762714D01*
X13555714Y-13762714D01*
X13584286Y-13777000D01*
X13598571Y-13805571D01*
X13598571Y-13962714D01*
X13741428Y-13962714D02*
X13741428Y-13762714D01*
X13741428Y-13791286D02*
X13755714Y-13777000D01*
X13784286Y-13762714D01*
X13827143Y-13762714D01*
X13855714Y-13777000D01*
X13870000Y-13805571D01*
X13870000Y-13962714D01*
X13870000Y-13805571D02*
X13884286Y-13777000D01*
X13912857Y-13762714D01*
X13955714Y-13762714D01*
X13984286Y-13777000D01*
X13998571Y-13805571D01*
X13998571Y-13962714D01*
X14584286Y-13648429D02*
X14327143Y-14034143D01*
X14970000Y-13662714D02*
X14998571Y-13662714D01*
X15027143Y-13677000D01*
X15041428Y-13691286D01*
X15055714Y-13719857D01*
X15070000Y-13777000D01*
X15070000Y-13848429D01*
X15055714Y-13905571D01*
X15041428Y-13934143D01*
X15027143Y-13948429D01*
X14998571Y-13962714D01*
X14970000Y-13962714D01*
X14941428Y-13948429D01*
X14927143Y-13934143D01*
X14912857Y-13905571D01*
X14898571Y-13848429D01*
X14898571Y-13777000D01*
X14912857Y-13719857D01*
X14927143Y-13691286D01*
X14941428Y-13677000D01*
X14970000Y-13662714D01*
X15198571Y-13934143D02*
X15212857Y-13948429D01*
X15198571Y-13962714D01*
X15184286Y-13948429D01*
X15198571Y-13934143D01*
X15198571Y-13962714D01*
X15398571Y-13662714D02*
X15427143Y-13662714D01*
X15455714Y-13677000D01*
X15470000Y-13691286D01*
X15484286Y-13719857D01*
X15498571Y-13777000D01*
X15498571Y-13848429D01*
X15484286Y-13905571D01*
X15470000Y-13934143D01*
X15455714Y-13948429D01*
X15427143Y-13962714D01*
X15398571Y-13962714D01*
X15370000Y-13948429D01*
X15355714Y-13934143D01*
X15341428Y-13905571D01*
X15327143Y-13848429D01*
X15327143Y-13777000D01*
X15341428Y-13719857D01*
X15355714Y-13691286D01*
X15370000Y-13677000D01*
X15398571Y-13662714D01*
X15598571Y-13662714D02*
X15784286Y-13662714D01*
X15684286Y-13777000D01*
X15727143Y-13777000D01*
X15755714Y-13791286D01*
X15770000Y-13805571D01*
X15784286Y-13834143D01*
X15784286Y-13905571D01*
X15770000Y-13934143D01*
X15755714Y-13948429D01*
X15727143Y-13962714D01*
X15641428Y-13962714D01*
X15612857Y-13948429D01*
X15598571Y-13934143D01*
X16070000Y-13962714D02*
X15898571Y-13962714D01*
X15984286Y-13962714D02*
X15984286Y-13662714D01*
X15955714Y-13705571D01*
X15927143Y-13734143D01*
X15898571Y-13748429D01*
X16184286Y-13662714D02*
X16184286Y-13719857D01*
X16298571Y-13662714D02*
X16298571Y-13719857D01*
X16741428Y-14077000D02*
X16727143Y-14062714D01*
X16698571Y-14019857D01*
X16684286Y-13991286D01*
X16670000Y-13948429D01*
X16655714Y-13877000D01*
X16655714Y-13819857D01*
X16670000Y-13748429D01*
X16684286Y-13705571D01*
X16698571Y-13677000D01*
X16727143Y-13634143D01*
X16741428Y-13619857D01*
X16841428Y-13691286D02*
X16855714Y-13677000D01*
X16884286Y-13662714D01*
X16955714Y-13662714D01*
X16984286Y-13677000D01*
X16998571Y-13691286D01*
X17012857Y-13719857D01*
X17012857Y-13748429D01*
X16998571Y-13791286D01*
X16827143Y-13962714D01*
X17012857Y-13962714D01*
X17127143Y-13691286D02*
X17141428Y-13677000D01*
X17170000Y-13662714D01*
X17241428Y-13662714D01*
X17270000Y-13677000D01*
X17284286Y-13691286D01*
X17298571Y-13719857D01*
X17298571Y-13748429D01*
X17284286Y-13791286D01*
X17112857Y-13962714D01*
X17298571Y-13962714D01*
X17655714Y-13962714D02*
X17655714Y-13662714D01*
X17784286Y-13962714D02*
X17784286Y-13805571D01*
X17770000Y-13777000D01*
X17741428Y-13762714D01*
X17698571Y-13762714D01*
X17670000Y-13777000D01*
X17655714Y-13791286D01*
X17970000Y-13962714D02*
X17941428Y-13948429D01*
X17927143Y-13934143D01*
X17912857Y-13905571D01*
X17912857Y-13819857D01*
X17927143Y-13791286D01*
X17941428Y-13777000D01*
X17970000Y-13762714D01*
X18012857Y-13762714D01*
X18041428Y-13777000D01*
X18055714Y-13791286D01*
X18070000Y-13819857D01*
X18070000Y-13905571D01*
X18055714Y-13934143D01*
X18041428Y-13948429D01*
X18012857Y-13962714D01*
X17970000Y-13962714D01*
X18241428Y-13962714D02*
X18212857Y-13948429D01*
X18198571Y-13919857D01*
X18198571Y-13662714D01*
X18470000Y-13948429D02*
X18441428Y-13962714D01*
X18384286Y-13962714D01*
X18355714Y-13948429D01*
X18341428Y-13919857D01*
X18341428Y-13805571D01*
X18355714Y-13777000D01*
X18384286Y-13762714D01*
X18441428Y-13762714D01*
X18470000Y-13777000D01*
X18484286Y-13805571D01*
X18484286Y-13834143D01*
X18341428Y-13862714D01*
X18598571Y-13948429D02*
X18627143Y-13962714D01*
X18684286Y-13962714D01*
X18712857Y-13948429D01*
X18727143Y-13919857D01*
X18727143Y-13905571D01*
X18712857Y-13877000D01*
X18684286Y-13862714D01*
X18641428Y-13862714D01*
X18612857Y-13848429D01*
X18598571Y-13819857D01*
X18598571Y-13805571D01*
X18612857Y-13777000D01*
X18641428Y-13762714D01*
X18684286Y-13762714D01*
X18712857Y-13777000D01*
X18827143Y-14077000D02*
X18841428Y-14062714D01*
X18870000Y-14019857D01*
X18884286Y-13991286D01*
X18898571Y-13948429D01*
X18912857Y-13877000D01*
X18912857Y-13819857D01*
X18898571Y-13748429D01*
X18884286Y-13705571D01*
X18870000Y-13677000D01*
X18841428Y-13634143D01*
X18827143Y-13619857D01*
X12040356Y-14258356D02*
X12040356Y-14187644D01*
X11969644Y-14187644D01*
X11969644Y-14258356D01*
X12040356Y-14258356D01*
X12498571Y-14358714D02*
X12327143Y-14358714D01*
X12412857Y-14358714D02*
X12412857Y-14058714D01*
X12384286Y-14101571D01*
X12355714Y-14130143D01*
X12327143Y-14144429D01*
X12627143Y-14330143D02*
X12641428Y-14344429D01*
X12627143Y-14358714D01*
X12612857Y-14344429D01*
X12627143Y-14330143D01*
X12627143Y-14358714D01*
X12827143Y-14058714D02*
X12855714Y-14058714D01*
X12884286Y-14073000D01*
X12898571Y-14087286D01*
X12912857Y-14115857D01*
X12927143Y-14173000D01*
X12927143Y-14244429D01*
X12912857Y-14301571D01*
X12898571Y-14330143D01*
X12884286Y-14344429D01*
X12855714Y-14358714D01*
X12827143Y-14358714D01*
X12798571Y-14344429D01*
X12784286Y-14330143D01*
X12770000Y-14301571D01*
X12755714Y-14244429D01*
X12755714Y-14173000D01*
X12770000Y-14115857D01*
X12784286Y-14087286D01*
X12798571Y-14073000D01*
X12827143Y-14058714D01*
X13112857Y-14058714D02*
X13141428Y-14058714D01*
X13170000Y-14073000D01*
X13184286Y-14087286D01*
X13198571Y-14115857D01*
X13212857Y-14173000D01*
X13212857Y-14244429D01*
X13198571Y-14301571D01*
X13184286Y-14330143D01*
X13170000Y-14344429D01*
X13141428Y-14358714D01*
X13112857Y-14358714D01*
X13084286Y-14344429D01*
X13070000Y-14330143D01*
X13055714Y-14301571D01*
X13041428Y-14244429D01*
X13041428Y-14173000D01*
X13055714Y-14115857D01*
X13070000Y-14087286D01*
X13084286Y-14073000D01*
X13112857Y-14058714D01*
X13341428Y-14358714D02*
X13341428Y-14158714D01*
X13341428Y-14187286D02*
X13355714Y-14173000D01*
X13384286Y-14158714D01*
X13427143Y-14158714D01*
X13455714Y-14173000D01*
X13470000Y-14201571D01*
X13470000Y-14358714D01*
X13470000Y-14201571D02*
X13484286Y-14173000D01*
X13512857Y-14158714D01*
X13555714Y-14158714D01*
X13584286Y-14173000D01*
X13598571Y-14201571D01*
X13598571Y-14358714D01*
X13741428Y-14358714D02*
X13741428Y-14158714D01*
X13741428Y-14187286D02*
X13755714Y-14173000D01*
X13784286Y-14158714D01*
X13827143Y-14158714D01*
X13855714Y-14173000D01*
X13870000Y-14201571D01*
X13870000Y-14358714D01*
X13870000Y-14201571D02*
X13884286Y-14173000D01*
X13912857Y-14158714D01*
X13955714Y-14158714D01*
X13984286Y-14173000D01*
X13998571Y-14201571D01*
X13998571Y-14358714D01*
X14584286Y-14044429D02*
X14327143Y-14430143D01*
X14970000Y-14058714D02*
X14998571Y-14058714D01*
X15027143Y-14073000D01*
X15041428Y-14087286D01*
X15055714Y-14115857D01*
X15070000Y-14173000D01*
X15070000Y-14244429D01*
X15055714Y-14301571D01*
X15041428Y-14330143D01*
X15027143Y-14344429D01*
X14998571Y-14358714D01*
X14970000Y-14358714D01*
X14941428Y-14344429D01*
X14927143Y-14330143D01*
X14912857Y-14301571D01*
X14898571Y-14244429D01*
X14898571Y-14173000D01*
X14912857Y-14115857D01*
X14927143Y-14087286D01*
X14941428Y-14073000D01*
X14970000Y-14058714D01*
X15198571Y-14330143D02*
X15212857Y-14344429D01*
X15198571Y-14358714D01*
X15184286Y-14344429D01*
X15198571Y-14330143D01*
X15198571Y-14358714D01*
X15398571Y-14058714D02*
X15427143Y-14058714D01*
X15455714Y-14073000D01*
X15470000Y-14087286D01*
X15484286Y-14115857D01*
X15498571Y-14173000D01*
X15498571Y-14244429D01*
X15484286Y-14301571D01*
X15470000Y-14330143D01*
X15455714Y-14344429D01*
X15427143Y-14358714D01*
X15398571Y-14358714D01*
X15370000Y-14344429D01*
X15355714Y-14330143D01*
X15341428Y-14301571D01*
X15327143Y-14244429D01*
X15327143Y-14173000D01*
X15341428Y-14115857D01*
X15355714Y-14087286D01*
X15370000Y-14073000D01*
X15398571Y-14058714D01*
X15598571Y-14058714D02*
X15784286Y-14058714D01*
X15684286Y-14173000D01*
X15727143Y-14173000D01*
X15755714Y-14187286D01*
X15770000Y-14201571D01*
X15784286Y-14230143D01*
X15784286Y-14301571D01*
X15770000Y-14330143D01*
X15755714Y-14344429D01*
X15727143Y-14358714D01*
X15641428Y-14358714D01*
X15612857Y-14344429D01*
X15598571Y-14330143D01*
X15927143Y-14358714D02*
X15984286Y-14358714D01*
X16012857Y-14344429D01*
X16027143Y-14330143D01*
X16055714Y-14287286D01*
X16070000Y-14230143D01*
X16070000Y-14115857D01*
X16055714Y-14087286D01*
X16041428Y-14073000D01*
X16012857Y-14058714D01*
X15955714Y-14058714D01*
X15927143Y-14073000D01*
X15912857Y-14087286D01*
X15898571Y-14115857D01*
X15898571Y-14187286D01*
X15912857Y-14215857D01*
X15927143Y-14230143D01*
X15955714Y-14244429D01*
X16012857Y-14244429D01*
X16041428Y-14230143D01*
X16055714Y-14215857D01*
X16070000Y-14187286D01*
X16184286Y-14058714D02*
X16184286Y-14115857D01*
X16298571Y-14058714D02*
X16298571Y-14115857D01*
X16741428Y-14473000D02*
X16727143Y-14458714D01*
X16698571Y-14415857D01*
X16684286Y-14387286D01*
X16670000Y-14344429D01*
X16655714Y-14273000D01*
X16655714Y-14215857D01*
X16670000Y-14144429D01*
X16684286Y-14101571D01*
X16698571Y-14073000D01*
X16727143Y-14030143D01*
X16741428Y-14015857D01*
X16984286Y-14058714D02*
X16927143Y-14058714D01*
X16898571Y-14073000D01*
X16884286Y-14087286D01*
X16855714Y-14130143D01*
X16841428Y-14187286D01*
X16841428Y-14301571D01*
X16855714Y-14330143D01*
X16870000Y-14344429D01*
X16898571Y-14358714D01*
X16955714Y-14358714D01*
X16984286Y-14344429D01*
X16998571Y-14330143D01*
X17012857Y-14301571D01*
X17012857Y-14230143D01*
X16998571Y-14201571D01*
X16984286Y-14187286D01*
X16955714Y-14173000D01*
X16898571Y-14173000D01*
X16870000Y-14187286D01*
X16855714Y-14201571D01*
X16841428Y-14230143D01*
X17155714Y-14358714D02*
X17212857Y-14358714D01*
X17241428Y-14344429D01*
X17255714Y-14330143D01*
X17284286Y-14287286D01*
X17298571Y-14230143D01*
X17298571Y-14115857D01*
X17284286Y-14087286D01*
X17270000Y-14073000D01*
X17241428Y-14058714D01*
X17184286Y-14058714D01*
X17155714Y-14073000D01*
X17141428Y-14087286D01*
X17127143Y-14115857D01*
X17127143Y-14187286D01*
X17141428Y-14215857D01*
X17155714Y-14230143D01*
X17184286Y-14244429D01*
X17241428Y-14244429D01*
X17270000Y-14230143D01*
X17284286Y-14215857D01*
X17298571Y-14187286D01*
X17655714Y-14358714D02*
X17655714Y-14058714D01*
X17784286Y-14358714D02*
X17784286Y-14201571D01*
X17770000Y-14173000D01*
X17741428Y-14158714D01*
X17698571Y-14158714D01*
X17670000Y-14173000D01*
X17655714Y-14187286D01*
X17970000Y-14358714D02*
X17941428Y-14344429D01*
X17927143Y-14330143D01*
X17912857Y-14301571D01*
X17912857Y-14215857D01*
X17927143Y-14187286D01*
X17941428Y-14173000D01*
X17970000Y-14158714D01*
X18012857Y-14158714D01*
X18041428Y-14173000D01*
X18055714Y-14187286D01*
X18070000Y-14215857D01*
X18070000Y-14301571D01*
X18055714Y-14330143D01*
X18041428Y-14344429D01*
X18012857Y-14358714D01*
X17970000Y-14358714D01*
X18241428Y-14358714D02*
X18212857Y-14344429D01*
X18198571Y-14315857D01*
X18198571Y-14058714D01*
X18470000Y-14344429D02*
X18441428Y-14358714D01*
X18384286Y-14358714D01*
X18355714Y-14344429D01*
X18341428Y-14315857D01*
X18341428Y-14201571D01*
X18355714Y-14173000D01*
X18384286Y-14158714D01*
X18441428Y-14158714D01*
X18470000Y-14173000D01*
X18484286Y-14201571D01*
X18484286Y-14230143D01*
X18341428Y-14258714D01*
X18598571Y-14344429D02*
X18627143Y-14358714D01*
X18684286Y-14358714D01*
X18712857Y-14344429D01*
X18727143Y-14315857D01*
X18727143Y-14301571D01*
X18712857Y-14273000D01*
X18684286Y-14258714D01*
X18641428Y-14258714D01*
X18612857Y-14244429D01*
X18598571Y-14215857D01*
X18598571Y-14201571D01*
X18612857Y-14173000D01*
X18641428Y-14158714D01*
X18684286Y-14158714D01*
X18712857Y-14173000D01*
X18827143Y-14473000D02*
X18841428Y-14458714D01*
X18870000Y-14415857D01*
X18884286Y-14387286D01*
X18898571Y-14344429D01*
X18912857Y-14273000D01*
X18912857Y-14215857D01*
X18898571Y-14144429D01*
X18884286Y-14101571D01*
X18870000Y-14073000D01*
X18841428Y-14030143D01*
X18827143Y-14015857D01*
X12000000Y-14674000D02*
X12055000Y-14619000D01*
X12000000Y-14564000D01*
X11945000Y-14619000D01*
X12000000Y-14674000D01*
X12498571Y-14754714D02*
X12327143Y-14754714D01*
X12412857Y-14754714D02*
X12412857Y-14454714D01*
X12384286Y-14497571D01*
X12355714Y-14526143D01*
X12327143Y-14540429D01*
X12627143Y-14726143D02*
X12641428Y-14740429D01*
X12627143Y-14754714D01*
X12612857Y-14740429D01*
X12627143Y-14726143D01*
X12627143Y-14754714D01*
X12927143Y-14754714D02*
X12755714Y-14754714D01*
X12841428Y-14754714D02*
X12841428Y-14454714D01*
X12812857Y-14497571D01*
X12784286Y-14526143D01*
X12755714Y-14540429D01*
X13112857Y-14454714D02*
X13141428Y-14454714D01*
X13170000Y-14469000D01*
X13184286Y-14483286D01*
X13198571Y-14511857D01*
X13212857Y-14569000D01*
X13212857Y-14640429D01*
X13198571Y-14697571D01*
X13184286Y-14726143D01*
X13170000Y-14740429D01*
X13141428Y-14754714D01*
X13112857Y-14754714D01*
X13084286Y-14740429D01*
X13070000Y-14726143D01*
X13055714Y-14697571D01*
X13041428Y-14640429D01*
X13041428Y-14569000D01*
X13055714Y-14511857D01*
X13070000Y-14483286D01*
X13084286Y-14469000D01*
X13112857Y-14454714D01*
X13341428Y-14754714D02*
X13341428Y-14554714D01*
X13341428Y-14583286D02*
X13355714Y-14569000D01*
X13384286Y-14554714D01*
X13427143Y-14554714D01*
X13455714Y-14569000D01*
X13470000Y-14597571D01*
X13470000Y-14754714D01*
X13470000Y-14597571D02*
X13484286Y-14569000D01*
X13512857Y-14554714D01*
X13555714Y-14554714D01*
X13584286Y-14569000D01*
X13598571Y-14597571D01*
X13598571Y-14754714D01*
X13741428Y-14754714D02*
X13741428Y-14554714D01*
X13741428Y-14583286D02*
X13755714Y-14569000D01*
X13784286Y-14554714D01*
X13827143Y-14554714D01*
X13855714Y-14569000D01*
X13870000Y-14597571D01*
X13870000Y-14754714D01*
X13870000Y-14597571D02*
X13884286Y-14569000D01*
X13912857Y-14554714D01*
X13955714Y-14554714D01*
X13984286Y-14569000D01*
X13998571Y-14597571D01*
X13998571Y-14754714D01*
X14584286Y-14440429D02*
X14327143Y-14826143D01*
X14970000Y-14454714D02*
X14998571Y-14454714D01*
X15027143Y-14469000D01*
X15041428Y-14483286D01*
X15055714Y-14511857D01*
X15070000Y-14569000D01*
X15070000Y-14640429D01*
X15055714Y-14697571D01*
X15041428Y-14726143D01*
X15027143Y-14740429D01*
X14998571Y-14754714D01*
X14970000Y-14754714D01*
X14941428Y-14740429D01*
X14927143Y-14726143D01*
X14912857Y-14697571D01*
X14898571Y-14640429D01*
X14898571Y-14569000D01*
X14912857Y-14511857D01*
X14927143Y-14483286D01*
X14941428Y-14469000D01*
X14970000Y-14454714D01*
X15198571Y-14726143D02*
X15212857Y-14740429D01*
X15198571Y-14754714D01*
X15184286Y-14740429D01*
X15198571Y-14726143D01*
X15198571Y-14754714D01*
X15398571Y-14454714D02*
X15427143Y-14454714D01*
X15455714Y-14469000D01*
X15470000Y-14483286D01*
X15484286Y-14511857D01*
X15498571Y-14569000D01*
X15498571Y-14640429D01*
X15484286Y-14697571D01*
X15470000Y-14726143D01*
X15455714Y-14740429D01*
X15427143Y-14754714D01*
X15398571Y-14754714D01*
X15370000Y-14740429D01*
X15355714Y-14726143D01*
X15341428Y-14697571D01*
X15327143Y-14640429D01*
X15327143Y-14569000D01*
X15341428Y-14511857D01*
X15355714Y-14483286D01*
X15370000Y-14469000D01*
X15398571Y-14454714D01*
X15755714Y-14554714D02*
X15755714Y-14754714D01*
X15684286Y-14440429D02*
X15612857Y-14654714D01*
X15798571Y-14654714D01*
X15884286Y-14454714D02*
X16070000Y-14454714D01*
X15970000Y-14569000D01*
X16012857Y-14569000D01*
X16041428Y-14583286D01*
X16055714Y-14597571D01*
X16070000Y-14626143D01*
X16070000Y-14697571D01*
X16055714Y-14726143D01*
X16041428Y-14740429D01*
X16012857Y-14754714D01*
X15927143Y-14754714D01*
X15898571Y-14740429D01*
X15884286Y-14726143D01*
X16184286Y-14454714D02*
X16184286Y-14511857D01*
X16298571Y-14454714D02*
X16298571Y-14511857D01*
X16741428Y-14869000D02*
X16727143Y-14854714D01*
X16698571Y-14811857D01*
X16684286Y-14783286D01*
X16670000Y-14740429D01*
X16655714Y-14669000D01*
X16655714Y-14611857D01*
X16670000Y-14540429D01*
X16684286Y-14497571D01*
X16698571Y-14469000D01*
X16727143Y-14426143D01*
X16741428Y-14411857D01*
X16984286Y-14554714D02*
X16984286Y-14754714D01*
X16912857Y-14440429D02*
X16841428Y-14654714D01*
X17027143Y-14654714D01*
X17370000Y-14754714D02*
X17370000Y-14454714D01*
X17498571Y-14754714D02*
X17498571Y-14597571D01*
X17484286Y-14569000D01*
X17455714Y-14554714D01*
X17412857Y-14554714D01*
X17384286Y-14569000D01*
X17370000Y-14583286D01*
X17684286Y-14754714D02*
X17655714Y-14740429D01*
X17641428Y-14726143D01*
X17627143Y-14697571D01*
X17627143Y-14611857D01*
X17641428Y-14583286D01*
X17655714Y-14569000D01*
X17684286Y-14554714D01*
X17727143Y-14554714D01*
X17755714Y-14569000D01*
X17770000Y-14583286D01*
X17784286Y-14611857D01*
X17784286Y-14697571D01*
X17770000Y-14726143D01*
X17755714Y-14740429D01*
X17727143Y-14754714D01*
X17684286Y-14754714D01*
X17955714Y-14754714D02*
X17927143Y-14740429D01*
X17912857Y-14711857D01*
X17912857Y-14454714D01*
X18184286Y-14740429D02*
X18155714Y-14754714D01*
X18098571Y-14754714D01*
X18070000Y-14740429D01*
X18055714Y-14711857D01*
X18055714Y-14597571D01*
X18070000Y-14569000D01*
X18098571Y-14554714D01*
X18155714Y-14554714D01*
X18184286Y-14569000D01*
X18198571Y-14597571D01*
X18198571Y-14626143D01*
X18055714Y-14654714D01*
X18312857Y-14740429D02*
X18341428Y-14754714D01*
X18398571Y-14754714D01*
X18427143Y-14740429D01*
X18441428Y-14711857D01*
X18441428Y-14697571D01*
X18427143Y-14669000D01*
X18398571Y-14654714D01*
X18355714Y-14654714D01*
X18327143Y-14640429D01*
X18312857Y-14611857D01*
X18312857Y-14597571D01*
X18327143Y-14569000D01*
X18355714Y-14554714D01*
X18398571Y-14554714D01*
X18427143Y-14569000D01*
X18541428Y-14869000D02*
X18555714Y-14854714D01*
X18584286Y-14811857D01*
X18598571Y-14783286D01*
X18612857Y-14740429D01*
X18627143Y-14669000D01*
X18627143Y-14611857D01*
X18612857Y-14540429D01*
X18598571Y-14497571D01*
X18584286Y-14469000D01*
X18555714Y-14426143D01*
X18541428Y-14411857D01*
M02*
