%TF.GenerationSoftware,KiCad,Pcbnew,5.0.0*%
%TF.CreationDate,2018-08-08T13:22:06+02:00*%
%TF.ProjectId,HB-UNI-Sen-WEA,48422D554E492D53656E2D5745412E6B,1.0*%
%TF.SameCoordinates,Original*%
%TF.FileFunction,Legend,Top*%
%TF.FilePolarity,Positive*%
%FSLAX46Y46*%
G04 Gerber Fmt 4.6, Leading zero omitted, Abs format (unit mm)*
G04 Created by KiCad (PCBNEW 5.0.0) date Wed Aug  8 13:22:06 2018*
%MOMM*%
%LPD*%
G01*
G04 APERTURE LIST*
%ADD10C,0.100000*%
%ADD11C,0.150000*%
%ADD12C,0.120000*%
G04 APERTURE END LIST*
D10*
X168267142Y-77505714D02*
X168648095Y-77505714D01*
X168457619Y-77696190D02*
X168457619Y-77315238D01*
X169124285Y-77196190D02*
X168886190Y-77196190D01*
X168862380Y-77434285D01*
X168886190Y-77410476D01*
X168933809Y-77386666D01*
X169052857Y-77386666D01*
X169100476Y-77410476D01*
X169124285Y-77434285D01*
X169148095Y-77481904D01*
X169148095Y-77600952D01*
X169124285Y-77648571D01*
X169100476Y-77672380D01*
X169052857Y-77696190D01*
X168933809Y-77696190D01*
X168886190Y-77672380D01*
X168862380Y-77648571D01*
X169290952Y-77196190D02*
X169457619Y-77696190D01*
X169624285Y-77196190D01*
X165989047Y-77220000D02*
X165941428Y-77196190D01*
X165870000Y-77196190D01*
X165798571Y-77220000D01*
X165750952Y-77267619D01*
X165727142Y-77315238D01*
X165703333Y-77410476D01*
X165703333Y-77481904D01*
X165727142Y-77577142D01*
X165750952Y-77624761D01*
X165798571Y-77672380D01*
X165870000Y-77696190D01*
X165917619Y-77696190D01*
X165989047Y-77672380D01*
X166012857Y-77648571D01*
X166012857Y-77481904D01*
X165917619Y-77481904D01*
X166227142Y-77696190D02*
X166227142Y-77196190D01*
X166512857Y-77696190D01*
X166512857Y-77196190D01*
X166750952Y-77696190D02*
X166750952Y-77196190D01*
X166870000Y-77196190D01*
X166941428Y-77220000D01*
X166989047Y-77267619D01*
X167012857Y-77315238D01*
X167036666Y-77410476D01*
X167036666Y-77481904D01*
X167012857Y-77577142D01*
X166989047Y-77624761D01*
X166941428Y-77672380D01*
X166870000Y-77696190D01*
X166750952Y-77696190D01*
X121253333Y-108946190D02*
X121420000Y-109446190D01*
X121586666Y-108946190D01*
X122039047Y-109398571D02*
X122015238Y-109422380D01*
X121943809Y-109446190D01*
X121896190Y-109446190D01*
X121824761Y-109422380D01*
X121777142Y-109374761D01*
X121753333Y-109327142D01*
X121729523Y-109231904D01*
X121729523Y-109160476D01*
X121753333Y-109065238D01*
X121777142Y-109017619D01*
X121824761Y-108970000D01*
X121896190Y-108946190D01*
X121943809Y-108946190D01*
X122015238Y-108970000D01*
X122039047Y-108993809D01*
X122539047Y-109398571D02*
X122515238Y-109422380D01*
X122443809Y-109446190D01*
X122396190Y-109446190D01*
X122324761Y-109422380D01*
X122277142Y-109374761D01*
X122253333Y-109327142D01*
X122229523Y-109231904D01*
X122229523Y-109160476D01*
X122253333Y-109065238D01*
X122277142Y-109017619D01*
X122324761Y-108970000D01*
X122396190Y-108946190D01*
X122443809Y-108946190D01*
X122515238Y-108970000D01*
X122539047Y-108993809D01*
X121539047Y-117860000D02*
X121491428Y-117836190D01*
X121420000Y-117836190D01*
X121348571Y-117860000D01*
X121300952Y-117907619D01*
X121277142Y-117955238D01*
X121253333Y-118050476D01*
X121253333Y-118121904D01*
X121277142Y-118217142D01*
X121300952Y-118264761D01*
X121348571Y-118312380D01*
X121420000Y-118336190D01*
X121467619Y-118336190D01*
X121539047Y-118312380D01*
X121562857Y-118288571D01*
X121562857Y-118121904D01*
X121467619Y-118121904D01*
X121777142Y-118336190D02*
X121777142Y-117836190D01*
X122062857Y-118336190D01*
X122062857Y-117836190D01*
X122300952Y-118336190D02*
X122300952Y-117836190D01*
X122420000Y-117836190D01*
X122491428Y-117860000D01*
X122539047Y-117907619D01*
X122562857Y-117955238D01*
X122586666Y-118050476D01*
X122586666Y-118121904D01*
X122562857Y-118217142D01*
X122539047Y-118264761D01*
X122491428Y-118312380D01*
X122420000Y-118336190D01*
X122300952Y-118336190D01*
X156980000Y-95476190D02*
X156813333Y-95238095D01*
X156694285Y-95476190D02*
X156694285Y-94976190D01*
X156884761Y-94976190D01*
X156932380Y-95000000D01*
X156956190Y-95023809D01*
X156980000Y-95071428D01*
X156980000Y-95142857D01*
X156956190Y-95190476D01*
X156932380Y-95214285D01*
X156884761Y-95238095D01*
X156694285Y-95238095D01*
X157170476Y-95452380D02*
X157241904Y-95476190D01*
X157360952Y-95476190D01*
X157408571Y-95452380D01*
X157432380Y-95428571D01*
X157456190Y-95380952D01*
X157456190Y-95333333D01*
X157432380Y-95285714D01*
X157408571Y-95261904D01*
X157360952Y-95238095D01*
X157265714Y-95214285D01*
X157218095Y-95190476D01*
X157194285Y-95166666D01*
X157170476Y-95119047D01*
X157170476Y-95071428D01*
X157194285Y-95023809D01*
X157218095Y-95000000D01*
X157265714Y-94976190D01*
X157384761Y-94976190D01*
X157456190Y-95000000D01*
X157670476Y-95214285D02*
X157837142Y-95214285D01*
X157908571Y-95476190D02*
X157670476Y-95476190D01*
X157670476Y-94976190D01*
X157908571Y-94976190D01*
X158051428Y-94976190D02*
X158337142Y-94976190D01*
X158194285Y-95476190D02*
X158194285Y-94976190D01*
X156837142Y-90372380D02*
X156908571Y-90396190D01*
X157027619Y-90396190D01*
X157075238Y-90372380D01*
X157099047Y-90348571D01*
X157122857Y-90300952D01*
X157122857Y-90253333D01*
X157099047Y-90205714D01*
X157075238Y-90181904D01*
X157027619Y-90158095D01*
X156932380Y-90134285D01*
X156884761Y-90110476D01*
X156860952Y-90086666D01*
X156837142Y-90039047D01*
X156837142Y-89991428D01*
X156860952Y-89943809D01*
X156884761Y-89920000D01*
X156932380Y-89896190D01*
X157051428Y-89896190D01*
X157122857Y-89920000D01*
X157622857Y-90348571D02*
X157599047Y-90372380D01*
X157527619Y-90396190D01*
X157480000Y-90396190D01*
X157408571Y-90372380D01*
X157360952Y-90324761D01*
X157337142Y-90277142D01*
X157313333Y-90181904D01*
X157313333Y-90110476D01*
X157337142Y-90015238D01*
X157360952Y-89967619D01*
X157408571Y-89920000D01*
X157480000Y-89896190D01*
X157527619Y-89896190D01*
X157599047Y-89920000D01*
X157622857Y-89943809D01*
X157837142Y-90396190D02*
X157837142Y-89896190D01*
X158122857Y-90396190D02*
X157908571Y-90110476D01*
X158122857Y-89896190D02*
X157837142Y-90181904D01*
X156694285Y-92936190D02*
X156694285Y-92436190D01*
X156860952Y-92793333D01*
X157027619Y-92436190D01*
X157027619Y-92936190D01*
X157265714Y-92936190D02*
X157265714Y-92436190D01*
X157480000Y-92912380D02*
X157551428Y-92936190D01*
X157670476Y-92936190D01*
X157718095Y-92912380D01*
X157741904Y-92888571D01*
X157765714Y-92840952D01*
X157765714Y-92793333D01*
X157741904Y-92745714D01*
X157718095Y-92721904D01*
X157670476Y-92698095D01*
X157575238Y-92674285D01*
X157527619Y-92650476D01*
X157503809Y-92626666D01*
X157480000Y-92579047D01*
X157480000Y-92531428D01*
X157503809Y-92483809D01*
X157527619Y-92460000D01*
X157575238Y-92436190D01*
X157694285Y-92436190D01*
X157765714Y-92460000D01*
X158075238Y-92436190D02*
X158170476Y-92436190D01*
X158218095Y-92460000D01*
X158265714Y-92507619D01*
X158289523Y-92602857D01*
X158289523Y-92769523D01*
X158265714Y-92864761D01*
X158218095Y-92912380D01*
X158170476Y-92936190D01*
X158075238Y-92936190D01*
X158027619Y-92912380D01*
X157980000Y-92864761D01*
X157956190Y-92769523D01*
X157956190Y-92602857D01*
X157980000Y-92507619D01*
X158027619Y-92460000D01*
X158075238Y-92436190D01*
X156694285Y-87856190D02*
X156694285Y-87356190D01*
X156860952Y-87713333D01*
X157027619Y-87356190D01*
X157027619Y-87856190D01*
X157360952Y-87356190D02*
X157456190Y-87356190D01*
X157503809Y-87380000D01*
X157551428Y-87427619D01*
X157575238Y-87522857D01*
X157575238Y-87689523D01*
X157551428Y-87784761D01*
X157503809Y-87832380D01*
X157456190Y-87856190D01*
X157360952Y-87856190D01*
X157313333Y-87832380D01*
X157265714Y-87784761D01*
X157241904Y-87689523D01*
X157241904Y-87522857D01*
X157265714Y-87427619D01*
X157313333Y-87380000D01*
X157360952Y-87356190D01*
X157765714Y-87832380D02*
X157837142Y-87856190D01*
X157956190Y-87856190D01*
X158003809Y-87832380D01*
X158027619Y-87808571D01*
X158051428Y-87760952D01*
X158051428Y-87713333D01*
X158027619Y-87665714D01*
X158003809Y-87641904D01*
X157956190Y-87618095D01*
X157860952Y-87594285D01*
X157813333Y-87570476D01*
X157789523Y-87546666D01*
X157765714Y-87499047D01*
X157765714Y-87451428D01*
X157789523Y-87403809D01*
X157813333Y-87380000D01*
X157860952Y-87356190D01*
X157980000Y-87356190D01*
X158051428Y-87380000D01*
X158265714Y-87856190D02*
X158265714Y-87356190D01*
X163942619Y-84816190D02*
X164109285Y-85316190D01*
X164275952Y-84816190D01*
X164728333Y-85268571D02*
X164704523Y-85292380D01*
X164633095Y-85316190D01*
X164585476Y-85316190D01*
X164514047Y-85292380D01*
X164466428Y-85244761D01*
X164442619Y-85197142D01*
X164418809Y-85101904D01*
X164418809Y-85030476D01*
X164442619Y-84935238D01*
X164466428Y-84887619D01*
X164514047Y-84840000D01*
X164585476Y-84816190D01*
X164633095Y-84816190D01*
X164704523Y-84840000D01*
X164728333Y-84863809D01*
X165228333Y-85268571D02*
X165204523Y-85292380D01*
X165133095Y-85316190D01*
X165085476Y-85316190D01*
X165014047Y-85292380D01*
X164966428Y-85244761D01*
X164942619Y-85197142D01*
X164918809Y-85101904D01*
X164918809Y-85030476D01*
X164942619Y-84935238D01*
X164966428Y-84887619D01*
X165014047Y-84840000D01*
X165085476Y-84816190D01*
X165133095Y-84816190D01*
X165204523Y-84840000D01*
X165228333Y-84863809D01*
X165703333Y-70846190D02*
X165870000Y-71346190D01*
X166036666Y-70846190D01*
X166489047Y-71298571D02*
X166465238Y-71322380D01*
X166393809Y-71346190D01*
X166346190Y-71346190D01*
X166274761Y-71322380D01*
X166227142Y-71274761D01*
X166203333Y-71227142D01*
X166179523Y-71131904D01*
X166179523Y-71060476D01*
X166203333Y-70965238D01*
X166227142Y-70917619D01*
X166274761Y-70870000D01*
X166346190Y-70846190D01*
X166393809Y-70846190D01*
X166465238Y-70870000D01*
X166489047Y-70893809D01*
X166989047Y-71298571D02*
X166965238Y-71322380D01*
X166893809Y-71346190D01*
X166846190Y-71346190D01*
X166774761Y-71322380D01*
X166727142Y-71274761D01*
X166703333Y-71227142D01*
X166679523Y-71131904D01*
X166679523Y-71060476D01*
X166703333Y-70965238D01*
X166727142Y-70917619D01*
X166774761Y-70870000D01*
X166846190Y-70846190D01*
X166893809Y-70846190D01*
X166965238Y-70870000D01*
X166989047Y-70893809D01*
X168529047Y-70870000D02*
X168481428Y-70846190D01*
X168410000Y-70846190D01*
X168338571Y-70870000D01*
X168290952Y-70917619D01*
X168267142Y-70965238D01*
X168243333Y-71060476D01*
X168243333Y-71131904D01*
X168267142Y-71227142D01*
X168290952Y-71274761D01*
X168338571Y-71322380D01*
X168410000Y-71346190D01*
X168457619Y-71346190D01*
X168529047Y-71322380D01*
X168552857Y-71298571D01*
X168552857Y-71131904D01*
X168457619Y-71131904D01*
X168767142Y-71346190D02*
X168767142Y-70846190D01*
X169052857Y-71346190D01*
X169052857Y-70846190D01*
X169290952Y-71346190D02*
X169290952Y-70846190D01*
X169410000Y-70846190D01*
X169481428Y-70870000D01*
X169529047Y-70917619D01*
X169552857Y-70965238D01*
X169576666Y-71060476D01*
X169576666Y-71131904D01*
X169552857Y-71227142D01*
X169529047Y-71274761D01*
X169481428Y-71322380D01*
X169410000Y-71346190D01*
X169290952Y-71346190D01*
X170854761Y-71322380D02*
X170926190Y-71346190D01*
X171045238Y-71346190D01*
X171092857Y-71322380D01*
X171116666Y-71298571D01*
X171140476Y-71250952D01*
X171140476Y-71203333D01*
X171116666Y-71155714D01*
X171092857Y-71131904D01*
X171045238Y-71108095D01*
X170950000Y-71084285D01*
X170902380Y-71060476D01*
X170878571Y-71036666D01*
X170854761Y-70989047D01*
X170854761Y-70941428D01*
X170878571Y-70893809D01*
X170902380Y-70870000D01*
X170950000Y-70846190D01*
X171069047Y-70846190D01*
X171140476Y-70870000D01*
X171640476Y-71298571D02*
X171616666Y-71322380D01*
X171545238Y-71346190D01*
X171497619Y-71346190D01*
X171426190Y-71322380D01*
X171378571Y-71274761D01*
X171354761Y-71227142D01*
X171330952Y-71131904D01*
X171330952Y-71060476D01*
X171354761Y-70965238D01*
X171378571Y-70917619D01*
X171426190Y-70870000D01*
X171497619Y-70846190D01*
X171545238Y-70846190D01*
X171616666Y-70870000D01*
X171640476Y-70893809D01*
X172092857Y-71346190D02*
X171854761Y-71346190D01*
X171854761Y-70846190D01*
X173382857Y-71322380D02*
X173454285Y-71346190D01*
X173573333Y-71346190D01*
X173620952Y-71322380D01*
X173644761Y-71298571D01*
X173668571Y-71250952D01*
X173668571Y-71203333D01*
X173644761Y-71155714D01*
X173620952Y-71131904D01*
X173573333Y-71108095D01*
X173478095Y-71084285D01*
X173430476Y-71060476D01*
X173406666Y-71036666D01*
X173382857Y-70989047D01*
X173382857Y-70941428D01*
X173406666Y-70893809D01*
X173430476Y-70870000D01*
X173478095Y-70846190D01*
X173597142Y-70846190D01*
X173668571Y-70870000D01*
X173882857Y-71346190D02*
X173882857Y-70846190D01*
X174001904Y-70846190D01*
X174073333Y-70870000D01*
X174120952Y-70917619D01*
X174144761Y-70965238D01*
X174168571Y-71060476D01*
X174168571Y-71131904D01*
X174144761Y-71227142D01*
X174120952Y-71274761D01*
X174073333Y-71322380D01*
X174001904Y-71346190D01*
X173882857Y-71346190D01*
X174359047Y-71203333D02*
X174597142Y-71203333D01*
X174311428Y-71346190D02*
X174478095Y-70846190D01*
X174644761Y-71346190D01*
X153062857Y-71322380D02*
X153134285Y-71346190D01*
X153253333Y-71346190D01*
X153300952Y-71322380D01*
X153324761Y-71298571D01*
X153348571Y-71250952D01*
X153348571Y-71203333D01*
X153324761Y-71155714D01*
X153300952Y-71131904D01*
X153253333Y-71108095D01*
X153158095Y-71084285D01*
X153110476Y-71060476D01*
X153086666Y-71036666D01*
X153062857Y-70989047D01*
X153062857Y-70941428D01*
X153086666Y-70893809D01*
X153110476Y-70870000D01*
X153158095Y-70846190D01*
X153277142Y-70846190D01*
X153348571Y-70870000D01*
X153562857Y-71346190D02*
X153562857Y-70846190D01*
X153681904Y-70846190D01*
X153753333Y-70870000D01*
X153800952Y-70917619D01*
X153824761Y-70965238D01*
X153848571Y-71060476D01*
X153848571Y-71131904D01*
X153824761Y-71227142D01*
X153800952Y-71274761D01*
X153753333Y-71322380D01*
X153681904Y-71346190D01*
X153562857Y-71346190D01*
X154039047Y-71203333D02*
X154277142Y-71203333D01*
X153991428Y-71346190D02*
X154158095Y-70846190D01*
X154324761Y-71346190D01*
X150534761Y-71322380D02*
X150606190Y-71346190D01*
X150725238Y-71346190D01*
X150772857Y-71322380D01*
X150796666Y-71298571D01*
X150820476Y-71250952D01*
X150820476Y-71203333D01*
X150796666Y-71155714D01*
X150772857Y-71131904D01*
X150725238Y-71108095D01*
X150630000Y-71084285D01*
X150582380Y-71060476D01*
X150558571Y-71036666D01*
X150534761Y-70989047D01*
X150534761Y-70941428D01*
X150558571Y-70893809D01*
X150582380Y-70870000D01*
X150630000Y-70846190D01*
X150749047Y-70846190D01*
X150820476Y-70870000D01*
X151320476Y-71298571D02*
X151296666Y-71322380D01*
X151225238Y-71346190D01*
X151177619Y-71346190D01*
X151106190Y-71322380D01*
X151058571Y-71274761D01*
X151034761Y-71227142D01*
X151010952Y-71131904D01*
X151010952Y-71060476D01*
X151034761Y-70965238D01*
X151058571Y-70917619D01*
X151106190Y-70870000D01*
X151177619Y-70846190D01*
X151225238Y-70846190D01*
X151296666Y-70870000D01*
X151320476Y-70893809D01*
X151772857Y-71346190D02*
X151534761Y-71346190D01*
X151534761Y-70846190D01*
X145383333Y-70846190D02*
X145550000Y-71346190D01*
X145716666Y-70846190D01*
X146169047Y-71298571D02*
X146145238Y-71322380D01*
X146073809Y-71346190D01*
X146026190Y-71346190D01*
X145954761Y-71322380D01*
X145907142Y-71274761D01*
X145883333Y-71227142D01*
X145859523Y-71131904D01*
X145859523Y-71060476D01*
X145883333Y-70965238D01*
X145907142Y-70917619D01*
X145954761Y-70870000D01*
X146026190Y-70846190D01*
X146073809Y-70846190D01*
X146145238Y-70870000D01*
X146169047Y-70893809D01*
X146669047Y-71298571D02*
X146645238Y-71322380D01*
X146573809Y-71346190D01*
X146526190Y-71346190D01*
X146454761Y-71322380D01*
X146407142Y-71274761D01*
X146383333Y-71227142D01*
X146359523Y-71131904D01*
X146359523Y-71060476D01*
X146383333Y-70965238D01*
X146407142Y-70917619D01*
X146454761Y-70870000D01*
X146526190Y-70846190D01*
X146573809Y-70846190D01*
X146645238Y-70870000D01*
X146669047Y-70893809D01*
X148209047Y-70870000D02*
X148161428Y-70846190D01*
X148090000Y-70846190D01*
X148018571Y-70870000D01*
X147970952Y-70917619D01*
X147947142Y-70965238D01*
X147923333Y-71060476D01*
X147923333Y-71131904D01*
X147947142Y-71227142D01*
X147970952Y-71274761D01*
X148018571Y-71322380D01*
X148090000Y-71346190D01*
X148137619Y-71346190D01*
X148209047Y-71322380D01*
X148232857Y-71298571D01*
X148232857Y-71131904D01*
X148137619Y-71131904D01*
X148447142Y-71346190D02*
X148447142Y-70846190D01*
X148732857Y-71346190D01*
X148732857Y-70846190D01*
X148970952Y-71346190D02*
X148970952Y-70846190D01*
X149090000Y-70846190D01*
X149161428Y-70870000D01*
X149209047Y-70917619D01*
X149232857Y-70965238D01*
X149256666Y-71060476D01*
X149256666Y-71131904D01*
X149232857Y-71227142D01*
X149209047Y-71274761D01*
X149161428Y-71322380D01*
X149090000Y-71346190D01*
X148970952Y-71346190D01*
X132742857Y-71322380D02*
X132814285Y-71346190D01*
X132933333Y-71346190D01*
X132980952Y-71322380D01*
X133004761Y-71298571D01*
X133028571Y-71250952D01*
X133028571Y-71203333D01*
X133004761Y-71155714D01*
X132980952Y-71131904D01*
X132933333Y-71108095D01*
X132838095Y-71084285D01*
X132790476Y-71060476D01*
X132766666Y-71036666D01*
X132742857Y-70989047D01*
X132742857Y-70941428D01*
X132766666Y-70893809D01*
X132790476Y-70870000D01*
X132838095Y-70846190D01*
X132957142Y-70846190D01*
X133028571Y-70870000D01*
X133242857Y-71346190D02*
X133242857Y-70846190D01*
X133361904Y-70846190D01*
X133433333Y-70870000D01*
X133480952Y-70917619D01*
X133504761Y-70965238D01*
X133528571Y-71060476D01*
X133528571Y-71131904D01*
X133504761Y-71227142D01*
X133480952Y-71274761D01*
X133433333Y-71322380D01*
X133361904Y-71346190D01*
X133242857Y-71346190D01*
X133719047Y-71203333D02*
X133957142Y-71203333D01*
X133671428Y-71346190D02*
X133838095Y-70846190D01*
X134004761Y-71346190D01*
X130214761Y-71322380D02*
X130286190Y-71346190D01*
X130405238Y-71346190D01*
X130452857Y-71322380D01*
X130476666Y-71298571D01*
X130500476Y-71250952D01*
X130500476Y-71203333D01*
X130476666Y-71155714D01*
X130452857Y-71131904D01*
X130405238Y-71108095D01*
X130310000Y-71084285D01*
X130262380Y-71060476D01*
X130238571Y-71036666D01*
X130214761Y-70989047D01*
X130214761Y-70941428D01*
X130238571Y-70893809D01*
X130262380Y-70870000D01*
X130310000Y-70846190D01*
X130429047Y-70846190D01*
X130500476Y-70870000D01*
X131000476Y-71298571D02*
X130976666Y-71322380D01*
X130905238Y-71346190D01*
X130857619Y-71346190D01*
X130786190Y-71322380D01*
X130738571Y-71274761D01*
X130714761Y-71227142D01*
X130690952Y-71131904D01*
X130690952Y-71060476D01*
X130714761Y-70965238D01*
X130738571Y-70917619D01*
X130786190Y-70870000D01*
X130857619Y-70846190D01*
X130905238Y-70846190D01*
X130976666Y-70870000D01*
X131000476Y-70893809D01*
X131452857Y-71346190D02*
X131214761Y-71346190D01*
X131214761Y-70846190D01*
X125063333Y-70846190D02*
X125230000Y-71346190D01*
X125396666Y-70846190D01*
X125849047Y-71298571D02*
X125825238Y-71322380D01*
X125753809Y-71346190D01*
X125706190Y-71346190D01*
X125634761Y-71322380D01*
X125587142Y-71274761D01*
X125563333Y-71227142D01*
X125539523Y-71131904D01*
X125539523Y-71060476D01*
X125563333Y-70965238D01*
X125587142Y-70917619D01*
X125634761Y-70870000D01*
X125706190Y-70846190D01*
X125753809Y-70846190D01*
X125825238Y-70870000D01*
X125849047Y-70893809D01*
X126349047Y-71298571D02*
X126325238Y-71322380D01*
X126253809Y-71346190D01*
X126206190Y-71346190D01*
X126134761Y-71322380D01*
X126087142Y-71274761D01*
X126063333Y-71227142D01*
X126039523Y-71131904D01*
X126039523Y-71060476D01*
X126063333Y-70965238D01*
X126087142Y-70917619D01*
X126134761Y-70870000D01*
X126206190Y-70846190D01*
X126253809Y-70846190D01*
X126325238Y-70870000D01*
X126349047Y-70893809D01*
X127889047Y-70870000D02*
X127841428Y-70846190D01*
X127770000Y-70846190D01*
X127698571Y-70870000D01*
X127650952Y-70917619D01*
X127627142Y-70965238D01*
X127603333Y-71060476D01*
X127603333Y-71131904D01*
X127627142Y-71227142D01*
X127650952Y-71274761D01*
X127698571Y-71322380D01*
X127770000Y-71346190D01*
X127817619Y-71346190D01*
X127889047Y-71322380D01*
X127912857Y-71298571D01*
X127912857Y-71131904D01*
X127817619Y-71131904D01*
X128127142Y-71346190D02*
X128127142Y-70846190D01*
X128412857Y-71346190D01*
X128412857Y-70846190D01*
X128650952Y-71346190D02*
X128650952Y-70846190D01*
X128770000Y-70846190D01*
X128841428Y-70870000D01*
X128889047Y-70917619D01*
X128912857Y-70965238D01*
X128936666Y-71060476D01*
X128936666Y-71131904D01*
X128912857Y-71227142D01*
X128889047Y-71274761D01*
X128841428Y-71322380D01*
X128770000Y-71346190D01*
X128650952Y-71346190D01*
X153312857Y-82633333D02*
X153550952Y-82633333D01*
X153265238Y-82776190D02*
X153431904Y-82276190D01*
X153598571Y-82776190D01*
X153741428Y-82323809D02*
X153765238Y-82300000D01*
X153812857Y-82276190D01*
X153931904Y-82276190D01*
X153979523Y-82300000D01*
X154003333Y-82323809D01*
X154027142Y-82371428D01*
X154027142Y-82419047D01*
X154003333Y-82490476D01*
X153717619Y-82776190D01*
X154027142Y-82776190D01*
X150749047Y-82300000D02*
X150701428Y-82276190D01*
X150630000Y-82276190D01*
X150558571Y-82300000D01*
X150510952Y-82347619D01*
X150487142Y-82395238D01*
X150463333Y-82490476D01*
X150463333Y-82561904D01*
X150487142Y-82657142D01*
X150510952Y-82704761D01*
X150558571Y-82752380D01*
X150630000Y-82776190D01*
X150677619Y-82776190D01*
X150749047Y-82752380D01*
X150772857Y-82728571D01*
X150772857Y-82561904D01*
X150677619Y-82561904D01*
X150987142Y-82776190D02*
X150987142Y-82276190D01*
X151272857Y-82776190D01*
X151272857Y-82276190D01*
X151510952Y-82776190D02*
X151510952Y-82276190D01*
X151630000Y-82276190D01*
X151701428Y-82300000D01*
X151749047Y-82347619D01*
X151772857Y-82395238D01*
X151796666Y-82490476D01*
X151796666Y-82561904D01*
X151772857Y-82657142D01*
X151749047Y-82704761D01*
X151701428Y-82752380D01*
X151630000Y-82776190D01*
X151510952Y-82776190D01*
X140600952Y-82776190D02*
X140600952Y-82276190D01*
X140720000Y-82276190D01*
X140791428Y-82300000D01*
X140839047Y-82347619D01*
X140862857Y-82395238D01*
X140886666Y-82490476D01*
X140886666Y-82561904D01*
X140862857Y-82657142D01*
X140839047Y-82704761D01*
X140791428Y-82752380D01*
X140720000Y-82776190D01*
X140600952Y-82776190D01*
X141339047Y-82276190D02*
X141100952Y-82276190D01*
X141077142Y-82514285D01*
X141100952Y-82490476D01*
X141148571Y-82466666D01*
X141267619Y-82466666D01*
X141315238Y-82490476D01*
X141339047Y-82514285D01*
X141362857Y-82561904D01*
X141362857Y-82680952D01*
X141339047Y-82728571D01*
X141315238Y-82752380D01*
X141267619Y-82776190D01*
X141148571Y-82776190D01*
X141100952Y-82752380D01*
X141077142Y-82728571D01*
X138049047Y-82300000D02*
X138001428Y-82276190D01*
X137930000Y-82276190D01*
X137858571Y-82300000D01*
X137810952Y-82347619D01*
X137787142Y-82395238D01*
X137763333Y-82490476D01*
X137763333Y-82561904D01*
X137787142Y-82657142D01*
X137810952Y-82704761D01*
X137858571Y-82752380D01*
X137930000Y-82776190D01*
X137977619Y-82776190D01*
X138049047Y-82752380D01*
X138072857Y-82728571D01*
X138072857Y-82561904D01*
X137977619Y-82561904D01*
X138287142Y-82776190D02*
X138287142Y-82276190D01*
X138572857Y-82776190D01*
X138572857Y-82276190D01*
X138810952Y-82776190D02*
X138810952Y-82276190D01*
X138930000Y-82276190D01*
X139001428Y-82300000D01*
X139049047Y-82347619D01*
X139072857Y-82395238D01*
X139096666Y-82490476D01*
X139096666Y-82561904D01*
X139072857Y-82657142D01*
X139049047Y-82704761D01*
X139001428Y-82752380D01*
X138930000Y-82776190D01*
X138810952Y-82776190D01*
X127900952Y-82776190D02*
X127900952Y-82276190D01*
X128020000Y-82276190D01*
X128091428Y-82300000D01*
X128139047Y-82347619D01*
X128162857Y-82395238D01*
X128186666Y-82490476D01*
X128186666Y-82561904D01*
X128162857Y-82657142D01*
X128139047Y-82704761D01*
X128091428Y-82752380D01*
X128020000Y-82776190D01*
X127900952Y-82776190D01*
X128615238Y-82276190D02*
X128520000Y-82276190D01*
X128472380Y-82300000D01*
X128448571Y-82323809D01*
X128400952Y-82395238D01*
X128377142Y-82490476D01*
X128377142Y-82680952D01*
X128400952Y-82728571D01*
X128424761Y-82752380D01*
X128472380Y-82776190D01*
X128567619Y-82776190D01*
X128615238Y-82752380D01*
X128639047Y-82728571D01*
X128662857Y-82680952D01*
X128662857Y-82561904D01*
X128639047Y-82514285D01*
X128615238Y-82490476D01*
X128567619Y-82466666D01*
X128472380Y-82466666D01*
X128424761Y-82490476D01*
X128400952Y-82514285D01*
X128377142Y-82561904D01*
X125349047Y-82300000D02*
X125301428Y-82276190D01*
X125230000Y-82276190D01*
X125158571Y-82300000D01*
X125110952Y-82347619D01*
X125087142Y-82395238D01*
X125063333Y-82490476D01*
X125063333Y-82561904D01*
X125087142Y-82657142D01*
X125110952Y-82704761D01*
X125158571Y-82752380D01*
X125230000Y-82776190D01*
X125277619Y-82776190D01*
X125349047Y-82752380D01*
X125372857Y-82728571D01*
X125372857Y-82561904D01*
X125277619Y-82561904D01*
X125587142Y-82776190D02*
X125587142Y-82276190D01*
X125872857Y-82776190D01*
X125872857Y-82276190D01*
X126110952Y-82776190D02*
X126110952Y-82276190D01*
X126230000Y-82276190D01*
X126301428Y-82300000D01*
X126349047Y-82347619D01*
X126372857Y-82395238D01*
X126396666Y-82490476D01*
X126396666Y-82561904D01*
X126372857Y-82657142D01*
X126349047Y-82704761D01*
X126301428Y-82752380D01*
X126230000Y-82776190D01*
X126110952Y-82776190D01*
X121789047Y-108176190D02*
X121789047Y-107676190D01*
X121908095Y-107676190D01*
X121979523Y-107700000D01*
X122027142Y-107747619D01*
X122050952Y-107795238D01*
X122074761Y-107890476D01*
X122074761Y-107961904D01*
X122050952Y-108057142D01*
X122027142Y-108104761D01*
X121979523Y-108152380D01*
X121908095Y-108176190D01*
X121789047Y-108176190D01*
X122074761Y-111938571D02*
X122050952Y-111962380D01*
X121979523Y-111986190D01*
X121931904Y-111986190D01*
X121860476Y-111962380D01*
X121812857Y-111914761D01*
X121789047Y-111867142D01*
X121765238Y-111771904D01*
X121765238Y-111700476D01*
X121789047Y-111605238D01*
X121812857Y-111557619D01*
X121860476Y-111510000D01*
X121931904Y-111486190D01*
X121979523Y-111486190D01*
X122050952Y-111510000D01*
X122074761Y-111533809D01*
X121955714Y-114264285D02*
X122027142Y-114288095D01*
X122050952Y-114311904D01*
X122074761Y-114359523D01*
X122074761Y-114430952D01*
X122050952Y-114478571D01*
X122027142Y-114502380D01*
X121979523Y-114526190D01*
X121789047Y-114526190D01*
X121789047Y-114026190D01*
X121955714Y-114026190D01*
X122003333Y-114050000D01*
X122027142Y-114073809D01*
X122050952Y-114121428D01*
X122050952Y-114169047D01*
X122027142Y-114216666D01*
X122003333Y-114240476D01*
X121955714Y-114264285D01*
X121789047Y-114264285D01*
X121800952Y-116923333D02*
X122039047Y-116923333D01*
X121753333Y-117066190D02*
X121920000Y-116566190D01*
X122086666Y-117066190D01*
X182213333Y-111486190D02*
X182380000Y-111986190D01*
X182546666Y-111486190D01*
X182999047Y-111938571D02*
X182975238Y-111962380D01*
X182903809Y-111986190D01*
X182856190Y-111986190D01*
X182784761Y-111962380D01*
X182737142Y-111914761D01*
X182713333Y-111867142D01*
X182689523Y-111771904D01*
X182689523Y-111700476D01*
X182713333Y-111605238D01*
X182737142Y-111557619D01*
X182784761Y-111510000D01*
X182856190Y-111486190D01*
X182903809Y-111486190D01*
X182975238Y-111510000D01*
X182999047Y-111533809D01*
X183499047Y-111938571D02*
X183475238Y-111962380D01*
X183403809Y-111986190D01*
X183356190Y-111986190D01*
X183284761Y-111962380D01*
X183237142Y-111914761D01*
X183213333Y-111867142D01*
X183189523Y-111771904D01*
X183189523Y-111700476D01*
X183213333Y-111605238D01*
X183237142Y-111557619D01*
X183284761Y-111510000D01*
X183356190Y-111486190D01*
X183403809Y-111486190D01*
X183475238Y-111510000D01*
X183499047Y-111533809D01*
X179959047Y-111510000D02*
X179911428Y-111486190D01*
X179840000Y-111486190D01*
X179768571Y-111510000D01*
X179720952Y-111557619D01*
X179697142Y-111605238D01*
X179673333Y-111700476D01*
X179673333Y-111771904D01*
X179697142Y-111867142D01*
X179720952Y-111914761D01*
X179768571Y-111962380D01*
X179840000Y-111986190D01*
X179887619Y-111986190D01*
X179959047Y-111962380D01*
X179982857Y-111938571D01*
X179982857Y-111771904D01*
X179887619Y-111771904D01*
X180197142Y-111986190D02*
X180197142Y-111486190D01*
X180482857Y-111986190D01*
X180482857Y-111486190D01*
X180720952Y-111986190D02*
X180720952Y-111486190D01*
X180840000Y-111486190D01*
X180911428Y-111510000D01*
X180959047Y-111557619D01*
X180982857Y-111605238D01*
X181006666Y-111700476D01*
X181006666Y-111771904D01*
X180982857Y-111867142D01*
X180959047Y-111914761D01*
X180911428Y-111962380D01*
X180840000Y-111986190D01*
X180720952Y-111986190D01*
X177157142Y-111962380D02*
X177228571Y-111986190D01*
X177347619Y-111986190D01*
X177395238Y-111962380D01*
X177419047Y-111938571D01*
X177442857Y-111890952D01*
X177442857Y-111843333D01*
X177419047Y-111795714D01*
X177395238Y-111771904D01*
X177347619Y-111748095D01*
X177252380Y-111724285D01*
X177204761Y-111700476D01*
X177180952Y-111676666D01*
X177157142Y-111629047D01*
X177157142Y-111581428D01*
X177180952Y-111533809D01*
X177204761Y-111510000D01*
X177252380Y-111486190D01*
X177371428Y-111486190D01*
X177442857Y-111510000D01*
X177942857Y-111938571D02*
X177919047Y-111962380D01*
X177847619Y-111986190D01*
X177800000Y-111986190D01*
X177728571Y-111962380D01*
X177680952Y-111914761D01*
X177657142Y-111867142D01*
X177633333Y-111771904D01*
X177633333Y-111700476D01*
X177657142Y-111605238D01*
X177680952Y-111557619D01*
X177728571Y-111510000D01*
X177800000Y-111486190D01*
X177847619Y-111486190D01*
X177919047Y-111510000D01*
X177942857Y-111533809D01*
X178157142Y-111986190D02*
X178157142Y-111486190D01*
X178442857Y-111986190D02*
X178228571Y-111700476D01*
X178442857Y-111486190D02*
X178157142Y-111771904D01*
X174474285Y-111986190D02*
X174474285Y-111486190D01*
X174640952Y-111843333D01*
X174807619Y-111486190D01*
X174807619Y-111986190D01*
X175140952Y-111486190D02*
X175236190Y-111486190D01*
X175283809Y-111510000D01*
X175331428Y-111557619D01*
X175355238Y-111652857D01*
X175355238Y-111819523D01*
X175331428Y-111914761D01*
X175283809Y-111962380D01*
X175236190Y-111986190D01*
X175140952Y-111986190D01*
X175093333Y-111962380D01*
X175045714Y-111914761D01*
X175021904Y-111819523D01*
X175021904Y-111652857D01*
X175045714Y-111557619D01*
X175093333Y-111510000D01*
X175140952Y-111486190D01*
X175545714Y-111962380D02*
X175617142Y-111986190D01*
X175736190Y-111986190D01*
X175783809Y-111962380D01*
X175807619Y-111938571D01*
X175831428Y-111890952D01*
X175831428Y-111843333D01*
X175807619Y-111795714D01*
X175783809Y-111771904D01*
X175736190Y-111748095D01*
X175640952Y-111724285D01*
X175593333Y-111700476D01*
X175569523Y-111676666D01*
X175545714Y-111629047D01*
X175545714Y-111581428D01*
X175569523Y-111533809D01*
X175593333Y-111510000D01*
X175640952Y-111486190D01*
X175760000Y-111486190D01*
X175831428Y-111510000D01*
X176045714Y-111986190D02*
X176045714Y-111486190D01*
X171934285Y-111986190D02*
X171934285Y-111486190D01*
X172100952Y-111843333D01*
X172267619Y-111486190D01*
X172267619Y-111986190D01*
X172505714Y-111986190D02*
X172505714Y-111486190D01*
X172720000Y-111962380D02*
X172791428Y-111986190D01*
X172910476Y-111986190D01*
X172958095Y-111962380D01*
X172981904Y-111938571D01*
X173005714Y-111890952D01*
X173005714Y-111843333D01*
X172981904Y-111795714D01*
X172958095Y-111771904D01*
X172910476Y-111748095D01*
X172815238Y-111724285D01*
X172767619Y-111700476D01*
X172743809Y-111676666D01*
X172720000Y-111629047D01*
X172720000Y-111581428D01*
X172743809Y-111533809D01*
X172767619Y-111510000D01*
X172815238Y-111486190D01*
X172934285Y-111486190D01*
X173005714Y-111510000D01*
X173315238Y-111486190D02*
X173410476Y-111486190D01*
X173458095Y-111510000D01*
X173505714Y-111557619D01*
X173529523Y-111652857D01*
X173529523Y-111819523D01*
X173505714Y-111914761D01*
X173458095Y-111962380D01*
X173410476Y-111986190D01*
X173315238Y-111986190D01*
X173267619Y-111962380D01*
X173220000Y-111914761D01*
X173196190Y-111819523D01*
X173196190Y-111652857D01*
X173220000Y-111557619D01*
X173267619Y-111510000D01*
X173315238Y-111486190D01*
X169810952Y-111986190D02*
X169810952Y-111486190D01*
X169930000Y-111486190D01*
X170001428Y-111510000D01*
X170049047Y-111557619D01*
X170072857Y-111605238D01*
X170096666Y-111700476D01*
X170096666Y-111771904D01*
X170072857Y-111867142D01*
X170049047Y-111914761D01*
X170001428Y-111962380D01*
X169930000Y-111986190D01*
X169810952Y-111986190D01*
X170263333Y-111486190D02*
X170596666Y-111486190D01*
X170382380Y-111986190D01*
X164730952Y-111986190D02*
X164730952Y-111486190D01*
X164850000Y-111486190D01*
X164921428Y-111510000D01*
X164969047Y-111557619D01*
X164992857Y-111605238D01*
X165016666Y-111700476D01*
X165016666Y-111771904D01*
X164992857Y-111867142D01*
X164969047Y-111914761D01*
X164921428Y-111962380D01*
X164850000Y-111986190D01*
X164730952Y-111986190D01*
X165183333Y-111486190D02*
X165492857Y-111486190D01*
X165326190Y-111676666D01*
X165397619Y-111676666D01*
X165445238Y-111700476D01*
X165469047Y-111724285D01*
X165492857Y-111771904D01*
X165492857Y-111890952D01*
X165469047Y-111938571D01*
X165445238Y-111962380D01*
X165397619Y-111986190D01*
X165254761Y-111986190D01*
X165207142Y-111962380D01*
X165183333Y-111938571D01*
X167259047Y-111510000D02*
X167211428Y-111486190D01*
X167140000Y-111486190D01*
X167068571Y-111510000D01*
X167020952Y-111557619D01*
X166997142Y-111605238D01*
X166973333Y-111700476D01*
X166973333Y-111771904D01*
X166997142Y-111867142D01*
X167020952Y-111914761D01*
X167068571Y-111962380D01*
X167140000Y-111986190D01*
X167187619Y-111986190D01*
X167259047Y-111962380D01*
X167282857Y-111938571D01*
X167282857Y-111771904D01*
X167187619Y-111771904D01*
X167497142Y-111986190D02*
X167497142Y-111486190D01*
X167782857Y-111986190D01*
X167782857Y-111486190D01*
X168020952Y-111986190D02*
X168020952Y-111486190D01*
X168140000Y-111486190D01*
X168211428Y-111510000D01*
X168259047Y-111557619D01*
X168282857Y-111605238D01*
X168306666Y-111700476D01*
X168306666Y-111771904D01*
X168282857Y-111867142D01*
X168259047Y-111914761D01*
X168211428Y-111962380D01*
X168140000Y-111986190D01*
X168020952Y-111986190D01*
X162179047Y-111510000D02*
X162131428Y-111486190D01*
X162060000Y-111486190D01*
X161988571Y-111510000D01*
X161940952Y-111557619D01*
X161917142Y-111605238D01*
X161893333Y-111700476D01*
X161893333Y-111771904D01*
X161917142Y-111867142D01*
X161940952Y-111914761D01*
X161988571Y-111962380D01*
X162060000Y-111986190D01*
X162107619Y-111986190D01*
X162179047Y-111962380D01*
X162202857Y-111938571D01*
X162202857Y-111771904D01*
X162107619Y-111771904D01*
X162417142Y-111986190D02*
X162417142Y-111486190D01*
X162702857Y-111986190D01*
X162702857Y-111486190D01*
X162940952Y-111986190D02*
X162940952Y-111486190D01*
X163060000Y-111486190D01*
X163131428Y-111510000D01*
X163179047Y-111557619D01*
X163202857Y-111605238D01*
X163226666Y-111700476D01*
X163226666Y-111771904D01*
X163202857Y-111867142D01*
X163179047Y-111914761D01*
X163131428Y-111962380D01*
X163060000Y-111986190D01*
X162940952Y-111986190D01*
X159639047Y-111510000D02*
X159591428Y-111486190D01*
X159520000Y-111486190D01*
X159448571Y-111510000D01*
X159400952Y-111557619D01*
X159377142Y-111605238D01*
X159353333Y-111700476D01*
X159353333Y-111771904D01*
X159377142Y-111867142D01*
X159400952Y-111914761D01*
X159448571Y-111962380D01*
X159520000Y-111986190D01*
X159567619Y-111986190D01*
X159639047Y-111962380D01*
X159662857Y-111938571D01*
X159662857Y-111771904D01*
X159567619Y-111771904D01*
X159877142Y-111986190D02*
X159877142Y-111486190D01*
X160162857Y-111986190D01*
X160162857Y-111486190D01*
X160400952Y-111986190D02*
X160400952Y-111486190D01*
X160520000Y-111486190D01*
X160591428Y-111510000D01*
X160639047Y-111557619D01*
X160662857Y-111605238D01*
X160686666Y-111700476D01*
X160686666Y-111771904D01*
X160662857Y-111867142D01*
X160639047Y-111914761D01*
X160591428Y-111962380D01*
X160520000Y-111986190D01*
X160400952Y-111986190D01*
X157099047Y-111510000D02*
X157051428Y-111486190D01*
X156980000Y-111486190D01*
X156908571Y-111510000D01*
X156860952Y-111557619D01*
X156837142Y-111605238D01*
X156813333Y-111700476D01*
X156813333Y-111771904D01*
X156837142Y-111867142D01*
X156860952Y-111914761D01*
X156908571Y-111962380D01*
X156980000Y-111986190D01*
X157027619Y-111986190D01*
X157099047Y-111962380D01*
X157122857Y-111938571D01*
X157122857Y-111771904D01*
X157027619Y-111771904D01*
X157337142Y-111986190D02*
X157337142Y-111486190D01*
X157622857Y-111986190D01*
X157622857Y-111486190D01*
X157860952Y-111986190D02*
X157860952Y-111486190D01*
X157980000Y-111486190D01*
X158051428Y-111510000D01*
X158099047Y-111557619D01*
X158122857Y-111605238D01*
X158146666Y-111700476D01*
X158146666Y-111771904D01*
X158122857Y-111867142D01*
X158099047Y-111914761D01*
X158051428Y-111962380D01*
X157980000Y-111986190D01*
X157860952Y-111986190D01*
D11*
%TO.C,U1*%
X122555000Y-88900000D02*
G75*
G03X122555000Y-88900000I-635000J0D01*
G01*
X122555000Y-91440000D02*
G75*
G03X122555000Y-91440000I-635000J0D01*
G01*
X122555000Y-93980000D02*
G75*
G03X122555000Y-93980000I-635000J0D01*
G01*
X122555000Y-96520000D02*
G75*
G03X122555000Y-96520000I-635000J0D01*
G01*
X122555000Y-99060000D02*
G75*
G03X122555000Y-99060000I-635000J0D01*
G01*
X122555000Y-101600000D02*
G75*
G03X122555000Y-101600000I-635000J0D01*
G01*
X151130000Y-97790000D02*
X151130000Y-92710000D01*
X151130000Y-92710000D02*
X148590000Y-92710000D01*
X148590000Y-92710000D02*
X148590000Y-97790000D01*
X148590000Y-97790000D02*
X151130000Y-97790000D01*
X138430000Y-90170000D02*
X133350000Y-95250000D01*
X133350000Y-95250000D02*
X138430000Y-100330000D01*
X138430000Y-100330000D02*
X143510000Y-95250000D01*
X143510000Y-95250000D02*
X138430000Y-90170000D01*
X153670000Y-86360000D02*
X120650000Y-86360000D01*
X120650000Y-86360000D02*
X120650000Y-104140000D01*
X120650000Y-104140000D02*
X153670000Y-104140000D01*
X153670000Y-104140000D02*
X153670000Y-86360000D01*
D12*
%TO.C,C1*%
X134520000Y-112930000D02*
X139760000Y-112930000D01*
X134520000Y-115670000D02*
X139760000Y-115670000D01*
X134520000Y-112930000D02*
X134520000Y-115670000D01*
X139760000Y-112930000D02*
X139760000Y-115670000D01*
%TO.C,C2*%
X129600000Y-72290000D02*
X129600000Y-75030000D01*
X124360000Y-72290000D02*
X124360000Y-75030000D01*
X124360000Y-75030000D02*
X129600000Y-75030000D01*
X124360000Y-72290000D02*
X129600000Y-72290000D01*
%TO.C,C3*%
X124360000Y-74830000D02*
X129600000Y-74830000D01*
X124360000Y-77570000D02*
X129600000Y-77570000D01*
X124360000Y-74830000D02*
X124360000Y-77570000D01*
X129600000Y-74830000D02*
X129600000Y-77570000D01*
%TO.C,J1*%
X125790000Y-107890000D02*
X123130000Y-107890000D01*
X125790000Y-115570000D02*
X125790000Y-107890000D01*
X123130000Y-115570000D02*
X123130000Y-107890000D01*
X125790000Y-115570000D02*
X123130000Y-115570000D01*
X125790000Y-116840000D02*
X125790000Y-118170000D01*
X125790000Y-118170000D02*
X124460000Y-118170000D01*
%TO.C,J2*%
X158690000Y-86300000D02*
X160020000Y-86300000D01*
X158690000Y-87630000D02*
X158690000Y-86300000D01*
X158690000Y-88900000D02*
X161350000Y-88900000D01*
X161350000Y-88900000D02*
X161350000Y-96580000D01*
X158690000Y-88900000D02*
X158690000Y-96580000D01*
X158690000Y-96580000D02*
X161350000Y-96580000D01*
%TO.C,J3*%
X149800000Y-78680000D02*
X149800000Y-81340000D01*
X152400000Y-78680000D02*
X149800000Y-78680000D01*
X152400000Y-81340000D02*
X149800000Y-81340000D01*
X152400000Y-78680000D02*
X152400000Y-81340000D01*
X153670000Y-78680000D02*
X155000000Y-78680000D01*
X155000000Y-78680000D02*
X155000000Y-80010000D01*
%TO.C,J4*%
X134680000Y-69910000D02*
X134680000Y-67250000D01*
X127000000Y-69910000D02*
X134680000Y-69910000D01*
X127000000Y-67250000D02*
X134680000Y-67250000D01*
X127000000Y-69910000D02*
X127000000Y-67250000D01*
X125730000Y-69910000D02*
X124400000Y-69910000D01*
X124400000Y-69910000D02*
X124400000Y-68580000D01*
%TO.C,J5*%
X184210000Y-115630000D02*
X184210000Y-112970000D01*
X158750000Y-115630000D02*
X184210000Y-115630000D01*
X158750000Y-112970000D02*
X184210000Y-112970000D01*
X158750000Y-115630000D02*
X158750000Y-112970000D01*
X157480000Y-115630000D02*
X156150000Y-115630000D01*
X156150000Y-115630000D02*
X156150000Y-114300000D01*
%TO.C,J6*%
X142300000Y-78680000D02*
X142300000Y-80010000D01*
X140970000Y-78680000D02*
X142300000Y-78680000D01*
X139700000Y-78680000D02*
X139700000Y-81340000D01*
X139700000Y-81340000D02*
X137100000Y-81340000D01*
X139700000Y-78680000D02*
X137100000Y-78680000D01*
X137100000Y-78680000D02*
X137100000Y-81340000D01*
%TO.C,J7*%
X124400000Y-78680000D02*
X124400000Y-81340000D01*
X127000000Y-78680000D02*
X124400000Y-78680000D01*
X127000000Y-81340000D02*
X124400000Y-81340000D01*
X127000000Y-78680000D02*
X127000000Y-81340000D01*
X128270000Y-78680000D02*
X129600000Y-78680000D01*
X129600000Y-78680000D02*
X129600000Y-80010000D01*
%TO.C,J8*%
X144720000Y-69910000D02*
X144720000Y-68580000D01*
X146050000Y-69910000D02*
X144720000Y-69910000D01*
X147320000Y-69910000D02*
X147320000Y-67250000D01*
X147320000Y-67250000D02*
X155000000Y-67250000D01*
X147320000Y-69910000D02*
X155000000Y-69910000D01*
X155000000Y-69910000D02*
X155000000Y-67250000D01*
%TO.C,J9*%
X175320000Y-69910000D02*
X175320000Y-67250000D01*
X167640000Y-69910000D02*
X175320000Y-69910000D01*
X167640000Y-67250000D02*
X175320000Y-67250000D01*
X167640000Y-69910000D02*
X167640000Y-67250000D01*
X166370000Y-69910000D02*
X165040000Y-69910000D01*
X165040000Y-69910000D02*
X165040000Y-68580000D01*
%TO.C,R1*%
X130080000Y-107850000D02*
X130080000Y-110590000D01*
X130080000Y-110590000D02*
X136620000Y-110590000D01*
X136620000Y-110590000D02*
X136620000Y-107850000D01*
X136620000Y-107850000D02*
X130080000Y-107850000D01*
X129310000Y-109220000D02*
X130080000Y-109220000D01*
X137390000Y-109220000D02*
X136620000Y-109220000D01*
%TO.C,R2*%
X151360000Y-109220000D02*
X150590000Y-109220000D01*
X143280000Y-109220000D02*
X144050000Y-109220000D01*
X150590000Y-107850000D02*
X144050000Y-107850000D01*
X150590000Y-110590000D02*
X150590000Y-107850000D01*
X144050000Y-110590000D02*
X150590000Y-110590000D01*
X144050000Y-107850000D02*
X144050000Y-110590000D01*
%TO.C,R3*%
X135660000Y-74930000D02*
X136430000Y-74930000D01*
X143740000Y-74930000D02*
X142970000Y-74930000D01*
X136430000Y-76300000D02*
X142970000Y-76300000D01*
X136430000Y-73560000D02*
X136430000Y-76300000D01*
X142970000Y-73560000D02*
X136430000Y-73560000D01*
X142970000Y-76300000D02*
X142970000Y-73560000D01*
%TO.C,R4*%
X155670000Y-76300000D02*
X155670000Y-73560000D01*
X155670000Y-73560000D02*
X149130000Y-73560000D01*
X149130000Y-73560000D02*
X149130000Y-76300000D01*
X149130000Y-76300000D02*
X155670000Y-76300000D01*
X156440000Y-74930000D02*
X155670000Y-74930000D01*
X148360000Y-74930000D02*
X149130000Y-74930000D01*
%TO.C,SW1*%
X181880000Y-103720000D02*
X177380000Y-103720000D01*
X183130000Y-107720000D02*
X183130000Y-106220000D01*
X177380000Y-110220000D02*
X181880000Y-110220000D01*
X176130000Y-106220000D02*
X176130000Y-107720000D01*
D11*
%TO.C,U2*%
X166600000Y-100820000D02*
X166600000Y-100320000D01*
X166600000Y-83820000D02*
X166600000Y-84320000D01*
X186100000Y-95820000D02*
G75*
G03X186100000Y-95820000I-500000J0D01*
G01*
X186100000Y-90820000D02*
G75*
G03X186100000Y-90820000I-500000J0D01*
G01*
X186100000Y-93320000D02*
G75*
G03X186100000Y-93320000I-500000J0D01*
G01*
X166600000Y-83820000D02*
X186600000Y-83820000D01*
X186600000Y-83820000D02*
X186600000Y-100820000D01*
X186600000Y-100820000D02*
X166600000Y-100820000D01*
D12*
%TO.C,Q1*%
X145310000Y-112450000D02*
X141710000Y-112450000D01*
X145321875Y-112458259D02*
G75*
G02X144330000Y-116750000I-1811875J-1841741D01*
G01*
X141701555Y-112472316D02*
G75*
G03X142730000Y-116750000I1808445J-1827684D01*
G01*
%TO.C,J10*%
X165040000Y-73600000D02*
X165040000Y-76260000D01*
X167640000Y-73600000D02*
X165040000Y-73600000D01*
X167640000Y-76260000D02*
X165040000Y-76260000D01*
X167640000Y-73600000D02*
X167640000Y-76260000D01*
X168910000Y-73600000D02*
X170240000Y-73600000D01*
X170240000Y-73600000D02*
X170240000Y-74930000D01*
%TO.C,U1*%
D11*
X123660000Y-93651428D02*
X123860000Y-94251428D01*
X124060000Y-93651428D01*
X124602857Y-94194285D02*
X124574285Y-94222857D01*
X124488571Y-94251428D01*
X124431428Y-94251428D01*
X124345714Y-94222857D01*
X124288571Y-94165714D01*
X124260000Y-94108571D01*
X124231428Y-93994285D01*
X124231428Y-93908571D01*
X124260000Y-93794285D01*
X124288571Y-93737142D01*
X124345714Y-93680000D01*
X124431428Y-93651428D01*
X124488571Y-93651428D01*
X124574285Y-93680000D01*
X124602857Y-93708571D01*
X125202857Y-94194285D02*
X125174285Y-94222857D01*
X125088571Y-94251428D01*
X125031428Y-94251428D01*
X124945714Y-94222857D01*
X124888571Y-94165714D01*
X124860000Y-94108571D01*
X124831428Y-93994285D01*
X124831428Y-93908571D01*
X124860000Y-93794285D01*
X124888571Y-93737142D01*
X124945714Y-93680000D01*
X125031428Y-93651428D01*
X125088571Y-93651428D01*
X125174285Y-93680000D01*
X125202857Y-93708571D01*
X124217142Y-96791428D02*
X124017142Y-96505714D01*
X123874285Y-96791428D02*
X123874285Y-96191428D01*
X124102857Y-96191428D01*
X124160000Y-96220000D01*
X124188571Y-96248571D01*
X124217142Y-96305714D01*
X124217142Y-96391428D01*
X124188571Y-96448571D01*
X124160000Y-96477142D01*
X124102857Y-96505714D01*
X123874285Y-96505714D01*
X124417142Y-96191428D02*
X124817142Y-96791428D01*
X124817142Y-96191428D02*
X124417142Y-96791428D01*
X125045714Y-96791428D02*
X125045714Y-96191428D01*
X123702857Y-98731428D02*
X124045714Y-98731428D01*
X123874285Y-99331428D02*
X123874285Y-98731428D01*
X124188571Y-98731428D02*
X124588571Y-99331428D01*
X124588571Y-98731428D02*
X124188571Y-99331428D01*
X124817142Y-99331428D02*
X124817142Y-98731428D01*
X124960000Y-98731428D01*
X125045714Y-98760000D01*
X125102857Y-98817142D01*
X125131428Y-98874285D01*
X125160000Y-98988571D01*
X125160000Y-99074285D01*
X125131428Y-99188571D01*
X125102857Y-99245714D01*
X125045714Y-99302857D01*
X124960000Y-99331428D01*
X124817142Y-99331428D01*
X123774285Y-101236428D02*
X123774285Y-100636428D01*
X123917142Y-100636428D01*
X124002857Y-100665000D01*
X124060000Y-100722142D01*
X124088571Y-100779285D01*
X124117142Y-100893571D01*
X124117142Y-100979285D01*
X124088571Y-101093571D01*
X124060000Y-101150714D01*
X124002857Y-101207857D01*
X123917142Y-101236428D01*
X123774285Y-101236428D01*
X124288571Y-100636428D02*
X124631428Y-100636428D01*
X124460000Y-101236428D02*
X124460000Y-100636428D01*
X125174285Y-101236428D02*
X124974285Y-100950714D01*
X124831428Y-101236428D02*
X124831428Y-100636428D01*
X125060000Y-100636428D01*
X125117142Y-100665000D01*
X125145714Y-100693571D01*
X125174285Y-100750714D01*
X125174285Y-100836428D01*
X125145714Y-100893571D01*
X125117142Y-100922142D01*
X125060000Y-100950714D01*
X124831428Y-100950714D01*
X124002857Y-89235000D02*
X123945714Y-89206428D01*
X123860000Y-89206428D01*
X123774285Y-89235000D01*
X123717142Y-89292142D01*
X123688571Y-89349285D01*
X123660000Y-89463571D01*
X123660000Y-89549285D01*
X123688571Y-89663571D01*
X123717142Y-89720714D01*
X123774285Y-89777857D01*
X123860000Y-89806428D01*
X123917142Y-89806428D01*
X124002857Y-89777857D01*
X124031428Y-89749285D01*
X124031428Y-89549285D01*
X123917142Y-89549285D01*
X124288571Y-89806428D02*
X124288571Y-89206428D01*
X124631428Y-89806428D01*
X124631428Y-89206428D01*
X124917142Y-89806428D02*
X124917142Y-89206428D01*
X125060000Y-89206428D01*
X125145714Y-89235000D01*
X125202857Y-89292142D01*
X125231428Y-89349285D01*
X125260000Y-89463571D01*
X125260000Y-89549285D01*
X125231428Y-89663571D01*
X125202857Y-89720714D01*
X125145714Y-89777857D01*
X125060000Y-89806428D01*
X124917142Y-89806428D01*
X124002857Y-91140000D02*
X123945714Y-91111428D01*
X123860000Y-91111428D01*
X123774285Y-91140000D01*
X123717142Y-91197142D01*
X123688571Y-91254285D01*
X123660000Y-91368571D01*
X123660000Y-91454285D01*
X123688571Y-91568571D01*
X123717142Y-91625714D01*
X123774285Y-91682857D01*
X123860000Y-91711428D01*
X123917142Y-91711428D01*
X124002857Y-91682857D01*
X124031428Y-91654285D01*
X124031428Y-91454285D01*
X123917142Y-91454285D01*
X124288571Y-91711428D02*
X124288571Y-91111428D01*
X124631428Y-91711428D01*
X124631428Y-91111428D01*
X124917142Y-91711428D02*
X124917142Y-91111428D01*
X125060000Y-91111428D01*
X125145714Y-91140000D01*
X125202857Y-91197142D01*
X125231428Y-91254285D01*
X125260000Y-91368571D01*
X125260000Y-91454285D01*
X125231428Y-91568571D01*
X125202857Y-91625714D01*
X125145714Y-91682857D01*
X125060000Y-91711428D01*
X124917142Y-91711428D01*
%TO.C,C1*%
X136993333Y-117197142D02*
X136945714Y-117244761D01*
X136802857Y-117292380D01*
X136707619Y-117292380D01*
X136564761Y-117244761D01*
X136469523Y-117149523D01*
X136421904Y-117054285D01*
X136374285Y-116863809D01*
X136374285Y-116720952D01*
X136421904Y-116530476D01*
X136469523Y-116435238D01*
X136564761Y-116340000D01*
X136707619Y-116292380D01*
X136802857Y-116292380D01*
X136945714Y-116340000D01*
X136993333Y-116387619D01*
X137945714Y-117292380D02*
X137374285Y-117292380D01*
X137660000Y-117292380D02*
X137660000Y-116292380D01*
X137564761Y-116435238D01*
X137469523Y-116530476D01*
X137374285Y-116578095D01*
%TO.C,C2*%
X123023333Y-74017142D02*
X122975714Y-74064761D01*
X122832857Y-74112380D01*
X122737619Y-74112380D01*
X122594761Y-74064761D01*
X122499523Y-73969523D01*
X122451904Y-73874285D01*
X122404285Y-73683809D01*
X122404285Y-73540952D01*
X122451904Y-73350476D01*
X122499523Y-73255238D01*
X122594761Y-73160000D01*
X122737619Y-73112380D01*
X122832857Y-73112380D01*
X122975714Y-73160000D01*
X123023333Y-73207619D01*
X123404285Y-73207619D02*
X123451904Y-73160000D01*
X123547142Y-73112380D01*
X123785238Y-73112380D01*
X123880476Y-73160000D01*
X123928095Y-73207619D01*
X123975714Y-73302857D01*
X123975714Y-73398095D01*
X123928095Y-73540952D01*
X123356666Y-74112380D01*
X123975714Y-74112380D01*
%TO.C,C3*%
X123023333Y-76557142D02*
X122975714Y-76604761D01*
X122832857Y-76652380D01*
X122737619Y-76652380D01*
X122594761Y-76604761D01*
X122499523Y-76509523D01*
X122451904Y-76414285D01*
X122404285Y-76223809D01*
X122404285Y-76080952D01*
X122451904Y-75890476D01*
X122499523Y-75795238D01*
X122594761Y-75700000D01*
X122737619Y-75652380D01*
X122832857Y-75652380D01*
X122975714Y-75700000D01*
X123023333Y-75747619D01*
X123356666Y-75652380D02*
X123975714Y-75652380D01*
X123642380Y-76033333D01*
X123785238Y-76033333D01*
X123880476Y-76080952D01*
X123928095Y-76128571D01*
X123975714Y-76223809D01*
X123975714Y-76461904D01*
X123928095Y-76557142D01*
X123880476Y-76604761D01*
X123785238Y-76652380D01*
X123499523Y-76652380D01*
X123404285Y-76604761D01*
X123356666Y-76557142D01*
%TO.C,J1*%
X123579047Y-107342380D02*
X123245714Y-106866190D01*
X123007619Y-107342380D02*
X123007619Y-106342380D01*
X123388571Y-106342380D01*
X123483809Y-106390000D01*
X123531428Y-106437619D01*
X123579047Y-106532857D01*
X123579047Y-106675714D01*
X123531428Y-106770952D01*
X123483809Y-106818571D01*
X123388571Y-106866190D01*
X123007619Y-106866190D01*
X123960000Y-107056666D02*
X124436190Y-107056666D01*
X123864761Y-107342380D02*
X124198095Y-106342380D01*
X124531428Y-107342380D01*
X124864761Y-107342380D02*
X124864761Y-106342380D01*
X125340952Y-107342380D02*
X125340952Y-106342380D01*
X125912380Y-107342380D01*
X125912380Y-106342380D01*
%TO.C,J2*%
X158234285Y-98032380D02*
X158234285Y-97032380D01*
X158615238Y-97032380D01*
X158710476Y-97080000D01*
X158758095Y-97127619D01*
X158805714Y-97222857D01*
X158805714Y-97365714D01*
X158758095Y-97460952D01*
X158710476Y-97508571D01*
X158615238Y-97556190D01*
X158234285Y-97556190D01*
X159805714Y-98032380D02*
X159472380Y-97556190D01*
X159234285Y-98032380D02*
X159234285Y-97032380D01*
X159615238Y-97032380D01*
X159710476Y-97080000D01*
X159758095Y-97127619D01*
X159805714Y-97222857D01*
X159805714Y-97365714D01*
X159758095Y-97460952D01*
X159710476Y-97508571D01*
X159615238Y-97556190D01*
X159234285Y-97556190D01*
X160424761Y-97032380D02*
X160615238Y-97032380D01*
X160710476Y-97080000D01*
X160805714Y-97175238D01*
X160853333Y-97365714D01*
X160853333Y-97699047D01*
X160805714Y-97889523D01*
X160710476Y-97984761D01*
X160615238Y-98032380D01*
X160424761Y-98032380D01*
X160329523Y-97984761D01*
X160234285Y-97889523D01*
X160186666Y-97699047D01*
X160186666Y-97365714D01*
X160234285Y-97175238D01*
X160329523Y-97080000D01*
X160424761Y-97032380D01*
X161805714Y-97080000D02*
X161710476Y-97032380D01*
X161567619Y-97032380D01*
X161424761Y-97080000D01*
X161329523Y-97175238D01*
X161281904Y-97270476D01*
X161234285Y-97460952D01*
X161234285Y-97603809D01*
X161281904Y-97794285D01*
X161329523Y-97889523D01*
X161424761Y-97984761D01*
X161567619Y-98032380D01*
X161662857Y-98032380D01*
X161805714Y-97984761D01*
X161853333Y-97937142D01*
X161853333Y-97603809D01*
X161662857Y-97603809D01*
%TO.C,J3*%
X155662380Y-83319523D02*
X156662380Y-83081428D01*
X155948095Y-82890952D01*
X156662380Y-82700476D01*
X155662380Y-82462380D01*
X156662380Y-82081428D02*
X155662380Y-82081428D01*
X156662380Y-81605238D02*
X155662380Y-81605238D01*
X156662380Y-81033809D01*
X155662380Y-81033809D01*
X156662380Y-80557619D02*
X155662380Y-80557619D01*
X155662380Y-80319523D01*
X155710000Y-80176666D01*
X155805238Y-80081428D01*
X155900476Y-80033809D01*
X156090952Y-79986190D01*
X156233809Y-79986190D01*
X156424285Y-80033809D01*
X156519523Y-80081428D01*
X156614761Y-80176666D01*
X156662380Y-80319523D01*
X156662380Y-80557619D01*
X156757619Y-79795714D02*
X156757619Y-79033809D01*
X156662380Y-78795714D02*
X155662380Y-78795714D01*
X155662380Y-78557619D01*
X155710000Y-78414761D01*
X155805238Y-78319523D01*
X155900476Y-78271904D01*
X156090952Y-78224285D01*
X156233809Y-78224285D01*
X156424285Y-78271904D01*
X156519523Y-78319523D01*
X156614761Y-78414761D01*
X156662380Y-78557619D01*
X156662380Y-78795714D01*
X156662380Y-77795714D02*
X155662380Y-77795714D01*
X156662380Y-76748095D02*
X156186190Y-77081428D01*
X156662380Y-77319523D02*
X155662380Y-77319523D01*
X155662380Y-76938571D01*
X155710000Y-76843333D01*
X155757619Y-76795714D01*
X155852857Y-76748095D01*
X155995714Y-76748095D01*
X156090952Y-76795714D01*
X156138571Y-76843333D01*
X156186190Y-76938571D01*
X156186190Y-77319523D01*
%TO.C,J4*%
X136132380Y-70413333D02*
X135132380Y-70413333D01*
X135227619Y-69984761D02*
X135180000Y-69937142D01*
X135132380Y-69841904D01*
X135132380Y-69603809D01*
X135180000Y-69508571D01*
X135227619Y-69460952D01*
X135322857Y-69413333D01*
X135418095Y-69413333D01*
X135560952Y-69460952D01*
X136132380Y-70032380D01*
X136132380Y-69413333D01*
X136037142Y-68413333D02*
X136084761Y-68460952D01*
X136132380Y-68603809D01*
X136132380Y-68699047D01*
X136084761Y-68841904D01*
X135989523Y-68937142D01*
X135894285Y-68984761D01*
X135703809Y-69032380D01*
X135560952Y-69032380D01*
X135370476Y-68984761D01*
X135275238Y-68937142D01*
X135180000Y-68841904D01*
X135132380Y-68699047D01*
X135132380Y-68603809D01*
X135180000Y-68460952D01*
X135227619Y-68413333D01*
X136227619Y-68222857D02*
X136227619Y-67460952D01*
X136132380Y-66699047D02*
X136132380Y-67270476D01*
X136132380Y-66984761D02*
X135132380Y-66984761D01*
X135275238Y-67080000D01*
X135370476Y-67175238D01*
X135418095Y-67270476D01*
%TO.C,J5*%
X148010952Y-116022380D02*
X147534761Y-116022380D01*
X147534761Y-115022380D01*
X148344285Y-116022380D02*
X148344285Y-115022380D01*
X149344285Y-115070000D02*
X149249047Y-115022380D01*
X149106190Y-115022380D01*
X148963333Y-115070000D01*
X148868095Y-115165238D01*
X148820476Y-115260476D01*
X148772857Y-115450952D01*
X148772857Y-115593809D01*
X148820476Y-115784285D01*
X148868095Y-115879523D01*
X148963333Y-115974761D01*
X149106190Y-116022380D01*
X149201428Y-116022380D01*
X149344285Y-115974761D01*
X149391904Y-115927142D01*
X149391904Y-115593809D01*
X149201428Y-115593809D01*
X149820476Y-116022380D02*
X149820476Y-115022380D01*
X149820476Y-115498571D02*
X150391904Y-115498571D01*
X150391904Y-116022380D02*
X150391904Y-115022380D01*
X150725238Y-115022380D02*
X151296666Y-115022380D01*
X151010952Y-116022380D02*
X151010952Y-115022380D01*
X151630000Y-116022380D02*
X151630000Y-115022380D01*
X152201428Y-116022380D01*
X152201428Y-115022380D01*
X152677619Y-116022380D02*
X152677619Y-115022380D01*
X153153809Y-116022380D02*
X153153809Y-115022380D01*
X153725238Y-116022380D01*
X153725238Y-115022380D01*
X154725238Y-115070000D02*
X154630000Y-115022380D01*
X154487142Y-115022380D01*
X154344285Y-115070000D01*
X154249047Y-115165238D01*
X154201428Y-115260476D01*
X154153809Y-115450952D01*
X154153809Y-115593809D01*
X154201428Y-115784285D01*
X154249047Y-115879523D01*
X154344285Y-115974761D01*
X154487142Y-116022380D01*
X154582380Y-116022380D01*
X154725238Y-115974761D01*
X154772857Y-115927142D01*
X154772857Y-115593809D01*
X154582380Y-115593809D01*
%TO.C,J6*%
X143676666Y-81795714D02*
X143676666Y-81319523D01*
X143962380Y-81890952D02*
X142962380Y-81557619D01*
X143962380Y-81224285D01*
X143962380Y-80890952D02*
X142962380Y-80890952D01*
X143962380Y-80319523D01*
X142962380Y-80319523D01*
X143438571Y-79843333D02*
X143438571Y-79510000D01*
X143962380Y-79367142D02*
X143962380Y-79843333D01*
X142962380Y-79843333D01*
X142962380Y-79367142D01*
X143962380Y-78938571D02*
X142962380Y-78938571D01*
X143676666Y-78605238D01*
X142962380Y-78271904D01*
X143962380Y-78271904D01*
%TO.C,J7*%
X131262380Y-81795714D02*
X130786190Y-82129047D01*
X131262380Y-82367142D02*
X130262380Y-82367142D01*
X130262380Y-81986190D01*
X130310000Y-81890952D01*
X130357619Y-81843333D01*
X130452857Y-81795714D01*
X130595714Y-81795714D01*
X130690952Y-81843333D01*
X130738571Y-81890952D01*
X130786190Y-81986190D01*
X130786190Y-82367142D01*
X130976666Y-81414761D02*
X130976666Y-80938571D01*
X131262380Y-81510000D02*
X130262380Y-81176666D01*
X131262380Y-80843333D01*
X131262380Y-80510000D02*
X130262380Y-80510000D01*
X131262380Y-80033809D02*
X130262380Y-80033809D01*
X131262380Y-79462380D01*
X130262380Y-79462380D01*
X131357619Y-79224285D02*
X131357619Y-78462380D01*
X131357619Y-77557619D02*
X131310000Y-77652857D01*
X131214761Y-77748095D01*
X131071904Y-77890952D01*
X131024285Y-77986190D01*
X131024285Y-78081428D01*
X131262380Y-78033809D02*
X131214761Y-78129047D01*
X131119523Y-78224285D01*
X130929047Y-78271904D01*
X130595714Y-78271904D01*
X130405238Y-78224285D01*
X130310000Y-78129047D01*
X130262380Y-78033809D01*
X130262380Y-77843333D01*
X130310000Y-77748095D01*
X130405238Y-77652857D01*
X130595714Y-77605238D01*
X130929047Y-77605238D01*
X131119523Y-77652857D01*
X131214761Y-77748095D01*
X131262380Y-77843333D01*
X131262380Y-78033809D01*
%TO.C,J8*%
X156452380Y-70413333D02*
X155452380Y-70413333D01*
X155547619Y-69984761D02*
X155500000Y-69937142D01*
X155452380Y-69841904D01*
X155452380Y-69603809D01*
X155500000Y-69508571D01*
X155547619Y-69460952D01*
X155642857Y-69413333D01*
X155738095Y-69413333D01*
X155880952Y-69460952D01*
X156452380Y-70032380D01*
X156452380Y-69413333D01*
X156357142Y-68413333D02*
X156404761Y-68460952D01*
X156452380Y-68603809D01*
X156452380Y-68699047D01*
X156404761Y-68841904D01*
X156309523Y-68937142D01*
X156214285Y-68984761D01*
X156023809Y-69032380D01*
X155880952Y-69032380D01*
X155690476Y-68984761D01*
X155595238Y-68937142D01*
X155500000Y-68841904D01*
X155452380Y-68699047D01*
X155452380Y-68603809D01*
X155500000Y-68460952D01*
X155547619Y-68413333D01*
X156547619Y-68222857D02*
X156547619Y-67460952D01*
X155547619Y-67270476D02*
X155500000Y-67222857D01*
X155452380Y-67127619D01*
X155452380Y-66889523D01*
X155500000Y-66794285D01*
X155547619Y-66746666D01*
X155642857Y-66699047D01*
X155738095Y-66699047D01*
X155880952Y-66746666D01*
X156452380Y-67318095D01*
X156452380Y-66699047D01*
%TO.C,J9*%
X176772380Y-70413333D02*
X175772380Y-70413333D01*
X175867619Y-69984761D02*
X175820000Y-69937142D01*
X175772380Y-69841904D01*
X175772380Y-69603809D01*
X175820000Y-69508571D01*
X175867619Y-69460952D01*
X175962857Y-69413333D01*
X176058095Y-69413333D01*
X176200952Y-69460952D01*
X176772380Y-70032380D01*
X176772380Y-69413333D01*
X176677142Y-68413333D02*
X176724761Y-68460952D01*
X176772380Y-68603809D01*
X176772380Y-68699047D01*
X176724761Y-68841904D01*
X176629523Y-68937142D01*
X176534285Y-68984761D01*
X176343809Y-69032380D01*
X176200952Y-69032380D01*
X176010476Y-68984761D01*
X175915238Y-68937142D01*
X175820000Y-68841904D01*
X175772380Y-68699047D01*
X175772380Y-68603809D01*
X175820000Y-68460952D01*
X175867619Y-68413333D01*
X176867619Y-68222857D02*
X176867619Y-67460952D01*
X175772380Y-67318095D02*
X175772380Y-66699047D01*
X176153333Y-67032380D01*
X176153333Y-66889523D01*
X176200952Y-66794285D01*
X176248571Y-66746666D01*
X176343809Y-66699047D01*
X176581904Y-66699047D01*
X176677142Y-66746666D01*
X176724761Y-66794285D01*
X176772380Y-66889523D01*
X176772380Y-67175238D01*
X176724761Y-67270476D01*
X176677142Y-67318095D01*
%TO.C,R1*%
X133183333Y-109672380D02*
X132850000Y-109196190D01*
X132611904Y-109672380D02*
X132611904Y-108672380D01*
X132992857Y-108672380D01*
X133088095Y-108720000D01*
X133135714Y-108767619D01*
X133183333Y-108862857D01*
X133183333Y-109005714D01*
X133135714Y-109100952D01*
X133088095Y-109148571D01*
X132992857Y-109196190D01*
X132611904Y-109196190D01*
X134135714Y-109672380D02*
X133564285Y-109672380D01*
X133850000Y-109672380D02*
X133850000Y-108672380D01*
X133754761Y-108815238D01*
X133659523Y-108910476D01*
X133564285Y-108958095D01*
%TO.C,R2*%
X147153333Y-109672380D02*
X146820000Y-109196190D01*
X146581904Y-109672380D02*
X146581904Y-108672380D01*
X146962857Y-108672380D01*
X147058095Y-108720000D01*
X147105714Y-108767619D01*
X147153333Y-108862857D01*
X147153333Y-109005714D01*
X147105714Y-109100952D01*
X147058095Y-109148571D01*
X146962857Y-109196190D01*
X146581904Y-109196190D01*
X147534285Y-108767619D02*
X147581904Y-108720000D01*
X147677142Y-108672380D01*
X147915238Y-108672380D01*
X148010476Y-108720000D01*
X148058095Y-108767619D01*
X148105714Y-108862857D01*
X148105714Y-108958095D01*
X148058095Y-109100952D01*
X147486666Y-109672380D01*
X148105714Y-109672380D01*
%TO.C,R3*%
X139533333Y-75382380D02*
X139200000Y-74906190D01*
X138961904Y-75382380D02*
X138961904Y-74382380D01*
X139342857Y-74382380D01*
X139438095Y-74430000D01*
X139485714Y-74477619D01*
X139533333Y-74572857D01*
X139533333Y-74715714D01*
X139485714Y-74810952D01*
X139438095Y-74858571D01*
X139342857Y-74906190D01*
X138961904Y-74906190D01*
X139866666Y-74382380D02*
X140485714Y-74382380D01*
X140152380Y-74763333D01*
X140295238Y-74763333D01*
X140390476Y-74810952D01*
X140438095Y-74858571D01*
X140485714Y-74953809D01*
X140485714Y-75191904D01*
X140438095Y-75287142D01*
X140390476Y-75334761D01*
X140295238Y-75382380D01*
X140009523Y-75382380D01*
X139914285Y-75334761D01*
X139866666Y-75287142D01*
%TO.C,R4*%
X152233333Y-75382380D02*
X151900000Y-74906190D01*
X151661904Y-75382380D02*
X151661904Y-74382380D01*
X152042857Y-74382380D01*
X152138095Y-74430000D01*
X152185714Y-74477619D01*
X152233333Y-74572857D01*
X152233333Y-74715714D01*
X152185714Y-74810952D01*
X152138095Y-74858571D01*
X152042857Y-74906190D01*
X151661904Y-74906190D01*
X153090476Y-74715714D02*
X153090476Y-75382380D01*
X152852380Y-74334761D02*
X152614285Y-75049047D01*
X153233333Y-75049047D01*
%TO.C,SW1*%
X174010952Y-102877142D02*
X173963333Y-102924761D01*
X173820476Y-102972380D01*
X173725238Y-102972380D01*
X173582380Y-102924761D01*
X173487142Y-102829523D01*
X173439523Y-102734285D01*
X173391904Y-102543809D01*
X173391904Y-102400952D01*
X173439523Y-102210476D01*
X173487142Y-102115238D01*
X173582380Y-102020000D01*
X173725238Y-101972380D01*
X173820476Y-101972380D01*
X173963333Y-102020000D01*
X174010952Y-102067619D01*
X174630000Y-101972380D02*
X174820476Y-101972380D01*
X174915714Y-102020000D01*
X175010952Y-102115238D01*
X175058571Y-102305714D01*
X175058571Y-102639047D01*
X175010952Y-102829523D01*
X174915714Y-102924761D01*
X174820476Y-102972380D01*
X174630000Y-102972380D01*
X174534761Y-102924761D01*
X174439523Y-102829523D01*
X174391904Y-102639047D01*
X174391904Y-102305714D01*
X174439523Y-102115238D01*
X174534761Y-102020000D01*
X174630000Y-101972380D01*
X175487142Y-102972380D02*
X175487142Y-101972380D01*
X176058571Y-102972380D01*
X176058571Y-101972380D01*
X176868095Y-102448571D02*
X176534761Y-102448571D01*
X176534761Y-102972380D02*
X176534761Y-101972380D01*
X177010952Y-101972380D01*
X177391904Y-102972380D02*
X177391904Y-101972380D01*
X178391904Y-102020000D02*
X178296666Y-101972380D01*
X178153809Y-101972380D01*
X178010952Y-102020000D01*
X177915714Y-102115238D01*
X177868095Y-102210476D01*
X177820476Y-102400952D01*
X177820476Y-102543809D01*
X177868095Y-102734285D01*
X177915714Y-102829523D01*
X178010952Y-102924761D01*
X178153809Y-102972380D01*
X178249047Y-102972380D01*
X178391904Y-102924761D01*
X178439523Y-102877142D01*
X178439523Y-102543809D01*
X178249047Y-102543809D01*
X178630000Y-103067619D02*
X179391904Y-103067619D01*
X179963333Y-102448571D02*
X180106190Y-102496190D01*
X180153809Y-102543809D01*
X180201428Y-102639047D01*
X180201428Y-102781904D01*
X180153809Y-102877142D01*
X180106190Y-102924761D01*
X180010952Y-102972380D01*
X179630000Y-102972380D01*
X179630000Y-101972380D01*
X179963333Y-101972380D01*
X180058571Y-102020000D01*
X180106190Y-102067619D01*
X180153809Y-102162857D01*
X180153809Y-102258095D01*
X180106190Y-102353333D01*
X180058571Y-102400952D01*
X179963333Y-102448571D01*
X179630000Y-102448571D01*
X180630000Y-101972380D02*
X180630000Y-102781904D01*
X180677619Y-102877142D01*
X180725238Y-102924761D01*
X180820476Y-102972380D01*
X181010952Y-102972380D01*
X181106190Y-102924761D01*
X181153809Y-102877142D01*
X181201428Y-102781904D01*
X181201428Y-101972380D01*
X181534761Y-101972380D02*
X182106190Y-101972380D01*
X181820476Y-102972380D02*
X181820476Y-101972380D01*
X182296666Y-101972380D02*
X182868095Y-101972380D01*
X182582380Y-102972380D02*
X182582380Y-101972380D01*
X183391904Y-101972380D02*
X183582380Y-101972380D01*
X183677619Y-102020000D01*
X183772857Y-102115238D01*
X183820476Y-102305714D01*
X183820476Y-102639047D01*
X183772857Y-102829523D01*
X183677619Y-102924761D01*
X183582380Y-102972380D01*
X183391904Y-102972380D01*
X183296666Y-102924761D01*
X183201428Y-102829523D01*
X183153809Y-102639047D01*
X183153809Y-102305714D01*
X183201428Y-102115238D01*
X183296666Y-102020000D01*
X183391904Y-101972380D01*
X184249047Y-102972380D02*
X184249047Y-101972380D01*
X184820476Y-102972380D01*
X184820476Y-101972380D01*
%TO.C,U2*%
X178504761Y-99177142D02*
X178457142Y-99224761D01*
X178314285Y-99272380D01*
X178219047Y-99272380D01*
X178076190Y-99224761D01*
X177980952Y-99129523D01*
X177933333Y-99034285D01*
X177885714Y-98843809D01*
X177885714Y-98700952D01*
X177933333Y-98510476D01*
X177980952Y-98415238D01*
X178076190Y-98320000D01*
X178219047Y-98272380D01*
X178314285Y-98272380D01*
X178457142Y-98320000D01*
X178504761Y-98367619D01*
X179504761Y-99177142D02*
X179457142Y-99224761D01*
X179314285Y-99272380D01*
X179219047Y-99272380D01*
X179076190Y-99224761D01*
X178980952Y-99129523D01*
X178933333Y-99034285D01*
X178885714Y-98843809D01*
X178885714Y-98700952D01*
X178933333Y-98510476D01*
X178980952Y-98415238D01*
X179076190Y-98320000D01*
X179219047Y-98272380D01*
X179314285Y-98272380D01*
X179457142Y-98320000D01*
X179504761Y-98367619D01*
X180457142Y-99272380D02*
X179885714Y-99272380D01*
X180171428Y-99272380D02*
X180171428Y-98272380D01*
X180076190Y-98415238D01*
X179980952Y-98510476D01*
X179885714Y-98558095D01*
X181409523Y-99272380D02*
X180838095Y-99272380D01*
X181123809Y-99272380D02*
X181123809Y-98272380D01*
X181028571Y-98415238D01*
X180933333Y-98510476D01*
X180838095Y-98558095D01*
X182028571Y-98272380D02*
X182123809Y-98272380D01*
X182219047Y-98320000D01*
X182266666Y-98367619D01*
X182314285Y-98462857D01*
X182361904Y-98653333D01*
X182361904Y-98891428D01*
X182314285Y-99081904D01*
X182266666Y-99177142D01*
X182219047Y-99224761D01*
X182123809Y-99272380D01*
X182028571Y-99272380D01*
X181933333Y-99224761D01*
X181885714Y-99177142D01*
X181838095Y-99081904D01*
X181790476Y-98891428D01*
X181790476Y-98653333D01*
X181838095Y-98462857D01*
X181885714Y-98367619D01*
X181933333Y-98320000D01*
X182028571Y-98272380D01*
X183314285Y-99272380D02*
X182742857Y-99272380D01*
X183028571Y-99272380D02*
X183028571Y-98272380D01*
X182933333Y-98415238D01*
X182838095Y-98510476D01*
X182742857Y-98558095D01*
%TO.C,Q1*%
X143414761Y-119247619D02*
X143319523Y-119200000D01*
X143224285Y-119104761D01*
X143081428Y-118961904D01*
X142986190Y-118914285D01*
X142890952Y-118914285D01*
X142938571Y-119152380D02*
X142843333Y-119104761D01*
X142748095Y-119009523D01*
X142700476Y-118819047D01*
X142700476Y-118485714D01*
X142748095Y-118295238D01*
X142843333Y-118200000D01*
X142938571Y-118152380D01*
X143129047Y-118152380D01*
X143224285Y-118200000D01*
X143319523Y-118295238D01*
X143367142Y-118485714D01*
X143367142Y-118819047D01*
X143319523Y-119009523D01*
X143224285Y-119104761D01*
X143129047Y-119152380D01*
X142938571Y-119152380D01*
X144319523Y-119152380D02*
X143748095Y-119152380D01*
X144033809Y-119152380D02*
X144033809Y-118152380D01*
X143938571Y-118295238D01*
X143843333Y-118390476D01*
X143748095Y-118438095D01*
%TO.C,J10*%
X171378571Y-76049047D02*
X171426190Y-75906190D01*
X171473809Y-75858571D01*
X171569047Y-75810952D01*
X171711904Y-75810952D01*
X171807142Y-75858571D01*
X171854761Y-75906190D01*
X171902380Y-76001428D01*
X171902380Y-76382380D01*
X170902380Y-76382380D01*
X170902380Y-76049047D01*
X170950000Y-75953809D01*
X170997619Y-75906190D01*
X171092857Y-75858571D01*
X171188095Y-75858571D01*
X171283333Y-75906190D01*
X171330952Y-75953809D01*
X171378571Y-76049047D01*
X171378571Y-76382380D01*
X171616666Y-75430000D02*
X171616666Y-74953809D01*
X171902380Y-75525238D02*
X170902380Y-75191904D01*
X171902380Y-74858571D01*
X170902380Y-74668095D02*
X170902380Y-74096666D01*
X171902380Y-74382380D02*
X170902380Y-74382380D01*
X170902380Y-73906190D02*
X170902380Y-73334761D01*
X171902380Y-73620476D02*
X170902380Y-73620476D01*
%TD*%
M02*
