G04 #@! TF.GenerationSoftware,KiCad,Pcbnew,5.0.0*
G04 #@! TF.CreationDate,2018-07-31T16:14:15+02:00*
G04 #@! TF.ProjectId,HB-UNI-Sen-WEA,48422D554E492D53656E2D5745412E6B,1.0*
G04 #@! TF.SameCoordinates,Original*
G04 #@! TF.FileFunction,Soldermask,Bot*
G04 #@! TF.FilePolarity,Negative*
%FSLAX46Y46*%
G04 Gerber Fmt 4.6, Leading zero omitted, Abs format (unit mm)*
G04 Created by KiCad (PCBNEW 5.0.0) date Tue Jul 31 16:14:15 2018*
%MOMM*%
%LPD*%
G01*
G04 APERTURE LIST*
%ADD10C,4.800000*%
%ADD11C,1.100000*%
%ADD12C,2.200000*%
%ADD13C,2.000000*%
%ADD14R,2.100000X2.100000*%
%ADD15O,2.100000X2.100000*%
%ADD16O,2.000000X2.000000*%
%ADD17C,2.400000*%
%ADD18C,1.750000*%
%ADD19C,0.100000*%
%ADD20C,1.500000*%
%ADD21R,1.500000X2.200000*%
G04 APERTURE END LIST*
D10*
G04 #@! TO.C,REF\002A\002A*
X166370000Y-105410000D03*
D11*
X168020000Y-105410000D03*
X167536726Y-106576726D03*
X166370000Y-107060000D03*
X165203274Y-106576726D03*
X164720000Y-105410000D03*
X165203274Y-104243274D03*
X166370000Y-103760000D03*
X167536726Y-104243274D03*
G04 #@! TD*
D12*
G04 #@! TO.C,U1*
X143510000Y-90170000D03*
X146050000Y-90170000D03*
X152400000Y-92710000D03*
X152400000Y-90170000D03*
X152400000Y-87630000D03*
X149860000Y-87630000D03*
X147320000Y-87630000D03*
X144780000Y-87630000D03*
X142240000Y-87630000D03*
X139700000Y-87630000D03*
X137160000Y-87630000D03*
X134620000Y-87630000D03*
X132080000Y-87630000D03*
X129540000Y-87630000D03*
X127000000Y-87630000D03*
X124460000Y-87630000D03*
X124460000Y-102870000D03*
X127000000Y-102870000D03*
X129540000Y-102870000D03*
X132080000Y-102870000D03*
X134620000Y-102870000D03*
X137160000Y-102870000D03*
X139700000Y-102870000D03*
X142240000Y-102870000D03*
X144780000Y-102870000D03*
X147320000Y-102870000D03*
X149860000Y-102870000D03*
X152400000Y-102870000D03*
X135890000Y-90170000D03*
X133350000Y-90170000D03*
G04 #@! TD*
D13*
G04 #@! TO.C,C1*
X135890000Y-114300000D03*
X138390000Y-114300000D03*
G04 #@! TD*
G04 #@! TO.C,C2*
X128230000Y-73660000D03*
X125730000Y-73660000D03*
G04 #@! TD*
G04 #@! TO.C,C3*
X125730000Y-76200000D03*
X128230000Y-76200000D03*
G04 #@! TD*
D14*
G04 #@! TO.C,J1*
X124460000Y-116840000D03*
D15*
X124460000Y-114300000D03*
X124460000Y-111760000D03*
X124460000Y-109220000D03*
G04 #@! TD*
G04 #@! TO.C,J2*
X160020000Y-95250000D03*
X160020000Y-92710000D03*
X160020000Y-90170000D03*
D14*
X160020000Y-87630000D03*
G04 #@! TD*
G04 #@! TO.C,J3*
X153670000Y-80010000D03*
D15*
X151130000Y-80010000D03*
G04 #@! TD*
D14*
G04 #@! TO.C,J4*
X125730000Y-68580000D03*
D15*
X128270000Y-68580000D03*
X130810000Y-68580000D03*
X133350000Y-68580000D03*
G04 #@! TD*
D14*
G04 #@! TO.C,J5*
X157480000Y-114300000D03*
D15*
X160020000Y-114300000D03*
X162560000Y-114300000D03*
X165100000Y-114300000D03*
X167640000Y-114300000D03*
X170180000Y-114300000D03*
X172720000Y-114300000D03*
X175260000Y-114300000D03*
X177800000Y-114300000D03*
X180340000Y-114300000D03*
X182880000Y-114300000D03*
G04 #@! TD*
G04 #@! TO.C,J6*
X138430000Y-80010000D03*
D14*
X140970000Y-80010000D03*
G04 #@! TD*
G04 #@! TO.C,J7*
X128270000Y-80010000D03*
D15*
X125730000Y-80010000D03*
G04 #@! TD*
G04 #@! TO.C,J8*
X153670000Y-68580000D03*
X151130000Y-68580000D03*
X148590000Y-68580000D03*
D14*
X146050000Y-68580000D03*
G04 #@! TD*
G04 #@! TO.C,J9*
X166370000Y-68580000D03*
D15*
X168910000Y-68580000D03*
X171450000Y-68580000D03*
X173990000Y-68580000D03*
G04 #@! TD*
D13*
G04 #@! TO.C,R1*
X128270000Y-109220000D03*
D16*
X138430000Y-109220000D03*
G04 #@! TD*
G04 #@! TO.C,R2*
X152400000Y-109220000D03*
D13*
X142240000Y-109220000D03*
G04 #@! TD*
D16*
G04 #@! TO.C,R3*
X134620000Y-74930000D03*
D13*
X144780000Y-74930000D03*
G04 #@! TD*
G04 #@! TO.C,R4*
X157480000Y-74930000D03*
D16*
X147320000Y-74930000D03*
G04 #@! TD*
D17*
G04 #@! TO.C,SW1*
X182880000Y-104720000D03*
X182880000Y-109220000D03*
X176380000Y-104720000D03*
X176380000Y-109220000D03*
G04 #@! TD*
D18*
G04 #@! TO.C,U2*
X167600000Y-99320000D03*
X167600000Y-85320000D03*
X167600000Y-87320000D03*
X167600000Y-89320000D03*
X167600000Y-91320000D03*
X167600000Y-93320000D03*
X167600000Y-95320000D03*
X167600000Y-97320000D03*
G04 #@! TD*
D19*
G04 #@! TO.C,Q1*
G36*
X143921756Y-114871806D02*
X143958159Y-114877206D01*
X143993857Y-114886147D01*
X144028506Y-114898545D01*
X144061774Y-114914280D01*
X144093339Y-114933199D01*
X144122897Y-114955121D01*
X144150165Y-114979835D01*
X144174879Y-115007103D01*
X144196801Y-115036661D01*
X144215720Y-115068226D01*
X144231455Y-115101494D01*
X144243853Y-115136143D01*
X144252794Y-115171841D01*
X144258194Y-115208244D01*
X144260000Y-115245000D01*
X144260000Y-116695000D01*
X144258194Y-116731756D01*
X144252794Y-116768159D01*
X144243853Y-116803857D01*
X144231455Y-116838506D01*
X144215720Y-116871774D01*
X144196801Y-116903339D01*
X144174879Y-116932897D01*
X144150165Y-116960165D01*
X144122897Y-116984879D01*
X144093339Y-117006801D01*
X144061774Y-117025720D01*
X144028506Y-117041455D01*
X143993857Y-117053853D01*
X143958159Y-117062794D01*
X143921756Y-117068194D01*
X143885000Y-117070000D01*
X143135000Y-117070000D01*
X143098244Y-117068194D01*
X143061841Y-117062794D01*
X143026143Y-117053853D01*
X142991494Y-117041455D01*
X142958226Y-117025720D01*
X142926661Y-117006801D01*
X142897103Y-116984879D01*
X142869835Y-116960165D01*
X142845121Y-116932897D01*
X142823199Y-116903339D01*
X142804280Y-116871774D01*
X142788545Y-116838506D01*
X142776147Y-116803857D01*
X142767206Y-116768159D01*
X142761806Y-116731756D01*
X142760000Y-116695000D01*
X142760000Y-115245000D01*
X142761806Y-115208244D01*
X142767206Y-115171841D01*
X142776147Y-115136143D01*
X142788545Y-115101494D01*
X142804280Y-115068226D01*
X142823199Y-115036661D01*
X142845121Y-115007103D01*
X142869835Y-114979835D01*
X142897103Y-114955121D01*
X142926661Y-114933199D01*
X142958226Y-114914280D01*
X142991494Y-114898545D01*
X143026143Y-114886147D01*
X143061841Y-114877206D01*
X143098244Y-114871806D01*
X143135000Y-114870000D01*
X143885000Y-114870000D01*
X143921756Y-114871806D01*
X143921756Y-114871806D01*
G37*
D20*
X143510000Y-115970000D03*
D19*
G36*
X142651756Y-112801806D02*
X142688159Y-112807206D01*
X142723857Y-112816147D01*
X142758506Y-112828545D01*
X142791774Y-112844280D01*
X142823339Y-112863199D01*
X142852897Y-112885121D01*
X142880165Y-112909835D01*
X142904879Y-112937103D01*
X142926801Y-112966661D01*
X142945720Y-112998226D01*
X142961455Y-113031494D01*
X142973853Y-113066143D01*
X142982794Y-113101841D01*
X142988194Y-113138244D01*
X142990000Y-113175000D01*
X142990000Y-114625000D01*
X142988194Y-114661756D01*
X142982794Y-114698159D01*
X142973853Y-114733857D01*
X142961455Y-114768506D01*
X142945720Y-114801774D01*
X142926801Y-114833339D01*
X142904879Y-114862897D01*
X142880165Y-114890165D01*
X142852897Y-114914879D01*
X142823339Y-114936801D01*
X142791774Y-114955720D01*
X142758506Y-114971455D01*
X142723857Y-114983853D01*
X142688159Y-114992794D01*
X142651756Y-114998194D01*
X142615000Y-115000000D01*
X141865000Y-115000000D01*
X141828244Y-114998194D01*
X141791841Y-114992794D01*
X141756143Y-114983853D01*
X141721494Y-114971455D01*
X141688226Y-114955720D01*
X141656661Y-114936801D01*
X141627103Y-114914879D01*
X141599835Y-114890165D01*
X141575121Y-114862897D01*
X141553199Y-114833339D01*
X141534280Y-114801774D01*
X141518545Y-114768506D01*
X141506147Y-114733857D01*
X141497206Y-114698159D01*
X141491806Y-114661756D01*
X141490000Y-114625000D01*
X141490000Y-113175000D01*
X141491806Y-113138244D01*
X141497206Y-113101841D01*
X141506147Y-113066143D01*
X141518545Y-113031494D01*
X141534280Y-112998226D01*
X141553199Y-112966661D01*
X141575121Y-112937103D01*
X141599835Y-112909835D01*
X141627103Y-112885121D01*
X141656661Y-112863199D01*
X141688226Y-112844280D01*
X141721494Y-112828545D01*
X141756143Y-112816147D01*
X141791841Y-112807206D01*
X141828244Y-112801806D01*
X141865000Y-112800000D01*
X142615000Y-112800000D01*
X142651756Y-112801806D01*
X142651756Y-112801806D01*
G37*
D20*
X142240000Y-113900000D03*
D21*
X144780000Y-113900000D03*
G04 #@! TD*
D14*
G04 #@! TO.C,J10*
X168910000Y-74930000D03*
D15*
X166370000Y-74930000D03*
G04 #@! TD*
D11*
G04 #@! TO.C,REF\002A\002A*
X184046726Y-67413274D03*
X182880000Y-66930000D03*
X181713274Y-67413274D03*
X181230000Y-68580000D03*
X181713274Y-69746726D03*
X182880000Y-70230000D03*
X184046726Y-69746726D03*
X184530000Y-68580000D03*
D10*
X182880000Y-68580000D03*
G04 #@! TD*
M02*
