G04 #@! TF.GenerationSoftware,KiCad,Pcbnew,5.0.0*
G04 #@! TF.CreationDate,2018-07-31T16:14:15+02:00*
G04 #@! TF.ProjectId,HB-UNI-Sen-WEA,48422D554E492D53656E2D5745412E6B,1.0*
G04 #@! TF.SameCoordinates,Original*
G04 #@! TF.FileFunction,Copper,L2,Bot,Signal*
G04 #@! TF.FilePolarity,Positive*
%FSLAX46Y46*%
G04 Gerber Fmt 4.6, Leading zero omitted, Abs format (unit mm)*
G04 Created by KiCad (PCBNEW 5.0.0) date Tue Jul 31 16:14:15 2018*
%MOMM*%
%LPD*%
G01*
G04 APERTURE LIST*
G04 #@! TA.AperFunction,ComponentPad*
%ADD10C,4.400000*%
G04 #@! TD*
G04 #@! TA.AperFunction,ComponentPad*
%ADD11C,0.700000*%
G04 #@! TD*
G04 #@! TA.AperFunction,ComponentPad*
%ADD12C,1.800000*%
G04 #@! TD*
G04 #@! TA.AperFunction,ComponentPad*
%ADD13C,1.600000*%
G04 #@! TD*
G04 #@! TA.AperFunction,ComponentPad*
%ADD14R,1.700000X1.700000*%
G04 #@! TD*
G04 #@! TA.AperFunction,ComponentPad*
%ADD15O,1.700000X1.700000*%
G04 #@! TD*
G04 #@! TA.AperFunction,ComponentPad*
%ADD16O,1.600000X1.600000*%
G04 #@! TD*
G04 #@! TA.AperFunction,ComponentPad*
%ADD17C,2.000000*%
G04 #@! TD*
G04 #@! TA.AperFunction,ComponentPad*
%ADD18C,1.350000*%
G04 #@! TD*
G04 #@! TA.AperFunction,Conductor*
%ADD19C,0.100000*%
G04 #@! TD*
G04 #@! TA.AperFunction,ComponentPad*
%ADD20C,1.100000*%
G04 #@! TD*
G04 #@! TA.AperFunction,ComponentPad*
%ADD21R,1.100000X1.800000*%
G04 #@! TD*
G04 #@! TA.AperFunction,ViaPad*
%ADD22C,0.800000*%
G04 #@! TD*
G04 #@! TA.AperFunction,Conductor*
%ADD23C,0.250000*%
G04 #@! TD*
G04 #@! TA.AperFunction,Conductor*
%ADD24C,0.254000*%
G04 #@! TD*
G04 APERTURE END LIST*
D10*
G04 #@! TO.P,REF\002A\002A,1*
G04 #@! TO.N,N/C*
X166370000Y-105410000D03*
D11*
X168020000Y-105410000D03*
X167536726Y-106576726D03*
X166370000Y-107060000D03*
X165203274Y-106576726D03*
X164720000Y-105410000D03*
X165203274Y-104243274D03*
X166370000Y-103760000D03*
X167536726Y-104243274D03*
G04 #@! TD*
D12*
G04 #@! TO.P,U1,28*
G04 #@! TO.N,Net-(U1-Pad28)*
X143510000Y-90170000D03*
G04 #@! TO.P,U1,27*
G04 #@! TO.N,Net-(U1-Pad27)*
X146050000Y-90170000D03*
X152400000Y-92710000D03*
G04 #@! TO.P,U1,28*
G04 #@! TO.N,Net-(U1-Pad28)*
X152400000Y-90170000D03*
G04 #@! TO.P,U1,1*
G04 #@! TO.N,/SS*
X152400000Y-87630000D03*
G04 #@! TO.P,U1,2*
G04 #@! TO.N,/MOSI*
X149860000Y-87630000D03*
G04 #@! TO.P,U1,3*
G04 #@! TO.N,/MISO*
X147320000Y-87630000D03*
G04 #@! TO.P,U1,4*
G04 #@! TO.N,/SCK*
X144780000Y-87630000D03*
G04 #@! TO.P,U1,5*
G04 #@! TO.N,Net-(U1-Pad5)*
X142240000Y-87630000D03*
G04 #@! TO.P,U1,6*
G04 #@! TO.N,Net-(U1-Pad6)*
X139700000Y-87630000D03*
G04 #@! TO.P,U1,7*
G04 #@! TO.N,/A2*
X137160000Y-87630000D03*
G04 #@! TO.P,U1,8*
G04 #@! TO.N,/A3*
X134620000Y-87630000D03*
G04 #@! TO.P,U1,9*
G04 #@! TO.N,/VCC*
X132080000Y-87630000D03*
G04 #@! TO.P,U1,10*
G04 #@! TO.N,/RSET*
X129540000Y-87630000D03*
G04 #@! TO.P,U1,11*
G04 #@! TO.N,GND*
X127000000Y-87630000D03*
G04 #@! TO.P,U1,12*
G04 #@! TO.N,+5V*
X124460000Y-87630000D03*
G04 #@! TO.P,U1,13*
G04 #@! TO.N,N/C*
X124460000Y-102870000D03*
G04 #@! TO.P,U1,14*
X127000000Y-102870000D03*
G04 #@! TO.P,U1,15*
X129540000Y-102870000D03*
G04 #@! TO.P,U1,16*
G04 #@! TO.N,GND*
X132080000Y-102870000D03*
G04 #@! TO.P,U1,17*
G04 #@! TO.N,/D2*
X134620000Y-102870000D03*
G04 #@! TO.P,U1,18*
G04 #@! TO.N,/D3*
X137160000Y-102870000D03*
G04 #@! TO.P,U1,19*
G04 #@! TO.N,/D4*
X139700000Y-102870000D03*
G04 #@! TO.P,U1,20*
G04 #@! TO.N,/D5*
X142240000Y-102870000D03*
G04 #@! TO.P,U1,21*
G04 #@! TO.N,/D6*
X144780000Y-102870000D03*
G04 #@! TO.P,U1,22*
G04 #@! TO.N,/D7*
X147320000Y-102870000D03*
G04 #@! TO.P,U1,23*
G04 #@! TO.N,/D8*
X149860000Y-102870000D03*
G04 #@! TO.P,U1,24*
G04 #@! TO.N,/D9*
X152400000Y-102870000D03*
G04 #@! TO.P,U1,25*
G04 #@! TO.N,/SDA*
X135890000Y-90170000D03*
G04 #@! TO.P,U1,26*
G04 #@! TO.N,/SCL*
X133350000Y-90170000D03*
G04 #@! TD*
D13*
G04 #@! TO.P,C1,1*
G04 #@! TO.N,/B*
X135890000Y-114300000D03*
G04 #@! TO.P,C1,2*
G04 #@! TO.N,/A3*
X138390000Y-114300000D03*
G04 #@! TD*
G04 #@! TO.P,C2,2*
G04 #@! TO.N,/D5*
X128230000Y-73660000D03*
G04 #@! TO.P,C2,1*
G04 #@! TO.N,GND*
X125730000Y-73660000D03*
G04 #@! TD*
G04 #@! TO.P,C3,1*
G04 #@! TO.N,GND*
X125730000Y-76200000D03*
G04 #@! TO.P,C3,2*
G04 #@! TO.N,/D6*
X128230000Y-76200000D03*
G04 #@! TD*
D14*
G04 #@! TO.P,J1,1*
G04 #@! TO.N,GND*
X124460000Y-116840000D03*
D15*
G04 #@! TO.P,J1,2*
G04 #@! TO.N,/B*
X124460000Y-114300000D03*
G04 #@! TO.P,J1,3*
G04 #@! TO.N,/C*
X124460000Y-111760000D03*
G04 #@! TO.P,J1,4*
G04 #@! TO.N,+5V*
X124460000Y-109220000D03*
G04 #@! TD*
G04 #@! TO.P,J2,4*
G04 #@! TO.N,/RSET*
X160020000Y-95250000D03*
G04 #@! TO.P,J2,3*
G04 #@! TO.N,/MISO*
X160020000Y-92710000D03*
G04 #@! TO.P,J2,2*
G04 #@! TO.N,/SCK*
X160020000Y-90170000D03*
D14*
G04 #@! TO.P,J2,1*
G04 #@! TO.N,/MOSI*
X160020000Y-87630000D03*
G04 #@! TD*
G04 #@! TO.P,J3,1*
G04 #@! TO.N,/A2*
X153670000Y-80010000D03*
D15*
G04 #@! TO.P,J3,2*
G04 #@! TO.N,GND*
X151130000Y-80010000D03*
G04 #@! TD*
D14*
G04 #@! TO.P,J4,1*
G04 #@! TO.N,/VCC*
X125730000Y-68580000D03*
D15*
G04 #@! TO.P,J4,2*
G04 #@! TO.N,GND*
X128270000Y-68580000D03*
G04 #@! TO.P,J4,3*
G04 #@! TO.N,/SCL*
X130810000Y-68580000D03*
G04 #@! TO.P,J4,4*
G04 #@! TO.N,/SDA*
X133350000Y-68580000D03*
G04 #@! TD*
D14*
G04 #@! TO.P,J5,1*
G04 #@! TO.N,GND*
X157480000Y-114300000D03*
D15*
G04 #@! TO.P,J5,2*
X160020000Y-114300000D03*
G04 #@! TO.P,J5,3*
X162560000Y-114300000D03*
G04 #@! TO.P,J5,4*
G04 #@! TO.N,/D3*
X165100000Y-114300000D03*
G04 #@! TO.P,J5,5*
G04 #@! TO.N,GND*
X167640000Y-114300000D03*
G04 #@! TO.P,J5,6*
G04 #@! TO.N,/D7*
X170180000Y-114300000D03*
G04 #@! TO.P,J5,7*
G04 #@! TO.N,/MISO*
X172720000Y-114300000D03*
G04 #@! TO.P,J5,8*
G04 #@! TO.N,/MOSI*
X175260000Y-114300000D03*
G04 #@! TO.P,J5,9*
G04 #@! TO.N,/SCK*
X177800000Y-114300000D03*
G04 #@! TO.P,J5,10*
G04 #@! TO.N,GND*
X180340000Y-114300000D03*
G04 #@! TO.P,J5,11*
G04 #@! TO.N,/VCC*
X182880000Y-114300000D03*
G04 #@! TD*
G04 #@! TO.P,J6,2*
G04 #@! TO.N,GND*
X138430000Y-80010000D03*
D14*
G04 #@! TO.P,J6,1*
G04 #@! TO.N,Net-(J6-Pad1)*
X140970000Y-80010000D03*
G04 #@! TD*
G04 #@! TO.P,J7,1*
G04 #@! TO.N,Net-(J7-Pad1)*
X128270000Y-80010000D03*
D15*
G04 #@! TO.P,J7,2*
G04 #@! TO.N,GND*
X125730000Y-80010000D03*
G04 #@! TD*
G04 #@! TO.P,J8,4*
G04 #@! TO.N,/SDA*
X153670000Y-68580000D03*
G04 #@! TO.P,J8,3*
G04 #@! TO.N,/SCL*
X151130000Y-68580000D03*
G04 #@! TO.P,J8,2*
G04 #@! TO.N,GND*
X148590000Y-68580000D03*
D14*
G04 #@! TO.P,J8,1*
G04 #@! TO.N,/VCC*
X146050000Y-68580000D03*
G04 #@! TD*
G04 #@! TO.P,J9,1*
G04 #@! TO.N,/VCC*
X166370000Y-68580000D03*
D15*
G04 #@! TO.P,J9,2*
G04 #@! TO.N,GND*
X168910000Y-68580000D03*
G04 #@! TO.P,J9,3*
G04 #@! TO.N,/SCL*
X171450000Y-68580000D03*
G04 #@! TO.P,J9,4*
G04 #@! TO.N,/SDA*
X173990000Y-68580000D03*
G04 #@! TD*
D13*
G04 #@! TO.P,R1,1*
G04 #@! TO.N,/A3*
X128270000Y-109220000D03*
D16*
G04 #@! TO.P,R1,2*
G04 #@! TO.N,/D4*
X138430000Y-109220000D03*
G04 #@! TD*
G04 #@! TO.P,R2,2*
G04 #@! TO.N,/D9*
X152400000Y-109220000D03*
D13*
G04 #@! TO.P,R2,1*
G04 #@! TO.N,Net-(Q1-Pad2)*
X142240000Y-109220000D03*
G04 #@! TD*
D16*
G04 #@! TO.P,R3,2*
G04 #@! TO.N,/D5*
X134620000Y-74930000D03*
D13*
G04 #@! TO.P,R3,1*
G04 #@! TO.N,Net-(J6-Pad1)*
X144780000Y-74930000D03*
G04 #@! TD*
G04 #@! TO.P,R4,1*
G04 #@! TO.N,Net-(J7-Pad1)*
X157480000Y-74930000D03*
D16*
G04 #@! TO.P,R4,2*
G04 #@! TO.N,/D6*
X147320000Y-74930000D03*
G04 #@! TD*
D17*
G04 #@! TO.P,SW1,2*
G04 #@! TO.N,GND*
X182880000Y-104720000D03*
G04 #@! TO.P,SW1,1*
G04 #@! TO.N,/D8*
X182880000Y-109220000D03*
G04 #@! TO.P,SW1,2*
G04 #@! TO.N,GND*
X176380000Y-104720000D03*
G04 #@! TO.P,SW1,1*
G04 #@! TO.N,/D8*
X176380000Y-109220000D03*
G04 #@! TD*
D18*
G04 #@! TO.P,U2,8*
G04 #@! TO.N,/SS*
X167600000Y-99320000D03*
G04 #@! TO.P,U2,1*
G04 #@! TO.N,/VCC*
X167600000Y-85320000D03*
G04 #@! TO.P,U2,2*
G04 #@! TO.N,GND*
X167600000Y-87320000D03*
G04 #@! TO.P,U2,3*
G04 #@! TO.N,/MOSI*
X167600000Y-89320000D03*
G04 #@! TO.P,U2,4*
G04 #@! TO.N,/SCK*
X167600000Y-91320000D03*
G04 #@! TO.P,U2,5*
G04 #@! TO.N,/MISO*
X167600000Y-93320000D03*
G04 #@! TO.P,U2,6*
G04 #@! TO.N,Net-(U2-Pad6)*
X167600000Y-95320000D03*
G04 #@! TO.P,U2,7*
G04 #@! TO.N,/D2*
X167600000Y-97320000D03*
G04 #@! TD*
D19*
G04 #@! TO.N,Net-(Q1-Pad2)*
G04 #@! TO.C,Q1*
G36*
X143811955Y-115071324D02*
X143838650Y-115075284D01*
X143864828Y-115081841D01*
X143890238Y-115090933D01*
X143914634Y-115102472D01*
X143937782Y-115116346D01*
X143959458Y-115132422D01*
X143979454Y-115150546D01*
X143997578Y-115170542D01*
X144013654Y-115192218D01*
X144027528Y-115215366D01*
X144039067Y-115239762D01*
X144048159Y-115265172D01*
X144054716Y-115291350D01*
X144058676Y-115318045D01*
X144060000Y-115345000D01*
X144060000Y-116595000D01*
X144058676Y-116621955D01*
X144054716Y-116648650D01*
X144048159Y-116674828D01*
X144039067Y-116700238D01*
X144027528Y-116724634D01*
X144013654Y-116747782D01*
X143997578Y-116769458D01*
X143979454Y-116789454D01*
X143959458Y-116807578D01*
X143937782Y-116823654D01*
X143914634Y-116837528D01*
X143890238Y-116849067D01*
X143864828Y-116858159D01*
X143838650Y-116864716D01*
X143811955Y-116868676D01*
X143785000Y-116870000D01*
X143235000Y-116870000D01*
X143208045Y-116868676D01*
X143181350Y-116864716D01*
X143155172Y-116858159D01*
X143129762Y-116849067D01*
X143105366Y-116837528D01*
X143082218Y-116823654D01*
X143060542Y-116807578D01*
X143040546Y-116789454D01*
X143022422Y-116769458D01*
X143006346Y-116747782D01*
X142992472Y-116724634D01*
X142980933Y-116700238D01*
X142971841Y-116674828D01*
X142965284Y-116648650D01*
X142961324Y-116621955D01*
X142960000Y-116595000D01*
X142960000Y-115345000D01*
X142961324Y-115318045D01*
X142965284Y-115291350D01*
X142971841Y-115265172D01*
X142980933Y-115239762D01*
X142992472Y-115215366D01*
X143006346Y-115192218D01*
X143022422Y-115170542D01*
X143040546Y-115150546D01*
X143060542Y-115132422D01*
X143082218Y-115116346D01*
X143105366Y-115102472D01*
X143129762Y-115090933D01*
X143155172Y-115081841D01*
X143181350Y-115075284D01*
X143208045Y-115071324D01*
X143235000Y-115070000D01*
X143785000Y-115070000D01*
X143811955Y-115071324D01*
X143811955Y-115071324D01*
G37*
D20*
G04 #@! TD*
G04 #@! TO.P,Q1,2*
G04 #@! TO.N,Net-(Q1-Pad2)*
X143510000Y-115970000D03*
D19*
G04 #@! TO.N,/C*
G04 #@! TO.C,Q1*
G36*
X142541955Y-113001324D02*
X142568650Y-113005284D01*
X142594828Y-113011841D01*
X142620238Y-113020933D01*
X142644634Y-113032472D01*
X142667782Y-113046346D01*
X142689458Y-113062422D01*
X142709454Y-113080546D01*
X142727578Y-113100542D01*
X142743654Y-113122218D01*
X142757528Y-113145366D01*
X142769067Y-113169762D01*
X142778159Y-113195172D01*
X142784716Y-113221350D01*
X142788676Y-113248045D01*
X142790000Y-113275000D01*
X142790000Y-114525000D01*
X142788676Y-114551955D01*
X142784716Y-114578650D01*
X142778159Y-114604828D01*
X142769067Y-114630238D01*
X142757528Y-114654634D01*
X142743654Y-114677782D01*
X142727578Y-114699458D01*
X142709454Y-114719454D01*
X142689458Y-114737578D01*
X142667782Y-114753654D01*
X142644634Y-114767528D01*
X142620238Y-114779067D01*
X142594828Y-114788159D01*
X142568650Y-114794716D01*
X142541955Y-114798676D01*
X142515000Y-114800000D01*
X141965000Y-114800000D01*
X141938045Y-114798676D01*
X141911350Y-114794716D01*
X141885172Y-114788159D01*
X141859762Y-114779067D01*
X141835366Y-114767528D01*
X141812218Y-114753654D01*
X141790542Y-114737578D01*
X141770546Y-114719454D01*
X141752422Y-114699458D01*
X141736346Y-114677782D01*
X141722472Y-114654634D01*
X141710933Y-114630238D01*
X141701841Y-114604828D01*
X141695284Y-114578650D01*
X141691324Y-114551955D01*
X141690000Y-114525000D01*
X141690000Y-113275000D01*
X141691324Y-113248045D01*
X141695284Y-113221350D01*
X141701841Y-113195172D01*
X141710933Y-113169762D01*
X141722472Y-113145366D01*
X141736346Y-113122218D01*
X141752422Y-113100542D01*
X141770546Y-113080546D01*
X141790542Y-113062422D01*
X141812218Y-113046346D01*
X141835366Y-113032472D01*
X141859762Y-113020933D01*
X141885172Y-113011841D01*
X141911350Y-113005284D01*
X141938045Y-113001324D01*
X141965000Y-113000000D01*
X142515000Y-113000000D01*
X142541955Y-113001324D01*
X142541955Y-113001324D01*
G37*
D20*
G04 #@! TD*
G04 #@! TO.P,Q1,3*
G04 #@! TO.N,/C*
X142240000Y-113900000D03*
D21*
G04 #@! TO.P,Q1,1*
G04 #@! TO.N,GND*
X144780000Y-113900000D03*
G04 #@! TD*
D14*
G04 #@! TO.P,J10,1*
G04 #@! TO.N,+5V*
X168910000Y-74930000D03*
D15*
G04 #@! TO.P,J10,2*
G04 #@! TO.N,GND*
X166370000Y-74930000D03*
G04 #@! TD*
D11*
G04 #@! TO.P,REF\002A\002A,1*
G04 #@! TO.N,N/C*
X184046726Y-67413274D03*
X182880000Y-66930000D03*
X181713274Y-67413274D03*
X181230000Y-68580000D03*
X181713274Y-69746726D03*
X182880000Y-70230000D03*
X184046726Y-69746726D03*
X184530000Y-68580000D03*
D10*
X182880000Y-68580000D03*
G04 #@! TD*
D22*
G04 #@! TO.N,/A3*
X153947200Y-97123300D03*
G04 #@! TO.N,/MOSI*
X156013400Y-88687700D03*
G04 #@! TD*
D23*
G04 #@! TO.N,/A3*
X153947200Y-97123300D02*
X153947200Y-109335100D01*
X153947200Y-109335100D02*
X146035800Y-117246500D01*
X146035800Y-117246500D02*
X141336500Y-117246500D01*
X141336500Y-117246500D02*
X138390000Y-114300000D01*
X128270000Y-109220000D02*
X133310000Y-109220000D01*
X133310000Y-109220000D02*
X138390000Y-114300000D01*
G04 #@! TO.N,/D5*
X135795300Y-74930000D02*
X139744600Y-78879300D01*
X139744600Y-78879300D02*
X139744600Y-81024100D01*
X139744600Y-81024100D02*
X141033600Y-82313100D01*
X141033600Y-82313100D02*
X150370500Y-82313100D01*
X150370500Y-82313100D02*
X154704500Y-86647100D01*
X154704500Y-86647100D02*
X154704500Y-93723600D01*
X154704500Y-93723600D02*
X148530900Y-99897200D01*
X148530900Y-99897200D02*
X145212800Y-99897200D01*
X145212800Y-99897200D02*
X142240000Y-102870000D01*
X134620000Y-74930000D02*
X135795300Y-74930000D01*
G04 #@! TO.N,GND*
X151130000Y-76133300D02*
X151130000Y-72345300D01*
X151130000Y-72345300D02*
X148590000Y-69805300D01*
X151130000Y-80010000D02*
X151130000Y-76133300D01*
X165144700Y-74930000D02*
X163941400Y-76133300D01*
X163941400Y-76133300D02*
X151130000Y-76133300D01*
X166370000Y-74930000D02*
X165144700Y-74930000D01*
X148590000Y-68580000D02*
X148590000Y-69805300D01*
X162560000Y-114300000D02*
X163785300Y-114300000D01*
X163785300Y-114300000D02*
X163785300Y-114759500D01*
X163785300Y-114759500D02*
X164589000Y-115563200D01*
X164589000Y-115563200D02*
X165659300Y-115563200D01*
X165659300Y-115563200D02*
X166414700Y-114807800D01*
X166414700Y-114807800D02*
X166414700Y-114300000D01*
X160020000Y-114300000D02*
X162560000Y-114300000D01*
X167640000Y-114300000D02*
X166414700Y-114300000D01*
X127000000Y-87630000D02*
X132080000Y-92710000D01*
X132080000Y-92710000D02*
X132080000Y-102870000D01*
X176380000Y-104720000D02*
X177800000Y-104720000D01*
X177800000Y-104720000D02*
X180340000Y-107260000D01*
X180340000Y-107260000D02*
X182880000Y-104720000D01*
X180340000Y-114300000D02*
X180340000Y-107260000D01*
X125730000Y-76200000D02*
X125730000Y-80010000D01*
X125730000Y-73660000D02*
X125730000Y-76200000D01*
X128270000Y-69805300D02*
X125730000Y-72345300D01*
X125730000Y-72345300D02*
X125730000Y-73660000D01*
X128270000Y-68580000D02*
X128270000Y-69805300D01*
G04 #@! TO.N,/D6*
X147320000Y-74930000D02*
X147320000Y-77961500D01*
X147320000Y-77961500D02*
X155204900Y-85846400D01*
X155204900Y-85846400D02*
X155204900Y-93930900D01*
X155204900Y-93930900D02*
X148738200Y-100397600D01*
X148738200Y-100397600D02*
X147252400Y-100397600D01*
X147252400Y-100397600D02*
X144780000Y-102870000D01*
G04 #@! TO.N,+5V*
X124460000Y-109220000D02*
X125685300Y-109220000D01*
X168910000Y-74930000D02*
X168910000Y-76155300D01*
X168910000Y-76155300D02*
X162283400Y-82781900D01*
X162283400Y-82781900D02*
X162283400Y-101706600D01*
X162283400Y-101706600D02*
X146208600Y-117781400D01*
X146208600Y-117781400D02*
X134246700Y-117781400D01*
X134246700Y-117781400D02*
X125685300Y-109220000D01*
G04 #@! TO.N,/MISO*
X167600000Y-93320000D02*
X172720000Y-98440000D01*
X172720000Y-98440000D02*
X172720000Y-114300000D01*
G04 #@! TO.N,/SCK*
X167600000Y-91320000D02*
X173990000Y-97710000D01*
X173990000Y-97710000D02*
X173990000Y-114815100D01*
X173990000Y-114815100D02*
X174702900Y-115528000D01*
X174702900Y-115528000D02*
X175854500Y-115528000D01*
X175854500Y-115528000D02*
X176574700Y-114807800D01*
X176574700Y-114807800D02*
X176574700Y-114300000D01*
X177800000Y-114300000D02*
X176574700Y-114300000D01*
G04 #@! TO.N,/MOSI*
X158794700Y-87630000D02*
X157737000Y-88687700D01*
X157737000Y-88687700D02*
X156013400Y-88687700D01*
X160020000Y-87630000D02*
X158794700Y-87630000D01*
X175260000Y-114300000D02*
X175260000Y-113074700D01*
X167600000Y-89320000D02*
X174752300Y-96472300D01*
X174752300Y-96472300D02*
X174752300Y-112567000D01*
X174752300Y-112567000D02*
X175260000Y-113074700D01*
G04 #@! TO.N,/VCC*
X166370000Y-68580000D02*
X166370000Y-69805300D01*
X166370000Y-69805300D02*
X170135400Y-73570700D01*
X170135400Y-73570700D02*
X170135400Y-82784600D01*
X170135400Y-82784600D02*
X167600000Y-85320000D01*
X182880000Y-113074700D02*
X184283400Y-111671300D01*
X184283400Y-111671300D02*
X184283400Y-102003400D01*
X184283400Y-102003400D02*
X167600000Y-85320000D01*
X129540000Y-67354700D02*
X129540000Y-85090000D01*
X129540000Y-85090000D02*
X132080000Y-87630000D01*
X129540000Y-67354700D02*
X127721000Y-67354700D01*
X127721000Y-67354700D02*
X126955300Y-68120400D01*
X126955300Y-68120400D02*
X126955300Y-68580000D01*
X144824700Y-68580000D02*
X143599400Y-67354700D01*
X143599400Y-67354700D02*
X129540000Y-67354700D01*
X125730000Y-68580000D02*
X126955300Y-68580000D01*
X146050000Y-68580000D02*
X144824700Y-68580000D01*
X182880000Y-114300000D02*
X182880000Y-113074700D01*
G04 #@! TO.N,/SCL*
X130810000Y-68580000D02*
X130810000Y-74876800D01*
X130810000Y-74876800D02*
X141996000Y-86062800D01*
X141996000Y-86062800D02*
X152676200Y-86062800D01*
X152676200Y-86062800D02*
X153693400Y-87080000D01*
X153693400Y-87080000D02*
X153693400Y-93265000D01*
X153693400Y-93265000D02*
X152954700Y-94003700D01*
X152954700Y-94003700D02*
X141730100Y-94003700D01*
X141730100Y-94003700D02*
X136599100Y-88872700D01*
X136599100Y-88872700D02*
X135383700Y-88872700D01*
X135383700Y-88872700D02*
X134086400Y-90170000D01*
X134086400Y-90170000D02*
X133350000Y-90170000D01*
X171450000Y-68580000D02*
X170224700Y-68580000D01*
X151130000Y-68580000D02*
X152355300Y-68580000D01*
X152355300Y-68580000D02*
X152355300Y-68120500D01*
X152355300Y-68120500D02*
X153123800Y-67352000D01*
X153123800Y-67352000D02*
X169504500Y-67352000D01*
X169504500Y-67352000D02*
X170224700Y-68072200D01*
X170224700Y-68072200D02*
X170224700Y-68580000D01*
G04 #@! TO.N,/SDA*
X135890000Y-90170000D02*
X140224000Y-94504000D01*
X140224000Y-94504000D02*
X153162000Y-94504000D01*
X153162000Y-94504000D02*
X154193700Y-93472300D01*
X154193700Y-93472300D02*
X154193700Y-86872700D01*
X154193700Y-86872700D02*
X152883500Y-85562500D01*
X152883500Y-85562500D02*
X142203300Y-85562500D01*
X142203300Y-85562500D02*
X133350000Y-76709200D01*
X133350000Y-76709200D02*
X133350000Y-69805300D01*
X133350000Y-68580000D02*
X133350000Y-69805300D01*
G04 #@! TO.N,Net-(J6-Pad1)*
X144780000Y-74930000D02*
X140970000Y-78740000D01*
X140970000Y-78740000D02*
X140970000Y-80010000D01*
G04 #@! TO.N,/D4*
X138430000Y-108044700D02*
X139700000Y-106774700D01*
X139700000Y-106774700D02*
X139700000Y-102870000D01*
X138430000Y-109220000D02*
X138430000Y-108044700D01*
G04 #@! TO.N,/D9*
X152400000Y-102870000D02*
X152400000Y-109220000D01*
G04 #@! TO.N,Net-(Q1-Pad2)*
X143510000Y-115570000D02*
X143510000Y-110490000D01*
X143510000Y-110490000D02*
X142240000Y-109220000D01*
G04 #@! TD*
D24*
G04 #@! TO.N,GND*
G36*
X185980000Y-87335909D02*
X183697402Y-89618508D01*
X183638120Y-89658119D01*
X183540330Y-89804472D01*
X183481196Y-89892972D01*
X183426091Y-90170000D01*
X183440001Y-90239929D01*
X183440000Y-96450076D01*
X183426091Y-96520000D01*
X183440000Y-96589924D01*
X183440000Y-96589925D01*
X183481195Y-96797027D01*
X183638119Y-97031880D01*
X183697402Y-97071492D01*
X185980000Y-99354091D01*
X185980001Y-117400000D01*
X148589306Y-117400000D01*
X148449514Y-117399854D01*
X148383271Y-117427212D01*
X148312972Y-117441195D01*
X148196200Y-117519220D01*
X144602530Y-119915000D01*
X121385000Y-119915000D01*
X121385000Y-117125750D01*
X122975000Y-117125750D01*
X122975000Y-117816310D01*
X123071673Y-118049699D01*
X123250302Y-118228327D01*
X123483691Y-118325000D01*
X124174250Y-118325000D01*
X124333000Y-118166250D01*
X124333000Y-116967000D01*
X124587000Y-116967000D01*
X124587000Y-118166250D01*
X124745750Y-118325000D01*
X125436309Y-118325000D01*
X125669698Y-118228327D01*
X125848327Y-118049699D01*
X125945000Y-117816310D01*
X125945000Y-117125750D01*
X125786250Y-116967000D01*
X124587000Y-116967000D01*
X124333000Y-116967000D01*
X123133750Y-116967000D01*
X122975000Y-117125750D01*
X121385000Y-117125750D01*
X121385000Y-109220000D01*
X122945908Y-109220000D01*
X123061161Y-109799418D01*
X123389375Y-110290625D01*
X123687761Y-110490000D01*
X123389375Y-110689375D01*
X123061161Y-111180582D01*
X122945908Y-111760000D01*
X123061161Y-112339418D01*
X123389375Y-112830625D01*
X123687761Y-113030000D01*
X123389375Y-113229375D01*
X123061161Y-113720582D01*
X122945908Y-114300000D01*
X123061161Y-114879418D01*
X123389375Y-115370625D01*
X123411033Y-115385096D01*
X123250302Y-115451673D01*
X123071673Y-115630301D01*
X122975000Y-115863690D01*
X122975000Y-116554250D01*
X123133750Y-116713000D01*
X124333000Y-116713000D01*
X124333000Y-116693000D01*
X124587000Y-116693000D01*
X124587000Y-116713000D01*
X125786250Y-116713000D01*
X125945000Y-116554250D01*
X125945000Y-115863690D01*
X125848327Y-115630301D01*
X125669698Y-115451673D01*
X125508967Y-115385096D01*
X125530625Y-115370625D01*
X125858839Y-114879418D01*
X125974092Y-114300000D01*
X125858839Y-113720582D01*
X125530625Y-113229375D01*
X125232239Y-113030000D01*
X125530625Y-112830625D01*
X125858839Y-112339418D01*
X125974092Y-111760000D01*
X125858839Y-111180582D01*
X125530625Y-110689375D01*
X125232239Y-110490000D01*
X125530625Y-110290625D01*
X125590906Y-110200407D01*
X133656371Y-118265873D01*
X133698771Y-118329329D01*
X133950163Y-118497304D01*
X134171848Y-118541400D01*
X134171853Y-118541400D01*
X134246700Y-118556288D01*
X134321547Y-118541400D01*
X146133753Y-118541400D01*
X146208600Y-118556288D01*
X146283447Y-118541400D01*
X146283452Y-118541400D01*
X146505137Y-118497304D01*
X146756529Y-118329329D01*
X146798931Y-118265870D01*
X150479051Y-114585750D01*
X155995000Y-114585750D01*
X155995000Y-115276309D01*
X156091673Y-115509698D01*
X156270301Y-115688327D01*
X156503690Y-115785000D01*
X157194250Y-115785000D01*
X157353000Y-115626250D01*
X157353000Y-114427000D01*
X157607000Y-114427000D01*
X157607000Y-115626250D01*
X157765750Y-115785000D01*
X158456310Y-115785000D01*
X158689699Y-115688327D01*
X158868327Y-115509698D01*
X158955136Y-115300122D01*
X159253076Y-115571645D01*
X159663110Y-115741476D01*
X159893000Y-115620155D01*
X159893000Y-114427000D01*
X160147000Y-114427000D01*
X160147000Y-115620155D01*
X160376890Y-115741476D01*
X160786924Y-115571645D01*
X161215183Y-115181358D01*
X161290000Y-115022046D01*
X161364817Y-115181358D01*
X161793076Y-115571645D01*
X162203110Y-115741476D01*
X162433000Y-115620155D01*
X162433000Y-114427000D01*
X160147000Y-114427000D01*
X159893000Y-114427000D01*
X157607000Y-114427000D01*
X157353000Y-114427000D01*
X156153750Y-114427000D01*
X155995000Y-114585750D01*
X150479051Y-114585750D01*
X151741110Y-113323691D01*
X155995000Y-113323691D01*
X155995000Y-114014250D01*
X156153750Y-114173000D01*
X157353000Y-114173000D01*
X157353000Y-112973750D01*
X157607000Y-112973750D01*
X157607000Y-114173000D01*
X159893000Y-114173000D01*
X159893000Y-112979845D01*
X160147000Y-112979845D01*
X160147000Y-114173000D01*
X162433000Y-114173000D01*
X162433000Y-112979845D01*
X162687000Y-112979845D01*
X162687000Y-114173000D01*
X162707000Y-114173000D01*
X162707000Y-114427000D01*
X162687000Y-114427000D01*
X162687000Y-115620155D01*
X162916890Y-115741476D01*
X163326924Y-115571645D01*
X163755183Y-115181358D01*
X163816157Y-115051522D01*
X164029375Y-115370625D01*
X164520582Y-115698839D01*
X164953744Y-115785000D01*
X165246256Y-115785000D01*
X165679418Y-115698839D01*
X166170625Y-115370625D01*
X166383843Y-115051522D01*
X166444817Y-115181358D01*
X166873076Y-115571645D01*
X167283110Y-115741476D01*
X167513000Y-115620155D01*
X167513000Y-114427000D01*
X167493000Y-114427000D01*
X167493000Y-114173000D01*
X167513000Y-114173000D01*
X167513000Y-112979845D01*
X167283110Y-112858524D01*
X166873076Y-113028355D01*
X166444817Y-113418642D01*
X166383843Y-113548478D01*
X166170625Y-113229375D01*
X165679418Y-112901161D01*
X165246256Y-112815000D01*
X164953744Y-112815000D01*
X164520582Y-112901161D01*
X164029375Y-113229375D01*
X163816157Y-113548478D01*
X163755183Y-113418642D01*
X163326924Y-113028355D01*
X162916890Y-112858524D01*
X162687000Y-112979845D01*
X162433000Y-112979845D01*
X162203110Y-112858524D01*
X161793076Y-113028355D01*
X161364817Y-113418642D01*
X161290000Y-113577954D01*
X161215183Y-113418642D01*
X160786924Y-113028355D01*
X160376890Y-112858524D01*
X160147000Y-112979845D01*
X159893000Y-112979845D01*
X159663110Y-112858524D01*
X159253076Y-113028355D01*
X158955136Y-113299878D01*
X158868327Y-113090302D01*
X158689699Y-112911673D01*
X158456310Y-112815000D01*
X157765750Y-112815000D01*
X157607000Y-112973750D01*
X157353000Y-112973750D01*
X157194250Y-112815000D01*
X156503690Y-112815000D01*
X156270301Y-112911673D01*
X156091673Y-113090302D01*
X155995000Y-113323691D01*
X151741110Y-113323691D01*
X160218718Y-104846083D01*
X163535000Y-104846083D01*
X163535000Y-105973917D01*
X163966603Y-107015899D01*
X164764101Y-107813397D01*
X165806083Y-108245000D01*
X166933917Y-108245000D01*
X167975899Y-107813397D01*
X168773397Y-107015899D01*
X169205000Y-105973917D01*
X169205000Y-104846083D01*
X168773397Y-103804101D01*
X167975899Y-103006603D01*
X166933917Y-102575000D01*
X165806083Y-102575000D01*
X164764101Y-103006603D01*
X163966603Y-103804101D01*
X163535000Y-104846083D01*
X160218718Y-104846083D01*
X162767873Y-102296929D01*
X162831329Y-102254529D01*
X162999304Y-102003137D01*
X163043400Y-101781452D01*
X163043400Y-101781448D01*
X163058288Y-101706601D01*
X163043400Y-101631754D01*
X163043400Y-89059425D01*
X166290000Y-89059425D01*
X166290000Y-89580575D01*
X166489436Y-90062055D01*
X166747381Y-90320000D01*
X166489436Y-90577945D01*
X166290000Y-91059425D01*
X166290000Y-91580575D01*
X166489436Y-92062055D01*
X166747381Y-92320000D01*
X166489436Y-92577945D01*
X166290000Y-93059425D01*
X166290000Y-93580575D01*
X166489436Y-94062055D01*
X166747381Y-94320000D01*
X166489436Y-94577945D01*
X166290000Y-95059425D01*
X166290000Y-95580575D01*
X166489436Y-96062055D01*
X166747381Y-96320000D01*
X166489436Y-96577945D01*
X166290000Y-97059425D01*
X166290000Y-97580575D01*
X166489436Y-98062055D01*
X166747381Y-98320000D01*
X166489436Y-98577945D01*
X166290000Y-99059425D01*
X166290000Y-99580575D01*
X166489436Y-100062055D01*
X166857945Y-100430564D01*
X167339425Y-100630000D01*
X167860575Y-100630000D01*
X168342055Y-100430564D01*
X168710564Y-100062055D01*
X168910000Y-99580575D01*
X168910000Y-99059425D01*
X168710564Y-98577945D01*
X168452619Y-98320000D01*
X168710564Y-98062055D01*
X168910000Y-97580575D01*
X168910000Y-97059425D01*
X168710564Y-96577945D01*
X168452619Y-96320000D01*
X168710564Y-96062055D01*
X168873615Y-95668416D01*
X171960000Y-98754803D01*
X171960001Y-113021821D01*
X171649375Y-113229375D01*
X171450000Y-113527761D01*
X171250625Y-113229375D01*
X170759418Y-112901161D01*
X170326256Y-112815000D01*
X170033744Y-112815000D01*
X169600582Y-112901161D01*
X169109375Y-113229375D01*
X168896157Y-113548478D01*
X168835183Y-113418642D01*
X168406924Y-113028355D01*
X167996890Y-112858524D01*
X167767000Y-112979845D01*
X167767000Y-114173000D01*
X167787000Y-114173000D01*
X167787000Y-114427000D01*
X167767000Y-114427000D01*
X167767000Y-115620155D01*
X167996890Y-115741476D01*
X168406924Y-115571645D01*
X168835183Y-115181358D01*
X168896157Y-115051522D01*
X169109375Y-115370625D01*
X169600582Y-115698839D01*
X170033744Y-115785000D01*
X170326256Y-115785000D01*
X170759418Y-115698839D01*
X171250625Y-115370625D01*
X171450000Y-115072239D01*
X171649375Y-115370625D01*
X172140582Y-115698839D01*
X172573744Y-115785000D01*
X172866256Y-115785000D01*
X173299418Y-115698839D01*
X173598858Y-115498759D01*
X174112571Y-116012473D01*
X174154971Y-116075929D01*
X174218427Y-116118329D01*
X174406362Y-116243904D01*
X174454505Y-116253480D01*
X174628048Y-116288000D01*
X174628052Y-116288000D01*
X174702900Y-116302888D01*
X174777748Y-116288000D01*
X175779653Y-116288000D01*
X175854500Y-116302888D01*
X175929347Y-116288000D01*
X175929352Y-116288000D01*
X176151037Y-116243904D01*
X176402429Y-116075929D01*
X176444831Y-116012470D01*
X176943562Y-115513740D01*
X177220582Y-115698839D01*
X177653744Y-115785000D01*
X177946256Y-115785000D01*
X178379418Y-115698839D01*
X178870625Y-115370625D01*
X179083843Y-115051522D01*
X179144817Y-115181358D01*
X179573076Y-115571645D01*
X179983110Y-115741476D01*
X180213000Y-115620155D01*
X180213000Y-114427000D01*
X180193000Y-114427000D01*
X180193000Y-114173000D01*
X180213000Y-114173000D01*
X180213000Y-112979845D01*
X179983110Y-112858524D01*
X179573076Y-113028355D01*
X179144817Y-113418642D01*
X179083843Y-113548478D01*
X178870625Y-113229375D01*
X178379418Y-112901161D01*
X177946256Y-112815000D01*
X177653744Y-112815000D01*
X177220582Y-112901161D01*
X176729375Y-113229375D01*
X176530000Y-113527761D01*
X176330625Y-113229375D01*
X176025040Y-113025190D01*
X176020000Y-112999852D01*
X176020000Y-112999848D01*
X175975904Y-112778163D01*
X175807929Y-112526771D01*
X175744472Y-112484371D01*
X175512300Y-112252199D01*
X175512300Y-110630298D01*
X176054778Y-110855000D01*
X176705222Y-110855000D01*
X177306153Y-110606086D01*
X177766086Y-110146153D01*
X178015000Y-109545222D01*
X178015000Y-108894778D01*
X177766086Y-108293847D01*
X177306153Y-107833914D01*
X176705222Y-107585000D01*
X176054778Y-107585000D01*
X175512300Y-107809702D01*
X175512300Y-106141826D01*
X176115461Y-106365908D01*
X176765460Y-106341856D01*
X177254264Y-106139387D01*
X177352927Y-105872532D01*
X176380000Y-104899605D01*
X176365858Y-104913748D01*
X176186253Y-104734143D01*
X176200395Y-104720000D01*
X176559605Y-104720000D01*
X177532532Y-105692927D01*
X177799387Y-105594264D01*
X178025908Y-104984539D01*
X178006331Y-104455461D01*
X181234092Y-104455461D01*
X181258144Y-105105460D01*
X181460613Y-105594264D01*
X181727468Y-105692927D01*
X182700395Y-104720000D01*
X181727468Y-103747073D01*
X181460613Y-103845736D01*
X181234092Y-104455461D01*
X178006331Y-104455461D01*
X178001856Y-104334540D01*
X177799387Y-103845736D01*
X177532532Y-103747073D01*
X176559605Y-104720000D01*
X176200395Y-104720000D01*
X176186253Y-104705858D01*
X176365858Y-104526253D01*
X176380000Y-104540395D01*
X177352927Y-103567468D01*
X177254264Y-103300613D01*
X176644539Y-103074092D01*
X175994540Y-103098144D01*
X175512300Y-103297894D01*
X175512300Y-96547148D01*
X175527188Y-96472300D01*
X175512300Y-96397452D01*
X175512300Y-96397448D01*
X175468204Y-96175763D01*
X175468204Y-96175762D01*
X175342629Y-95987827D01*
X175300229Y-95924371D01*
X175236773Y-95881971D01*
X168910000Y-89555199D01*
X168910000Y-89059425D01*
X168710564Y-88577945D01*
X168342055Y-88209436D01*
X168287045Y-88186650D01*
X167600000Y-87499605D01*
X166912955Y-88186650D01*
X166857945Y-88209436D01*
X166489436Y-88577945D01*
X166290000Y-89059425D01*
X163043400Y-89059425D01*
X163043400Y-87133100D01*
X166277478Y-87133100D01*
X166306625Y-87653434D01*
X166449672Y-87998781D01*
X166682853Y-88057542D01*
X167420395Y-87320000D01*
X166682853Y-86582458D01*
X166449672Y-86641219D01*
X166277478Y-87133100D01*
X163043400Y-87133100D01*
X163043400Y-83096701D01*
X169375400Y-76764702D01*
X169375401Y-82469797D01*
X167835199Y-84010000D01*
X167339425Y-84010000D01*
X166857945Y-84209436D01*
X166489436Y-84577945D01*
X166290000Y-85059425D01*
X166290000Y-85580575D01*
X166489436Y-86062055D01*
X166857945Y-86430564D01*
X166912955Y-86453350D01*
X167600000Y-87140395D01*
X167614143Y-87126253D01*
X167793748Y-87305858D01*
X167779605Y-87320000D01*
X168517147Y-88057542D01*
X168750328Y-87998781D01*
X168867959Y-87662761D01*
X183523401Y-102318203D01*
X183523401Y-103214844D01*
X183144539Y-103074092D01*
X182494540Y-103098144D01*
X182005736Y-103300613D01*
X181907073Y-103567468D01*
X182880000Y-104540395D01*
X182894143Y-104526253D01*
X183073748Y-104705858D01*
X183059605Y-104720000D01*
X183073748Y-104734143D01*
X182894143Y-104913748D01*
X182880000Y-104899605D01*
X181907073Y-105872532D01*
X182005736Y-106139387D01*
X182615461Y-106365908D01*
X183265460Y-106341856D01*
X183523401Y-106235014D01*
X183523400Y-107716794D01*
X183205222Y-107585000D01*
X182554778Y-107585000D01*
X181953847Y-107833914D01*
X181493914Y-108293847D01*
X181245000Y-108894778D01*
X181245000Y-109545222D01*
X181493914Y-110146153D01*
X181953847Y-110606086D01*
X182554778Y-110855000D01*
X183205222Y-110855000D01*
X183523400Y-110723206D01*
X183523400Y-111356497D01*
X182395528Y-112484371D01*
X182332072Y-112526771D01*
X182289672Y-112590227D01*
X182289671Y-112590228D01*
X182164097Y-112778163D01*
X182114960Y-113025189D01*
X181809375Y-113229375D01*
X181596157Y-113548478D01*
X181535183Y-113418642D01*
X181106924Y-113028355D01*
X180696890Y-112858524D01*
X180467000Y-112979845D01*
X180467000Y-114173000D01*
X180487000Y-114173000D01*
X180487000Y-114427000D01*
X180467000Y-114427000D01*
X180467000Y-115620155D01*
X180696890Y-115741476D01*
X181106924Y-115571645D01*
X181535183Y-115181358D01*
X181596157Y-115051522D01*
X181809375Y-115370625D01*
X182300582Y-115698839D01*
X182733744Y-115785000D01*
X183026256Y-115785000D01*
X183459418Y-115698839D01*
X183950625Y-115370625D01*
X184278839Y-114879418D01*
X184394092Y-114300000D01*
X184278839Y-113720582D01*
X183950625Y-113229375D01*
X183860408Y-113169094D01*
X184767876Y-112261627D01*
X184831329Y-112219229D01*
X184873727Y-112155776D01*
X184873729Y-112155774D01*
X184999303Y-111967838D01*
X184999304Y-111967837D01*
X185043400Y-111746152D01*
X185043400Y-111746148D01*
X185058288Y-111671301D01*
X185043400Y-111596454D01*
X185043400Y-102078248D01*
X185058288Y-102003400D01*
X185043400Y-101928552D01*
X185043400Y-101928548D01*
X184999304Y-101706863D01*
X184831329Y-101455471D01*
X184767873Y-101413071D01*
X168910000Y-85555199D01*
X168910000Y-85084801D01*
X170619873Y-83374929D01*
X170683329Y-83332529D01*
X170851304Y-83081137D01*
X170895400Y-82859452D01*
X170895400Y-82859448D01*
X170910288Y-82784601D01*
X170895400Y-82709754D01*
X170895400Y-73645548D01*
X170910288Y-73570700D01*
X170895400Y-73495852D01*
X170895400Y-73495848D01*
X170851304Y-73274163D01*
X170851304Y-73274162D01*
X170725729Y-73086227D01*
X170683329Y-73022771D01*
X170619873Y-72980371D01*
X167587592Y-69948091D01*
X167677809Y-69887809D01*
X167818157Y-69677765D01*
X167838739Y-69574292D01*
X168143076Y-69851645D01*
X168553110Y-70021476D01*
X168783000Y-69900155D01*
X168783000Y-68707000D01*
X168763000Y-68707000D01*
X168763000Y-68453000D01*
X168783000Y-68453000D01*
X168783000Y-68433000D01*
X169037000Y-68433000D01*
X169037000Y-68453000D01*
X169057000Y-68453000D01*
X169057000Y-68707000D01*
X169037000Y-68707000D01*
X169037000Y-69900155D01*
X169266890Y-70021476D01*
X169676924Y-69851645D01*
X170105183Y-69461358D01*
X170161123Y-69342243D01*
X170175190Y-69345041D01*
X170379375Y-69650625D01*
X170870582Y-69978839D01*
X171303744Y-70065000D01*
X171596256Y-70065000D01*
X172029418Y-69978839D01*
X172520625Y-69650625D01*
X172720000Y-69352239D01*
X172919375Y-69650625D01*
X173410582Y-69978839D01*
X173843744Y-70065000D01*
X174136256Y-70065000D01*
X174569418Y-69978839D01*
X175060625Y-69650625D01*
X175388839Y-69159418D01*
X175504092Y-68580000D01*
X175391923Y-68016083D01*
X180045000Y-68016083D01*
X180045000Y-69143917D01*
X180476603Y-70185899D01*
X181274101Y-70983397D01*
X182316083Y-71415000D01*
X183443917Y-71415000D01*
X184485899Y-70983397D01*
X185283397Y-70185899D01*
X185715000Y-69143917D01*
X185715000Y-68016083D01*
X185283397Y-66974101D01*
X184485899Y-66176603D01*
X183443917Y-65745000D01*
X182316083Y-65745000D01*
X181274101Y-66176603D01*
X180476603Y-66974101D01*
X180045000Y-68016083D01*
X175391923Y-68016083D01*
X175388839Y-68000582D01*
X175060625Y-67509375D01*
X174569418Y-67181161D01*
X174136256Y-67095000D01*
X173843744Y-67095000D01*
X173410582Y-67181161D01*
X172919375Y-67509375D01*
X172720000Y-67807761D01*
X172520625Y-67509375D01*
X172029418Y-67181161D01*
X171596256Y-67095000D01*
X171303744Y-67095000D01*
X170870582Y-67181161D01*
X170593562Y-67366260D01*
X170094831Y-66867530D01*
X170052429Y-66804071D01*
X169801037Y-66636096D01*
X169579352Y-66592000D01*
X169579347Y-66592000D01*
X169504500Y-66577112D01*
X169429653Y-66592000D01*
X153198646Y-66592000D01*
X153123799Y-66577112D01*
X153048952Y-66592000D01*
X153048948Y-66592000D01*
X152827263Y-66636096D01*
X152575871Y-66804071D01*
X152533471Y-66867527D01*
X152015392Y-67385606D01*
X151709418Y-67181161D01*
X151276256Y-67095000D01*
X150983744Y-67095000D01*
X150550582Y-67181161D01*
X150059375Y-67509375D01*
X149846157Y-67828478D01*
X149785183Y-67698642D01*
X149356924Y-67308355D01*
X148946890Y-67138524D01*
X148717000Y-67259845D01*
X148717000Y-68453000D01*
X148737000Y-68453000D01*
X148737000Y-68707000D01*
X148717000Y-68707000D01*
X148717000Y-69900155D01*
X148946890Y-70021476D01*
X149356924Y-69851645D01*
X149785183Y-69461358D01*
X149846157Y-69331522D01*
X150059375Y-69650625D01*
X150550582Y-69978839D01*
X150983744Y-70065000D01*
X151276256Y-70065000D01*
X151709418Y-69978839D01*
X152200625Y-69650625D01*
X152400000Y-69352239D01*
X152599375Y-69650625D01*
X153090582Y-69978839D01*
X153523744Y-70065000D01*
X153816256Y-70065000D01*
X154249418Y-69978839D01*
X154740625Y-69650625D01*
X155068839Y-69159418D01*
X155184092Y-68580000D01*
X155091001Y-68112000D01*
X164872560Y-68112000D01*
X164872560Y-69430000D01*
X164921843Y-69677765D01*
X165062191Y-69887809D01*
X165272235Y-70028157D01*
X165520000Y-70077440D01*
X165649244Y-70077440D01*
X165654097Y-70101837D01*
X165710266Y-70185899D01*
X165822072Y-70353229D01*
X165885528Y-70395629D01*
X168922458Y-73432560D01*
X168060000Y-73432560D01*
X167812235Y-73481843D01*
X167602191Y-73622191D01*
X167461843Y-73832235D01*
X167441261Y-73935708D01*
X167136924Y-73658355D01*
X166726890Y-73488524D01*
X166497000Y-73609845D01*
X166497000Y-74803000D01*
X166517000Y-74803000D01*
X166517000Y-75057000D01*
X166497000Y-75057000D01*
X166497000Y-76250155D01*
X166726890Y-76371476D01*
X167136924Y-76201645D01*
X167441261Y-75924292D01*
X167461843Y-76027765D01*
X167602191Y-76237809D01*
X167692408Y-76298090D01*
X161798930Y-82191569D01*
X161735471Y-82233971D01*
X161567496Y-82485364D01*
X161523400Y-82707049D01*
X161523400Y-82707053D01*
X161508512Y-82781900D01*
X161523400Y-82856747D01*
X161523400Y-90116249D01*
X161418839Y-89590582D01*
X161090625Y-89099375D01*
X161072381Y-89087184D01*
X161117765Y-89078157D01*
X161327809Y-88937809D01*
X161468157Y-88727765D01*
X161517440Y-88480000D01*
X161517440Y-86780000D01*
X161468157Y-86532235D01*
X161327809Y-86322191D01*
X161117765Y-86181843D01*
X160870000Y-86132560D01*
X159170000Y-86132560D01*
X158922235Y-86181843D01*
X158712191Y-86322191D01*
X158571843Y-86532235D01*
X158522560Y-86780000D01*
X158522560Y-86909243D01*
X158498162Y-86914096D01*
X158311118Y-87039076D01*
X158246771Y-87082071D01*
X158204372Y-87145526D01*
X157422199Y-87927700D01*
X156717111Y-87927700D01*
X156599680Y-87810269D01*
X156219274Y-87652700D01*
X155964900Y-87652700D01*
X155964900Y-85921248D01*
X155979788Y-85846400D01*
X155964900Y-85771552D01*
X155964900Y-85771548D01*
X155920804Y-85549863D01*
X155752829Y-85298471D01*
X155689373Y-85256071D01*
X151768244Y-81334943D01*
X151896924Y-81281645D01*
X152201261Y-81004292D01*
X152221843Y-81107765D01*
X152362191Y-81317809D01*
X152572235Y-81458157D01*
X152820000Y-81507440D01*
X154520000Y-81507440D01*
X154767765Y-81458157D01*
X154977809Y-81317809D01*
X155118157Y-81107765D01*
X155167440Y-80860000D01*
X155167440Y-79160000D01*
X155118157Y-78912235D01*
X154977809Y-78702191D01*
X154767765Y-78561843D01*
X154520000Y-78512560D01*
X152820000Y-78512560D01*
X152572235Y-78561843D01*
X152362191Y-78702191D01*
X152221843Y-78912235D01*
X152201261Y-79015708D01*
X151896924Y-78738355D01*
X151486890Y-78568524D01*
X151257000Y-78689845D01*
X151257000Y-79883000D01*
X151277000Y-79883000D01*
X151277000Y-80137000D01*
X151257000Y-80137000D01*
X151257000Y-80157000D01*
X151003000Y-80157000D01*
X151003000Y-80137000D01*
X150983000Y-80137000D01*
X150983000Y-79883000D01*
X151003000Y-79883000D01*
X151003000Y-78689845D01*
X150773110Y-78568524D01*
X150363076Y-78738355D01*
X149934817Y-79128642D01*
X149815663Y-79382362D01*
X148080000Y-77646699D01*
X148080000Y-76148043D01*
X148354577Y-75964577D01*
X148671740Y-75489909D01*
X148783113Y-74930000D01*
X148726336Y-74644561D01*
X156045000Y-74644561D01*
X156045000Y-75215439D01*
X156263466Y-75742862D01*
X156667138Y-76146534D01*
X157194561Y-76365000D01*
X157765439Y-76365000D01*
X158292862Y-76146534D01*
X158696534Y-75742862D01*
X158885403Y-75286892D01*
X164928514Y-75286892D01*
X165174817Y-75811358D01*
X165603076Y-76201645D01*
X166013110Y-76371476D01*
X166243000Y-76250155D01*
X166243000Y-75057000D01*
X165049181Y-75057000D01*
X164928514Y-75286892D01*
X158885403Y-75286892D01*
X158915000Y-75215439D01*
X158915000Y-74644561D01*
X158885404Y-74573108D01*
X164928514Y-74573108D01*
X165049181Y-74803000D01*
X166243000Y-74803000D01*
X166243000Y-73609845D01*
X166013110Y-73488524D01*
X165603076Y-73658355D01*
X165174817Y-74048642D01*
X164928514Y-74573108D01*
X158885404Y-74573108D01*
X158696534Y-74117138D01*
X158292862Y-73713466D01*
X157765439Y-73495000D01*
X157194561Y-73495000D01*
X156667138Y-73713466D01*
X156263466Y-74117138D01*
X156045000Y-74644561D01*
X148726336Y-74644561D01*
X148671740Y-74370091D01*
X148354577Y-73895423D01*
X147879909Y-73578260D01*
X147461333Y-73495000D01*
X147178667Y-73495000D01*
X146760091Y-73578260D01*
X146285423Y-73895423D01*
X146050394Y-74247168D01*
X145996534Y-74117138D01*
X145592862Y-73713466D01*
X145065439Y-73495000D01*
X144494561Y-73495000D01*
X143967138Y-73713466D01*
X143563466Y-74117138D01*
X143345000Y-74644561D01*
X143345000Y-75215439D01*
X143366896Y-75268302D01*
X140485530Y-78149669D01*
X140422071Y-78192071D01*
X140310762Y-78358658D01*
X140292529Y-78331371D01*
X140229073Y-78288971D01*
X136385631Y-74445530D01*
X136343229Y-74382071D01*
X136091837Y-74214096D01*
X135870152Y-74170000D01*
X135870147Y-74170000D01*
X135833123Y-74162635D01*
X135654577Y-73895423D01*
X135179909Y-73578260D01*
X134761333Y-73495000D01*
X134478667Y-73495000D01*
X134110000Y-73568332D01*
X134110000Y-69858178D01*
X134420625Y-69650625D01*
X134748839Y-69159418D01*
X134864092Y-68580000D01*
X134771538Y-68114700D01*
X143284599Y-68114700D01*
X144234371Y-69064473D01*
X144276771Y-69127929D01*
X144528163Y-69295904D01*
X144552560Y-69300757D01*
X144552560Y-69430000D01*
X144601843Y-69677765D01*
X144742191Y-69887809D01*
X144952235Y-70028157D01*
X145200000Y-70077440D01*
X146900000Y-70077440D01*
X147147765Y-70028157D01*
X147357809Y-69887809D01*
X147498157Y-69677765D01*
X147518739Y-69574292D01*
X147823076Y-69851645D01*
X148233110Y-70021476D01*
X148463000Y-69900155D01*
X148463000Y-68707000D01*
X148443000Y-68707000D01*
X148443000Y-68453000D01*
X148463000Y-68453000D01*
X148463000Y-67259845D01*
X148233110Y-67138524D01*
X147823076Y-67308355D01*
X147518739Y-67585708D01*
X147498157Y-67482235D01*
X147357809Y-67272191D01*
X147147765Y-67131843D01*
X146900000Y-67082560D01*
X145200000Y-67082560D01*
X144952235Y-67131843D01*
X144742191Y-67272191D01*
X144681909Y-67362408D01*
X144189731Y-66870230D01*
X144147329Y-66806771D01*
X143895937Y-66638796D01*
X143674252Y-66594700D01*
X143674247Y-66594700D01*
X143599400Y-66579812D01*
X143524553Y-66594700D01*
X129614852Y-66594700D01*
X129540000Y-66579811D01*
X129465148Y-66594700D01*
X127795846Y-66594700D01*
X127720999Y-66579812D01*
X127646152Y-66594700D01*
X127646148Y-66594700D01*
X127424463Y-66638796D01*
X127424461Y-66638797D01*
X127424462Y-66638797D01*
X127236526Y-66764371D01*
X127236524Y-66764373D01*
X127173071Y-66806771D01*
X127130673Y-66870225D01*
X126852516Y-67148381D01*
X126827765Y-67131843D01*
X126580000Y-67082560D01*
X124880000Y-67082560D01*
X124632235Y-67131843D01*
X124422191Y-67272191D01*
X124281843Y-67482235D01*
X124232560Y-67730000D01*
X124232560Y-69430000D01*
X124281843Y-69677765D01*
X124422191Y-69887809D01*
X124632235Y-70028157D01*
X124880000Y-70077440D01*
X126580000Y-70077440D01*
X126827765Y-70028157D01*
X127037809Y-69887809D01*
X127178157Y-69677765D01*
X127198739Y-69574292D01*
X127503076Y-69851645D01*
X127913110Y-70021476D01*
X128143000Y-69900155D01*
X128143000Y-68707000D01*
X128123000Y-68707000D01*
X128123000Y-68453000D01*
X128143000Y-68453000D01*
X128143000Y-68433000D01*
X128397000Y-68433000D01*
X128397000Y-68453000D01*
X128417000Y-68453000D01*
X128417000Y-68707000D01*
X128397000Y-68707000D01*
X128397000Y-69900155D01*
X128626890Y-70021476D01*
X128780000Y-69958060D01*
X128780000Y-72334585D01*
X128515439Y-72225000D01*
X127944561Y-72225000D01*
X127417138Y-72443466D01*
X127013466Y-72847138D01*
X126986475Y-72912299D01*
X126983864Y-72905995D01*
X126737745Y-72831861D01*
X125909605Y-73660000D01*
X126737745Y-74488139D01*
X126983864Y-74414005D01*
X126986290Y-74407254D01*
X127013466Y-74472862D01*
X127417138Y-74876534D01*
X127546216Y-74930000D01*
X127417138Y-74983466D01*
X127013466Y-75387138D01*
X126986475Y-75452299D01*
X126983864Y-75445995D01*
X126737745Y-75371861D01*
X125909605Y-76200000D01*
X126737745Y-77028139D01*
X126983864Y-76954005D01*
X126986290Y-76947254D01*
X127013466Y-77012862D01*
X127417138Y-77416534D01*
X127944561Y-77635000D01*
X128515439Y-77635000D01*
X128780001Y-77525415D01*
X128780001Y-78512560D01*
X127420000Y-78512560D01*
X127172235Y-78561843D01*
X126962191Y-78702191D01*
X126821843Y-78912235D01*
X126801261Y-79015708D01*
X126496924Y-78738355D01*
X126086890Y-78568524D01*
X125857000Y-78689845D01*
X125857000Y-79883000D01*
X125877000Y-79883000D01*
X125877000Y-80137000D01*
X125857000Y-80137000D01*
X125857000Y-81330155D01*
X126086890Y-81451476D01*
X126496924Y-81281645D01*
X126801261Y-81004292D01*
X126821843Y-81107765D01*
X126962191Y-81317809D01*
X127172235Y-81458157D01*
X127420000Y-81507440D01*
X128780001Y-81507440D01*
X128780001Y-85015148D01*
X128765112Y-85090000D01*
X128824097Y-85386537D01*
X128933229Y-85549864D01*
X128992072Y-85637929D01*
X129055528Y-85680329D01*
X129470199Y-86095000D01*
X129234670Y-86095000D01*
X128670493Y-86328690D01*
X128238690Y-86760493D01*
X128230562Y-86780115D01*
X128080159Y-86729446D01*
X127179605Y-87630000D01*
X128080159Y-88530554D01*
X128230562Y-88479885D01*
X128238690Y-88499507D01*
X128670493Y-88931310D01*
X129234670Y-89165000D01*
X129845330Y-89165000D01*
X130409507Y-88931310D01*
X130810000Y-88530817D01*
X131210493Y-88931310D01*
X131774670Y-89165000D01*
X132184183Y-89165000D01*
X132048690Y-89300493D01*
X131815000Y-89864670D01*
X131815000Y-90475330D01*
X132048690Y-91039507D01*
X132480493Y-91471310D01*
X133044670Y-91705000D01*
X133655330Y-91705000D01*
X134219507Y-91471310D01*
X134620000Y-91070817D01*
X135020493Y-91471310D01*
X135584670Y-91705000D01*
X136195330Y-91705000D01*
X136304839Y-91659640D01*
X139633671Y-94988473D01*
X139676071Y-95051929D01*
X139927463Y-95219904D01*
X140149148Y-95264000D01*
X140149152Y-95264000D01*
X140224000Y-95278888D01*
X140298848Y-95264000D01*
X152089298Y-95264000D01*
X148216099Y-99137200D01*
X145287646Y-99137200D01*
X145212799Y-99122312D01*
X145137952Y-99137200D01*
X145137948Y-99137200D01*
X144916263Y-99181296D01*
X144664871Y-99349271D01*
X144622471Y-99412727D01*
X142654839Y-101380360D01*
X142545330Y-101335000D01*
X141934670Y-101335000D01*
X141370493Y-101568690D01*
X140970000Y-101969183D01*
X140569507Y-101568690D01*
X140005330Y-101335000D01*
X139394670Y-101335000D01*
X138830493Y-101568690D01*
X138430000Y-101969183D01*
X138029507Y-101568690D01*
X137465330Y-101335000D01*
X136854670Y-101335000D01*
X136290493Y-101568690D01*
X135890000Y-101969183D01*
X135489507Y-101568690D01*
X134925330Y-101335000D01*
X134314670Y-101335000D01*
X133750493Y-101568690D01*
X133318690Y-102000493D01*
X133310562Y-102020115D01*
X133160159Y-101969446D01*
X132259605Y-102870000D01*
X133160159Y-103770554D01*
X133310562Y-103719885D01*
X133318690Y-103739507D01*
X133750493Y-104171310D01*
X134314670Y-104405000D01*
X134925330Y-104405000D01*
X135489507Y-104171310D01*
X135890000Y-103770817D01*
X136290493Y-104171310D01*
X136854670Y-104405000D01*
X137465330Y-104405000D01*
X138029507Y-104171310D01*
X138430000Y-103770817D01*
X138830493Y-104171310D01*
X138940001Y-104216670D01*
X138940000Y-106459898D01*
X137945528Y-107454371D01*
X137882072Y-107496771D01*
X137839672Y-107560227D01*
X137839671Y-107560228D01*
X137714097Y-107748163D01*
X137662635Y-108006877D01*
X137395423Y-108185423D01*
X137078260Y-108660091D01*
X136966887Y-109220000D01*
X137078260Y-109779909D01*
X137395423Y-110254577D01*
X137870091Y-110571740D01*
X138288667Y-110655000D01*
X138571333Y-110655000D01*
X138989909Y-110571740D01*
X139464577Y-110254577D01*
X139781740Y-109779909D01*
X139893113Y-109220000D01*
X139781740Y-108660091D01*
X139464577Y-108185423D01*
X139404332Y-108145169D01*
X140184473Y-107365029D01*
X140247929Y-107322629D01*
X140415904Y-107071237D01*
X140460000Y-106849552D01*
X140460000Y-106849548D01*
X140474888Y-106774701D01*
X140460000Y-106699854D01*
X140460000Y-104216669D01*
X140569507Y-104171310D01*
X140970000Y-103770817D01*
X141370493Y-104171310D01*
X141934670Y-104405000D01*
X142545330Y-104405000D01*
X143109507Y-104171310D01*
X143510000Y-103770817D01*
X143910493Y-104171310D01*
X144474670Y-104405000D01*
X145085330Y-104405000D01*
X145649507Y-104171310D01*
X146050000Y-103770817D01*
X146450493Y-104171310D01*
X147014670Y-104405000D01*
X147625330Y-104405000D01*
X148189507Y-104171310D01*
X148590000Y-103770817D01*
X148990493Y-104171310D01*
X149554670Y-104405000D01*
X150165330Y-104405000D01*
X150729507Y-104171310D01*
X151130000Y-103770817D01*
X151530493Y-104171310D01*
X151640000Y-104216669D01*
X151640001Y-108001956D01*
X151365423Y-108185423D01*
X151048260Y-108660091D01*
X150936887Y-109220000D01*
X151048260Y-109779909D01*
X151365423Y-110254577D01*
X151717602Y-110489896D01*
X145720999Y-116486500D01*
X144707440Y-116486500D01*
X144707440Y-115345000D01*
X144653000Y-115071313D01*
X144653000Y-114027000D01*
X144907000Y-114027000D01*
X144907000Y-115276250D01*
X145065750Y-115435000D01*
X145456309Y-115435000D01*
X145689698Y-115338327D01*
X145868327Y-115159699D01*
X145965000Y-114926310D01*
X145965000Y-114185750D01*
X145806250Y-114027000D01*
X144907000Y-114027000D01*
X144653000Y-114027000D01*
X144633000Y-114027000D01*
X144633000Y-113773000D01*
X144653000Y-113773000D01*
X144653000Y-112523750D01*
X144907000Y-112523750D01*
X144907000Y-113773000D01*
X145806250Y-113773000D01*
X145965000Y-113614250D01*
X145965000Y-112873690D01*
X145868327Y-112640301D01*
X145689698Y-112461673D01*
X145456309Y-112365000D01*
X145065750Y-112365000D01*
X144907000Y-112523750D01*
X144653000Y-112523750D01*
X144494250Y-112365000D01*
X144270000Y-112365000D01*
X144270000Y-110564846D01*
X144284888Y-110489999D01*
X144270000Y-110415152D01*
X144270000Y-110415148D01*
X144225904Y-110193463D01*
X144057929Y-109942071D01*
X143994473Y-109899671D01*
X143653103Y-109558302D01*
X143675000Y-109505439D01*
X143675000Y-108934561D01*
X143456534Y-108407138D01*
X143052862Y-108003466D01*
X142525439Y-107785000D01*
X141954561Y-107785000D01*
X141427138Y-108003466D01*
X141023466Y-108407138D01*
X140805000Y-108934561D01*
X140805000Y-109505439D01*
X141023466Y-110032862D01*
X141427138Y-110436534D01*
X141954561Y-110655000D01*
X142525439Y-110655000D01*
X142578302Y-110633103D01*
X142750001Y-110804803D01*
X142750001Y-112399305D01*
X142515000Y-112352560D01*
X141965000Y-112352560D01*
X141611997Y-112422777D01*
X141312736Y-112622736D01*
X141112777Y-112921997D01*
X141042560Y-113275000D01*
X141042560Y-114525000D01*
X141112777Y-114878003D01*
X141312736Y-115177264D01*
X141611997Y-115377223D01*
X141965000Y-115447440D01*
X142312560Y-115447440D01*
X142312560Y-116486500D01*
X141651302Y-116486500D01*
X139803103Y-114638302D01*
X139825000Y-114585439D01*
X139825000Y-114014561D01*
X139606534Y-113487138D01*
X139202862Y-113083466D01*
X138675439Y-112865000D01*
X138104561Y-112865000D01*
X138051698Y-112886896D01*
X133900331Y-108735530D01*
X133857929Y-108672071D01*
X133606537Y-108504096D01*
X133384852Y-108460000D01*
X133384847Y-108460000D01*
X133310000Y-108445112D01*
X133235153Y-108460000D01*
X129508430Y-108460000D01*
X129486534Y-108407138D01*
X129082862Y-108003466D01*
X128555439Y-107785000D01*
X127984561Y-107785000D01*
X127457138Y-108003466D01*
X127053466Y-108407138D01*
X126835000Y-108934561D01*
X126835000Y-109294899D01*
X126275631Y-108735530D01*
X126233229Y-108672071D01*
X125981837Y-108504096D01*
X125760152Y-108460000D01*
X125760147Y-108460000D01*
X125734811Y-108454960D01*
X125530625Y-108149375D01*
X125039418Y-107821161D01*
X124606256Y-107735000D01*
X124313744Y-107735000D01*
X123880582Y-107821161D01*
X123389375Y-108149375D01*
X123061161Y-108640582D01*
X122945908Y-109220000D01*
X121385000Y-109220000D01*
X121385000Y-106902540D01*
X123359689Y-103940506D01*
X123590493Y-104171310D01*
X124154670Y-104405000D01*
X124765330Y-104405000D01*
X125329507Y-104171310D01*
X125730000Y-103770817D01*
X126130493Y-104171310D01*
X126694670Y-104405000D01*
X127305330Y-104405000D01*
X127869507Y-104171310D01*
X128270000Y-103770817D01*
X128670493Y-104171310D01*
X129234670Y-104405000D01*
X129845330Y-104405000D01*
X130409507Y-104171310D01*
X130630658Y-103950159D01*
X131179446Y-103950159D01*
X131265852Y-104206643D01*
X131839336Y-104416458D01*
X132449460Y-104390839D01*
X132894148Y-104206643D01*
X132980554Y-103950159D01*
X132080000Y-103049605D01*
X131179446Y-103950159D01*
X130630658Y-103950159D01*
X130841310Y-103739507D01*
X130849438Y-103719885D01*
X130999841Y-103770554D01*
X131900395Y-102870000D01*
X130999841Y-101969446D01*
X130849438Y-102020115D01*
X130841310Y-102000493D01*
X130630658Y-101789841D01*
X131179446Y-101789841D01*
X132080000Y-102690395D01*
X132980554Y-101789841D01*
X132894148Y-101533357D01*
X132320664Y-101323542D01*
X131710540Y-101349161D01*
X131265852Y-101533357D01*
X131179446Y-101789841D01*
X130630658Y-101789841D01*
X130409507Y-101568690D01*
X129845330Y-101335000D01*
X129234670Y-101335000D01*
X128670493Y-101568690D01*
X128270000Y-101969183D01*
X127869507Y-101568690D01*
X127305330Y-101335000D01*
X126694670Y-101335000D01*
X126130493Y-101568690D01*
X125730000Y-101969183D01*
X125329507Y-101568690D01*
X124765330Y-101335000D01*
X124154670Y-101335000D01*
X123925000Y-101430133D01*
X123925000Y-89069867D01*
X124154670Y-89165000D01*
X124765330Y-89165000D01*
X125329507Y-88931310D01*
X125550658Y-88710159D01*
X126099446Y-88710159D01*
X126185852Y-88966643D01*
X126759336Y-89176458D01*
X127369460Y-89150839D01*
X127814148Y-88966643D01*
X127900554Y-88710159D01*
X127000000Y-87809605D01*
X126099446Y-88710159D01*
X125550658Y-88710159D01*
X125761310Y-88499507D01*
X125769438Y-88479885D01*
X125919841Y-88530554D01*
X126820395Y-87630000D01*
X125919841Y-86729446D01*
X125769438Y-86780115D01*
X125761310Y-86760493D01*
X125550658Y-86549841D01*
X126099446Y-86549841D01*
X127000000Y-87450395D01*
X127900554Y-86549841D01*
X127814148Y-86293357D01*
X127240664Y-86083542D01*
X126630540Y-86109161D01*
X126185852Y-86293357D01*
X126099446Y-86549841D01*
X125550658Y-86549841D01*
X125329507Y-86328690D01*
X124765330Y-86095000D01*
X124154670Y-86095000D01*
X123590493Y-86328690D01*
X123359689Y-86559494D01*
X121385000Y-83597460D01*
X121385000Y-80366892D01*
X124288514Y-80366892D01*
X124534817Y-80891358D01*
X124963076Y-81281645D01*
X125373110Y-81451476D01*
X125603000Y-81330155D01*
X125603000Y-80137000D01*
X124409181Y-80137000D01*
X124288514Y-80366892D01*
X121385000Y-80366892D01*
X121385000Y-79653108D01*
X124288514Y-79653108D01*
X124409181Y-79883000D01*
X125603000Y-79883000D01*
X125603000Y-78689845D01*
X125373110Y-78568524D01*
X124963076Y-78738355D01*
X124534817Y-79128642D01*
X124288514Y-79653108D01*
X121385000Y-79653108D01*
X121385000Y-77207745D01*
X124901861Y-77207745D01*
X124975995Y-77453864D01*
X125513223Y-77646965D01*
X126083454Y-77619778D01*
X126484005Y-77453864D01*
X126558139Y-77207745D01*
X125730000Y-76379605D01*
X124901861Y-77207745D01*
X121385000Y-77207745D01*
X121385000Y-75983223D01*
X124283035Y-75983223D01*
X124310222Y-76553454D01*
X124476136Y-76954005D01*
X124722255Y-77028139D01*
X125550395Y-76200000D01*
X124722255Y-75371861D01*
X124476136Y-75445995D01*
X124283035Y-75983223D01*
X121385000Y-75983223D01*
X121385000Y-74667745D01*
X124901861Y-74667745D01*
X124975995Y-74913864D01*
X125017709Y-74928858D01*
X124975995Y-74946136D01*
X124901861Y-75192255D01*
X125730000Y-76020395D01*
X126558139Y-75192255D01*
X126484005Y-74946136D01*
X126442291Y-74931142D01*
X126484005Y-74913864D01*
X126558139Y-74667745D01*
X125730000Y-73839605D01*
X124901861Y-74667745D01*
X121385000Y-74667745D01*
X121385000Y-73443223D01*
X124283035Y-73443223D01*
X124310222Y-74013454D01*
X124476136Y-74414005D01*
X124722255Y-74488139D01*
X125550395Y-73660000D01*
X124722255Y-72831861D01*
X124476136Y-72905995D01*
X124283035Y-73443223D01*
X121385000Y-73443223D01*
X121385000Y-72652255D01*
X124901861Y-72652255D01*
X125730000Y-73480395D01*
X126558139Y-72652255D01*
X126484005Y-72406136D01*
X125946777Y-72213035D01*
X125376546Y-72240222D01*
X124975995Y-72406136D01*
X124901861Y-72652255D01*
X121385000Y-72652255D01*
X121385000Y-65505000D01*
X185980001Y-65505000D01*
X185980000Y-87335909D01*
X185980000Y-87335909D01*
G37*
X185980000Y-87335909D02*
X183697402Y-89618508D01*
X183638120Y-89658119D01*
X183540330Y-89804472D01*
X183481196Y-89892972D01*
X183426091Y-90170000D01*
X183440001Y-90239929D01*
X183440000Y-96450076D01*
X183426091Y-96520000D01*
X183440000Y-96589924D01*
X183440000Y-96589925D01*
X183481195Y-96797027D01*
X183638119Y-97031880D01*
X183697402Y-97071492D01*
X185980000Y-99354091D01*
X185980001Y-117400000D01*
X148589306Y-117400000D01*
X148449514Y-117399854D01*
X148383271Y-117427212D01*
X148312972Y-117441195D01*
X148196200Y-117519220D01*
X144602530Y-119915000D01*
X121385000Y-119915000D01*
X121385000Y-117125750D01*
X122975000Y-117125750D01*
X122975000Y-117816310D01*
X123071673Y-118049699D01*
X123250302Y-118228327D01*
X123483691Y-118325000D01*
X124174250Y-118325000D01*
X124333000Y-118166250D01*
X124333000Y-116967000D01*
X124587000Y-116967000D01*
X124587000Y-118166250D01*
X124745750Y-118325000D01*
X125436309Y-118325000D01*
X125669698Y-118228327D01*
X125848327Y-118049699D01*
X125945000Y-117816310D01*
X125945000Y-117125750D01*
X125786250Y-116967000D01*
X124587000Y-116967000D01*
X124333000Y-116967000D01*
X123133750Y-116967000D01*
X122975000Y-117125750D01*
X121385000Y-117125750D01*
X121385000Y-109220000D01*
X122945908Y-109220000D01*
X123061161Y-109799418D01*
X123389375Y-110290625D01*
X123687761Y-110490000D01*
X123389375Y-110689375D01*
X123061161Y-111180582D01*
X122945908Y-111760000D01*
X123061161Y-112339418D01*
X123389375Y-112830625D01*
X123687761Y-113030000D01*
X123389375Y-113229375D01*
X123061161Y-113720582D01*
X122945908Y-114300000D01*
X123061161Y-114879418D01*
X123389375Y-115370625D01*
X123411033Y-115385096D01*
X123250302Y-115451673D01*
X123071673Y-115630301D01*
X122975000Y-115863690D01*
X122975000Y-116554250D01*
X123133750Y-116713000D01*
X124333000Y-116713000D01*
X124333000Y-116693000D01*
X124587000Y-116693000D01*
X124587000Y-116713000D01*
X125786250Y-116713000D01*
X125945000Y-116554250D01*
X125945000Y-115863690D01*
X125848327Y-115630301D01*
X125669698Y-115451673D01*
X125508967Y-115385096D01*
X125530625Y-115370625D01*
X125858839Y-114879418D01*
X125974092Y-114300000D01*
X125858839Y-113720582D01*
X125530625Y-113229375D01*
X125232239Y-113030000D01*
X125530625Y-112830625D01*
X125858839Y-112339418D01*
X125974092Y-111760000D01*
X125858839Y-111180582D01*
X125530625Y-110689375D01*
X125232239Y-110490000D01*
X125530625Y-110290625D01*
X125590906Y-110200407D01*
X133656371Y-118265873D01*
X133698771Y-118329329D01*
X133950163Y-118497304D01*
X134171848Y-118541400D01*
X134171853Y-118541400D01*
X134246700Y-118556288D01*
X134321547Y-118541400D01*
X146133753Y-118541400D01*
X146208600Y-118556288D01*
X146283447Y-118541400D01*
X146283452Y-118541400D01*
X146505137Y-118497304D01*
X146756529Y-118329329D01*
X146798931Y-118265870D01*
X150479051Y-114585750D01*
X155995000Y-114585750D01*
X155995000Y-115276309D01*
X156091673Y-115509698D01*
X156270301Y-115688327D01*
X156503690Y-115785000D01*
X157194250Y-115785000D01*
X157353000Y-115626250D01*
X157353000Y-114427000D01*
X157607000Y-114427000D01*
X157607000Y-115626250D01*
X157765750Y-115785000D01*
X158456310Y-115785000D01*
X158689699Y-115688327D01*
X158868327Y-115509698D01*
X158955136Y-115300122D01*
X159253076Y-115571645D01*
X159663110Y-115741476D01*
X159893000Y-115620155D01*
X159893000Y-114427000D01*
X160147000Y-114427000D01*
X160147000Y-115620155D01*
X160376890Y-115741476D01*
X160786924Y-115571645D01*
X161215183Y-115181358D01*
X161290000Y-115022046D01*
X161364817Y-115181358D01*
X161793076Y-115571645D01*
X162203110Y-115741476D01*
X162433000Y-115620155D01*
X162433000Y-114427000D01*
X160147000Y-114427000D01*
X159893000Y-114427000D01*
X157607000Y-114427000D01*
X157353000Y-114427000D01*
X156153750Y-114427000D01*
X155995000Y-114585750D01*
X150479051Y-114585750D01*
X151741110Y-113323691D01*
X155995000Y-113323691D01*
X155995000Y-114014250D01*
X156153750Y-114173000D01*
X157353000Y-114173000D01*
X157353000Y-112973750D01*
X157607000Y-112973750D01*
X157607000Y-114173000D01*
X159893000Y-114173000D01*
X159893000Y-112979845D01*
X160147000Y-112979845D01*
X160147000Y-114173000D01*
X162433000Y-114173000D01*
X162433000Y-112979845D01*
X162687000Y-112979845D01*
X162687000Y-114173000D01*
X162707000Y-114173000D01*
X162707000Y-114427000D01*
X162687000Y-114427000D01*
X162687000Y-115620155D01*
X162916890Y-115741476D01*
X163326924Y-115571645D01*
X163755183Y-115181358D01*
X163816157Y-115051522D01*
X164029375Y-115370625D01*
X164520582Y-115698839D01*
X164953744Y-115785000D01*
X165246256Y-115785000D01*
X165679418Y-115698839D01*
X166170625Y-115370625D01*
X166383843Y-115051522D01*
X166444817Y-115181358D01*
X166873076Y-115571645D01*
X167283110Y-115741476D01*
X167513000Y-115620155D01*
X167513000Y-114427000D01*
X167493000Y-114427000D01*
X167493000Y-114173000D01*
X167513000Y-114173000D01*
X167513000Y-112979845D01*
X167283110Y-112858524D01*
X166873076Y-113028355D01*
X166444817Y-113418642D01*
X166383843Y-113548478D01*
X166170625Y-113229375D01*
X165679418Y-112901161D01*
X165246256Y-112815000D01*
X164953744Y-112815000D01*
X164520582Y-112901161D01*
X164029375Y-113229375D01*
X163816157Y-113548478D01*
X163755183Y-113418642D01*
X163326924Y-113028355D01*
X162916890Y-112858524D01*
X162687000Y-112979845D01*
X162433000Y-112979845D01*
X162203110Y-112858524D01*
X161793076Y-113028355D01*
X161364817Y-113418642D01*
X161290000Y-113577954D01*
X161215183Y-113418642D01*
X160786924Y-113028355D01*
X160376890Y-112858524D01*
X160147000Y-112979845D01*
X159893000Y-112979845D01*
X159663110Y-112858524D01*
X159253076Y-113028355D01*
X158955136Y-113299878D01*
X158868327Y-113090302D01*
X158689699Y-112911673D01*
X158456310Y-112815000D01*
X157765750Y-112815000D01*
X157607000Y-112973750D01*
X157353000Y-112973750D01*
X157194250Y-112815000D01*
X156503690Y-112815000D01*
X156270301Y-112911673D01*
X156091673Y-113090302D01*
X155995000Y-113323691D01*
X151741110Y-113323691D01*
X160218718Y-104846083D01*
X163535000Y-104846083D01*
X163535000Y-105973917D01*
X163966603Y-107015899D01*
X164764101Y-107813397D01*
X165806083Y-108245000D01*
X166933917Y-108245000D01*
X167975899Y-107813397D01*
X168773397Y-107015899D01*
X169205000Y-105973917D01*
X169205000Y-104846083D01*
X168773397Y-103804101D01*
X167975899Y-103006603D01*
X166933917Y-102575000D01*
X165806083Y-102575000D01*
X164764101Y-103006603D01*
X163966603Y-103804101D01*
X163535000Y-104846083D01*
X160218718Y-104846083D01*
X162767873Y-102296929D01*
X162831329Y-102254529D01*
X162999304Y-102003137D01*
X163043400Y-101781452D01*
X163043400Y-101781448D01*
X163058288Y-101706601D01*
X163043400Y-101631754D01*
X163043400Y-89059425D01*
X166290000Y-89059425D01*
X166290000Y-89580575D01*
X166489436Y-90062055D01*
X166747381Y-90320000D01*
X166489436Y-90577945D01*
X166290000Y-91059425D01*
X166290000Y-91580575D01*
X166489436Y-92062055D01*
X166747381Y-92320000D01*
X166489436Y-92577945D01*
X166290000Y-93059425D01*
X166290000Y-93580575D01*
X166489436Y-94062055D01*
X166747381Y-94320000D01*
X166489436Y-94577945D01*
X166290000Y-95059425D01*
X166290000Y-95580575D01*
X166489436Y-96062055D01*
X166747381Y-96320000D01*
X166489436Y-96577945D01*
X166290000Y-97059425D01*
X166290000Y-97580575D01*
X166489436Y-98062055D01*
X166747381Y-98320000D01*
X166489436Y-98577945D01*
X166290000Y-99059425D01*
X166290000Y-99580575D01*
X166489436Y-100062055D01*
X166857945Y-100430564D01*
X167339425Y-100630000D01*
X167860575Y-100630000D01*
X168342055Y-100430564D01*
X168710564Y-100062055D01*
X168910000Y-99580575D01*
X168910000Y-99059425D01*
X168710564Y-98577945D01*
X168452619Y-98320000D01*
X168710564Y-98062055D01*
X168910000Y-97580575D01*
X168910000Y-97059425D01*
X168710564Y-96577945D01*
X168452619Y-96320000D01*
X168710564Y-96062055D01*
X168873615Y-95668416D01*
X171960000Y-98754803D01*
X171960001Y-113021821D01*
X171649375Y-113229375D01*
X171450000Y-113527761D01*
X171250625Y-113229375D01*
X170759418Y-112901161D01*
X170326256Y-112815000D01*
X170033744Y-112815000D01*
X169600582Y-112901161D01*
X169109375Y-113229375D01*
X168896157Y-113548478D01*
X168835183Y-113418642D01*
X168406924Y-113028355D01*
X167996890Y-112858524D01*
X167767000Y-112979845D01*
X167767000Y-114173000D01*
X167787000Y-114173000D01*
X167787000Y-114427000D01*
X167767000Y-114427000D01*
X167767000Y-115620155D01*
X167996890Y-115741476D01*
X168406924Y-115571645D01*
X168835183Y-115181358D01*
X168896157Y-115051522D01*
X169109375Y-115370625D01*
X169600582Y-115698839D01*
X170033744Y-115785000D01*
X170326256Y-115785000D01*
X170759418Y-115698839D01*
X171250625Y-115370625D01*
X171450000Y-115072239D01*
X171649375Y-115370625D01*
X172140582Y-115698839D01*
X172573744Y-115785000D01*
X172866256Y-115785000D01*
X173299418Y-115698839D01*
X173598858Y-115498759D01*
X174112571Y-116012473D01*
X174154971Y-116075929D01*
X174218427Y-116118329D01*
X174406362Y-116243904D01*
X174454505Y-116253480D01*
X174628048Y-116288000D01*
X174628052Y-116288000D01*
X174702900Y-116302888D01*
X174777748Y-116288000D01*
X175779653Y-116288000D01*
X175854500Y-116302888D01*
X175929347Y-116288000D01*
X175929352Y-116288000D01*
X176151037Y-116243904D01*
X176402429Y-116075929D01*
X176444831Y-116012470D01*
X176943562Y-115513740D01*
X177220582Y-115698839D01*
X177653744Y-115785000D01*
X177946256Y-115785000D01*
X178379418Y-115698839D01*
X178870625Y-115370625D01*
X179083843Y-115051522D01*
X179144817Y-115181358D01*
X179573076Y-115571645D01*
X179983110Y-115741476D01*
X180213000Y-115620155D01*
X180213000Y-114427000D01*
X180193000Y-114427000D01*
X180193000Y-114173000D01*
X180213000Y-114173000D01*
X180213000Y-112979845D01*
X179983110Y-112858524D01*
X179573076Y-113028355D01*
X179144817Y-113418642D01*
X179083843Y-113548478D01*
X178870625Y-113229375D01*
X178379418Y-112901161D01*
X177946256Y-112815000D01*
X177653744Y-112815000D01*
X177220582Y-112901161D01*
X176729375Y-113229375D01*
X176530000Y-113527761D01*
X176330625Y-113229375D01*
X176025040Y-113025190D01*
X176020000Y-112999852D01*
X176020000Y-112999848D01*
X175975904Y-112778163D01*
X175807929Y-112526771D01*
X175744472Y-112484371D01*
X175512300Y-112252199D01*
X175512300Y-110630298D01*
X176054778Y-110855000D01*
X176705222Y-110855000D01*
X177306153Y-110606086D01*
X177766086Y-110146153D01*
X178015000Y-109545222D01*
X178015000Y-108894778D01*
X177766086Y-108293847D01*
X177306153Y-107833914D01*
X176705222Y-107585000D01*
X176054778Y-107585000D01*
X175512300Y-107809702D01*
X175512300Y-106141826D01*
X176115461Y-106365908D01*
X176765460Y-106341856D01*
X177254264Y-106139387D01*
X177352927Y-105872532D01*
X176380000Y-104899605D01*
X176365858Y-104913748D01*
X176186253Y-104734143D01*
X176200395Y-104720000D01*
X176559605Y-104720000D01*
X177532532Y-105692927D01*
X177799387Y-105594264D01*
X178025908Y-104984539D01*
X178006331Y-104455461D01*
X181234092Y-104455461D01*
X181258144Y-105105460D01*
X181460613Y-105594264D01*
X181727468Y-105692927D01*
X182700395Y-104720000D01*
X181727468Y-103747073D01*
X181460613Y-103845736D01*
X181234092Y-104455461D01*
X178006331Y-104455461D01*
X178001856Y-104334540D01*
X177799387Y-103845736D01*
X177532532Y-103747073D01*
X176559605Y-104720000D01*
X176200395Y-104720000D01*
X176186253Y-104705858D01*
X176365858Y-104526253D01*
X176380000Y-104540395D01*
X177352927Y-103567468D01*
X177254264Y-103300613D01*
X176644539Y-103074092D01*
X175994540Y-103098144D01*
X175512300Y-103297894D01*
X175512300Y-96547148D01*
X175527188Y-96472300D01*
X175512300Y-96397452D01*
X175512300Y-96397448D01*
X175468204Y-96175763D01*
X175468204Y-96175762D01*
X175342629Y-95987827D01*
X175300229Y-95924371D01*
X175236773Y-95881971D01*
X168910000Y-89555199D01*
X168910000Y-89059425D01*
X168710564Y-88577945D01*
X168342055Y-88209436D01*
X168287045Y-88186650D01*
X167600000Y-87499605D01*
X166912955Y-88186650D01*
X166857945Y-88209436D01*
X166489436Y-88577945D01*
X166290000Y-89059425D01*
X163043400Y-89059425D01*
X163043400Y-87133100D01*
X166277478Y-87133100D01*
X166306625Y-87653434D01*
X166449672Y-87998781D01*
X166682853Y-88057542D01*
X167420395Y-87320000D01*
X166682853Y-86582458D01*
X166449672Y-86641219D01*
X166277478Y-87133100D01*
X163043400Y-87133100D01*
X163043400Y-83096701D01*
X169375400Y-76764702D01*
X169375401Y-82469797D01*
X167835199Y-84010000D01*
X167339425Y-84010000D01*
X166857945Y-84209436D01*
X166489436Y-84577945D01*
X166290000Y-85059425D01*
X166290000Y-85580575D01*
X166489436Y-86062055D01*
X166857945Y-86430564D01*
X166912955Y-86453350D01*
X167600000Y-87140395D01*
X167614143Y-87126253D01*
X167793748Y-87305858D01*
X167779605Y-87320000D01*
X168517147Y-88057542D01*
X168750328Y-87998781D01*
X168867959Y-87662761D01*
X183523401Y-102318203D01*
X183523401Y-103214844D01*
X183144539Y-103074092D01*
X182494540Y-103098144D01*
X182005736Y-103300613D01*
X181907073Y-103567468D01*
X182880000Y-104540395D01*
X182894143Y-104526253D01*
X183073748Y-104705858D01*
X183059605Y-104720000D01*
X183073748Y-104734143D01*
X182894143Y-104913748D01*
X182880000Y-104899605D01*
X181907073Y-105872532D01*
X182005736Y-106139387D01*
X182615461Y-106365908D01*
X183265460Y-106341856D01*
X183523401Y-106235014D01*
X183523400Y-107716794D01*
X183205222Y-107585000D01*
X182554778Y-107585000D01*
X181953847Y-107833914D01*
X181493914Y-108293847D01*
X181245000Y-108894778D01*
X181245000Y-109545222D01*
X181493914Y-110146153D01*
X181953847Y-110606086D01*
X182554778Y-110855000D01*
X183205222Y-110855000D01*
X183523400Y-110723206D01*
X183523400Y-111356497D01*
X182395528Y-112484371D01*
X182332072Y-112526771D01*
X182289672Y-112590227D01*
X182289671Y-112590228D01*
X182164097Y-112778163D01*
X182114960Y-113025189D01*
X181809375Y-113229375D01*
X181596157Y-113548478D01*
X181535183Y-113418642D01*
X181106924Y-113028355D01*
X180696890Y-112858524D01*
X180467000Y-112979845D01*
X180467000Y-114173000D01*
X180487000Y-114173000D01*
X180487000Y-114427000D01*
X180467000Y-114427000D01*
X180467000Y-115620155D01*
X180696890Y-115741476D01*
X181106924Y-115571645D01*
X181535183Y-115181358D01*
X181596157Y-115051522D01*
X181809375Y-115370625D01*
X182300582Y-115698839D01*
X182733744Y-115785000D01*
X183026256Y-115785000D01*
X183459418Y-115698839D01*
X183950625Y-115370625D01*
X184278839Y-114879418D01*
X184394092Y-114300000D01*
X184278839Y-113720582D01*
X183950625Y-113229375D01*
X183860408Y-113169094D01*
X184767876Y-112261627D01*
X184831329Y-112219229D01*
X184873727Y-112155776D01*
X184873729Y-112155774D01*
X184999303Y-111967838D01*
X184999304Y-111967837D01*
X185043400Y-111746152D01*
X185043400Y-111746148D01*
X185058288Y-111671301D01*
X185043400Y-111596454D01*
X185043400Y-102078248D01*
X185058288Y-102003400D01*
X185043400Y-101928552D01*
X185043400Y-101928548D01*
X184999304Y-101706863D01*
X184831329Y-101455471D01*
X184767873Y-101413071D01*
X168910000Y-85555199D01*
X168910000Y-85084801D01*
X170619873Y-83374929D01*
X170683329Y-83332529D01*
X170851304Y-83081137D01*
X170895400Y-82859452D01*
X170895400Y-82859448D01*
X170910288Y-82784601D01*
X170895400Y-82709754D01*
X170895400Y-73645548D01*
X170910288Y-73570700D01*
X170895400Y-73495852D01*
X170895400Y-73495848D01*
X170851304Y-73274163D01*
X170851304Y-73274162D01*
X170725729Y-73086227D01*
X170683329Y-73022771D01*
X170619873Y-72980371D01*
X167587592Y-69948091D01*
X167677809Y-69887809D01*
X167818157Y-69677765D01*
X167838739Y-69574292D01*
X168143076Y-69851645D01*
X168553110Y-70021476D01*
X168783000Y-69900155D01*
X168783000Y-68707000D01*
X168763000Y-68707000D01*
X168763000Y-68453000D01*
X168783000Y-68453000D01*
X168783000Y-68433000D01*
X169037000Y-68433000D01*
X169037000Y-68453000D01*
X169057000Y-68453000D01*
X169057000Y-68707000D01*
X169037000Y-68707000D01*
X169037000Y-69900155D01*
X169266890Y-70021476D01*
X169676924Y-69851645D01*
X170105183Y-69461358D01*
X170161123Y-69342243D01*
X170175190Y-69345041D01*
X170379375Y-69650625D01*
X170870582Y-69978839D01*
X171303744Y-70065000D01*
X171596256Y-70065000D01*
X172029418Y-69978839D01*
X172520625Y-69650625D01*
X172720000Y-69352239D01*
X172919375Y-69650625D01*
X173410582Y-69978839D01*
X173843744Y-70065000D01*
X174136256Y-70065000D01*
X174569418Y-69978839D01*
X175060625Y-69650625D01*
X175388839Y-69159418D01*
X175504092Y-68580000D01*
X175391923Y-68016083D01*
X180045000Y-68016083D01*
X180045000Y-69143917D01*
X180476603Y-70185899D01*
X181274101Y-70983397D01*
X182316083Y-71415000D01*
X183443917Y-71415000D01*
X184485899Y-70983397D01*
X185283397Y-70185899D01*
X185715000Y-69143917D01*
X185715000Y-68016083D01*
X185283397Y-66974101D01*
X184485899Y-66176603D01*
X183443917Y-65745000D01*
X182316083Y-65745000D01*
X181274101Y-66176603D01*
X180476603Y-66974101D01*
X180045000Y-68016083D01*
X175391923Y-68016083D01*
X175388839Y-68000582D01*
X175060625Y-67509375D01*
X174569418Y-67181161D01*
X174136256Y-67095000D01*
X173843744Y-67095000D01*
X173410582Y-67181161D01*
X172919375Y-67509375D01*
X172720000Y-67807761D01*
X172520625Y-67509375D01*
X172029418Y-67181161D01*
X171596256Y-67095000D01*
X171303744Y-67095000D01*
X170870582Y-67181161D01*
X170593562Y-67366260D01*
X170094831Y-66867530D01*
X170052429Y-66804071D01*
X169801037Y-66636096D01*
X169579352Y-66592000D01*
X169579347Y-66592000D01*
X169504500Y-66577112D01*
X169429653Y-66592000D01*
X153198646Y-66592000D01*
X153123799Y-66577112D01*
X153048952Y-66592000D01*
X153048948Y-66592000D01*
X152827263Y-66636096D01*
X152575871Y-66804071D01*
X152533471Y-66867527D01*
X152015392Y-67385606D01*
X151709418Y-67181161D01*
X151276256Y-67095000D01*
X150983744Y-67095000D01*
X150550582Y-67181161D01*
X150059375Y-67509375D01*
X149846157Y-67828478D01*
X149785183Y-67698642D01*
X149356924Y-67308355D01*
X148946890Y-67138524D01*
X148717000Y-67259845D01*
X148717000Y-68453000D01*
X148737000Y-68453000D01*
X148737000Y-68707000D01*
X148717000Y-68707000D01*
X148717000Y-69900155D01*
X148946890Y-70021476D01*
X149356924Y-69851645D01*
X149785183Y-69461358D01*
X149846157Y-69331522D01*
X150059375Y-69650625D01*
X150550582Y-69978839D01*
X150983744Y-70065000D01*
X151276256Y-70065000D01*
X151709418Y-69978839D01*
X152200625Y-69650625D01*
X152400000Y-69352239D01*
X152599375Y-69650625D01*
X153090582Y-69978839D01*
X153523744Y-70065000D01*
X153816256Y-70065000D01*
X154249418Y-69978839D01*
X154740625Y-69650625D01*
X155068839Y-69159418D01*
X155184092Y-68580000D01*
X155091001Y-68112000D01*
X164872560Y-68112000D01*
X164872560Y-69430000D01*
X164921843Y-69677765D01*
X165062191Y-69887809D01*
X165272235Y-70028157D01*
X165520000Y-70077440D01*
X165649244Y-70077440D01*
X165654097Y-70101837D01*
X165710266Y-70185899D01*
X165822072Y-70353229D01*
X165885528Y-70395629D01*
X168922458Y-73432560D01*
X168060000Y-73432560D01*
X167812235Y-73481843D01*
X167602191Y-73622191D01*
X167461843Y-73832235D01*
X167441261Y-73935708D01*
X167136924Y-73658355D01*
X166726890Y-73488524D01*
X166497000Y-73609845D01*
X166497000Y-74803000D01*
X166517000Y-74803000D01*
X166517000Y-75057000D01*
X166497000Y-75057000D01*
X166497000Y-76250155D01*
X166726890Y-76371476D01*
X167136924Y-76201645D01*
X167441261Y-75924292D01*
X167461843Y-76027765D01*
X167602191Y-76237809D01*
X167692408Y-76298090D01*
X161798930Y-82191569D01*
X161735471Y-82233971D01*
X161567496Y-82485364D01*
X161523400Y-82707049D01*
X161523400Y-82707053D01*
X161508512Y-82781900D01*
X161523400Y-82856747D01*
X161523400Y-90116249D01*
X161418839Y-89590582D01*
X161090625Y-89099375D01*
X161072381Y-89087184D01*
X161117765Y-89078157D01*
X161327809Y-88937809D01*
X161468157Y-88727765D01*
X161517440Y-88480000D01*
X161517440Y-86780000D01*
X161468157Y-86532235D01*
X161327809Y-86322191D01*
X161117765Y-86181843D01*
X160870000Y-86132560D01*
X159170000Y-86132560D01*
X158922235Y-86181843D01*
X158712191Y-86322191D01*
X158571843Y-86532235D01*
X158522560Y-86780000D01*
X158522560Y-86909243D01*
X158498162Y-86914096D01*
X158311118Y-87039076D01*
X158246771Y-87082071D01*
X158204372Y-87145526D01*
X157422199Y-87927700D01*
X156717111Y-87927700D01*
X156599680Y-87810269D01*
X156219274Y-87652700D01*
X155964900Y-87652700D01*
X155964900Y-85921248D01*
X155979788Y-85846400D01*
X155964900Y-85771552D01*
X155964900Y-85771548D01*
X155920804Y-85549863D01*
X155752829Y-85298471D01*
X155689373Y-85256071D01*
X151768244Y-81334943D01*
X151896924Y-81281645D01*
X152201261Y-81004292D01*
X152221843Y-81107765D01*
X152362191Y-81317809D01*
X152572235Y-81458157D01*
X152820000Y-81507440D01*
X154520000Y-81507440D01*
X154767765Y-81458157D01*
X154977809Y-81317809D01*
X155118157Y-81107765D01*
X155167440Y-80860000D01*
X155167440Y-79160000D01*
X155118157Y-78912235D01*
X154977809Y-78702191D01*
X154767765Y-78561843D01*
X154520000Y-78512560D01*
X152820000Y-78512560D01*
X152572235Y-78561843D01*
X152362191Y-78702191D01*
X152221843Y-78912235D01*
X152201261Y-79015708D01*
X151896924Y-78738355D01*
X151486890Y-78568524D01*
X151257000Y-78689845D01*
X151257000Y-79883000D01*
X151277000Y-79883000D01*
X151277000Y-80137000D01*
X151257000Y-80137000D01*
X151257000Y-80157000D01*
X151003000Y-80157000D01*
X151003000Y-80137000D01*
X150983000Y-80137000D01*
X150983000Y-79883000D01*
X151003000Y-79883000D01*
X151003000Y-78689845D01*
X150773110Y-78568524D01*
X150363076Y-78738355D01*
X149934817Y-79128642D01*
X149815663Y-79382362D01*
X148080000Y-77646699D01*
X148080000Y-76148043D01*
X148354577Y-75964577D01*
X148671740Y-75489909D01*
X148783113Y-74930000D01*
X148726336Y-74644561D01*
X156045000Y-74644561D01*
X156045000Y-75215439D01*
X156263466Y-75742862D01*
X156667138Y-76146534D01*
X157194561Y-76365000D01*
X157765439Y-76365000D01*
X158292862Y-76146534D01*
X158696534Y-75742862D01*
X158885403Y-75286892D01*
X164928514Y-75286892D01*
X165174817Y-75811358D01*
X165603076Y-76201645D01*
X166013110Y-76371476D01*
X166243000Y-76250155D01*
X166243000Y-75057000D01*
X165049181Y-75057000D01*
X164928514Y-75286892D01*
X158885403Y-75286892D01*
X158915000Y-75215439D01*
X158915000Y-74644561D01*
X158885404Y-74573108D01*
X164928514Y-74573108D01*
X165049181Y-74803000D01*
X166243000Y-74803000D01*
X166243000Y-73609845D01*
X166013110Y-73488524D01*
X165603076Y-73658355D01*
X165174817Y-74048642D01*
X164928514Y-74573108D01*
X158885404Y-74573108D01*
X158696534Y-74117138D01*
X158292862Y-73713466D01*
X157765439Y-73495000D01*
X157194561Y-73495000D01*
X156667138Y-73713466D01*
X156263466Y-74117138D01*
X156045000Y-74644561D01*
X148726336Y-74644561D01*
X148671740Y-74370091D01*
X148354577Y-73895423D01*
X147879909Y-73578260D01*
X147461333Y-73495000D01*
X147178667Y-73495000D01*
X146760091Y-73578260D01*
X146285423Y-73895423D01*
X146050394Y-74247168D01*
X145996534Y-74117138D01*
X145592862Y-73713466D01*
X145065439Y-73495000D01*
X144494561Y-73495000D01*
X143967138Y-73713466D01*
X143563466Y-74117138D01*
X143345000Y-74644561D01*
X143345000Y-75215439D01*
X143366896Y-75268302D01*
X140485530Y-78149669D01*
X140422071Y-78192071D01*
X140310762Y-78358658D01*
X140292529Y-78331371D01*
X140229073Y-78288971D01*
X136385631Y-74445530D01*
X136343229Y-74382071D01*
X136091837Y-74214096D01*
X135870152Y-74170000D01*
X135870147Y-74170000D01*
X135833123Y-74162635D01*
X135654577Y-73895423D01*
X135179909Y-73578260D01*
X134761333Y-73495000D01*
X134478667Y-73495000D01*
X134110000Y-73568332D01*
X134110000Y-69858178D01*
X134420625Y-69650625D01*
X134748839Y-69159418D01*
X134864092Y-68580000D01*
X134771538Y-68114700D01*
X143284599Y-68114700D01*
X144234371Y-69064473D01*
X144276771Y-69127929D01*
X144528163Y-69295904D01*
X144552560Y-69300757D01*
X144552560Y-69430000D01*
X144601843Y-69677765D01*
X144742191Y-69887809D01*
X144952235Y-70028157D01*
X145200000Y-70077440D01*
X146900000Y-70077440D01*
X147147765Y-70028157D01*
X147357809Y-69887809D01*
X147498157Y-69677765D01*
X147518739Y-69574292D01*
X147823076Y-69851645D01*
X148233110Y-70021476D01*
X148463000Y-69900155D01*
X148463000Y-68707000D01*
X148443000Y-68707000D01*
X148443000Y-68453000D01*
X148463000Y-68453000D01*
X148463000Y-67259845D01*
X148233110Y-67138524D01*
X147823076Y-67308355D01*
X147518739Y-67585708D01*
X147498157Y-67482235D01*
X147357809Y-67272191D01*
X147147765Y-67131843D01*
X146900000Y-67082560D01*
X145200000Y-67082560D01*
X144952235Y-67131843D01*
X144742191Y-67272191D01*
X144681909Y-67362408D01*
X144189731Y-66870230D01*
X144147329Y-66806771D01*
X143895937Y-66638796D01*
X143674252Y-66594700D01*
X143674247Y-66594700D01*
X143599400Y-66579812D01*
X143524553Y-66594700D01*
X129614852Y-66594700D01*
X129540000Y-66579811D01*
X129465148Y-66594700D01*
X127795846Y-66594700D01*
X127720999Y-66579812D01*
X127646152Y-66594700D01*
X127646148Y-66594700D01*
X127424463Y-66638796D01*
X127424461Y-66638797D01*
X127424462Y-66638797D01*
X127236526Y-66764371D01*
X127236524Y-66764373D01*
X127173071Y-66806771D01*
X127130673Y-66870225D01*
X126852516Y-67148381D01*
X126827765Y-67131843D01*
X126580000Y-67082560D01*
X124880000Y-67082560D01*
X124632235Y-67131843D01*
X124422191Y-67272191D01*
X124281843Y-67482235D01*
X124232560Y-67730000D01*
X124232560Y-69430000D01*
X124281843Y-69677765D01*
X124422191Y-69887809D01*
X124632235Y-70028157D01*
X124880000Y-70077440D01*
X126580000Y-70077440D01*
X126827765Y-70028157D01*
X127037809Y-69887809D01*
X127178157Y-69677765D01*
X127198739Y-69574292D01*
X127503076Y-69851645D01*
X127913110Y-70021476D01*
X128143000Y-69900155D01*
X128143000Y-68707000D01*
X128123000Y-68707000D01*
X128123000Y-68453000D01*
X128143000Y-68453000D01*
X128143000Y-68433000D01*
X128397000Y-68433000D01*
X128397000Y-68453000D01*
X128417000Y-68453000D01*
X128417000Y-68707000D01*
X128397000Y-68707000D01*
X128397000Y-69900155D01*
X128626890Y-70021476D01*
X128780000Y-69958060D01*
X128780000Y-72334585D01*
X128515439Y-72225000D01*
X127944561Y-72225000D01*
X127417138Y-72443466D01*
X127013466Y-72847138D01*
X126986475Y-72912299D01*
X126983864Y-72905995D01*
X126737745Y-72831861D01*
X125909605Y-73660000D01*
X126737745Y-74488139D01*
X126983864Y-74414005D01*
X126986290Y-74407254D01*
X127013466Y-74472862D01*
X127417138Y-74876534D01*
X127546216Y-74930000D01*
X127417138Y-74983466D01*
X127013466Y-75387138D01*
X126986475Y-75452299D01*
X126983864Y-75445995D01*
X126737745Y-75371861D01*
X125909605Y-76200000D01*
X126737745Y-77028139D01*
X126983864Y-76954005D01*
X126986290Y-76947254D01*
X127013466Y-77012862D01*
X127417138Y-77416534D01*
X127944561Y-77635000D01*
X128515439Y-77635000D01*
X128780001Y-77525415D01*
X128780001Y-78512560D01*
X127420000Y-78512560D01*
X127172235Y-78561843D01*
X126962191Y-78702191D01*
X126821843Y-78912235D01*
X126801261Y-79015708D01*
X126496924Y-78738355D01*
X126086890Y-78568524D01*
X125857000Y-78689845D01*
X125857000Y-79883000D01*
X125877000Y-79883000D01*
X125877000Y-80137000D01*
X125857000Y-80137000D01*
X125857000Y-81330155D01*
X126086890Y-81451476D01*
X126496924Y-81281645D01*
X126801261Y-81004292D01*
X126821843Y-81107765D01*
X126962191Y-81317809D01*
X127172235Y-81458157D01*
X127420000Y-81507440D01*
X128780001Y-81507440D01*
X128780001Y-85015148D01*
X128765112Y-85090000D01*
X128824097Y-85386537D01*
X128933229Y-85549864D01*
X128992072Y-85637929D01*
X129055528Y-85680329D01*
X129470199Y-86095000D01*
X129234670Y-86095000D01*
X128670493Y-86328690D01*
X128238690Y-86760493D01*
X128230562Y-86780115D01*
X128080159Y-86729446D01*
X127179605Y-87630000D01*
X128080159Y-88530554D01*
X128230562Y-88479885D01*
X128238690Y-88499507D01*
X128670493Y-88931310D01*
X129234670Y-89165000D01*
X129845330Y-89165000D01*
X130409507Y-88931310D01*
X130810000Y-88530817D01*
X131210493Y-88931310D01*
X131774670Y-89165000D01*
X132184183Y-89165000D01*
X132048690Y-89300493D01*
X131815000Y-89864670D01*
X131815000Y-90475330D01*
X132048690Y-91039507D01*
X132480493Y-91471310D01*
X133044670Y-91705000D01*
X133655330Y-91705000D01*
X134219507Y-91471310D01*
X134620000Y-91070817D01*
X135020493Y-91471310D01*
X135584670Y-91705000D01*
X136195330Y-91705000D01*
X136304839Y-91659640D01*
X139633671Y-94988473D01*
X139676071Y-95051929D01*
X139927463Y-95219904D01*
X140149148Y-95264000D01*
X140149152Y-95264000D01*
X140224000Y-95278888D01*
X140298848Y-95264000D01*
X152089298Y-95264000D01*
X148216099Y-99137200D01*
X145287646Y-99137200D01*
X145212799Y-99122312D01*
X145137952Y-99137200D01*
X145137948Y-99137200D01*
X144916263Y-99181296D01*
X144664871Y-99349271D01*
X144622471Y-99412727D01*
X142654839Y-101380360D01*
X142545330Y-101335000D01*
X141934670Y-101335000D01*
X141370493Y-101568690D01*
X140970000Y-101969183D01*
X140569507Y-101568690D01*
X140005330Y-101335000D01*
X139394670Y-101335000D01*
X138830493Y-101568690D01*
X138430000Y-101969183D01*
X138029507Y-101568690D01*
X137465330Y-101335000D01*
X136854670Y-101335000D01*
X136290493Y-101568690D01*
X135890000Y-101969183D01*
X135489507Y-101568690D01*
X134925330Y-101335000D01*
X134314670Y-101335000D01*
X133750493Y-101568690D01*
X133318690Y-102000493D01*
X133310562Y-102020115D01*
X133160159Y-101969446D01*
X132259605Y-102870000D01*
X133160159Y-103770554D01*
X133310562Y-103719885D01*
X133318690Y-103739507D01*
X133750493Y-104171310D01*
X134314670Y-104405000D01*
X134925330Y-104405000D01*
X135489507Y-104171310D01*
X135890000Y-103770817D01*
X136290493Y-104171310D01*
X136854670Y-104405000D01*
X137465330Y-104405000D01*
X138029507Y-104171310D01*
X138430000Y-103770817D01*
X138830493Y-104171310D01*
X138940001Y-104216670D01*
X138940000Y-106459898D01*
X137945528Y-107454371D01*
X137882072Y-107496771D01*
X137839672Y-107560227D01*
X137839671Y-107560228D01*
X137714097Y-107748163D01*
X137662635Y-108006877D01*
X137395423Y-108185423D01*
X137078260Y-108660091D01*
X136966887Y-109220000D01*
X137078260Y-109779909D01*
X137395423Y-110254577D01*
X137870091Y-110571740D01*
X138288667Y-110655000D01*
X138571333Y-110655000D01*
X138989909Y-110571740D01*
X139464577Y-110254577D01*
X139781740Y-109779909D01*
X139893113Y-109220000D01*
X139781740Y-108660091D01*
X139464577Y-108185423D01*
X139404332Y-108145169D01*
X140184473Y-107365029D01*
X140247929Y-107322629D01*
X140415904Y-107071237D01*
X140460000Y-106849552D01*
X140460000Y-106849548D01*
X140474888Y-106774701D01*
X140460000Y-106699854D01*
X140460000Y-104216669D01*
X140569507Y-104171310D01*
X140970000Y-103770817D01*
X141370493Y-104171310D01*
X141934670Y-104405000D01*
X142545330Y-104405000D01*
X143109507Y-104171310D01*
X143510000Y-103770817D01*
X143910493Y-104171310D01*
X144474670Y-104405000D01*
X145085330Y-104405000D01*
X145649507Y-104171310D01*
X146050000Y-103770817D01*
X146450493Y-104171310D01*
X147014670Y-104405000D01*
X147625330Y-104405000D01*
X148189507Y-104171310D01*
X148590000Y-103770817D01*
X148990493Y-104171310D01*
X149554670Y-104405000D01*
X150165330Y-104405000D01*
X150729507Y-104171310D01*
X151130000Y-103770817D01*
X151530493Y-104171310D01*
X151640000Y-104216669D01*
X151640001Y-108001956D01*
X151365423Y-108185423D01*
X151048260Y-108660091D01*
X150936887Y-109220000D01*
X151048260Y-109779909D01*
X151365423Y-110254577D01*
X151717602Y-110489896D01*
X145720999Y-116486500D01*
X144707440Y-116486500D01*
X144707440Y-115345000D01*
X144653000Y-115071313D01*
X144653000Y-114027000D01*
X144907000Y-114027000D01*
X144907000Y-115276250D01*
X145065750Y-115435000D01*
X145456309Y-115435000D01*
X145689698Y-115338327D01*
X145868327Y-115159699D01*
X145965000Y-114926310D01*
X145965000Y-114185750D01*
X145806250Y-114027000D01*
X144907000Y-114027000D01*
X144653000Y-114027000D01*
X144633000Y-114027000D01*
X144633000Y-113773000D01*
X144653000Y-113773000D01*
X144653000Y-112523750D01*
X144907000Y-112523750D01*
X144907000Y-113773000D01*
X145806250Y-113773000D01*
X145965000Y-113614250D01*
X145965000Y-112873690D01*
X145868327Y-112640301D01*
X145689698Y-112461673D01*
X145456309Y-112365000D01*
X145065750Y-112365000D01*
X144907000Y-112523750D01*
X144653000Y-112523750D01*
X144494250Y-112365000D01*
X144270000Y-112365000D01*
X144270000Y-110564846D01*
X144284888Y-110489999D01*
X144270000Y-110415152D01*
X144270000Y-110415148D01*
X144225904Y-110193463D01*
X144057929Y-109942071D01*
X143994473Y-109899671D01*
X143653103Y-109558302D01*
X143675000Y-109505439D01*
X143675000Y-108934561D01*
X143456534Y-108407138D01*
X143052862Y-108003466D01*
X142525439Y-107785000D01*
X141954561Y-107785000D01*
X141427138Y-108003466D01*
X141023466Y-108407138D01*
X140805000Y-108934561D01*
X140805000Y-109505439D01*
X141023466Y-110032862D01*
X141427138Y-110436534D01*
X141954561Y-110655000D01*
X142525439Y-110655000D01*
X142578302Y-110633103D01*
X142750001Y-110804803D01*
X142750001Y-112399305D01*
X142515000Y-112352560D01*
X141965000Y-112352560D01*
X141611997Y-112422777D01*
X141312736Y-112622736D01*
X141112777Y-112921997D01*
X141042560Y-113275000D01*
X141042560Y-114525000D01*
X141112777Y-114878003D01*
X141312736Y-115177264D01*
X141611997Y-115377223D01*
X141965000Y-115447440D01*
X142312560Y-115447440D01*
X142312560Y-116486500D01*
X141651302Y-116486500D01*
X139803103Y-114638302D01*
X139825000Y-114585439D01*
X139825000Y-114014561D01*
X139606534Y-113487138D01*
X139202862Y-113083466D01*
X138675439Y-112865000D01*
X138104561Y-112865000D01*
X138051698Y-112886896D01*
X133900331Y-108735530D01*
X133857929Y-108672071D01*
X133606537Y-108504096D01*
X133384852Y-108460000D01*
X133384847Y-108460000D01*
X133310000Y-108445112D01*
X133235153Y-108460000D01*
X129508430Y-108460000D01*
X129486534Y-108407138D01*
X129082862Y-108003466D01*
X128555439Y-107785000D01*
X127984561Y-107785000D01*
X127457138Y-108003466D01*
X127053466Y-108407138D01*
X126835000Y-108934561D01*
X126835000Y-109294899D01*
X126275631Y-108735530D01*
X126233229Y-108672071D01*
X125981837Y-108504096D01*
X125760152Y-108460000D01*
X125760147Y-108460000D01*
X125734811Y-108454960D01*
X125530625Y-108149375D01*
X125039418Y-107821161D01*
X124606256Y-107735000D01*
X124313744Y-107735000D01*
X123880582Y-107821161D01*
X123389375Y-108149375D01*
X123061161Y-108640582D01*
X122945908Y-109220000D01*
X121385000Y-109220000D01*
X121385000Y-106902540D01*
X123359689Y-103940506D01*
X123590493Y-104171310D01*
X124154670Y-104405000D01*
X124765330Y-104405000D01*
X125329507Y-104171310D01*
X125730000Y-103770817D01*
X126130493Y-104171310D01*
X126694670Y-104405000D01*
X127305330Y-104405000D01*
X127869507Y-104171310D01*
X128270000Y-103770817D01*
X128670493Y-104171310D01*
X129234670Y-104405000D01*
X129845330Y-104405000D01*
X130409507Y-104171310D01*
X130630658Y-103950159D01*
X131179446Y-103950159D01*
X131265852Y-104206643D01*
X131839336Y-104416458D01*
X132449460Y-104390839D01*
X132894148Y-104206643D01*
X132980554Y-103950159D01*
X132080000Y-103049605D01*
X131179446Y-103950159D01*
X130630658Y-103950159D01*
X130841310Y-103739507D01*
X130849438Y-103719885D01*
X130999841Y-103770554D01*
X131900395Y-102870000D01*
X130999841Y-101969446D01*
X130849438Y-102020115D01*
X130841310Y-102000493D01*
X130630658Y-101789841D01*
X131179446Y-101789841D01*
X132080000Y-102690395D01*
X132980554Y-101789841D01*
X132894148Y-101533357D01*
X132320664Y-101323542D01*
X131710540Y-101349161D01*
X131265852Y-101533357D01*
X131179446Y-101789841D01*
X130630658Y-101789841D01*
X130409507Y-101568690D01*
X129845330Y-101335000D01*
X129234670Y-101335000D01*
X128670493Y-101568690D01*
X128270000Y-101969183D01*
X127869507Y-101568690D01*
X127305330Y-101335000D01*
X126694670Y-101335000D01*
X126130493Y-101568690D01*
X125730000Y-101969183D01*
X125329507Y-101568690D01*
X124765330Y-101335000D01*
X124154670Y-101335000D01*
X123925000Y-101430133D01*
X123925000Y-89069867D01*
X124154670Y-89165000D01*
X124765330Y-89165000D01*
X125329507Y-88931310D01*
X125550658Y-88710159D01*
X126099446Y-88710159D01*
X126185852Y-88966643D01*
X126759336Y-89176458D01*
X127369460Y-89150839D01*
X127814148Y-88966643D01*
X127900554Y-88710159D01*
X127000000Y-87809605D01*
X126099446Y-88710159D01*
X125550658Y-88710159D01*
X125761310Y-88499507D01*
X125769438Y-88479885D01*
X125919841Y-88530554D01*
X126820395Y-87630000D01*
X125919841Y-86729446D01*
X125769438Y-86780115D01*
X125761310Y-86760493D01*
X125550658Y-86549841D01*
X126099446Y-86549841D01*
X127000000Y-87450395D01*
X127900554Y-86549841D01*
X127814148Y-86293357D01*
X127240664Y-86083542D01*
X126630540Y-86109161D01*
X126185852Y-86293357D01*
X126099446Y-86549841D01*
X125550658Y-86549841D01*
X125329507Y-86328690D01*
X124765330Y-86095000D01*
X124154670Y-86095000D01*
X123590493Y-86328690D01*
X123359689Y-86559494D01*
X121385000Y-83597460D01*
X121385000Y-80366892D01*
X124288514Y-80366892D01*
X124534817Y-80891358D01*
X124963076Y-81281645D01*
X125373110Y-81451476D01*
X125603000Y-81330155D01*
X125603000Y-80137000D01*
X124409181Y-80137000D01*
X124288514Y-80366892D01*
X121385000Y-80366892D01*
X121385000Y-79653108D01*
X124288514Y-79653108D01*
X124409181Y-79883000D01*
X125603000Y-79883000D01*
X125603000Y-78689845D01*
X125373110Y-78568524D01*
X124963076Y-78738355D01*
X124534817Y-79128642D01*
X124288514Y-79653108D01*
X121385000Y-79653108D01*
X121385000Y-77207745D01*
X124901861Y-77207745D01*
X124975995Y-77453864D01*
X125513223Y-77646965D01*
X126083454Y-77619778D01*
X126484005Y-77453864D01*
X126558139Y-77207745D01*
X125730000Y-76379605D01*
X124901861Y-77207745D01*
X121385000Y-77207745D01*
X121385000Y-75983223D01*
X124283035Y-75983223D01*
X124310222Y-76553454D01*
X124476136Y-76954005D01*
X124722255Y-77028139D01*
X125550395Y-76200000D01*
X124722255Y-75371861D01*
X124476136Y-75445995D01*
X124283035Y-75983223D01*
X121385000Y-75983223D01*
X121385000Y-74667745D01*
X124901861Y-74667745D01*
X124975995Y-74913864D01*
X125017709Y-74928858D01*
X124975995Y-74946136D01*
X124901861Y-75192255D01*
X125730000Y-76020395D01*
X126558139Y-75192255D01*
X126484005Y-74946136D01*
X126442291Y-74931142D01*
X126484005Y-74913864D01*
X126558139Y-74667745D01*
X125730000Y-73839605D01*
X124901861Y-74667745D01*
X121385000Y-74667745D01*
X121385000Y-73443223D01*
X124283035Y-73443223D01*
X124310222Y-74013454D01*
X124476136Y-74414005D01*
X124722255Y-74488139D01*
X125550395Y-73660000D01*
X124722255Y-72831861D01*
X124476136Y-72905995D01*
X124283035Y-73443223D01*
X121385000Y-73443223D01*
X121385000Y-72652255D01*
X124901861Y-72652255D01*
X125730000Y-73480395D01*
X126558139Y-72652255D01*
X126484005Y-72406136D01*
X125946777Y-72213035D01*
X125376546Y-72240222D01*
X124975995Y-72406136D01*
X124901861Y-72652255D01*
X121385000Y-72652255D01*
X121385000Y-65505000D01*
X185980001Y-65505000D01*
X185980000Y-87335909D01*
G36*
X138557000Y-79883000D02*
X138577000Y-79883000D01*
X138577000Y-80137000D01*
X138557000Y-80137000D01*
X138557000Y-80157000D01*
X138303000Y-80157000D01*
X138303000Y-80137000D01*
X138283000Y-80137000D01*
X138283000Y-79883000D01*
X138303000Y-79883000D01*
X138303000Y-79863000D01*
X138557000Y-79863000D01*
X138557000Y-79883000D01*
X138557000Y-79883000D01*
G37*
X138557000Y-79883000D02*
X138577000Y-79883000D01*
X138577000Y-80137000D01*
X138557000Y-80137000D01*
X138557000Y-80157000D01*
X138303000Y-80157000D01*
X138303000Y-80137000D01*
X138283000Y-80137000D01*
X138283000Y-79883000D01*
X138303000Y-79883000D01*
X138303000Y-79863000D01*
X138557000Y-79863000D01*
X138557000Y-79883000D01*
G04 #@! TD*
M02*
