M48
;DRILL file {KiCad 5.0.0} date Tue Jul 31 14:57:20 2018
;FORMAT={-:-/ absolute / metric / decimal}
FMAT,2
METRIC,TZ
T1C0.400
T2C0.750
T3C0.800
T4C1.000
T5C1.100
%
G90
G05
M71
T1
X125.73Y-93.98
X125.73Y-94.98
X125.73Y-95.98
X125.73Y-96.98
X125.73Y-97.98
X125.73Y-99.06
X125.73Y-100.06
X126.73Y-93.98
X126.73Y-94.98
X126.73Y-95.98
X126.73Y-96.98
X126.73Y-97.98
X126.73Y-99.06
X126.73Y-100.06
X127.73Y-93.98
X127.73Y-94.98
X127.73Y-95.98
X127.73Y-96.98
X127.73Y-97.98
X127.73Y-99.06
X127.73Y-100.06
X127.73Y-116.3
X127.73Y-117.3
X127.73Y-118.3
X128.73Y-93.98
X128.73Y-94.98
X128.73Y-95.98
X128.73Y-96.98
X128.73Y-97.98
X128.73Y-99.06
X128.73Y-100.06
X128.73Y-116.3
X128.73Y-117.3
X128.73Y-118.3
X129.73Y-93.98
X129.73Y-94.98
X129.73Y-95.98
X129.73Y-96.98
X129.73Y-97.98
X129.73Y-99.06
X129.73Y-100.06
X129.73Y-116.3
X129.73Y-117.3
X129.73Y-118.3
X130.81Y-93.98
X130.81Y-94.98
X130.81Y-95.98
X130.81Y-96.98
X130.81Y-97.98
X130.81Y-99.06
X130.81Y-100.06
X131.81Y-93.98
X131.81Y-94.98
X131.81Y-95.98
X131.81Y-96.98
X131.81Y-97.98
X131.81Y-99.06
X131.81Y-100.06
X132.81Y-93.98
X132.81Y-94.98
X132.81Y-95.98
X132.81Y-96.98
X132.81Y-97.98
X132.81Y-99.06
X132.81Y-100.06
X133.81Y-94.98
X133.81Y-95.98
X133.81Y-96.98
X133.81Y-97.98
X133.81Y-99.06
X133.81Y-100.06
X134.81Y-95.98
X134.81Y-96.98
X134.81Y-97.98
X134.81Y-99.06
X134.81Y-100.06
X153.947Y-97.123
X156.013Y-88.688
X157.48Y-77.47
X157.48Y-78.47
X157.48Y-79.47
X157.48Y-80.47
X157.48Y-81.47
X158.48Y-77.47
X158.48Y-78.47
X158.48Y-79.47
X158.48Y-80.47
X158.48Y-81.47
X159.48Y-77.47
X159.48Y-78.47
X159.48Y-79.47
X159.48Y-80.47
X159.48Y-81.47
X160.48Y-77.47
X160.48Y-78.47
X160.48Y-79.47
X160.48Y-80.47
X160.48Y-81.47
X161.29Y-105.87
X161.29Y-106.87
X161.48Y-77.47
X161.48Y-78.47
X161.48Y-79.47
X161.48Y-80.47
X162.29Y-104.87
X162.29Y-105.87
X162.29Y-106.87
X163.29Y-103.87
X163.29Y-104.87
X163.29Y-105.87
X163.29Y-106.87
X164.29Y-102.87
X164.29Y-103.87
X164.29Y-104.87
X164.29Y-105.87
X164.29Y-106.87
X165.29Y-102.87
X165.29Y-103.87
X165.29Y-104.87
X165.29Y-105.87
X165.29Y-106.87
X166.37Y-102.87
X166.37Y-103.87
X166.37Y-104.87
X166.37Y-105.87
X166.37Y-106.87
X167.37Y-102.87
X167.37Y-103.87
X167.37Y-104.87
X167.37Y-105.87
X167.37Y-106.87
X168.37Y-102.87
X168.37Y-103.87
X168.37Y-104.87
X168.37Y-105.87
X168.37Y-106.87
X169.37Y-102.87
X169.37Y-103.87
X169.37Y-104.87
X169.37Y-105.87
X169.37Y-106.87
X170.37Y-102.87
X170.37Y-103.87
X170.37Y-104.87
X170.37Y-105.87
X170.37Y-106.87
X172.72Y-77.47
X172.72Y-78.47
X172.72Y-79.47
X172.72Y-80.47
X172.72Y-81.47
X172.72Y-82.55
X172.72Y-83.55
X172.72Y-84.55
X172.72Y-85.55
X172.72Y-86.55
X172.72Y-87.63
X173.72Y-77.47
X173.72Y-78.47
X173.72Y-79.47
X173.72Y-80.47
X173.72Y-81.47
X173.72Y-82.55
X173.72Y-83.55
X173.72Y-84.55
X173.72Y-85.55
X173.72Y-86.55
X173.72Y-87.63
X173.72Y-88.63
X174.72Y-77.47
X174.72Y-78.47
X174.72Y-79.47
X174.72Y-80.47
X174.72Y-81.47
X174.72Y-82.55
X174.72Y-83.55
X174.72Y-84.55
X174.72Y-85.55
X174.72Y-86.55
X174.72Y-87.63
X174.72Y-88.63
X174.72Y-89.63
X175.72Y-77.47
X175.72Y-78.47
X175.72Y-79.47
X175.72Y-80.47
X175.72Y-81.47
X175.72Y-82.55
X175.72Y-83.55
X175.72Y-84.55
X175.72Y-85.55
X175.72Y-86.55
X175.72Y-87.63
X175.72Y-88.63
X175.72Y-89.63
X175.72Y-90.63
X176.72Y-77.47
X176.72Y-78.47
X176.72Y-79.47
X176.72Y-80.47
X176.72Y-81.47
X176.72Y-82.55
X176.72Y-83.55
X176.72Y-84.55
X176.72Y-85.55
X176.72Y-86.55
X176.72Y-87.63
X176.72Y-88.63
X176.72Y-89.63
X176.72Y-90.63
X176.72Y-91.63
X177.8Y-82.55
X177.8Y-83.55
X177.8Y-84.55
X177.8Y-85.55
X177.8Y-86.55
X177.8Y-87.63
X177.8Y-88.63
X177.8Y-89.63
X177.8Y-90.63
X177.8Y-91.63
X178.8Y-82.55
X178.8Y-83.55
X178.8Y-84.55
X178.8Y-85.55
X178.8Y-86.55
X178.8Y-87.63
X178.8Y-88.63
X178.8Y-89.63
X178.8Y-90.63
X178.8Y-91.63
X179.8Y-82.55
X179.8Y-83.55
X179.8Y-84.55
X179.8Y-85.55
X179.8Y-86.55
X179.8Y-87.63
X179.8Y-88.63
X179.8Y-89.63
X179.8Y-90.63
X179.8Y-91.63
X180.8Y-82.55
X180.8Y-83.55
X180.8Y-84.55
X180.8Y-85.55
X180.8Y-86.55
X180.8Y-87.63
X180.8Y-88.63
X180.8Y-89.63
X180.8Y-90.63
X180.8Y-91.63
X181.8Y-82.55
X181.8Y-83.55
X181.8Y-84.55
X181.8Y-85.55
X181.8Y-86.55
X181.8Y-87.63
X181.8Y-88.63
X181.8Y-89.63
X181.8Y-90.63
X181.8Y-91.63
T2
X142.24Y-114.3
X143.51Y-115.57
X144.78Y-114.3
T3
X147.32Y-74.93
X157.48Y-74.93
X128.27Y-109.22
X138.43Y-109.22
X135.89Y-114.3
X138.39Y-114.3
X167.6Y-85.32
X167.6Y-87.32
X167.6Y-89.32
X167.6Y-91.32
X167.6Y-93.32
X167.6Y-95.32
X167.6Y-97.32
X167.6Y-99.32
X134.62Y-74.93
X144.78Y-74.93
X125.73Y-76.2
X128.23Y-76.2
X142.24Y-109.22
X152.4Y-109.22
X125.73Y-73.66
X128.23Y-73.66
T4
X160.02Y-87.63
X160.02Y-90.17
X160.02Y-92.71
X160.02Y-95.25
X157.48Y-114.3
X160.02Y-114.3
X162.56Y-114.3
X165.1Y-114.3
X167.64Y-114.3
X170.18Y-114.3
X172.72Y-114.3
X175.26Y-114.3
X177.8Y-114.3
X180.34Y-114.3
X182.88Y-114.3
X166.37Y-68.58
X168.91Y-68.58
X171.45Y-68.58
X173.99Y-68.58
X138.43Y-80.01
X140.97Y-80.01
X125.73Y-80.01
X128.27Y-80.01
X151.13Y-80.01
X153.67Y-80.01
X124.46Y-87.63
X124.46Y-102.87
X127.Y-87.63
X127.Y-102.87
X129.54Y-87.63
X129.54Y-102.87
X132.08Y-87.63
X132.08Y-102.87
X133.35Y-90.17
X134.62Y-87.63
X134.62Y-102.87
X135.89Y-90.17
X137.16Y-87.63
X137.16Y-102.87
X139.7Y-87.63
X139.7Y-102.87
X142.24Y-87.63
X142.24Y-102.87
X143.51Y-90.17
X144.78Y-87.63
X144.78Y-102.87
X146.05Y-90.17
X147.32Y-87.63
X147.32Y-102.87
X149.86Y-87.63
X149.86Y-102.87
X152.4Y-87.63
X152.4Y-90.17
X152.4Y-92.71
X152.4Y-102.87
X125.73Y-68.58
X128.27Y-68.58
X130.81Y-68.58
X133.35Y-68.58
X146.05Y-68.58
X148.59Y-68.58
X151.13Y-68.58
X153.67Y-68.58
X166.37Y-74.93
X168.91Y-74.93
X124.46Y-109.22
X124.46Y-111.76
X124.46Y-114.3
X124.46Y-116.84
T5
X176.38Y-104.72
X176.38Y-109.22
X182.88Y-104.72
X182.88Y-109.22
T0
M30
