%TF.GenerationSoftware,KiCad,Pcbnew,5.0.0*%
%TF.CreationDate,2018-08-08T13:22:06+02:00*%
%TF.ProjectId,HB-UNI-Sen-WEA,48422D554E492D53656E2D5745412E6B,1.0*%
%TF.SameCoordinates,Original*%
%TF.FileFunction,Copper,L1,Top,Signal*%
%TF.FilePolarity,Positive*%
%FSLAX46Y46*%
G04 Gerber Fmt 4.6, Leading zero omitted, Abs format (unit mm)*
G04 Created by KiCad (PCBNEW 5.0.0) date Wed Aug  8 13:22:06 2018*
%MOMM*%
%LPD*%
G01*
G04 APERTURE LIST*
%TA.AperFunction,ComponentPad*%
%ADD10C,1.800000*%
%TD*%
%TA.AperFunction,ComponentPad*%
%ADD11C,1.600000*%
%TD*%
%TA.AperFunction,ComponentPad*%
%ADD12R,1.700000X1.700000*%
%TD*%
%TA.AperFunction,ComponentPad*%
%ADD13O,1.700000X1.700000*%
%TD*%
%TA.AperFunction,ComponentPad*%
%ADD14O,1.600000X1.600000*%
%TD*%
%TA.AperFunction,ComponentPad*%
%ADD15C,2.000000*%
%TD*%
%TA.AperFunction,ComponentPad*%
%ADD16C,1.350000*%
%TD*%
%TA.AperFunction,ConnectorPad*%
%ADD17R,1.800000X1.350000*%
%TD*%
%TA.AperFunction,Conductor*%
%ADD18C,0.100000*%
%TD*%
%TA.AperFunction,ComponentPad*%
%ADD19C,1.100000*%
%TD*%
%TA.AperFunction,ComponentPad*%
%ADD20R,1.100000X1.800000*%
%TD*%
%TA.AperFunction,ViaPad*%
%ADD21C,0.800000*%
%TD*%
%TA.AperFunction,Conductor*%
%ADD22C,0.250000*%
%TD*%
%TA.AperFunction,Conductor*%
%ADD23C,0.254000*%
%TD*%
G04 APERTURE END LIST*
D10*
%TO.P,U1,28*%
%TO.N,Net-(U1-Pad28)*%
X143510000Y-90170000D03*
%TO.P,U1,27*%
%TO.N,Net-(U1-Pad27)*%
X146050000Y-90170000D03*
X152400000Y-92710000D03*
%TO.P,U1,28*%
%TO.N,Net-(U1-Pad28)*%
X152400000Y-90170000D03*
%TO.P,U1,1*%
%TO.N,/SS*%
X152400000Y-87630000D03*
%TO.P,U1,2*%
%TO.N,/MOSI*%
X149860000Y-87630000D03*
%TO.P,U1,3*%
%TO.N,/MISO*%
X147320000Y-87630000D03*
%TO.P,U1,4*%
%TO.N,/SCK*%
X144780000Y-87630000D03*
%TO.P,U1,5*%
%TO.N,Net-(U1-Pad5)*%
X142240000Y-87630000D03*
%TO.P,U1,6*%
%TO.N,Net-(U1-Pad6)*%
X139700000Y-87630000D03*
%TO.P,U1,7*%
%TO.N,/A2*%
X137160000Y-87630000D03*
%TO.P,U1,8*%
%TO.N,/A3*%
X134620000Y-87630000D03*
%TO.P,U1,9*%
%TO.N,/VCC*%
X132080000Y-87630000D03*
%TO.P,U1,10*%
%TO.N,/RSET*%
X129540000Y-87630000D03*
%TO.P,U1,11*%
%TO.N,GND*%
X127000000Y-87630000D03*
%TO.P,U1,12*%
%TO.N,+5V*%
X124460000Y-87630000D03*
%TO.P,U1,13*%
%TO.N,N/C*%
X124460000Y-102870000D03*
%TO.P,U1,14*%
X127000000Y-102870000D03*
%TO.P,U1,15*%
X129540000Y-102870000D03*
%TO.P,U1,16*%
%TO.N,GND*%
X132080000Y-102870000D03*
%TO.P,U1,17*%
%TO.N,/D2*%
X134620000Y-102870000D03*
%TO.P,U1,18*%
%TO.N,/D3*%
X137160000Y-102870000D03*
%TO.P,U1,19*%
%TO.N,/D4*%
X139700000Y-102870000D03*
%TO.P,U1,20*%
%TO.N,/D5*%
X142240000Y-102870000D03*
%TO.P,U1,21*%
%TO.N,/D6*%
X144780000Y-102870000D03*
%TO.P,U1,22*%
%TO.N,/D7*%
X147320000Y-102870000D03*
%TO.P,U1,23*%
%TO.N,/D8*%
X149860000Y-102870000D03*
%TO.P,U1,24*%
%TO.N,/D9*%
X152400000Y-102870000D03*
%TO.P,U1,25*%
%TO.N,/SDA*%
X135890000Y-90170000D03*
%TO.P,U1,26*%
%TO.N,/SCL*%
X133350000Y-90170000D03*
%TD*%
D11*
%TO.P,C1,1*%
%TO.N,/B*%
X135890000Y-114300000D03*
%TO.P,C1,2*%
%TO.N,/A3*%
X138390000Y-114300000D03*
%TD*%
%TO.P,C2,2*%
%TO.N,/D5*%
X128230000Y-73660000D03*
%TO.P,C2,1*%
%TO.N,GND*%
X125730000Y-73660000D03*
%TD*%
%TO.P,C3,1*%
%TO.N,GND*%
X125730000Y-76200000D03*
%TO.P,C3,2*%
%TO.N,/D6*%
X128230000Y-76200000D03*
%TD*%
D12*
%TO.P,J1,1*%
%TO.N,GND*%
X124460000Y-116840000D03*
D13*
%TO.P,J1,2*%
%TO.N,/B*%
X124460000Y-114300000D03*
%TO.P,J1,3*%
%TO.N,/C*%
X124460000Y-111760000D03*
%TO.P,J1,4*%
%TO.N,+5V*%
X124460000Y-109220000D03*
%TD*%
%TO.P,J2,4*%
%TO.N,/RSET*%
X160020000Y-95250000D03*
%TO.P,J2,3*%
%TO.N,/MISO*%
X160020000Y-92710000D03*
%TO.P,J2,2*%
%TO.N,/SCK*%
X160020000Y-90170000D03*
D12*
%TO.P,J2,1*%
%TO.N,/MOSI*%
X160020000Y-87630000D03*
%TD*%
%TO.P,J3,1*%
%TO.N,/A2*%
X153670000Y-80010000D03*
D13*
%TO.P,J3,2*%
%TO.N,GND*%
X151130000Y-80010000D03*
%TD*%
D12*
%TO.P,J4,1*%
%TO.N,/VCC*%
X125730000Y-68580000D03*
D13*
%TO.P,J4,2*%
%TO.N,GND*%
X128270000Y-68580000D03*
%TO.P,J4,3*%
%TO.N,/SCL*%
X130810000Y-68580000D03*
%TO.P,J4,4*%
%TO.N,/SDA*%
X133350000Y-68580000D03*
%TD*%
D12*
%TO.P,J5,1*%
%TO.N,GND*%
X157480000Y-114300000D03*
D13*
%TO.P,J5,2*%
X160020000Y-114300000D03*
%TO.P,J5,3*%
X162560000Y-114300000D03*
%TO.P,J5,4*%
%TO.N,/D3*%
X165100000Y-114300000D03*
%TO.P,J5,5*%
%TO.N,GND*%
X167640000Y-114300000D03*
%TO.P,J5,6*%
%TO.N,/D7*%
X170180000Y-114300000D03*
%TO.P,J5,7*%
%TO.N,/MISO*%
X172720000Y-114300000D03*
%TO.P,J5,8*%
%TO.N,/MOSI*%
X175260000Y-114300000D03*
%TO.P,J5,9*%
%TO.N,/SCK*%
X177800000Y-114300000D03*
%TO.P,J5,10*%
%TO.N,GND*%
X180340000Y-114300000D03*
%TO.P,J5,11*%
%TO.N,/VCC*%
X182880000Y-114300000D03*
%TD*%
%TO.P,J6,2*%
%TO.N,GND*%
X138430000Y-80010000D03*
D12*
%TO.P,J6,1*%
%TO.N,Net-(J6-Pad1)*%
X140970000Y-80010000D03*
%TD*%
%TO.P,J7,1*%
%TO.N,Net-(J7-Pad1)*%
X128270000Y-80010000D03*
D13*
%TO.P,J7,2*%
%TO.N,GND*%
X125730000Y-80010000D03*
%TD*%
%TO.P,J8,4*%
%TO.N,/SDA*%
X153670000Y-68580000D03*
%TO.P,J8,3*%
%TO.N,/SCL*%
X151130000Y-68580000D03*
%TO.P,J8,2*%
%TO.N,GND*%
X148590000Y-68580000D03*
D12*
%TO.P,J8,1*%
%TO.N,/VCC*%
X146050000Y-68580000D03*
%TD*%
%TO.P,J9,1*%
%TO.N,/VCC*%
X166370000Y-68580000D03*
D13*
%TO.P,J9,2*%
%TO.N,GND*%
X168910000Y-68580000D03*
%TO.P,J9,3*%
%TO.N,/SCL*%
X171450000Y-68580000D03*
%TO.P,J9,4*%
%TO.N,/SDA*%
X173990000Y-68580000D03*
%TD*%
D11*
%TO.P,R1,1*%
%TO.N,/A3*%
X128270000Y-109220000D03*
D14*
%TO.P,R1,2*%
%TO.N,/D4*%
X138430000Y-109220000D03*
%TD*%
%TO.P,R2,2*%
%TO.N,/D9*%
X152400000Y-109220000D03*
D11*
%TO.P,R2,1*%
%TO.N,Net-(Q1-Pad2)*%
X142240000Y-109220000D03*
%TD*%
D14*
%TO.P,R3,2*%
%TO.N,/D5*%
X134620000Y-74930000D03*
D11*
%TO.P,R3,1*%
%TO.N,Net-(J6-Pad1)*%
X144780000Y-74930000D03*
%TD*%
%TO.P,R4,1*%
%TO.N,Net-(J7-Pad1)*%
X157480000Y-74930000D03*
D14*
%TO.P,R4,2*%
%TO.N,/D6*%
X147320000Y-74930000D03*
%TD*%
D15*
%TO.P,SW1,2*%
%TO.N,GND*%
X182880000Y-104720000D03*
%TO.P,SW1,1*%
%TO.N,/D8*%
X182880000Y-109220000D03*
%TO.P,SW1,2*%
%TO.N,GND*%
X176380000Y-104720000D03*
%TO.P,SW1,1*%
%TO.N,/D8*%
X176380000Y-109220000D03*
%TD*%
D16*
%TO.P,U2,8*%
%TO.N,/SS*%
X167600000Y-99320000D03*
D17*
X166600000Y-99320000D03*
D16*
%TO.P,U2,1*%
%TO.N,/VCC*%
X167600000Y-85320000D03*
%TO.P,U2,2*%
%TO.N,GND*%
X167600000Y-87320000D03*
%TO.P,U2,3*%
%TO.N,/MOSI*%
X167600000Y-89320000D03*
%TO.P,U2,4*%
%TO.N,/SCK*%
X167600000Y-91320000D03*
%TO.P,U2,5*%
%TO.N,/MISO*%
X167600000Y-93320000D03*
%TO.P,U2,6*%
%TO.N,Net-(U2-Pad6)*%
X167600000Y-95320000D03*
%TO.P,U2,7*%
%TO.N,/D2*%
X167600000Y-97320000D03*
D17*
%TO.P,U2,1*%
%TO.N,/VCC*%
X166600000Y-85320000D03*
%TO.P,U2,2*%
%TO.N,GND*%
X166600000Y-87320000D03*
%TO.P,U2,3*%
%TO.N,/MOSI*%
X166600000Y-89320000D03*
%TO.P,U2,4*%
%TO.N,/SCK*%
X166600000Y-91320000D03*
%TO.P,U2,5*%
%TO.N,/MISO*%
X166600000Y-93320000D03*
%TO.P,U2,6*%
%TO.N,Net-(U2-Pad6)*%
X166600000Y-95320000D03*
%TO.P,U2,7*%
%TO.N,/D2*%
X166600000Y-97320000D03*
%TD*%
D18*
%TO.N,Net-(Q1-Pad2)*%
%TO.C,Q1*%
G36*
X143811955Y-115071324D02*
X143838650Y-115075284D01*
X143864828Y-115081841D01*
X143890238Y-115090933D01*
X143914634Y-115102472D01*
X143937782Y-115116346D01*
X143959458Y-115132422D01*
X143979454Y-115150546D01*
X143997578Y-115170542D01*
X144013654Y-115192218D01*
X144027528Y-115215366D01*
X144039067Y-115239762D01*
X144048159Y-115265172D01*
X144054716Y-115291350D01*
X144058676Y-115318045D01*
X144060000Y-115345000D01*
X144060000Y-116595000D01*
X144058676Y-116621955D01*
X144054716Y-116648650D01*
X144048159Y-116674828D01*
X144039067Y-116700238D01*
X144027528Y-116724634D01*
X144013654Y-116747782D01*
X143997578Y-116769458D01*
X143979454Y-116789454D01*
X143959458Y-116807578D01*
X143937782Y-116823654D01*
X143914634Y-116837528D01*
X143890238Y-116849067D01*
X143864828Y-116858159D01*
X143838650Y-116864716D01*
X143811955Y-116868676D01*
X143785000Y-116870000D01*
X143235000Y-116870000D01*
X143208045Y-116868676D01*
X143181350Y-116864716D01*
X143155172Y-116858159D01*
X143129762Y-116849067D01*
X143105366Y-116837528D01*
X143082218Y-116823654D01*
X143060542Y-116807578D01*
X143040546Y-116789454D01*
X143022422Y-116769458D01*
X143006346Y-116747782D01*
X142992472Y-116724634D01*
X142980933Y-116700238D01*
X142971841Y-116674828D01*
X142965284Y-116648650D01*
X142961324Y-116621955D01*
X142960000Y-116595000D01*
X142960000Y-115345000D01*
X142961324Y-115318045D01*
X142965284Y-115291350D01*
X142971841Y-115265172D01*
X142980933Y-115239762D01*
X142992472Y-115215366D01*
X143006346Y-115192218D01*
X143022422Y-115170542D01*
X143040546Y-115150546D01*
X143060542Y-115132422D01*
X143082218Y-115116346D01*
X143105366Y-115102472D01*
X143129762Y-115090933D01*
X143155172Y-115081841D01*
X143181350Y-115075284D01*
X143208045Y-115071324D01*
X143235000Y-115070000D01*
X143785000Y-115070000D01*
X143811955Y-115071324D01*
X143811955Y-115071324D01*
G37*
D19*
%TD*%
%TO.P,Q1,2*%
%TO.N,Net-(Q1-Pad2)*%
X143510000Y-115970000D03*
D18*
%TO.N,/C*%
%TO.C,Q1*%
G36*
X142541955Y-113001324D02*
X142568650Y-113005284D01*
X142594828Y-113011841D01*
X142620238Y-113020933D01*
X142644634Y-113032472D01*
X142667782Y-113046346D01*
X142689458Y-113062422D01*
X142709454Y-113080546D01*
X142727578Y-113100542D01*
X142743654Y-113122218D01*
X142757528Y-113145366D01*
X142769067Y-113169762D01*
X142778159Y-113195172D01*
X142784716Y-113221350D01*
X142788676Y-113248045D01*
X142790000Y-113275000D01*
X142790000Y-114525000D01*
X142788676Y-114551955D01*
X142784716Y-114578650D01*
X142778159Y-114604828D01*
X142769067Y-114630238D01*
X142757528Y-114654634D01*
X142743654Y-114677782D01*
X142727578Y-114699458D01*
X142709454Y-114719454D01*
X142689458Y-114737578D01*
X142667782Y-114753654D01*
X142644634Y-114767528D01*
X142620238Y-114779067D01*
X142594828Y-114788159D01*
X142568650Y-114794716D01*
X142541955Y-114798676D01*
X142515000Y-114800000D01*
X141965000Y-114800000D01*
X141938045Y-114798676D01*
X141911350Y-114794716D01*
X141885172Y-114788159D01*
X141859762Y-114779067D01*
X141835366Y-114767528D01*
X141812218Y-114753654D01*
X141790542Y-114737578D01*
X141770546Y-114719454D01*
X141752422Y-114699458D01*
X141736346Y-114677782D01*
X141722472Y-114654634D01*
X141710933Y-114630238D01*
X141701841Y-114604828D01*
X141695284Y-114578650D01*
X141691324Y-114551955D01*
X141690000Y-114525000D01*
X141690000Y-113275000D01*
X141691324Y-113248045D01*
X141695284Y-113221350D01*
X141701841Y-113195172D01*
X141710933Y-113169762D01*
X141722472Y-113145366D01*
X141736346Y-113122218D01*
X141752422Y-113100542D01*
X141770546Y-113080546D01*
X141790542Y-113062422D01*
X141812218Y-113046346D01*
X141835366Y-113032472D01*
X141859762Y-113020933D01*
X141885172Y-113011841D01*
X141911350Y-113005284D01*
X141938045Y-113001324D01*
X141965000Y-113000000D01*
X142515000Y-113000000D01*
X142541955Y-113001324D01*
X142541955Y-113001324D01*
G37*
D19*
%TD*%
%TO.P,Q1,3*%
%TO.N,/C*%
X142240000Y-113900000D03*
D20*
%TO.P,Q1,1*%
%TO.N,GND*%
X144780000Y-113900000D03*
%TD*%
D12*
%TO.P,J10,1*%
%TO.N,+5V*%
X168910000Y-74930000D03*
D13*
%TO.P,J10,2*%
%TO.N,GND*%
X166370000Y-74930000D03*
%TD*%
D21*
%TO.N,GND*%
X163830000Y-86360000D03*
%TO.N,/D5*%
X161191100Y-97772300D03*
%TO.N,GND*%
X148590000Y-71120000D03*
X146050000Y-71120000D03*
X151130000Y-71120000D03*
X147320000Y-72390000D03*
X149860000Y-72390000D03*
%TO.N,/SDA*%
X162166400Y-93707000D03*
%TD*%
D22*
%TO.N,/B*%
X124460000Y-114300000D02*
X135890000Y-114300000D01*
%TO.N,/D5*%
X161191100Y-97772300D02*
X147337700Y-97772300D01*
X147337700Y-97772300D02*
X142240000Y-102870000D01*
X134620000Y-74930000D02*
X129500000Y-74930000D01*
X129500000Y-74930000D02*
X128230000Y-73660000D01*
%TO.N,GND*%
X164790000Y-87320000D02*
X163830000Y-86360000D01*
X167600000Y-87320000D02*
X164790000Y-87320000D01*
%TO.N,/D6*%
X147320000Y-74930000D02*
X148495300Y-74930000D01*
X148495300Y-74930000D02*
X149720700Y-73704600D01*
X149720700Y-73704600D02*
X169927400Y-73704600D01*
X169927400Y-73704600D02*
X170151700Y-73928900D01*
X170151700Y-73928900D02*
X170151700Y-98295200D01*
X170151700Y-98295200D02*
X167639800Y-100807100D01*
X167639800Y-100807100D02*
X146842900Y-100807100D01*
X146842900Y-100807100D02*
X144780000Y-102870000D01*
X147114000Y-74930000D02*
X147320000Y-74930000D01*
X147114000Y-74930000D02*
X146144700Y-74930000D01*
X146144700Y-74930000D02*
X146144700Y-75297300D01*
X146144700Y-75297300D02*
X145242000Y-76200000D01*
X145242000Y-76200000D02*
X128230000Y-76200000D01*
%TO.N,/C*%
X142240000Y-114300000D02*
X139700000Y-111760000D01*
X139700000Y-111760000D02*
X124460000Y-111760000D01*
%TO.N,+5V*%
X124460000Y-87630000D02*
X127041400Y-85048600D01*
X127041400Y-85048600D02*
X158012000Y-85048600D01*
X158012000Y-85048600D02*
X167684700Y-75375900D01*
X167684700Y-75375900D02*
X167684700Y-74930000D01*
X124460000Y-109220000D02*
X124460000Y-107994700D01*
X124460000Y-87630000D02*
X124460000Y-100875100D01*
X124460000Y-100875100D02*
X123154300Y-102180800D01*
X123154300Y-102180800D02*
X123154300Y-106689000D01*
X123154300Y-106689000D02*
X124460000Y-107994700D01*
X168910000Y-74930000D02*
X167684700Y-74930000D01*
%TO.N,/RSET*%
X160020000Y-95250000D02*
X136616400Y-95250000D01*
X136616400Y-95250000D02*
X129540000Y-88173600D01*
X129540000Y-88173600D02*
X129540000Y-87630000D01*
%TO.N,/MISO*%
X166600000Y-93320000D02*
X165324700Y-93320000D01*
X165324700Y-93320000D02*
X164714700Y-92710000D01*
X164714700Y-92710000D02*
X161245300Y-92710000D01*
X160020000Y-92710000D02*
X158794700Y-92710000D01*
X158794700Y-92710000D02*
X157479300Y-94025400D01*
X157479300Y-94025400D02*
X151909400Y-94025400D01*
X151909400Y-94025400D02*
X147320000Y-89436000D01*
X147320000Y-89436000D02*
X147320000Y-87630000D01*
X160600500Y-92710000D02*
X160020000Y-92710000D01*
X160600500Y-92710000D02*
X161245300Y-92710000D01*
X167600000Y-93320000D02*
X166600000Y-93320000D01*
%TO.N,/SCK*%
X160020000Y-90170000D02*
X158794700Y-90170000D01*
X144780000Y-87630000D02*
X146096800Y-86313200D01*
X146096800Y-86313200D02*
X154937900Y-86313200D01*
X154937900Y-86313200D02*
X158794700Y-90170000D01*
X160020000Y-90170000D02*
X161245300Y-90170000D01*
X166600000Y-91320000D02*
X162395300Y-91320000D01*
X162395300Y-91320000D02*
X161245300Y-90170000D01*
X167600000Y-91320000D02*
X166600000Y-91320000D01*
%TO.N,/MOSI*%
X160020000Y-87630000D02*
X161245300Y-87630000D01*
X166600000Y-89320000D02*
X162935300Y-89320000D01*
X162935300Y-89320000D02*
X161245300Y-87630000D01*
X167600000Y-89320000D02*
X166600000Y-89320000D01*
%TO.N,/VCC*%
X146050000Y-68580000D02*
X147275300Y-68580000D01*
X166370000Y-68580000D02*
X165144700Y-68580000D01*
X165144700Y-68580000D02*
X163919400Y-67354700D01*
X163919400Y-67354700D02*
X148041000Y-67354700D01*
X148041000Y-67354700D02*
X147275300Y-68120400D01*
X147275300Y-68120400D02*
X147275300Y-68580000D01*
X166600000Y-85320000D02*
X167600000Y-85320000D01*
%TO.N,/SDA*%
X162166400Y-93707000D02*
X161938100Y-93935300D01*
X161938100Y-93935300D02*
X159231300Y-93935300D01*
X159231300Y-93935300D02*
X158620600Y-94546000D01*
X158620600Y-94546000D02*
X140266000Y-94546000D01*
X140266000Y-94546000D02*
X135890000Y-90170000D01*
X153670000Y-68580000D02*
X154895300Y-68580000D01*
X173990000Y-68580000D02*
X172764700Y-68580000D01*
X172764700Y-68580000D02*
X172764700Y-69039500D01*
X172764700Y-69039500D02*
X171998800Y-69805400D01*
X171998800Y-69805400D02*
X156120700Y-69805400D01*
X156120700Y-69805400D02*
X154895300Y-68580000D01*
X133350000Y-68580000D02*
X134575300Y-68580000D01*
X153670000Y-68580000D02*
X152444700Y-68580000D01*
X152444700Y-68580000D02*
X152444700Y-69039500D01*
X152444700Y-69039500D02*
X151678800Y-69805400D01*
X151678800Y-69805400D02*
X135800700Y-69805400D01*
X135800700Y-69805400D02*
X134575300Y-68580000D01*
%TO.N,/D3*%
X165100000Y-114300000D02*
X163874700Y-114300000D01*
X163874700Y-114300000D02*
X163874700Y-114759500D01*
X163874700Y-114759500D02*
X163108800Y-115525400D01*
X163108800Y-115525400D02*
X150551800Y-115525400D01*
X150551800Y-115525400D02*
X137896400Y-102870000D01*
X137896400Y-102870000D02*
X137160000Y-102870000D01*
%TO.N,/D7*%
X170180000Y-114300000D02*
X168954700Y-114300000D01*
X168954700Y-114300000D02*
X168954700Y-113840400D01*
X168954700Y-113840400D02*
X168189000Y-113074700D01*
X168189000Y-113074700D02*
X158887400Y-113074700D01*
X158887400Y-113074700D02*
X150456200Y-104643500D01*
X150456200Y-104643500D02*
X149093500Y-104643500D01*
X149093500Y-104643500D02*
X147320000Y-102870000D01*
%TO.N,Net-(J7-Pad1)*%
X128270000Y-80010000D02*
X129495300Y-80010000D01*
X157480000Y-74930000D02*
X153625300Y-78784700D01*
X153625300Y-78784700D02*
X130720600Y-78784700D01*
X130720600Y-78784700D02*
X129495300Y-80010000D01*
%TO.N,/D8*%
X176380000Y-109220000D02*
X156210000Y-109220000D01*
X156210000Y-109220000D02*
X149860000Y-102870000D01*
X182880000Y-109220000D02*
X176380000Y-109220000D01*
%TO.N,/SS*%
X166600000Y-99320000D02*
X167600000Y-99320000D01*
%TO.N,/D2*%
X166600000Y-97320000D02*
X165324700Y-97320000D01*
X165324700Y-97320000D02*
X165001700Y-96997000D01*
X165001700Y-96997000D02*
X140493000Y-96997000D01*
X140493000Y-96997000D02*
X134620000Y-102870000D01*
X167600000Y-97320000D02*
X166600000Y-97320000D01*
%TO.N,Net-(U2-Pad6)*%
X166600000Y-95320000D02*
X167600000Y-95320000D01*
%TD*%
D23*
%TO.N,GND*%
G36*
X185980000Y-88461196D02*
X183917861Y-89492266D01*
X183872972Y-89501195D01*
X183792611Y-89554891D01*
X183769935Y-89566229D01*
X183734596Y-89593656D01*
X183638119Y-89658120D01*
X183623669Y-89679746D01*
X183603120Y-89695694D01*
X183545658Y-89796498D01*
X183481195Y-89892973D01*
X183476121Y-89918484D01*
X183463240Y-89941080D01*
X183448728Y-90056198D01*
X183440000Y-90100075D01*
X183440000Y-90125430D01*
X183427912Y-90221317D01*
X183440000Y-90265457D01*
X183440001Y-96424539D01*
X183427912Y-96468683D01*
X183440001Y-96564578D01*
X183440001Y-96589926D01*
X183448726Y-96633791D01*
X183463240Y-96748920D01*
X183476122Y-96771518D01*
X183481196Y-96797028D01*
X183545656Y-96893498D01*
X183603120Y-96994306D01*
X183623670Y-97010255D01*
X183638120Y-97031881D01*
X183734595Y-97096344D01*
X183769935Y-97123771D01*
X183792613Y-97135110D01*
X183872973Y-97188805D01*
X183917860Y-97197734D01*
X185980000Y-98228804D01*
X185980001Y-117400000D01*
X148589306Y-117400000D01*
X148449514Y-117399854D01*
X148383271Y-117427212D01*
X148312972Y-117441195D01*
X148196200Y-117519220D01*
X144602530Y-119915000D01*
X121360000Y-119915000D01*
X121360000Y-117125750D01*
X122975000Y-117125750D01*
X122975000Y-117816310D01*
X123071673Y-118049699D01*
X123250302Y-118228327D01*
X123483691Y-118325000D01*
X124174250Y-118325000D01*
X124333000Y-118166250D01*
X124333000Y-116967000D01*
X124587000Y-116967000D01*
X124587000Y-118166250D01*
X124745750Y-118325000D01*
X125436309Y-118325000D01*
X125669698Y-118228327D01*
X125848327Y-118049699D01*
X125945000Y-117816310D01*
X125945000Y-117125750D01*
X125786250Y-116967000D01*
X124587000Y-116967000D01*
X124333000Y-116967000D01*
X123133750Y-116967000D01*
X122975000Y-117125750D01*
X121360000Y-117125750D01*
X121360000Y-104434090D01*
X122394300Y-103399790D01*
X122394301Y-106614148D01*
X122379412Y-106689000D01*
X122394301Y-106763852D01*
X122438397Y-106985537D01*
X122606372Y-107236929D01*
X122669828Y-107279329D01*
X123479592Y-108089094D01*
X123389375Y-108149375D01*
X123061161Y-108640582D01*
X122945908Y-109220000D01*
X123061161Y-109799418D01*
X123389375Y-110290625D01*
X123687761Y-110490000D01*
X123389375Y-110689375D01*
X123061161Y-111180582D01*
X122945908Y-111760000D01*
X123061161Y-112339418D01*
X123389375Y-112830625D01*
X123687761Y-113030000D01*
X123389375Y-113229375D01*
X123061161Y-113720582D01*
X122945908Y-114300000D01*
X123061161Y-114879418D01*
X123389375Y-115370625D01*
X123411033Y-115385096D01*
X123250302Y-115451673D01*
X123071673Y-115630301D01*
X122975000Y-115863690D01*
X122975000Y-116554250D01*
X123133750Y-116713000D01*
X124333000Y-116713000D01*
X124333000Y-116693000D01*
X124587000Y-116693000D01*
X124587000Y-116713000D01*
X125786250Y-116713000D01*
X125945000Y-116554250D01*
X125945000Y-116494887D01*
X129075000Y-116494887D01*
X129075000Y-117185113D01*
X129339138Y-117822799D01*
X129827201Y-118310862D01*
X130464887Y-118575000D01*
X131155113Y-118575000D01*
X131792799Y-118310862D01*
X132280862Y-117822799D01*
X132545000Y-117185113D01*
X132545000Y-116494887D01*
X132280862Y-115857201D01*
X131792799Y-115369138D01*
X131155113Y-115105000D01*
X130464887Y-115105000D01*
X129827201Y-115369138D01*
X129339138Y-115857201D01*
X129075000Y-116494887D01*
X125945000Y-116494887D01*
X125945000Y-115863690D01*
X125848327Y-115630301D01*
X125669698Y-115451673D01*
X125508967Y-115385096D01*
X125530625Y-115370625D01*
X125738178Y-115060000D01*
X134651570Y-115060000D01*
X134673466Y-115112862D01*
X135077138Y-115516534D01*
X135604561Y-115735000D01*
X136175439Y-115735000D01*
X136702862Y-115516534D01*
X137106534Y-115112862D01*
X137140000Y-115032068D01*
X137173466Y-115112862D01*
X137577138Y-115516534D01*
X138104561Y-115735000D01*
X138675439Y-115735000D01*
X139202862Y-115516534D01*
X139606534Y-115112862D01*
X139825000Y-114585439D01*
X139825000Y-114014561D01*
X139606534Y-113487138D01*
X139202862Y-113083466D01*
X138675439Y-112865000D01*
X138104561Y-112865000D01*
X137577138Y-113083466D01*
X137173466Y-113487138D01*
X137140000Y-113567932D01*
X137106534Y-113487138D01*
X136702862Y-113083466D01*
X136175439Y-112865000D01*
X135604561Y-112865000D01*
X135077138Y-113083466D01*
X134673466Y-113487138D01*
X134651570Y-113540000D01*
X125738178Y-113540000D01*
X125530625Y-113229375D01*
X125232239Y-113030000D01*
X125530625Y-112830625D01*
X125738178Y-112520000D01*
X139385199Y-112520000D01*
X141042560Y-114177362D01*
X141042560Y-114525000D01*
X141112777Y-114878003D01*
X141312736Y-115177264D01*
X141611997Y-115377223D01*
X141965000Y-115447440D01*
X142312560Y-115447440D01*
X142312560Y-116595000D01*
X142382777Y-116948003D01*
X142582736Y-117247264D01*
X142881997Y-117447223D01*
X143235000Y-117517440D01*
X143785000Y-117517440D01*
X144138003Y-117447223D01*
X144437264Y-117247264D01*
X144637223Y-116948003D01*
X144707440Y-116595000D01*
X144707440Y-115345000D01*
X144653000Y-115071313D01*
X144653000Y-114027000D01*
X144907000Y-114027000D01*
X144907000Y-115276250D01*
X145065750Y-115435000D01*
X145456309Y-115435000D01*
X145689698Y-115338327D01*
X145868327Y-115159699D01*
X145965000Y-114926310D01*
X145965000Y-114185750D01*
X145806250Y-114027000D01*
X144907000Y-114027000D01*
X144653000Y-114027000D01*
X143753750Y-114027000D01*
X143595000Y-114185750D01*
X143595000Y-114422560D01*
X143437440Y-114422560D01*
X143437440Y-113275000D01*
X143367223Y-112921997D01*
X143334946Y-112873690D01*
X143595000Y-112873690D01*
X143595000Y-113614250D01*
X143753750Y-113773000D01*
X144653000Y-113773000D01*
X144653000Y-112523750D01*
X144907000Y-112523750D01*
X144907000Y-113773000D01*
X145806250Y-113773000D01*
X145965000Y-113614250D01*
X145965000Y-112873690D01*
X145868327Y-112640301D01*
X145689698Y-112461673D01*
X145456309Y-112365000D01*
X145065750Y-112365000D01*
X144907000Y-112523750D01*
X144653000Y-112523750D01*
X144494250Y-112365000D01*
X144103691Y-112365000D01*
X143870302Y-112461673D01*
X143691673Y-112640301D01*
X143595000Y-112873690D01*
X143334946Y-112873690D01*
X143167264Y-112622736D01*
X142868003Y-112422777D01*
X142515000Y-112352560D01*
X141965000Y-112352560D01*
X141611997Y-112422777D01*
X141507441Y-112492639D01*
X140290331Y-111275530D01*
X140247929Y-111212071D01*
X139996537Y-111044096D01*
X139774852Y-111000000D01*
X139774847Y-111000000D01*
X139700000Y-110985112D01*
X139625153Y-111000000D01*
X125738178Y-111000000D01*
X125530625Y-110689375D01*
X125232239Y-110490000D01*
X125530625Y-110290625D01*
X125858839Y-109799418D01*
X125974092Y-109220000D01*
X125917315Y-108934561D01*
X126835000Y-108934561D01*
X126835000Y-109505439D01*
X127053466Y-110032862D01*
X127457138Y-110436534D01*
X127984561Y-110655000D01*
X128555439Y-110655000D01*
X129082862Y-110436534D01*
X129486534Y-110032862D01*
X129705000Y-109505439D01*
X129705000Y-109220000D01*
X136966887Y-109220000D01*
X137078260Y-109779909D01*
X137395423Y-110254577D01*
X137870091Y-110571740D01*
X138288667Y-110655000D01*
X138571333Y-110655000D01*
X138989909Y-110571740D01*
X139464577Y-110254577D01*
X139781740Y-109779909D01*
X139893113Y-109220000D01*
X139781740Y-108660091D01*
X139464577Y-108185423D01*
X138989909Y-107868260D01*
X138571333Y-107785000D01*
X138288667Y-107785000D01*
X137870091Y-107868260D01*
X137395423Y-108185423D01*
X137078260Y-108660091D01*
X136966887Y-109220000D01*
X129705000Y-109220000D01*
X129705000Y-108934561D01*
X129486534Y-108407138D01*
X129082862Y-108003466D01*
X128555439Y-107785000D01*
X127984561Y-107785000D01*
X127457138Y-108003466D01*
X127053466Y-108407138D01*
X126835000Y-108934561D01*
X125917315Y-108934561D01*
X125858839Y-108640582D01*
X125530625Y-108149375D01*
X125225040Y-107945190D01*
X125220000Y-107919852D01*
X125220000Y-107919848D01*
X125175904Y-107698163D01*
X125175904Y-107698162D01*
X125050329Y-107510227D01*
X125007929Y-107446771D01*
X124944473Y-107404371D01*
X123914300Y-106374199D01*
X123914300Y-104305435D01*
X124154670Y-104405000D01*
X124765330Y-104405000D01*
X125329507Y-104171310D01*
X125730000Y-103770817D01*
X126130493Y-104171310D01*
X126694670Y-104405000D01*
X127305330Y-104405000D01*
X127869507Y-104171310D01*
X128270000Y-103770817D01*
X128670493Y-104171310D01*
X129234670Y-104405000D01*
X129845330Y-104405000D01*
X130409507Y-104171310D01*
X130630658Y-103950159D01*
X131179446Y-103950159D01*
X131265852Y-104206643D01*
X131839336Y-104416458D01*
X132449460Y-104390839D01*
X132894148Y-104206643D01*
X132980554Y-103950159D01*
X132080000Y-103049605D01*
X131179446Y-103950159D01*
X130630658Y-103950159D01*
X130841310Y-103739507D01*
X130849438Y-103719885D01*
X130999841Y-103770554D01*
X131900395Y-102870000D01*
X130999841Y-101969446D01*
X130849438Y-102020115D01*
X130841310Y-102000493D01*
X130630658Y-101789841D01*
X131179446Y-101789841D01*
X132080000Y-102690395D01*
X132980554Y-101789841D01*
X132894148Y-101533357D01*
X132320664Y-101323542D01*
X131710540Y-101349161D01*
X131265852Y-101533357D01*
X131179446Y-101789841D01*
X130630658Y-101789841D01*
X130409507Y-101568690D01*
X129845330Y-101335000D01*
X129234670Y-101335000D01*
X128670493Y-101568690D01*
X128270000Y-101969183D01*
X127869507Y-101568690D01*
X127305330Y-101335000D01*
X126694670Y-101335000D01*
X126130493Y-101568690D01*
X125730000Y-101969183D01*
X125329507Y-101568690D01*
X124996418Y-101430720D01*
X125007929Y-101423029D01*
X125074404Y-101323542D01*
X125175904Y-101171638D01*
X125189430Y-101103637D01*
X125220000Y-100949952D01*
X125220000Y-100949948D01*
X125234888Y-100875100D01*
X125220000Y-100800252D01*
X125220000Y-88976669D01*
X125329507Y-88931310D01*
X125550658Y-88710159D01*
X126099446Y-88710159D01*
X126185852Y-88966643D01*
X126759336Y-89176458D01*
X127369460Y-89150839D01*
X127814148Y-88966643D01*
X127900554Y-88710159D01*
X127000000Y-87809605D01*
X126099446Y-88710159D01*
X125550658Y-88710159D01*
X125761310Y-88499507D01*
X125769438Y-88479885D01*
X125919841Y-88530554D01*
X126820395Y-87630000D01*
X126806253Y-87615858D01*
X126985858Y-87436253D01*
X127000000Y-87450395D01*
X127900554Y-86549841D01*
X127814148Y-86293357D01*
X127240664Y-86083542D01*
X127074273Y-86090529D01*
X127356202Y-85808600D01*
X145519919Y-85808600D01*
X145506473Y-85828724D01*
X145194838Y-86140360D01*
X145085330Y-86095000D01*
X144474670Y-86095000D01*
X143910493Y-86328690D01*
X143510000Y-86729183D01*
X143109507Y-86328690D01*
X142545330Y-86095000D01*
X141934670Y-86095000D01*
X141370493Y-86328690D01*
X140970000Y-86729183D01*
X140569507Y-86328690D01*
X140005330Y-86095000D01*
X139394670Y-86095000D01*
X138830493Y-86328690D01*
X138430000Y-86729183D01*
X138029507Y-86328690D01*
X137465330Y-86095000D01*
X136854670Y-86095000D01*
X136290493Y-86328690D01*
X135890000Y-86729183D01*
X135489507Y-86328690D01*
X134925330Y-86095000D01*
X134314670Y-86095000D01*
X133750493Y-86328690D01*
X133350000Y-86729183D01*
X132949507Y-86328690D01*
X132385330Y-86095000D01*
X131774670Y-86095000D01*
X131210493Y-86328690D01*
X130810000Y-86729183D01*
X130409507Y-86328690D01*
X129845330Y-86095000D01*
X129234670Y-86095000D01*
X128670493Y-86328690D01*
X128238690Y-86760493D01*
X128230562Y-86780115D01*
X128080159Y-86729446D01*
X127179605Y-87630000D01*
X128080159Y-88530554D01*
X128230562Y-88479885D01*
X128238690Y-88499507D01*
X128670493Y-88931310D01*
X129234670Y-89165000D01*
X129456599Y-89165000D01*
X136026071Y-95734473D01*
X136068471Y-95797929D01*
X136131927Y-95840329D01*
X136319862Y-95965904D01*
X136356140Y-95973120D01*
X136541548Y-96010000D01*
X136541552Y-96010000D01*
X136616400Y-96024888D01*
X136691248Y-96010000D01*
X158741822Y-96010000D01*
X158893499Y-96237000D01*
X140567846Y-96237000D01*
X140492999Y-96222112D01*
X140418152Y-96237000D01*
X140418148Y-96237000D01*
X140196463Y-96281096D01*
X139945071Y-96449071D01*
X139902671Y-96512527D01*
X135034839Y-101380360D01*
X134925330Y-101335000D01*
X134314670Y-101335000D01*
X133750493Y-101568690D01*
X133318690Y-102000493D01*
X133310562Y-102020115D01*
X133160159Y-101969446D01*
X132259605Y-102870000D01*
X133160159Y-103770554D01*
X133310562Y-103719885D01*
X133318690Y-103739507D01*
X133750493Y-104171310D01*
X134314670Y-104405000D01*
X134925330Y-104405000D01*
X135489507Y-104171310D01*
X135890000Y-103770817D01*
X136290493Y-104171310D01*
X136854670Y-104405000D01*
X137465330Y-104405000D01*
X138029507Y-104171310D01*
X138076208Y-104124609D01*
X141800438Y-107848840D01*
X141427138Y-108003466D01*
X141023466Y-108407138D01*
X140805000Y-108934561D01*
X140805000Y-109505439D01*
X141023466Y-110032862D01*
X141427138Y-110436534D01*
X141954561Y-110655000D01*
X142525439Y-110655000D01*
X143052862Y-110436534D01*
X143456534Y-110032862D01*
X143611160Y-109659562D01*
X149961473Y-116009876D01*
X150003871Y-116073329D01*
X150067324Y-116115727D01*
X150067326Y-116115729D01*
X150192702Y-116199502D01*
X150255263Y-116241304D01*
X150476948Y-116285400D01*
X150476952Y-116285400D01*
X150551799Y-116300288D01*
X150626646Y-116285400D01*
X163033953Y-116285400D01*
X163108800Y-116300288D01*
X163183647Y-116285400D01*
X163183652Y-116285400D01*
X163405337Y-116241304D01*
X163656729Y-116073329D01*
X163699131Y-116009870D01*
X164214608Y-115494394D01*
X164520582Y-115698839D01*
X164953744Y-115785000D01*
X165246256Y-115785000D01*
X165679418Y-115698839D01*
X166170625Y-115370625D01*
X166383843Y-115051522D01*
X166444817Y-115181358D01*
X166873076Y-115571645D01*
X167283110Y-115741476D01*
X167513000Y-115620155D01*
X167513000Y-114427000D01*
X167493000Y-114427000D01*
X167493000Y-114173000D01*
X167513000Y-114173000D01*
X167513000Y-114153000D01*
X167767000Y-114153000D01*
X167767000Y-114173000D01*
X167787000Y-114173000D01*
X167787000Y-114427000D01*
X167767000Y-114427000D01*
X167767000Y-115620155D01*
X167996890Y-115741476D01*
X168406924Y-115571645D01*
X168835183Y-115181358D01*
X168891123Y-115062243D01*
X168905190Y-115065041D01*
X169109375Y-115370625D01*
X169600582Y-115698839D01*
X170033744Y-115785000D01*
X170326256Y-115785000D01*
X170759418Y-115698839D01*
X171250625Y-115370625D01*
X171450000Y-115072239D01*
X171649375Y-115370625D01*
X172140582Y-115698839D01*
X172573744Y-115785000D01*
X172866256Y-115785000D01*
X173299418Y-115698839D01*
X173790625Y-115370625D01*
X173990000Y-115072239D01*
X174189375Y-115370625D01*
X174680582Y-115698839D01*
X175113744Y-115785000D01*
X175406256Y-115785000D01*
X175839418Y-115698839D01*
X176330625Y-115370625D01*
X176530000Y-115072239D01*
X176729375Y-115370625D01*
X177220582Y-115698839D01*
X177653744Y-115785000D01*
X177946256Y-115785000D01*
X178379418Y-115698839D01*
X178870625Y-115370625D01*
X179083843Y-115051522D01*
X179144817Y-115181358D01*
X179573076Y-115571645D01*
X179983110Y-115741476D01*
X180213000Y-115620155D01*
X180213000Y-114427000D01*
X180193000Y-114427000D01*
X180193000Y-114173000D01*
X180213000Y-114173000D01*
X180213000Y-112979845D01*
X180467000Y-112979845D01*
X180467000Y-114173000D01*
X180487000Y-114173000D01*
X180487000Y-114427000D01*
X180467000Y-114427000D01*
X180467000Y-115620155D01*
X180696890Y-115741476D01*
X181106924Y-115571645D01*
X181535183Y-115181358D01*
X181596157Y-115051522D01*
X181809375Y-115370625D01*
X182300582Y-115698839D01*
X182733744Y-115785000D01*
X183026256Y-115785000D01*
X183459418Y-115698839D01*
X183950625Y-115370625D01*
X184278839Y-114879418D01*
X184394092Y-114300000D01*
X184278839Y-113720582D01*
X183950625Y-113229375D01*
X183459418Y-112901161D01*
X183026256Y-112815000D01*
X182733744Y-112815000D01*
X182300582Y-112901161D01*
X181809375Y-113229375D01*
X181596157Y-113548478D01*
X181535183Y-113418642D01*
X181106924Y-113028355D01*
X180696890Y-112858524D01*
X180467000Y-112979845D01*
X180213000Y-112979845D01*
X179983110Y-112858524D01*
X179573076Y-113028355D01*
X179144817Y-113418642D01*
X179083843Y-113548478D01*
X178870625Y-113229375D01*
X178379418Y-112901161D01*
X177946256Y-112815000D01*
X177653744Y-112815000D01*
X177220582Y-112901161D01*
X176729375Y-113229375D01*
X176530000Y-113527761D01*
X176330625Y-113229375D01*
X175839418Y-112901161D01*
X175406256Y-112815000D01*
X175113744Y-112815000D01*
X174680582Y-112901161D01*
X174189375Y-113229375D01*
X173990000Y-113527761D01*
X173790625Y-113229375D01*
X173299418Y-112901161D01*
X172866256Y-112815000D01*
X172573744Y-112815000D01*
X172140582Y-112901161D01*
X171649375Y-113229375D01*
X171450000Y-113527761D01*
X171250625Y-113229375D01*
X170759418Y-112901161D01*
X170326256Y-112815000D01*
X170033744Y-112815000D01*
X169600582Y-112901161D01*
X169294668Y-113105566D01*
X168779331Y-112590229D01*
X168736929Y-112526771D01*
X168485537Y-112358796D01*
X168263852Y-112314700D01*
X168263847Y-112314700D01*
X168189000Y-112299812D01*
X168114153Y-112314700D01*
X159202203Y-112314700D01*
X156867502Y-109980000D01*
X174925091Y-109980000D01*
X174993914Y-110146153D01*
X175453847Y-110606086D01*
X176054778Y-110855000D01*
X176705222Y-110855000D01*
X177306153Y-110606086D01*
X177766086Y-110146153D01*
X177834909Y-109980000D01*
X181425091Y-109980000D01*
X181493914Y-110146153D01*
X181953847Y-110606086D01*
X182554778Y-110855000D01*
X183205222Y-110855000D01*
X183806153Y-110606086D01*
X184266086Y-110146153D01*
X184515000Y-109545222D01*
X184515000Y-108894778D01*
X184266086Y-108293847D01*
X183806153Y-107833914D01*
X183205222Y-107585000D01*
X182554778Y-107585000D01*
X181953847Y-107833914D01*
X181493914Y-108293847D01*
X181425091Y-108460000D01*
X177834909Y-108460000D01*
X177766086Y-108293847D01*
X177306153Y-107833914D01*
X176705222Y-107585000D01*
X176054778Y-107585000D01*
X175453847Y-107833914D01*
X174993914Y-108293847D01*
X174925091Y-108460000D01*
X156524802Y-108460000D01*
X153937334Y-105872532D01*
X175407073Y-105872532D01*
X175505736Y-106139387D01*
X176115461Y-106365908D01*
X176765460Y-106341856D01*
X177254264Y-106139387D01*
X177352927Y-105872532D01*
X181907073Y-105872532D01*
X182005736Y-106139387D01*
X182615461Y-106365908D01*
X183265460Y-106341856D01*
X183754264Y-106139387D01*
X183852927Y-105872532D01*
X182880000Y-104899605D01*
X181907073Y-105872532D01*
X177352927Y-105872532D01*
X176380000Y-104899605D01*
X175407073Y-105872532D01*
X153937334Y-105872532D01*
X152520263Y-104455461D01*
X174734092Y-104455461D01*
X174758144Y-105105460D01*
X174960613Y-105594264D01*
X175227468Y-105692927D01*
X176200395Y-104720000D01*
X176559605Y-104720000D01*
X177532532Y-105692927D01*
X177799387Y-105594264D01*
X178025908Y-104984539D01*
X178006331Y-104455461D01*
X181234092Y-104455461D01*
X181258144Y-105105460D01*
X181460613Y-105594264D01*
X181727468Y-105692927D01*
X182700395Y-104720000D01*
X183059605Y-104720000D01*
X184032532Y-105692927D01*
X184299387Y-105594264D01*
X184525908Y-104984539D01*
X184501856Y-104334540D01*
X184299387Y-103845736D01*
X184032532Y-103747073D01*
X183059605Y-104720000D01*
X182700395Y-104720000D01*
X181727468Y-103747073D01*
X181460613Y-103845736D01*
X181234092Y-104455461D01*
X178006331Y-104455461D01*
X178001856Y-104334540D01*
X177799387Y-103845736D01*
X177532532Y-103747073D01*
X176559605Y-104720000D01*
X176200395Y-104720000D01*
X175227468Y-103747073D01*
X174960613Y-103845736D01*
X174734092Y-104455461D01*
X152520263Y-104455461D01*
X152469801Y-104405000D01*
X152705330Y-104405000D01*
X153269507Y-104171310D01*
X153701310Y-103739507D01*
X153772570Y-103567468D01*
X175407073Y-103567468D01*
X176380000Y-104540395D01*
X177352927Y-103567468D01*
X181907073Y-103567468D01*
X182880000Y-104540395D01*
X183852927Y-103567468D01*
X183754264Y-103300613D01*
X183144539Y-103074092D01*
X182494540Y-103098144D01*
X182005736Y-103300613D01*
X181907073Y-103567468D01*
X177352927Y-103567468D01*
X177254264Y-103300613D01*
X176644539Y-103074092D01*
X175994540Y-103098144D01*
X175505736Y-103300613D01*
X175407073Y-103567468D01*
X153772570Y-103567468D01*
X153935000Y-103175330D01*
X153935000Y-102564670D01*
X153701310Y-102000493D01*
X153269507Y-101568690D01*
X153265668Y-101567100D01*
X167564953Y-101567100D01*
X167639800Y-101581988D01*
X167714647Y-101567100D01*
X167714652Y-101567100D01*
X167936337Y-101523004D01*
X168187729Y-101355029D01*
X168230131Y-101291570D01*
X170636173Y-98885529D01*
X170699629Y-98843129D01*
X170867604Y-98591737D01*
X170911700Y-98370052D01*
X170911700Y-98370048D01*
X170926588Y-98295201D01*
X170911700Y-98220354D01*
X170911700Y-74003746D01*
X170926588Y-73928899D01*
X170911700Y-73854052D01*
X170911700Y-73854048D01*
X170867604Y-73632363D01*
X170699629Y-73380971D01*
X170636170Y-73338569D01*
X170517731Y-73220130D01*
X170475329Y-73156671D01*
X170223937Y-72988696D01*
X170002252Y-72944600D01*
X170002247Y-72944600D01*
X169927400Y-72929712D01*
X169852553Y-72944600D01*
X149795546Y-72944600D01*
X149720699Y-72929712D01*
X149645852Y-72944600D01*
X149645848Y-72944600D01*
X149424163Y-72988696D01*
X149424161Y-72988697D01*
X149424162Y-72988697D01*
X149236226Y-73114271D01*
X149236224Y-73114273D01*
X149172771Y-73156671D01*
X149130373Y-73220124D01*
X148394831Y-73955667D01*
X148354577Y-73895423D01*
X147879909Y-73578260D01*
X147461333Y-73495000D01*
X147178667Y-73495000D01*
X146760091Y-73578260D01*
X146285423Y-73895423D01*
X146106878Y-74162634D01*
X146069848Y-74170000D01*
X146022344Y-74179449D01*
X145996534Y-74117138D01*
X145592862Y-73713466D01*
X145065439Y-73495000D01*
X144494561Y-73495000D01*
X143967138Y-73713466D01*
X143563466Y-74117138D01*
X143345000Y-74644561D01*
X143345000Y-75215439D01*
X143438016Y-75440000D01*
X135981668Y-75440000D01*
X136083113Y-74930000D01*
X135971740Y-74370091D01*
X135654577Y-73895423D01*
X135179909Y-73578260D01*
X134761333Y-73495000D01*
X134478667Y-73495000D01*
X134060091Y-73578260D01*
X133585423Y-73895423D01*
X133401957Y-74170000D01*
X129814802Y-74170000D01*
X129643103Y-73998302D01*
X129665000Y-73945439D01*
X129665000Y-73374561D01*
X129446534Y-72847138D01*
X129042862Y-72443466D01*
X128515439Y-72225000D01*
X127944561Y-72225000D01*
X127417138Y-72443466D01*
X127013466Y-72847138D01*
X126986475Y-72912299D01*
X126983864Y-72905995D01*
X126737745Y-72831861D01*
X125909605Y-73660000D01*
X126737745Y-74488139D01*
X126983864Y-74414005D01*
X126986290Y-74407254D01*
X127013466Y-74472862D01*
X127417138Y-74876534D01*
X127546216Y-74930000D01*
X127417138Y-74983466D01*
X127013466Y-75387138D01*
X126986475Y-75452299D01*
X126983864Y-75445995D01*
X126737745Y-75371861D01*
X125909605Y-76200000D01*
X126737745Y-77028139D01*
X126983864Y-76954005D01*
X126986290Y-76947254D01*
X127013466Y-77012862D01*
X127417138Y-77416534D01*
X127944561Y-77635000D01*
X128515439Y-77635000D01*
X129042862Y-77416534D01*
X129446534Y-77012862D01*
X129468430Y-76960000D01*
X145167153Y-76960000D01*
X145242000Y-76974888D01*
X145316847Y-76960000D01*
X145316852Y-76960000D01*
X145538537Y-76915904D01*
X145789929Y-76747929D01*
X145832331Y-76684470D01*
X146445359Y-76071443D01*
X146760091Y-76281740D01*
X147178667Y-76365000D01*
X147461333Y-76365000D01*
X147879909Y-76281740D01*
X148354577Y-75964577D01*
X148533123Y-75697365D01*
X148570147Y-75690000D01*
X148570152Y-75690000D01*
X148791837Y-75645904D01*
X149043229Y-75477929D01*
X149085631Y-75414470D01*
X150035503Y-74464600D01*
X156119542Y-74464600D01*
X156045000Y-74644561D01*
X156045000Y-75215439D01*
X156066896Y-75268302D01*
X153310499Y-78024700D01*
X130795447Y-78024700D01*
X130720600Y-78009812D01*
X130645753Y-78024700D01*
X130645748Y-78024700D01*
X130424063Y-78068796D01*
X130172671Y-78236771D01*
X130130271Y-78300227D01*
X129638091Y-78792408D01*
X129577809Y-78702191D01*
X129367765Y-78561843D01*
X129120000Y-78512560D01*
X127420000Y-78512560D01*
X127172235Y-78561843D01*
X126962191Y-78702191D01*
X126821843Y-78912235D01*
X126801261Y-79015708D01*
X126496924Y-78738355D01*
X126086890Y-78568524D01*
X125857000Y-78689845D01*
X125857000Y-79883000D01*
X125877000Y-79883000D01*
X125877000Y-80137000D01*
X125857000Y-80137000D01*
X125857000Y-81330155D01*
X126086890Y-81451476D01*
X126496924Y-81281645D01*
X126801261Y-81004292D01*
X126821843Y-81107765D01*
X126962191Y-81317809D01*
X127172235Y-81458157D01*
X127420000Y-81507440D01*
X129120000Y-81507440D01*
X129367765Y-81458157D01*
X129577809Y-81317809D01*
X129718157Y-81107765D01*
X129767440Y-80860000D01*
X129767440Y-80730757D01*
X129791837Y-80725904D01*
X130043229Y-80557929D01*
X130085631Y-80494470D01*
X130213209Y-80366892D01*
X136988514Y-80366892D01*
X137234817Y-80891358D01*
X137663076Y-81281645D01*
X138073110Y-81451476D01*
X138303000Y-81330155D01*
X138303000Y-80137000D01*
X137109181Y-80137000D01*
X136988514Y-80366892D01*
X130213209Y-80366892D01*
X131035402Y-79544700D01*
X137039425Y-79544700D01*
X136988514Y-79653108D01*
X137109181Y-79883000D01*
X138303000Y-79883000D01*
X138303000Y-79863000D01*
X138557000Y-79863000D01*
X138557000Y-79883000D01*
X138577000Y-79883000D01*
X138577000Y-80137000D01*
X138557000Y-80137000D01*
X138557000Y-81330155D01*
X138786890Y-81451476D01*
X139196924Y-81281645D01*
X139501261Y-81004292D01*
X139521843Y-81107765D01*
X139662191Y-81317809D01*
X139872235Y-81458157D01*
X140120000Y-81507440D01*
X141820000Y-81507440D01*
X142067765Y-81458157D01*
X142277809Y-81317809D01*
X142418157Y-81107765D01*
X142467440Y-80860000D01*
X142467440Y-80366892D01*
X149688514Y-80366892D01*
X149934817Y-80891358D01*
X150363076Y-81281645D01*
X150773110Y-81451476D01*
X151003000Y-81330155D01*
X151003000Y-80137000D01*
X149809181Y-80137000D01*
X149688514Y-80366892D01*
X142467440Y-80366892D01*
X142467440Y-79544700D01*
X149739425Y-79544700D01*
X149688514Y-79653108D01*
X149809181Y-79883000D01*
X151003000Y-79883000D01*
X151003000Y-79863000D01*
X151257000Y-79863000D01*
X151257000Y-79883000D01*
X151277000Y-79883000D01*
X151277000Y-80137000D01*
X151257000Y-80137000D01*
X151257000Y-81330155D01*
X151486890Y-81451476D01*
X151896924Y-81281645D01*
X152201261Y-81004292D01*
X152221843Y-81107765D01*
X152362191Y-81317809D01*
X152572235Y-81458157D01*
X152820000Y-81507440D01*
X154520000Y-81507440D01*
X154767765Y-81458157D01*
X154977809Y-81317809D01*
X155118157Y-81107765D01*
X155167440Y-80860000D01*
X155167440Y-79160000D01*
X155118157Y-78912235D01*
X154977809Y-78702191D01*
X154860796Y-78624005D01*
X157141698Y-76343104D01*
X157194561Y-76365000D01*
X157765439Y-76365000D01*
X158292862Y-76146534D01*
X158696534Y-75742862D01*
X158915000Y-75215439D01*
X158915000Y-74644561D01*
X158840458Y-74464600D01*
X164979472Y-74464600D01*
X164928514Y-74573108D01*
X165049181Y-74803000D01*
X166243000Y-74803000D01*
X166243000Y-74783000D01*
X166497000Y-74783000D01*
X166497000Y-74803000D01*
X166517000Y-74803000D01*
X166517000Y-75057000D01*
X166497000Y-75057000D01*
X166497000Y-75077000D01*
X166243000Y-75077000D01*
X166243000Y-75057000D01*
X165049181Y-75057000D01*
X164928514Y-75286892D01*
X165174817Y-75811358D01*
X165603076Y-76201645D01*
X165731119Y-76254679D01*
X157697199Y-84288600D01*
X127116247Y-84288600D01*
X127041400Y-84273712D01*
X126966553Y-84288600D01*
X126966548Y-84288600D01*
X126744863Y-84332696D01*
X126493471Y-84500671D01*
X126451071Y-84564127D01*
X124874839Y-86140360D01*
X124765330Y-86095000D01*
X124154670Y-86095000D01*
X123590493Y-86328690D01*
X123158690Y-86760493D01*
X122925000Y-87324670D01*
X122925000Y-87630909D01*
X121360000Y-86065910D01*
X121360000Y-80366892D01*
X124288514Y-80366892D01*
X124534817Y-80891358D01*
X124963076Y-81281645D01*
X125373110Y-81451476D01*
X125603000Y-81330155D01*
X125603000Y-80137000D01*
X124409181Y-80137000D01*
X124288514Y-80366892D01*
X121360000Y-80366892D01*
X121360000Y-79653108D01*
X124288514Y-79653108D01*
X124409181Y-79883000D01*
X125603000Y-79883000D01*
X125603000Y-78689845D01*
X125373110Y-78568524D01*
X124963076Y-78738355D01*
X124534817Y-79128642D01*
X124288514Y-79653108D01*
X121360000Y-79653108D01*
X121360000Y-77207745D01*
X124901861Y-77207745D01*
X124975995Y-77453864D01*
X125513223Y-77646965D01*
X126083454Y-77619778D01*
X126484005Y-77453864D01*
X126558139Y-77207745D01*
X125730000Y-76379605D01*
X124901861Y-77207745D01*
X121360000Y-77207745D01*
X121360000Y-75983223D01*
X124283035Y-75983223D01*
X124310222Y-76553454D01*
X124476136Y-76954005D01*
X124722255Y-77028139D01*
X125550395Y-76200000D01*
X124722255Y-75371861D01*
X124476136Y-75445995D01*
X124283035Y-75983223D01*
X121360000Y-75983223D01*
X121360000Y-74667745D01*
X124901861Y-74667745D01*
X124975995Y-74913864D01*
X125017709Y-74928858D01*
X124975995Y-74946136D01*
X124901861Y-75192255D01*
X125730000Y-76020395D01*
X126558139Y-75192255D01*
X126484005Y-74946136D01*
X126442291Y-74931142D01*
X126484005Y-74913864D01*
X126558139Y-74667745D01*
X125730000Y-73839605D01*
X124901861Y-74667745D01*
X121360000Y-74667745D01*
X121360000Y-73443223D01*
X124283035Y-73443223D01*
X124310222Y-74013454D01*
X124476136Y-74414005D01*
X124722255Y-74488139D01*
X125550395Y-73660000D01*
X124722255Y-72831861D01*
X124476136Y-72905995D01*
X124283035Y-73443223D01*
X121360000Y-73443223D01*
X121360000Y-72652255D01*
X124901861Y-72652255D01*
X125730000Y-73480395D01*
X126558139Y-72652255D01*
X126484005Y-72406136D01*
X125946777Y-72213035D01*
X125376546Y-72240222D01*
X124975995Y-72406136D01*
X124901861Y-72652255D01*
X121360000Y-72652255D01*
X121360000Y-67730000D01*
X124232560Y-67730000D01*
X124232560Y-69430000D01*
X124281843Y-69677765D01*
X124422191Y-69887809D01*
X124632235Y-70028157D01*
X124880000Y-70077440D01*
X126580000Y-70077440D01*
X126827765Y-70028157D01*
X127037809Y-69887809D01*
X127178157Y-69677765D01*
X127198739Y-69574292D01*
X127503076Y-69851645D01*
X127913110Y-70021476D01*
X128143000Y-69900155D01*
X128143000Y-68707000D01*
X128123000Y-68707000D01*
X128123000Y-68453000D01*
X128143000Y-68453000D01*
X128143000Y-67259845D01*
X128397000Y-67259845D01*
X128397000Y-68453000D01*
X128417000Y-68453000D01*
X128417000Y-68707000D01*
X128397000Y-68707000D01*
X128397000Y-69900155D01*
X128626890Y-70021476D01*
X129036924Y-69851645D01*
X129465183Y-69461358D01*
X129526157Y-69331522D01*
X129739375Y-69650625D01*
X130230582Y-69978839D01*
X130663744Y-70065000D01*
X130956256Y-70065000D01*
X131389418Y-69978839D01*
X131880625Y-69650625D01*
X132080000Y-69352239D01*
X132279375Y-69650625D01*
X132770582Y-69978839D01*
X133203744Y-70065000D01*
X133496256Y-70065000D01*
X133929418Y-69978839D01*
X134420625Y-69650625D01*
X134480906Y-69560408D01*
X135210373Y-70289876D01*
X135252771Y-70353329D01*
X135316224Y-70395727D01*
X135316226Y-70395729D01*
X135441602Y-70479502D01*
X135504163Y-70521304D01*
X135725848Y-70565400D01*
X135725852Y-70565400D01*
X135800699Y-70580288D01*
X135875546Y-70565400D01*
X151603953Y-70565400D01*
X151678800Y-70580288D01*
X151753647Y-70565400D01*
X151753652Y-70565400D01*
X151975337Y-70521304D01*
X152226729Y-70353329D01*
X152269131Y-70289870D01*
X152784608Y-69774394D01*
X153090582Y-69978839D01*
X153523744Y-70065000D01*
X153816256Y-70065000D01*
X154249418Y-69978839D01*
X154740625Y-69650625D01*
X154800906Y-69560408D01*
X155530373Y-70289876D01*
X155572771Y-70353329D01*
X155636224Y-70395727D01*
X155636226Y-70395729D01*
X155761602Y-70479502D01*
X155824163Y-70521304D01*
X156045848Y-70565400D01*
X156045852Y-70565400D01*
X156120699Y-70580288D01*
X156195546Y-70565400D01*
X171923953Y-70565400D01*
X171998800Y-70580288D01*
X172073647Y-70565400D01*
X172073652Y-70565400D01*
X172295337Y-70521304D01*
X172546729Y-70353329D01*
X172589131Y-70289870D01*
X173104608Y-69774394D01*
X173410582Y-69978839D01*
X173843744Y-70065000D01*
X174136256Y-70065000D01*
X174569418Y-69978839D01*
X175060625Y-69650625D01*
X175388839Y-69159418D01*
X175504092Y-68580000D01*
X175435445Y-68234887D01*
X181145000Y-68234887D01*
X181145000Y-68925113D01*
X181409138Y-69562799D01*
X181897201Y-70050862D01*
X182534887Y-70315000D01*
X183225113Y-70315000D01*
X183862799Y-70050862D01*
X184350862Y-69562799D01*
X184615000Y-68925113D01*
X184615000Y-68234887D01*
X184350862Y-67597201D01*
X183862799Y-67109138D01*
X183225113Y-66845000D01*
X182534887Y-66845000D01*
X181897201Y-67109138D01*
X181409138Y-67597201D01*
X181145000Y-68234887D01*
X175435445Y-68234887D01*
X175388839Y-68000582D01*
X175060625Y-67509375D01*
X174569418Y-67181161D01*
X174136256Y-67095000D01*
X173843744Y-67095000D01*
X173410582Y-67181161D01*
X172919375Y-67509375D01*
X172720000Y-67807761D01*
X172520625Y-67509375D01*
X172029418Y-67181161D01*
X171596256Y-67095000D01*
X171303744Y-67095000D01*
X170870582Y-67181161D01*
X170379375Y-67509375D01*
X170166157Y-67828478D01*
X170105183Y-67698642D01*
X169676924Y-67308355D01*
X169266890Y-67138524D01*
X169037000Y-67259845D01*
X169037000Y-68453000D01*
X169057000Y-68453000D01*
X169057000Y-68707000D01*
X169037000Y-68707000D01*
X169037000Y-68727000D01*
X168783000Y-68727000D01*
X168783000Y-68707000D01*
X168763000Y-68707000D01*
X168763000Y-68453000D01*
X168783000Y-68453000D01*
X168783000Y-67259845D01*
X168553110Y-67138524D01*
X168143076Y-67308355D01*
X167838739Y-67585708D01*
X167818157Y-67482235D01*
X167677809Y-67272191D01*
X167467765Y-67131843D01*
X167220000Y-67082560D01*
X165520000Y-67082560D01*
X165272235Y-67131843D01*
X165062191Y-67272191D01*
X165001909Y-67362408D01*
X164509731Y-66870230D01*
X164467329Y-66806771D01*
X164215937Y-66638796D01*
X163994252Y-66594700D01*
X163994247Y-66594700D01*
X163919400Y-66579812D01*
X163844553Y-66594700D01*
X148115846Y-66594700D01*
X148040999Y-66579812D01*
X147966152Y-66594700D01*
X147966148Y-66594700D01*
X147744463Y-66638796D01*
X147744461Y-66638797D01*
X147744462Y-66638797D01*
X147556526Y-66764371D01*
X147556524Y-66764373D01*
X147493071Y-66806771D01*
X147450673Y-66870225D01*
X147172516Y-67148381D01*
X147147765Y-67131843D01*
X146900000Y-67082560D01*
X145200000Y-67082560D01*
X144952235Y-67131843D01*
X144742191Y-67272191D01*
X144601843Y-67482235D01*
X144552560Y-67730000D01*
X144552560Y-69045400D01*
X136115503Y-69045400D01*
X135165631Y-68095530D01*
X135123229Y-68032071D01*
X134871837Y-67864096D01*
X134650152Y-67820000D01*
X134650147Y-67820000D01*
X134624811Y-67814960D01*
X134420625Y-67509375D01*
X133929418Y-67181161D01*
X133496256Y-67095000D01*
X133203744Y-67095000D01*
X132770582Y-67181161D01*
X132279375Y-67509375D01*
X132080000Y-67807761D01*
X131880625Y-67509375D01*
X131389418Y-67181161D01*
X130956256Y-67095000D01*
X130663744Y-67095000D01*
X130230582Y-67181161D01*
X129739375Y-67509375D01*
X129526157Y-67828478D01*
X129465183Y-67698642D01*
X129036924Y-67308355D01*
X128626890Y-67138524D01*
X128397000Y-67259845D01*
X128143000Y-67259845D01*
X127913110Y-67138524D01*
X127503076Y-67308355D01*
X127198739Y-67585708D01*
X127178157Y-67482235D01*
X127037809Y-67272191D01*
X126827765Y-67131843D01*
X126580000Y-67082560D01*
X124880000Y-67082560D01*
X124632235Y-67131843D01*
X124422191Y-67272191D01*
X124281843Y-67482235D01*
X124232560Y-67730000D01*
X121360000Y-67730000D01*
X121360000Y-65505000D01*
X185980001Y-65505000D01*
X185980000Y-88461196D01*
X185980000Y-88461196D01*
G37*
X185980000Y-88461196D02*
X183917861Y-89492266D01*
X183872972Y-89501195D01*
X183792611Y-89554891D01*
X183769935Y-89566229D01*
X183734596Y-89593656D01*
X183638119Y-89658120D01*
X183623669Y-89679746D01*
X183603120Y-89695694D01*
X183545658Y-89796498D01*
X183481195Y-89892973D01*
X183476121Y-89918484D01*
X183463240Y-89941080D01*
X183448728Y-90056198D01*
X183440000Y-90100075D01*
X183440000Y-90125430D01*
X183427912Y-90221317D01*
X183440000Y-90265457D01*
X183440001Y-96424539D01*
X183427912Y-96468683D01*
X183440001Y-96564578D01*
X183440001Y-96589926D01*
X183448726Y-96633791D01*
X183463240Y-96748920D01*
X183476122Y-96771518D01*
X183481196Y-96797028D01*
X183545656Y-96893498D01*
X183603120Y-96994306D01*
X183623670Y-97010255D01*
X183638120Y-97031881D01*
X183734595Y-97096344D01*
X183769935Y-97123771D01*
X183792613Y-97135110D01*
X183872973Y-97188805D01*
X183917860Y-97197734D01*
X185980000Y-98228804D01*
X185980001Y-117400000D01*
X148589306Y-117400000D01*
X148449514Y-117399854D01*
X148383271Y-117427212D01*
X148312972Y-117441195D01*
X148196200Y-117519220D01*
X144602530Y-119915000D01*
X121360000Y-119915000D01*
X121360000Y-117125750D01*
X122975000Y-117125750D01*
X122975000Y-117816310D01*
X123071673Y-118049699D01*
X123250302Y-118228327D01*
X123483691Y-118325000D01*
X124174250Y-118325000D01*
X124333000Y-118166250D01*
X124333000Y-116967000D01*
X124587000Y-116967000D01*
X124587000Y-118166250D01*
X124745750Y-118325000D01*
X125436309Y-118325000D01*
X125669698Y-118228327D01*
X125848327Y-118049699D01*
X125945000Y-117816310D01*
X125945000Y-117125750D01*
X125786250Y-116967000D01*
X124587000Y-116967000D01*
X124333000Y-116967000D01*
X123133750Y-116967000D01*
X122975000Y-117125750D01*
X121360000Y-117125750D01*
X121360000Y-104434090D01*
X122394300Y-103399790D01*
X122394301Y-106614148D01*
X122379412Y-106689000D01*
X122394301Y-106763852D01*
X122438397Y-106985537D01*
X122606372Y-107236929D01*
X122669828Y-107279329D01*
X123479592Y-108089094D01*
X123389375Y-108149375D01*
X123061161Y-108640582D01*
X122945908Y-109220000D01*
X123061161Y-109799418D01*
X123389375Y-110290625D01*
X123687761Y-110490000D01*
X123389375Y-110689375D01*
X123061161Y-111180582D01*
X122945908Y-111760000D01*
X123061161Y-112339418D01*
X123389375Y-112830625D01*
X123687761Y-113030000D01*
X123389375Y-113229375D01*
X123061161Y-113720582D01*
X122945908Y-114300000D01*
X123061161Y-114879418D01*
X123389375Y-115370625D01*
X123411033Y-115385096D01*
X123250302Y-115451673D01*
X123071673Y-115630301D01*
X122975000Y-115863690D01*
X122975000Y-116554250D01*
X123133750Y-116713000D01*
X124333000Y-116713000D01*
X124333000Y-116693000D01*
X124587000Y-116693000D01*
X124587000Y-116713000D01*
X125786250Y-116713000D01*
X125945000Y-116554250D01*
X125945000Y-116494887D01*
X129075000Y-116494887D01*
X129075000Y-117185113D01*
X129339138Y-117822799D01*
X129827201Y-118310862D01*
X130464887Y-118575000D01*
X131155113Y-118575000D01*
X131792799Y-118310862D01*
X132280862Y-117822799D01*
X132545000Y-117185113D01*
X132545000Y-116494887D01*
X132280862Y-115857201D01*
X131792799Y-115369138D01*
X131155113Y-115105000D01*
X130464887Y-115105000D01*
X129827201Y-115369138D01*
X129339138Y-115857201D01*
X129075000Y-116494887D01*
X125945000Y-116494887D01*
X125945000Y-115863690D01*
X125848327Y-115630301D01*
X125669698Y-115451673D01*
X125508967Y-115385096D01*
X125530625Y-115370625D01*
X125738178Y-115060000D01*
X134651570Y-115060000D01*
X134673466Y-115112862D01*
X135077138Y-115516534D01*
X135604561Y-115735000D01*
X136175439Y-115735000D01*
X136702862Y-115516534D01*
X137106534Y-115112862D01*
X137140000Y-115032068D01*
X137173466Y-115112862D01*
X137577138Y-115516534D01*
X138104561Y-115735000D01*
X138675439Y-115735000D01*
X139202862Y-115516534D01*
X139606534Y-115112862D01*
X139825000Y-114585439D01*
X139825000Y-114014561D01*
X139606534Y-113487138D01*
X139202862Y-113083466D01*
X138675439Y-112865000D01*
X138104561Y-112865000D01*
X137577138Y-113083466D01*
X137173466Y-113487138D01*
X137140000Y-113567932D01*
X137106534Y-113487138D01*
X136702862Y-113083466D01*
X136175439Y-112865000D01*
X135604561Y-112865000D01*
X135077138Y-113083466D01*
X134673466Y-113487138D01*
X134651570Y-113540000D01*
X125738178Y-113540000D01*
X125530625Y-113229375D01*
X125232239Y-113030000D01*
X125530625Y-112830625D01*
X125738178Y-112520000D01*
X139385199Y-112520000D01*
X141042560Y-114177362D01*
X141042560Y-114525000D01*
X141112777Y-114878003D01*
X141312736Y-115177264D01*
X141611997Y-115377223D01*
X141965000Y-115447440D01*
X142312560Y-115447440D01*
X142312560Y-116595000D01*
X142382777Y-116948003D01*
X142582736Y-117247264D01*
X142881997Y-117447223D01*
X143235000Y-117517440D01*
X143785000Y-117517440D01*
X144138003Y-117447223D01*
X144437264Y-117247264D01*
X144637223Y-116948003D01*
X144707440Y-116595000D01*
X144707440Y-115345000D01*
X144653000Y-115071313D01*
X144653000Y-114027000D01*
X144907000Y-114027000D01*
X144907000Y-115276250D01*
X145065750Y-115435000D01*
X145456309Y-115435000D01*
X145689698Y-115338327D01*
X145868327Y-115159699D01*
X145965000Y-114926310D01*
X145965000Y-114185750D01*
X145806250Y-114027000D01*
X144907000Y-114027000D01*
X144653000Y-114027000D01*
X143753750Y-114027000D01*
X143595000Y-114185750D01*
X143595000Y-114422560D01*
X143437440Y-114422560D01*
X143437440Y-113275000D01*
X143367223Y-112921997D01*
X143334946Y-112873690D01*
X143595000Y-112873690D01*
X143595000Y-113614250D01*
X143753750Y-113773000D01*
X144653000Y-113773000D01*
X144653000Y-112523750D01*
X144907000Y-112523750D01*
X144907000Y-113773000D01*
X145806250Y-113773000D01*
X145965000Y-113614250D01*
X145965000Y-112873690D01*
X145868327Y-112640301D01*
X145689698Y-112461673D01*
X145456309Y-112365000D01*
X145065750Y-112365000D01*
X144907000Y-112523750D01*
X144653000Y-112523750D01*
X144494250Y-112365000D01*
X144103691Y-112365000D01*
X143870302Y-112461673D01*
X143691673Y-112640301D01*
X143595000Y-112873690D01*
X143334946Y-112873690D01*
X143167264Y-112622736D01*
X142868003Y-112422777D01*
X142515000Y-112352560D01*
X141965000Y-112352560D01*
X141611997Y-112422777D01*
X141507441Y-112492639D01*
X140290331Y-111275530D01*
X140247929Y-111212071D01*
X139996537Y-111044096D01*
X139774852Y-111000000D01*
X139774847Y-111000000D01*
X139700000Y-110985112D01*
X139625153Y-111000000D01*
X125738178Y-111000000D01*
X125530625Y-110689375D01*
X125232239Y-110490000D01*
X125530625Y-110290625D01*
X125858839Y-109799418D01*
X125974092Y-109220000D01*
X125917315Y-108934561D01*
X126835000Y-108934561D01*
X126835000Y-109505439D01*
X127053466Y-110032862D01*
X127457138Y-110436534D01*
X127984561Y-110655000D01*
X128555439Y-110655000D01*
X129082862Y-110436534D01*
X129486534Y-110032862D01*
X129705000Y-109505439D01*
X129705000Y-109220000D01*
X136966887Y-109220000D01*
X137078260Y-109779909D01*
X137395423Y-110254577D01*
X137870091Y-110571740D01*
X138288667Y-110655000D01*
X138571333Y-110655000D01*
X138989909Y-110571740D01*
X139464577Y-110254577D01*
X139781740Y-109779909D01*
X139893113Y-109220000D01*
X139781740Y-108660091D01*
X139464577Y-108185423D01*
X138989909Y-107868260D01*
X138571333Y-107785000D01*
X138288667Y-107785000D01*
X137870091Y-107868260D01*
X137395423Y-108185423D01*
X137078260Y-108660091D01*
X136966887Y-109220000D01*
X129705000Y-109220000D01*
X129705000Y-108934561D01*
X129486534Y-108407138D01*
X129082862Y-108003466D01*
X128555439Y-107785000D01*
X127984561Y-107785000D01*
X127457138Y-108003466D01*
X127053466Y-108407138D01*
X126835000Y-108934561D01*
X125917315Y-108934561D01*
X125858839Y-108640582D01*
X125530625Y-108149375D01*
X125225040Y-107945190D01*
X125220000Y-107919852D01*
X125220000Y-107919848D01*
X125175904Y-107698163D01*
X125175904Y-107698162D01*
X125050329Y-107510227D01*
X125007929Y-107446771D01*
X124944473Y-107404371D01*
X123914300Y-106374199D01*
X123914300Y-104305435D01*
X124154670Y-104405000D01*
X124765330Y-104405000D01*
X125329507Y-104171310D01*
X125730000Y-103770817D01*
X126130493Y-104171310D01*
X126694670Y-104405000D01*
X127305330Y-104405000D01*
X127869507Y-104171310D01*
X128270000Y-103770817D01*
X128670493Y-104171310D01*
X129234670Y-104405000D01*
X129845330Y-104405000D01*
X130409507Y-104171310D01*
X130630658Y-103950159D01*
X131179446Y-103950159D01*
X131265852Y-104206643D01*
X131839336Y-104416458D01*
X132449460Y-104390839D01*
X132894148Y-104206643D01*
X132980554Y-103950159D01*
X132080000Y-103049605D01*
X131179446Y-103950159D01*
X130630658Y-103950159D01*
X130841310Y-103739507D01*
X130849438Y-103719885D01*
X130999841Y-103770554D01*
X131900395Y-102870000D01*
X130999841Y-101969446D01*
X130849438Y-102020115D01*
X130841310Y-102000493D01*
X130630658Y-101789841D01*
X131179446Y-101789841D01*
X132080000Y-102690395D01*
X132980554Y-101789841D01*
X132894148Y-101533357D01*
X132320664Y-101323542D01*
X131710540Y-101349161D01*
X131265852Y-101533357D01*
X131179446Y-101789841D01*
X130630658Y-101789841D01*
X130409507Y-101568690D01*
X129845330Y-101335000D01*
X129234670Y-101335000D01*
X128670493Y-101568690D01*
X128270000Y-101969183D01*
X127869507Y-101568690D01*
X127305330Y-101335000D01*
X126694670Y-101335000D01*
X126130493Y-101568690D01*
X125730000Y-101969183D01*
X125329507Y-101568690D01*
X124996418Y-101430720D01*
X125007929Y-101423029D01*
X125074404Y-101323542D01*
X125175904Y-101171638D01*
X125189430Y-101103637D01*
X125220000Y-100949952D01*
X125220000Y-100949948D01*
X125234888Y-100875100D01*
X125220000Y-100800252D01*
X125220000Y-88976669D01*
X125329507Y-88931310D01*
X125550658Y-88710159D01*
X126099446Y-88710159D01*
X126185852Y-88966643D01*
X126759336Y-89176458D01*
X127369460Y-89150839D01*
X127814148Y-88966643D01*
X127900554Y-88710159D01*
X127000000Y-87809605D01*
X126099446Y-88710159D01*
X125550658Y-88710159D01*
X125761310Y-88499507D01*
X125769438Y-88479885D01*
X125919841Y-88530554D01*
X126820395Y-87630000D01*
X126806253Y-87615858D01*
X126985858Y-87436253D01*
X127000000Y-87450395D01*
X127900554Y-86549841D01*
X127814148Y-86293357D01*
X127240664Y-86083542D01*
X127074273Y-86090529D01*
X127356202Y-85808600D01*
X145519919Y-85808600D01*
X145506473Y-85828724D01*
X145194838Y-86140360D01*
X145085330Y-86095000D01*
X144474670Y-86095000D01*
X143910493Y-86328690D01*
X143510000Y-86729183D01*
X143109507Y-86328690D01*
X142545330Y-86095000D01*
X141934670Y-86095000D01*
X141370493Y-86328690D01*
X140970000Y-86729183D01*
X140569507Y-86328690D01*
X140005330Y-86095000D01*
X139394670Y-86095000D01*
X138830493Y-86328690D01*
X138430000Y-86729183D01*
X138029507Y-86328690D01*
X137465330Y-86095000D01*
X136854670Y-86095000D01*
X136290493Y-86328690D01*
X135890000Y-86729183D01*
X135489507Y-86328690D01*
X134925330Y-86095000D01*
X134314670Y-86095000D01*
X133750493Y-86328690D01*
X133350000Y-86729183D01*
X132949507Y-86328690D01*
X132385330Y-86095000D01*
X131774670Y-86095000D01*
X131210493Y-86328690D01*
X130810000Y-86729183D01*
X130409507Y-86328690D01*
X129845330Y-86095000D01*
X129234670Y-86095000D01*
X128670493Y-86328690D01*
X128238690Y-86760493D01*
X128230562Y-86780115D01*
X128080159Y-86729446D01*
X127179605Y-87630000D01*
X128080159Y-88530554D01*
X128230562Y-88479885D01*
X128238690Y-88499507D01*
X128670493Y-88931310D01*
X129234670Y-89165000D01*
X129456599Y-89165000D01*
X136026071Y-95734473D01*
X136068471Y-95797929D01*
X136131927Y-95840329D01*
X136319862Y-95965904D01*
X136356140Y-95973120D01*
X136541548Y-96010000D01*
X136541552Y-96010000D01*
X136616400Y-96024888D01*
X136691248Y-96010000D01*
X158741822Y-96010000D01*
X158893499Y-96237000D01*
X140567846Y-96237000D01*
X140492999Y-96222112D01*
X140418152Y-96237000D01*
X140418148Y-96237000D01*
X140196463Y-96281096D01*
X139945071Y-96449071D01*
X139902671Y-96512527D01*
X135034839Y-101380360D01*
X134925330Y-101335000D01*
X134314670Y-101335000D01*
X133750493Y-101568690D01*
X133318690Y-102000493D01*
X133310562Y-102020115D01*
X133160159Y-101969446D01*
X132259605Y-102870000D01*
X133160159Y-103770554D01*
X133310562Y-103719885D01*
X133318690Y-103739507D01*
X133750493Y-104171310D01*
X134314670Y-104405000D01*
X134925330Y-104405000D01*
X135489507Y-104171310D01*
X135890000Y-103770817D01*
X136290493Y-104171310D01*
X136854670Y-104405000D01*
X137465330Y-104405000D01*
X138029507Y-104171310D01*
X138076208Y-104124609D01*
X141800438Y-107848840D01*
X141427138Y-108003466D01*
X141023466Y-108407138D01*
X140805000Y-108934561D01*
X140805000Y-109505439D01*
X141023466Y-110032862D01*
X141427138Y-110436534D01*
X141954561Y-110655000D01*
X142525439Y-110655000D01*
X143052862Y-110436534D01*
X143456534Y-110032862D01*
X143611160Y-109659562D01*
X149961473Y-116009876D01*
X150003871Y-116073329D01*
X150067324Y-116115727D01*
X150067326Y-116115729D01*
X150192702Y-116199502D01*
X150255263Y-116241304D01*
X150476948Y-116285400D01*
X150476952Y-116285400D01*
X150551799Y-116300288D01*
X150626646Y-116285400D01*
X163033953Y-116285400D01*
X163108800Y-116300288D01*
X163183647Y-116285400D01*
X163183652Y-116285400D01*
X163405337Y-116241304D01*
X163656729Y-116073329D01*
X163699131Y-116009870D01*
X164214608Y-115494394D01*
X164520582Y-115698839D01*
X164953744Y-115785000D01*
X165246256Y-115785000D01*
X165679418Y-115698839D01*
X166170625Y-115370625D01*
X166383843Y-115051522D01*
X166444817Y-115181358D01*
X166873076Y-115571645D01*
X167283110Y-115741476D01*
X167513000Y-115620155D01*
X167513000Y-114427000D01*
X167493000Y-114427000D01*
X167493000Y-114173000D01*
X167513000Y-114173000D01*
X167513000Y-114153000D01*
X167767000Y-114153000D01*
X167767000Y-114173000D01*
X167787000Y-114173000D01*
X167787000Y-114427000D01*
X167767000Y-114427000D01*
X167767000Y-115620155D01*
X167996890Y-115741476D01*
X168406924Y-115571645D01*
X168835183Y-115181358D01*
X168891123Y-115062243D01*
X168905190Y-115065041D01*
X169109375Y-115370625D01*
X169600582Y-115698839D01*
X170033744Y-115785000D01*
X170326256Y-115785000D01*
X170759418Y-115698839D01*
X171250625Y-115370625D01*
X171450000Y-115072239D01*
X171649375Y-115370625D01*
X172140582Y-115698839D01*
X172573744Y-115785000D01*
X172866256Y-115785000D01*
X173299418Y-115698839D01*
X173790625Y-115370625D01*
X173990000Y-115072239D01*
X174189375Y-115370625D01*
X174680582Y-115698839D01*
X175113744Y-115785000D01*
X175406256Y-115785000D01*
X175839418Y-115698839D01*
X176330625Y-115370625D01*
X176530000Y-115072239D01*
X176729375Y-115370625D01*
X177220582Y-115698839D01*
X177653744Y-115785000D01*
X177946256Y-115785000D01*
X178379418Y-115698839D01*
X178870625Y-115370625D01*
X179083843Y-115051522D01*
X179144817Y-115181358D01*
X179573076Y-115571645D01*
X179983110Y-115741476D01*
X180213000Y-115620155D01*
X180213000Y-114427000D01*
X180193000Y-114427000D01*
X180193000Y-114173000D01*
X180213000Y-114173000D01*
X180213000Y-112979845D01*
X180467000Y-112979845D01*
X180467000Y-114173000D01*
X180487000Y-114173000D01*
X180487000Y-114427000D01*
X180467000Y-114427000D01*
X180467000Y-115620155D01*
X180696890Y-115741476D01*
X181106924Y-115571645D01*
X181535183Y-115181358D01*
X181596157Y-115051522D01*
X181809375Y-115370625D01*
X182300582Y-115698839D01*
X182733744Y-115785000D01*
X183026256Y-115785000D01*
X183459418Y-115698839D01*
X183950625Y-115370625D01*
X184278839Y-114879418D01*
X184394092Y-114300000D01*
X184278839Y-113720582D01*
X183950625Y-113229375D01*
X183459418Y-112901161D01*
X183026256Y-112815000D01*
X182733744Y-112815000D01*
X182300582Y-112901161D01*
X181809375Y-113229375D01*
X181596157Y-113548478D01*
X181535183Y-113418642D01*
X181106924Y-113028355D01*
X180696890Y-112858524D01*
X180467000Y-112979845D01*
X180213000Y-112979845D01*
X179983110Y-112858524D01*
X179573076Y-113028355D01*
X179144817Y-113418642D01*
X179083843Y-113548478D01*
X178870625Y-113229375D01*
X178379418Y-112901161D01*
X177946256Y-112815000D01*
X177653744Y-112815000D01*
X177220582Y-112901161D01*
X176729375Y-113229375D01*
X176530000Y-113527761D01*
X176330625Y-113229375D01*
X175839418Y-112901161D01*
X175406256Y-112815000D01*
X175113744Y-112815000D01*
X174680582Y-112901161D01*
X174189375Y-113229375D01*
X173990000Y-113527761D01*
X173790625Y-113229375D01*
X173299418Y-112901161D01*
X172866256Y-112815000D01*
X172573744Y-112815000D01*
X172140582Y-112901161D01*
X171649375Y-113229375D01*
X171450000Y-113527761D01*
X171250625Y-113229375D01*
X170759418Y-112901161D01*
X170326256Y-112815000D01*
X170033744Y-112815000D01*
X169600582Y-112901161D01*
X169294668Y-113105566D01*
X168779331Y-112590229D01*
X168736929Y-112526771D01*
X168485537Y-112358796D01*
X168263852Y-112314700D01*
X168263847Y-112314700D01*
X168189000Y-112299812D01*
X168114153Y-112314700D01*
X159202203Y-112314700D01*
X156867502Y-109980000D01*
X174925091Y-109980000D01*
X174993914Y-110146153D01*
X175453847Y-110606086D01*
X176054778Y-110855000D01*
X176705222Y-110855000D01*
X177306153Y-110606086D01*
X177766086Y-110146153D01*
X177834909Y-109980000D01*
X181425091Y-109980000D01*
X181493914Y-110146153D01*
X181953847Y-110606086D01*
X182554778Y-110855000D01*
X183205222Y-110855000D01*
X183806153Y-110606086D01*
X184266086Y-110146153D01*
X184515000Y-109545222D01*
X184515000Y-108894778D01*
X184266086Y-108293847D01*
X183806153Y-107833914D01*
X183205222Y-107585000D01*
X182554778Y-107585000D01*
X181953847Y-107833914D01*
X181493914Y-108293847D01*
X181425091Y-108460000D01*
X177834909Y-108460000D01*
X177766086Y-108293847D01*
X177306153Y-107833914D01*
X176705222Y-107585000D01*
X176054778Y-107585000D01*
X175453847Y-107833914D01*
X174993914Y-108293847D01*
X174925091Y-108460000D01*
X156524802Y-108460000D01*
X153937334Y-105872532D01*
X175407073Y-105872532D01*
X175505736Y-106139387D01*
X176115461Y-106365908D01*
X176765460Y-106341856D01*
X177254264Y-106139387D01*
X177352927Y-105872532D01*
X181907073Y-105872532D01*
X182005736Y-106139387D01*
X182615461Y-106365908D01*
X183265460Y-106341856D01*
X183754264Y-106139387D01*
X183852927Y-105872532D01*
X182880000Y-104899605D01*
X181907073Y-105872532D01*
X177352927Y-105872532D01*
X176380000Y-104899605D01*
X175407073Y-105872532D01*
X153937334Y-105872532D01*
X152520263Y-104455461D01*
X174734092Y-104455461D01*
X174758144Y-105105460D01*
X174960613Y-105594264D01*
X175227468Y-105692927D01*
X176200395Y-104720000D01*
X176559605Y-104720000D01*
X177532532Y-105692927D01*
X177799387Y-105594264D01*
X178025908Y-104984539D01*
X178006331Y-104455461D01*
X181234092Y-104455461D01*
X181258144Y-105105460D01*
X181460613Y-105594264D01*
X181727468Y-105692927D01*
X182700395Y-104720000D01*
X183059605Y-104720000D01*
X184032532Y-105692927D01*
X184299387Y-105594264D01*
X184525908Y-104984539D01*
X184501856Y-104334540D01*
X184299387Y-103845736D01*
X184032532Y-103747073D01*
X183059605Y-104720000D01*
X182700395Y-104720000D01*
X181727468Y-103747073D01*
X181460613Y-103845736D01*
X181234092Y-104455461D01*
X178006331Y-104455461D01*
X178001856Y-104334540D01*
X177799387Y-103845736D01*
X177532532Y-103747073D01*
X176559605Y-104720000D01*
X176200395Y-104720000D01*
X175227468Y-103747073D01*
X174960613Y-103845736D01*
X174734092Y-104455461D01*
X152520263Y-104455461D01*
X152469801Y-104405000D01*
X152705330Y-104405000D01*
X153269507Y-104171310D01*
X153701310Y-103739507D01*
X153772570Y-103567468D01*
X175407073Y-103567468D01*
X176380000Y-104540395D01*
X177352927Y-103567468D01*
X181907073Y-103567468D01*
X182880000Y-104540395D01*
X183852927Y-103567468D01*
X183754264Y-103300613D01*
X183144539Y-103074092D01*
X182494540Y-103098144D01*
X182005736Y-103300613D01*
X181907073Y-103567468D01*
X177352927Y-103567468D01*
X177254264Y-103300613D01*
X176644539Y-103074092D01*
X175994540Y-103098144D01*
X175505736Y-103300613D01*
X175407073Y-103567468D01*
X153772570Y-103567468D01*
X153935000Y-103175330D01*
X153935000Y-102564670D01*
X153701310Y-102000493D01*
X153269507Y-101568690D01*
X153265668Y-101567100D01*
X167564953Y-101567100D01*
X167639800Y-101581988D01*
X167714647Y-101567100D01*
X167714652Y-101567100D01*
X167936337Y-101523004D01*
X168187729Y-101355029D01*
X168230131Y-101291570D01*
X170636173Y-98885529D01*
X170699629Y-98843129D01*
X170867604Y-98591737D01*
X170911700Y-98370052D01*
X170911700Y-98370048D01*
X170926588Y-98295201D01*
X170911700Y-98220354D01*
X170911700Y-74003746D01*
X170926588Y-73928899D01*
X170911700Y-73854052D01*
X170911700Y-73854048D01*
X170867604Y-73632363D01*
X170699629Y-73380971D01*
X170636170Y-73338569D01*
X170517731Y-73220130D01*
X170475329Y-73156671D01*
X170223937Y-72988696D01*
X170002252Y-72944600D01*
X170002247Y-72944600D01*
X169927400Y-72929712D01*
X169852553Y-72944600D01*
X149795546Y-72944600D01*
X149720699Y-72929712D01*
X149645852Y-72944600D01*
X149645848Y-72944600D01*
X149424163Y-72988696D01*
X149424161Y-72988697D01*
X149424162Y-72988697D01*
X149236226Y-73114271D01*
X149236224Y-73114273D01*
X149172771Y-73156671D01*
X149130373Y-73220124D01*
X148394831Y-73955667D01*
X148354577Y-73895423D01*
X147879909Y-73578260D01*
X147461333Y-73495000D01*
X147178667Y-73495000D01*
X146760091Y-73578260D01*
X146285423Y-73895423D01*
X146106878Y-74162634D01*
X146069848Y-74170000D01*
X146022344Y-74179449D01*
X145996534Y-74117138D01*
X145592862Y-73713466D01*
X145065439Y-73495000D01*
X144494561Y-73495000D01*
X143967138Y-73713466D01*
X143563466Y-74117138D01*
X143345000Y-74644561D01*
X143345000Y-75215439D01*
X143438016Y-75440000D01*
X135981668Y-75440000D01*
X136083113Y-74930000D01*
X135971740Y-74370091D01*
X135654577Y-73895423D01*
X135179909Y-73578260D01*
X134761333Y-73495000D01*
X134478667Y-73495000D01*
X134060091Y-73578260D01*
X133585423Y-73895423D01*
X133401957Y-74170000D01*
X129814802Y-74170000D01*
X129643103Y-73998302D01*
X129665000Y-73945439D01*
X129665000Y-73374561D01*
X129446534Y-72847138D01*
X129042862Y-72443466D01*
X128515439Y-72225000D01*
X127944561Y-72225000D01*
X127417138Y-72443466D01*
X127013466Y-72847138D01*
X126986475Y-72912299D01*
X126983864Y-72905995D01*
X126737745Y-72831861D01*
X125909605Y-73660000D01*
X126737745Y-74488139D01*
X126983864Y-74414005D01*
X126986290Y-74407254D01*
X127013466Y-74472862D01*
X127417138Y-74876534D01*
X127546216Y-74930000D01*
X127417138Y-74983466D01*
X127013466Y-75387138D01*
X126986475Y-75452299D01*
X126983864Y-75445995D01*
X126737745Y-75371861D01*
X125909605Y-76200000D01*
X126737745Y-77028139D01*
X126983864Y-76954005D01*
X126986290Y-76947254D01*
X127013466Y-77012862D01*
X127417138Y-77416534D01*
X127944561Y-77635000D01*
X128515439Y-77635000D01*
X129042862Y-77416534D01*
X129446534Y-77012862D01*
X129468430Y-76960000D01*
X145167153Y-76960000D01*
X145242000Y-76974888D01*
X145316847Y-76960000D01*
X145316852Y-76960000D01*
X145538537Y-76915904D01*
X145789929Y-76747929D01*
X145832331Y-76684470D01*
X146445359Y-76071443D01*
X146760091Y-76281740D01*
X147178667Y-76365000D01*
X147461333Y-76365000D01*
X147879909Y-76281740D01*
X148354577Y-75964577D01*
X148533123Y-75697365D01*
X148570147Y-75690000D01*
X148570152Y-75690000D01*
X148791837Y-75645904D01*
X149043229Y-75477929D01*
X149085631Y-75414470D01*
X150035503Y-74464600D01*
X156119542Y-74464600D01*
X156045000Y-74644561D01*
X156045000Y-75215439D01*
X156066896Y-75268302D01*
X153310499Y-78024700D01*
X130795447Y-78024700D01*
X130720600Y-78009812D01*
X130645753Y-78024700D01*
X130645748Y-78024700D01*
X130424063Y-78068796D01*
X130172671Y-78236771D01*
X130130271Y-78300227D01*
X129638091Y-78792408D01*
X129577809Y-78702191D01*
X129367765Y-78561843D01*
X129120000Y-78512560D01*
X127420000Y-78512560D01*
X127172235Y-78561843D01*
X126962191Y-78702191D01*
X126821843Y-78912235D01*
X126801261Y-79015708D01*
X126496924Y-78738355D01*
X126086890Y-78568524D01*
X125857000Y-78689845D01*
X125857000Y-79883000D01*
X125877000Y-79883000D01*
X125877000Y-80137000D01*
X125857000Y-80137000D01*
X125857000Y-81330155D01*
X126086890Y-81451476D01*
X126496924Y-81281645D01*
X126801261Y-81004292D01*
X126821843Y-81107765D01*
X126962191Y-81317809D01*
X127172235Y-81458157D01*
X127420000Y-81507440D01*
X129120000Y-81507440D01*
X129367765Y-81458157D01*
X129577809Y-81317809D01*
X129718157Y-81107765D01*
X129767440Y-80860000D01*
X129767440Y-80730757D01*
X129791837Y-80725904D01*
X130043229Y-80557929D01*
X130085631Y-80494470D01*
X130213209Y-80366892D01*
X136988514Y-80366892D01*
X137234817Y-80891358D01*
X137663076Y-81281645D01*
X138073110Y-81451476D01*
X138303000Y-81330155D01*
X138303000Y-80137000D01*
X137109181Y-80137000D01*
X136988514Y-80366892D01*
X130213209Y-80366892D01*
X131035402Y-79544700D01*
X137039425Y-79544700D01*
X136988514Y-79653108D01*
X137109181Y-79883000D01*
X138303000Y-79883000D01*
X138303000Y-79863000D01*
X138557000Y-79863000D01*
X138557000Y-79883000D01*
X138577000Y-79883000D01*
X138577000Y-80137000D01*
X138557000Y-80137000D01*
X138557000Y-81330155D01*
X138786890Y-81451476D01*
X139196924Y-81281645D01*
X139501261Y-81004292D01*
X139521843Y-81107765D01*
X139662191Y-81317809D01*
X139872235Y-81458157D01*
X140120000Y-81507440D01*
X141820000Y-81507440D01*
X142067765Y-81458157D01*
X142277809Y-81317809D01*
X142418157Y-81107765D01*
X142467440Y-80860000D01*
X142467440Y-80366892D01*
X149688514Y-80366892D01*
X149934817Y-80891358D01*
X150363076Y-81281645D01*
X150773110Y-81451476D01*
X151003000Y-81330155D01*
X151003000Y-80137000D01*
X149809181Y-80137000D01*
X149688514Y-80366892D01*
X142467440Y-80366892D01*
X142467440Y-79544700D01*
X149739425Y-79544700D01*
X149688514Y-79653108D01*
X149809181Y-79883000D01*
X151003000Y-79883000D01*
X151003000Y-79863000D01*
X151257000Y-79863000D01*
X151257000Y-79883000D01*
X151277000Y-79883000D01*
X151277000Y-80137000D01*
X151257000Y-80137000D01*
X151257000Y-81330155D01*
X151486890Y-81451476D01*
X151896924Y-81281645D01*
X152201261Y-81004292D01*
X152221843Y-81107765D01*
X152362191Y-81317809D01*
X152572235Y-81458157D01*
X152820000Y-81507440D01*
X154520000Y-81507440D01*
X154767765Y-81458157D01*
X154977809Y-81317809D01*
X155118157Y-81107765D01*
X155167440Y-80860000D01*
X155167440Y-79160000D01*
X155118157Y-78912235D01*
X154977809Y-78702191D01*
X154860796Y-78624005D01*
X157141698Y-76343104D01*
X157194561Y-76365000D01*
X157765439Y-76365000D01*
X158292862Y-76146534D01*
X158696534Y-75742862D01*
X158915000Y-75215439D01*
X158915000Y-74644561D01*
X158840458Y-74464600D01*
X164979472Y-74464600D01*
X164928514Y-74573108D01*
X165049181Y-74803000D01*
X166243000Y-74803000D01*
X166243000Y-74783000D01*
X166497000Y-74783000D01*
X166497000Y-74803000D01*
X166517000Y-74803000D01*
X166517000Y-75057000D01*
X166497000Y-75057000D01*
X166497000Y-75077000D01*
X166243000Y-75077000D01*
X166243000Y-75057000D01*
X165049181Y-75057000D01*
X164928514Y-75286892D01*
X165174817Y-75811358D01*
X165603076Y-76201645D01*
X165731119Y-76254679D01*
X157697199Y-84288600D01*
X127116247Y-84288600D01*
X127041400Y-84273712D01*
X126966553Y-84288600D01*
X126966548Y-84288600D01*
X126744863Y-84332696D01*
X126493471Y-84500671D01*
X126451071Y-84564127D01*
X124874839Y-86140360D01*
X124765330Y-86095000D01*
X124154670Y-86095000D01*
X123590493Y-86328690D01*
X123158690Y-86760493D01*
X122925000Y-87324670D01*
X122925000Y-87630909D01*
X121360000Y-86065910D01*
X121360000Y-80366892D01*
X124288514Y-80366892D01*
X124534817Y-80891358D01*
X124963076Y-81281645D01*
X125373110Y-81451476D01*
X125603000Y-81330155D01*
X125603000Y-80137000D01*
X124409181Y-80137000D01*
X124288514Y-80366892D01*
X121360000Y-80366892D01*
X121360000Y-79653108D01*
X124288514Y-79653108D01*
X124409181Y-79883000D01*
X125603000Y-79883000D01*
X125603000Y-78689845D01*
X125373110Y-78568524D01*
X124963076Y-78738355D01*
X124534817Y-79128642D01*
X124288514Y-79653108D01*
X121360000Y-79653108D01*
X121360000Y-77207745D01*
X124901861Y-77207745D01*
X124975995Y-77453864D01*
X125513223Y-77646965D01*
X126083454Y-77619778D01*
X126484005Y-77453864D01*
X126558139Y-77207745D01*
X125730000Y-76379605D01*
X124901861Y-77207745D01*
X121360000Y-77207745D01*
X121360000Y-75983223D01*
X124283035Y-75983223D01*
X124310222Y-76553454D01*
X124476136Y-76954005D01*
X124722255Y-77028139D01*
X125550395Y-76200000D01*
X124722255Y-75371861D01*
X124476136Y-75445995D01*
X124283035Y-75983223D01*
X121360000Y-75983223D01*
X121360000Y-74667745D01*
X124901861Y-74667745D01*
X124975995Y-74913864D01*
X125017709Y-74928858D01*
X124975995Y-74946136D01*
X124901861Y-75192255D01*
X125730000Y-76020395D01*
X126558139Y-75192255D01*
X126484005Y-74946136D01*
X126442291Y-74931142D01*
X126484005Y-74913864D01*
X126558139Y-74667745D01*
X125730000Y-73839605D01*
X124901861Y-74667745D01*
X121360000Y-74667745D01*
X121360000Y-73443223D01*
X124283035Y-73443223D01*
X124310222Y-74013454D01*
X124476136Y-74414005D01*
X124722255Y-74488139D01*
X125550395Y-73660000D01*
X124722255Y-72831861D01*
X124476136Y-72905995D01*
X124283035Y-73443223D01*
X121360000Y-73443223D01*
X121360000Y-72652255D01*
X124901861Y-72652255D01*
X125730000Y-73480395D01*
X126558139Y-72652255D01*
X126484005Y-72406136D01*
X125946777Y-72213035D01*
X125376546Y-72240222D01*
X124975995Y-72406136D01*
X124901861Y-72652255D01*
X121360000Y-72652255D01*
X121360000Y-67730000D01*
X124232560Y-67730000D01*
X124232560Y-69430000D01*
X124281843Y-69677765D01*
X124422191Y-69887809D01*
X124632235Y-70028157D01*
X124880000Y-70077440D01*
X126580000Y-70077440D01*
X126827765Y-70028157D01*
X127037809Y-69887809D01*
X127178157Y-69677765D01*
X127198739Y-69574292D01*
X127503076Y-69851645D01*
X127913110Y-70021476D01*
X128143000Y-69900155D01*
X128143000Y-68707000D01*
X128123000Y-68707000D01*
X128123000Y-68453000D01*
X128143000Y-68453000D01*
X128143000Y-67259845D01*
X128397000Y-67259845D01*
X128397000Y-68453000D01*
X128417000Y-68453000D01*
X128417000Y-68707000D01*
X128397000Y-68707000D01*
X128397000Y-69900155D01*
X128626890Y-70021476D01*
X129036924Y-69851645D01*
X129465183Y-69461358D01*
X129526157Y-69331522D01*
X129739375Y-69650625D01*
X130230582Y-69978839D01*
X130663744Y-70065000D01*
X130956256Y-70065000D01*
X131389418Y-69978839D01*
X131880625Y-69650625D01*
X132080000Y-69352239D01*
X132279375Y-69650625D01*
X132770582Y-69978839D01*
X133203744Y-70065000D01*
X133496256Y-70065000D01*
X133929418Y-69978839D01*
X134420625Y-69650625D01*
X134480906Y-69560408D01*
X135210373Y-70289876D01*
X135252771Y-70353329D01*
X135316224Y-70395727D01*
X135316226Y-70395729D01*
X135441602Y-70479502D01*
X135504163Y-70521304D01*
X135725848Y-70565400D01*
X135725852Y-70565400D01*
X135800699Y-70580288D01*
X135875546Y-70565400D01*
X151603953Y-70565400D01*
X151678800Y-70580288D01*
X151753647Y-70565400D01*
X151753652Y-70565400D01*
X151975337Y-70521304D01*
X152226729Y-70353329D01*
X152269131Y-70289870D01*
X152784608Y-69774394D01*
X153090582Y-69978839D01*
X153523744Y-70065000D01*
X153816256Y-70065000D01*
X154249418Y-69978839D01*
X154740625Y-69650625D01*
X154800906Y-69560408D01*
X155530373Y-70289876D01*
X155572771Y-70353329D01*
X155636224Y-70395727D01*
X155636226Y-70395729D01*
X155761602Y-70479502D01*
X155824163Y-70521304D01*
X156045848Y-70565400D01*
X156045852Y-70565400D01*
X156120699Y-70580288D01*
X156195546Y-70565400D01*
X171923953Y-70565400D01*
X171998800Y-70580288D01*
X172073647Y-70565400D01*
X172073652Y-70565400D01*
X172295337Y-70521304D01*
X172546729Y-70353329D01*
X172589131Y-70289870D01*
X173104608Y-69774394D01*
X173410582Y-69978839D01*
X173843744Y-70065000D01*
X174136256Y-70065000D01*
X174569418Y-69978839D01*
X175060625Y-69650625D01*
X175388839Y-69159418D01*
X175504092Y-68580000D01*
X175435445Y-68234887D01*
X181145000Y-68234887D01*
X181145000Y-68925113D01*
X181409138Y-69562799D01*
X181897201Y-70050862D01*
X182534887Y-70315000D01*
X183225113Y-70315000D01*
X183862799Y-70050862D01*
X184350862Y-69562799D01*
X184615000Y-68925113D01*
X184615000Y-68234887D01*
X184350862Y-67597201D01*
X183862799Y-67109138D01*
X183225113Y-66845000D01*
X182534887Y-66845000D01*
X181897201Y-67109138D01*
X181409138Y-67597201D01*
X181145000Y-68234887D01*
X175435445Y-68234887D01*
X175388839Y-68000582D01*
X175060625Y-67509375D01*
X174569418Y-67181161D01*
X174136256Y-67095000D01*
X173843744Y-67095000D01*
X173410582Y-67181161D01*
X172919375Y-67509375D01*
X172720000Y-67807761D01*
X172520625Y-67509375D01*
X172029418Y-67181161D01*
X171596256Y-67095000D01*
X171303744Y-67095000D01*
X170870582Y-67181161D01*
X170379375Y-67509375D01*
X170166157Y-67828478D01*
X170105183Y-67698642D01*
X169676924Y-67308355D01*
X169266890Y-67138524D01*
X169037000Y-67259845D01*
X169037000Y-68453000D01*
X169057000Y-68453000D01*
X169057000Y-68707000D01*
X169037000Y-68707000D01*
X169037000Y-68727000D01*
X168783000Y-68727000D01*
X168783000Y-68707000D01*
X168763000Y-68707000D01*
X168763000Y-68453000D01*
X168783000Y-68453000D01*
X168783000Y-67259845D01*
X168553110Y-67138524D01*
X168143076Y-67308355D01*
X167838739Y-67585708D01*
X167818157Y-67482235D01*
X167677809Y-67272191D01*
X167467765Y-67131843D01*
X167220000Y-67082560D01*
X165520000Y-67082560D01*
X165272235Y-67131843D01*
X165062191Y-67272191D01*
X165001909Y-67362408D01*
X164509731Y-66870230D01*
X164467329Y-66806771D01*
X164215937Y-66638796D01*
X163994252Y-66594700D01*
X163994247Y-66594700D01*
X163919400Y-66579812D01*
X163844553Y-66594700D01*
X148115846Y-66594700D01*
X148040999Y-66579812D01*
X147966152Y-66594700D01*
X147966148Y-66594700D01*
X147744463Y-66638796D01*
X147744461Y-66638797D01*
X147744462Y-66638797D01*
X147556526Y-66764371D01*
X147556524Y-66764373D01*
X147493071Y-66806771D01*
X147450673Y-66870225D01*
X147172516Y-67148381D01*
X147147765Y-67131843D01*
X146900000Y-67082560D01*
X145200000Y-67082560D01*
X144952235Y-67131843D01*
X144742191Y-67272191D01*
X144601843Y-67482235D01*
X144552560Y-67730000D01*
X144552560Y-69045400D01*
X136115503Y-69045400D01*
X135165631Y-68095530D01*
X135123229Y-68032071D01*
X134871837Y-67864096D01*
X134650152Y-67820000D01*
X134650147Y-67820000D01*
X134624811Y-67814960D01*
X134420625Y-67509375D01*
X133929418Y-67181161D01*
X133496256Y-67095000D01*
X133203744Y-67095000D01*
X132770582Y-67181161D01*
X132279375Y-67509375D01*
X132080000Y-67807761D01*
X131880625Y-67509375D01*
X131389418Y-67181161D01*
X130956256Y-67095000D01*
X130663744Y-67095000D01*
X130230582Y-67181161D01*
X129739375Y-67509375D01*
X129526157Y-67828478D01*
X129465183Y-67698642D01*
X129036924Y-67308355D01*
X128626890Y-67138524D01*
X128397000Y-67259845D01*
X128143000Y-67259845D01*
X127913110Y-67138524D01*
X127503076Y-67308355D01*
X127198739Y-67585708D01*
X127178157Y-67482235D01*
X127037809Y-67272191D01*
X126827765Y-67131843D01*
X126580000Y-67082560D01*
X124880000Y-67082560D01*
X124632235Y-67131843D01*
X124422191Y-67272191D01*
X124281843Y-67482235D01*
X124232560Y-67730000D01*
X121360000Y-67730000D01*
X121360000Y-65505000D01*
X185980001Y-65505000D01*
X185980000Y-88461196D01*
G36*
X148717000Y-68453000D02*
X148737000Y-68453000D01*
X148737000Y-68707000D01*
X148717000Y-68707000D01*
X148717000Y-68727000D01*
X148463000Y-68727000D01*
X148463000Y-68707000D01*
X148443000Y-68707000D01*
X148443000Y-68453000D01*
X148463000Y-68453000D01*
X148463000Y-68433000D01*
X148717000Y-68433000D01*
X148717000Y-68453000D01*
X148717000Y-68453000D01*
G37*
X148717000Y-68453000D02*
X148737000Y-68453000D01*
X148737000Y-68707000D01*
X148717000Y-68707000D01*
X148717000Y-68727000D01*
X148463000Y-68727000D01*
X148463000Y-68707000D01*
X148443000Y-68707000D01*
X148443000Y-68453000D01*
X148463000Y-68453000D01*
X148463000Y-68433000D01*
X148717000Y-68433000D01*
X148717000Y-68453000D01*
G36*
X146450493Y-104171310D02*
X147014670Y-104405000D01*
X147625330Y-104405000D01*
X147734839Y-104359640D01*
X148503170Y-105127972D01*
X148545571Y-105191429D01*
X148609027Y-105233829D01*
X148796962Y-105359404D01*
X148845105Y-105368980D01*
X149018648Y-105403500D01*
X149018652Y-105403500D01*
X149093500Y-105418388D01*
X149168348Y-105403500D01*
X150141399Y-105403500D01*
X152522898Y-107785000D01*
X152258667Y-107785000D01*
X151840091Y-107868260D01*
X151365423Y-108185423D01*
X151048260Y-108660091D01*
X150936887Y-109220000D01*
X151048260Y-109779909D01*
X151365423Y-110254577D01*
X151840091Y-110571740D01*
X152258667Y-110655000D01*
X152541333Y-110655000D01*
X152959909Y-110571740D01*
X153434577Y-110254577D01*
X153751740Y-109779909D01*
X153863113Y-109220000D01*
X153839578Y-109101679D01*
X157659324Y-112921426D01*
X157607000Y-112973750D01*
X157607000Y-114173000D01*
X159893000Y-114173000D01*
X159893000Y-114153000D01*
X160147000Y-114153000D01*
X160147000Y-114173000D01*
X162433000Y-114173000D01*
X162433000Y-114153000D01*
X162687000Y-114153000D01*
X162687000Y-114173000D01*
X162707000Y-114173000D01*
X162707000Y-114427000D01*
X162687000Y-114427000D01*
X162687000Y-114447000D01*
X162433000Y-114447000D01*
X162433000Y-114427000D01*
X160147000Y-114427000D01*
X160147000Y-114447000D01*
X159893000Y-114447000D01*
X159893000Y-114427000D01*
X157607000Y-114427000D01*
X157607000Y-114447000D01*
X157353000Y-114447000D01*
X157353000Y-114427000D01*
X156153750Y-114427000D01*
X155995000Y-114585750D01*
X155995000Y-114765400D01*
X150866603Y-114765400D01*
X149424894Y-113323691D01*
X155995000Y-113323691D01*
X155995000Y-114014250D01*
X156153750Y-114173000D01*
X157353000Y-114173000D01*
X157353000Y-112973750D01*
X157194250Y-112815000D01*
X156503690Y-112815000D01*
X156270301Y-112911673D01*
X156091673Y-113090302D01*
X155995000Y-113323691D01*
X149424894Y-113323691D01*
X140359499Y-104258298D01*
X140569507Y-104171310D01*
X140970000Y-103770817D01*
X141370493Y-104171310D01*
X141934670Y-104405000D01*
X142545330Y-104405000D01*
X143109507Y-104171310D01*
X143510000Y-103770817D01*
X143910493Y-104171310D01*
X144474670Y-104405000D01*
X145085330Y-104405000D01*
X145649507Y-104171310D01*
X146050000Y-103770817D01*
X146450493Y-104171310D01*
X146450493Y-104171310D01*
G37*
X146450493Y-104171310D02*
X147014670Y-104405000D01*
X147625330Y-104405000D01*
X147734839Y-104359640D01*
X148503170Y-105127972D01*
X148545571Y-105191429D01*
X148609027Y-105233829D01*
X148796962Y-105359404D01*
X148845105Y-105368980D01*
X149018648Y-105403500D01*
X149018652Y-105403500D01*
X149093500Y-105418388D01*
X149168348Y-105403500D01*
X150141399Y-105403500D01*
X152522898Y-107785000D01*
X152258667Y-107785000D01*
X151840091Y-107868260D01*
X151365423Y-108185423D01*
X151048260Y-108660091D01*
X150936887Y-109220000D01*
X151048260Y-109779909D01*
X151365423Y-110254577D01*
X151840091Y-110571740D01*
X152258667Y-110655000D01*
X152541333Y-110655000D01*
X152959909Y-110571740D01*
X153434577Y-110254577D01*
X153751740Y-109779909D01*
X153863113Y-109220000D01*
X153839578Y-109101679D01*
X157659324Y-112921426D01*
X157607000Y-112973750D01*
X157607000Y-114173000D01*
X159893000Y-114173000D01*
X159893000Y-114153000D01*
X160147000Y-114153000D01*
X160147000Y-114173000D01*
X162433000Y-114173000D01*
X162433000Y-114153000D01*
X162687000Y-114153000D01*
X162687000Y-114173000D01*
X162707000Y-114173000D01*
X162707000Y-114427000D01*
X162687000Y-114427000D01*
X162687000Y-114447000D01*
X162433000Y-114447000D01*
X162433000Y-114427000D01*
X160147000Y-114427000D01*
X160147000Y-114447000D01*
X159893000Y-114447000D01*
X159893000Y-114427000D01*
X157607000Y-114427000D01*
X157607000Y-114447000D01*
X157353000Y-114447000D01*
X157353000Y-114427000D01*
X156153750Y-114427000D01*
X155995000Y-114585750D01*
X155995000Y-114765400D01*
X150866603Y-114765400D01*
X149424894Y-113323691D01*
X155995000Y-113323691D01*
X155995000Y-114014250D01*
X156153750Y-114173000D01*
X157353000Y-114173000D01*
X157353000Y-112973750D01*
X157194250Y-112815000D01*
X156503690Y-112815000D01*
X156270301Y-112911673D01*
X156091673Y-113090302D01*
X155995000Y-113323691D01*
X149424894Y-113323691D01*
X140359499Y-104258298D01*
X140569507Y-104171310D01*
X140970000Y-103770817D01*
X141370493Y-104171310D01*
X141934670Y-104405000D01*
X142545330Y-104405000D01*
X143109507Y-104171310D01*
X143510000Y-103770817D01*
X143910493Y-104171310D01*
X144474670Y-104405000D01*
X145085330Y-104405000D01*
X145649507Y-104171310D01*
X146050000Y-103770817D01*
X146450493Y-104171310D01*
G36*
X167812235Y-76378157D02*
X168060000Y-76427440D01*
X169391700Y-76427440D01*
X169391701Y-97980397D01*
X168735047Y-98637052D01*
X168710564Y-98577945D01*
X168452619Y-98320000D01*
X168710564Y-98062055D01*
X168910000Y-97580575D01*
X168910000Y-97059425D01*
X168710564Y-96577945D01*
X168452619Y-96320000D01*
X168710564Y-96062055D01*
X168910000Y-95580575D01*
X168910000Y-95059425D01*
X168710564Y-94577945D01*
X168452619Y-94320000D01*
X168710564Y-94062055D01*
X168910000Y-93580575D01*
X168910000Y-93059425D01*
X168710564Y-92577945D01*
X168452619Y-92320000D01*
X168710564Y-92062055D01*
X168910000Y-91580575D01*
X168910000Y-91059425D01*
X168710564Y-90577945D01*
X168452619Y-90320000D01*
X168710564Y-90062055D01*
X168910000Y-89580575D01*
X168910000Y-89059425D01*
X168710564Y-88577945D01*
X168342055Y-88209436D01*
X168287045Y-88186650D01*
X168135000Y-88034605D01*
X168135000Y-87675395D01*
X168517147Y-88057542D01*
X168750328Y-87998781D01*
X168922522Y-87506900D01*
X168893375Y-86986566D01*
X168750328Y-86641219D01*
X168517147Y-86582458D01*
X168135000Y-86964605D01*
X168135000Y-86605395D01*
X168287045Y-86453350D01*
X168342055Y-86430564D01*
X168710564Y-86062055D01*
X168910000Y-85580575D01*
X168910000Y-85059425D01*
X168710564Y-84577945D01*
X168342055Y-84209436D01*
X167860575Y-84010000D01*
X167562541Y-84010000D01*
X167500000Y-83997560D01*
X165700000Y-83997560D01*
X165452235Y-84046843D01*
X165242191Y-84187191D01*
X165101843Y-84397235D01*
X165052560Y-84645000D01*
X165052560Y-85995000D01*
X165101843Y-86242765D01*
X165149654Y-86314318D01*
X165065000Y-86518690D01*
X165065000Y-87034250D01*
X165223750Y-87193000D01*
X166280833Y-87193000D01*
X166295061Y-87447000D01*
X165223750Y-87447000D01*
X165065000Y-87605750D01*
X165065000Y-88121310D01*
X165149654Y-88325682D01*
X165101843Y-88397235D01*
X165069467Y-88560000D01*
X163250102Y-88560000D01*
X161835631Y-87145530D01*
X161793229Y-87082071D01*
X161541837Y-86914096D01*
X161517440Y-86909243D01*
X161517440Y-86780000D01*
X161468157Y-86532235D01*
X161327809Y-86322191D01*
X161117765Y-86181843D01*
X160870000Y-86132560D01*
X159170000Y-86132560D01*
X158922235Y-86181843D01*
X158712191Y-86322191D01*
X158571843Y-86532235D01*
X158522560Y-86780000D01*
X158522560Y-88480000D01*
X158571843Y-88727765D01*
X158712191Y-88937809D01*
X158922235Y-89078157D01*
X158967619Y-89087184D01*
X158949375Y-89099375D01*
X158889094Y-89189592D01*
X155528231Y-85828730D01*
X155514781Y-85808600D01*
X157937153Y-85808600D01*
X158012000Y-85823488D01*
X158086847Y-85808600D01*
X158086852Y-85808600D01*
X158308537Y-85764504D01*
X158559929Y-85596529D01*
X158602331Y-85533070D01*
X167779271Y-76356131D01*
X167812235Y-76378157D01*
X167812235Y-76378157D01*
G37*
X167812235Y-76378157D02*
X168060000Y-76427440D01*
X169391700Y-76427440D01*
X169391701Y-97980397D01*
X168735047Y-98637052D01*
X168710564Y-98577945D01*
X168452619Y-98320000D01*
X168710564Y-98062055D01*
X168910000Y-97580575D01*
X168910000Y-97059425D01*
X168710564Y-96577945D01*
X168452619Y-96320000D01*
X168710564Y-96062055D01*
X168910000Y-95580575D01*
X168910000Y-95059425D01*
X168710564Y-94577945D01*
X168452619Y-94320000D01*
X168710564Y-94062055D01*
X168910000Y-93580575D01*
X168910000Y-93059425D01*
X168710564Y-92577945D01*
X168452619Y-92320000D01*
X168710564Y-92062055D01*
X168910000Y-91580575D01*
X168910000Y-91059425D01*
X168710564Y-90577945D01*
X168452619Y-90320000D01*
X168710564Y-90062055D01*
X168910000Y-89580575D01*
X168910000Y-89059425D01*
X168710564Y-88577945D01*
X168342055Y-88209436D01*
X168287045Y-88186650D01*
X168135000Y-88034605D01*
X168135000Y-87675395D01*
X168517147Y-88057542D01*
X168750328Y-87998781D01*
X168922522Y-87506900D01*
X168893375Y-86986566D01*
X168750328Y-86641219D01*
X168517147Y-86582458D01*
X168135000Y-86964605D01*
X168135000Y-86605395D01*
X168287045Y-86453350D01*
X168342055Y-86430564D01*
X168710564Y-86062055D01*
X168910000Y-85580575D01*
X168910000Y-85059425D01*
X168710564Y-84577945D01*
X168342055Y-84209436D01*
X167860575Y-84010000D01*
X167562541Y-84010000D01*
X167500000Y-83997560D01*
X165700000Y-83997560D01*
X165452235Y-84046843D01*
X165242191Y-84187191D01*
X165101843Y-84397235D01*
X165052560Y-84645000D01*
X165052560Y-85995000D01*
X165101843Y-86242765D01*
X165149654Y-86314318D01*
X165065000Y-86518690D01*
X165065000Y-87034250D01*
X165223750Y-87193000D01*
X166280833Y-87193000D01*
X166295061Y-87447000D01*
X165223750Y-87447000D01*
X165065000Y-87605750D01*
X165065000Y-88121310D01*
X165149654Y-88325682D01*
X165101843Y-88397235D01*
X165069467Y-88560000D01*
X163250102Y-88560000D01*
X161835631Y-87145530D01*
X161793229Y-87082071D01*
X161541837Y-86914096D01*
X161517440Y-86909243D01*
X161517440Y-86780000D01*
X161468157Y-86532235D01*
X161327809Y-86322191D01*
X161117765Y-86181843D01*
X160870000Y-86132560D01*
X159170000Y-86132560D01*
X158922235Y-86181843D01*
X158712191Y-86322191D01*
X158571843Y-86532235D01*
X158522560Y-86780000D01*
X158522560Y-88480000D01*
X158571843Y-88727765D01*
X158712191Y-88937809D01*
X158922235Y-89078157D01*
X158967619Y-89087184D01*
X158949375Y-89099375D01*
X158889094Y-89189592D01*
X155528231Y-85828730D01*
X155514781Y-85808600D01*
X157937153Y-85808600D01*
X158012000Y-85823488D01*
X158086847Y-85808600D01*
X158086852Y-85808600D01*
X158308537Y-85764504D01*
X158559929Y-85596529D01*
X158602331Y-85533070D01*
X167779271Y-76356131D01*
X167812235Y-76378157D01*
%TD*%
M02*
